G04 EAGLE Gerber RS-274X export*
G75*
%MOMM*%
%FSLAX34Y34*%
%LPD*%
%INBottom Copper*%
%IPPOS*%
%AMOC8*
5,1,8,0,0,1.08239X$1,22.5*%
G01*
%ADD10C,1.308000*%
%ADD11C,1.879600*%
%ADD12R,1.270000X0.635000*%
%ADD13R,1.600000X1.800000*%
%ADD14R,1.600000X2.000000*%
%ADD15R,2.000000X1.600000*%
%ADD16C,0.700000*%
%ADD17C,0.500000*%
%ADD18C,0.756400*%

G36*
X789839Y10164D02*
X789839Y10164D01*
X789839Y10165D01*
X789839Y589835D01*
X789836Y589839D01*
X789835Y589839D01*
X10165Y589839D01*
X10161Y589836D01*
X10161Y589835D01*
X10161Y10165D01*
X10164Y10161D01*
X10165Y10161D01*
X789835Y10161D01*
X789839Y10164D01*
G37*
%LPC*%
G36*
X518508Y111699D02*
X518508Y111699D01*
X515751Y112841D01*
X456094Y172498D01*
X456092Y172498D01*
X456091Y172499D01*
X388508Y172499D01*
X385751Y173641D01*
X363141Y196251D01*
X361999Y199008D01*
X361999Y210452D01*
X361998Y210454D01*
X361998Y210455D01*
X360564Y211889D01*
X358959Y215763D01*
X358959Y233037D01*
X360564Y236911D01*
X361998Y238345D01*
X361998Y238346D01*
X361999Y238347D01*
X361999Y238348D01*
X361999Y246495D01*
X361996Y246499D01*
X361995Y246499D01*
X358505Y246499D01*
X358501Y246496D01*
X358501Y246495D01*
X358501Y242343D01*
X356157Y239999D01*
X349795Y239999D01*
X349793Y239998D01*
X349791Y239997D01*
X349791Y239996D01*
X349790Y239996D01*
X349792Y239994D01*
X349793Y239991D01*
X350071Y239876D01*
X353036Y236911D01*
X354641Y233037D01*
X354641Y215763D01*
X353036Y211889D01*
X350071Y208924D01*
X346197Y207319D01*
X342003Y207319D01*
X338129Y208924D01*
X335164Y211889D01*
X333559Y215763D01*
X333559Y233037D01*
X335164Y236911D01*
X338129Y239876D01*
X338407Y239991D01*
X338408Y239993D01*
X338410Y239994D01*
X338409Y239995D01*
X338410Y239996D01*
X338407Y239997D01*
X338405Y239999D01*
X336843Y239999D01*
X334499Y242343D01*
X334499Y265657D01*
X336843Y268001D01*
X356157Y268001D01*
X358501Y265657D01*
X358501Y261505D01*
X358504Y261501D01*
X358505Y261501D01*
X361995Y261501D01*
X361999Y261504D01*
X361999Y261505D01*
X361999Y271391D01*
X361998Y271393D01*
X361998Y271394D01*
X358508Y274884D01*
X358507Y274884D01*
X358506Y274886D01*
X358504Y274885D01*
X358502Y274885D01*
X358502Y274883D01*
X358501Y274881D01*
X358501Y273743D01*
X356157Y271399D01*
X336843Y271399D01*
X334499Y273743D01*
X334499Y297057D01*
X336843Y299401D01*
X347491Y299401D01*
X347493Y299402D01*
X347494Y299402D01*
X364451Y316359D01*
X366697Y317289D01*
X366698Y317292D01*
X366699Y317293D01*
X366699Y321657D01*
X369043Y324001D01*
X388357Y324001D01*
X390701Y321657D01*
X390701Y298343D01*
X388357Y295999D01*
X369043Y295999D01*
X367178Y297864D01*
X367176Y297864D01*
X367174Y297864D01*
X367172Y297865D01*
X367172Y297864D01*
X361593Y292285D01*
X361592Y292284D01*
X361593Y292283D01*
X361593Y292280D01*
X361594Y292280D01*
X361594Y292278D01*
X362849Y291759D01*
X375859Y278749D01*
X377001Y275992D01*
X377001Y265505D01*
X377004Y265501D01*
X377005Y265501D01*
X384726Y265501D01*
X384727Y265501D01*
X384728Y265502D01*
X384730Y265504D01*
X384730Y265505D01*
X384730Y265507D01*
X383717Y267952D01*
X383717Y271048D01*
X384902Y273909D01*
X387091Y276098D01*
X389952Y277283D01*
X390088Y277283D01*
X390089Y277284D01*
X390091Y277284D01*
X407488Y294682D01*
X408799Y295992D01*
X408799Y295993D01*
X408799Y295994D01*
X408800Y295994D01*
X408799Y295996D01*
X408799Y295998D01*
X408797Y295998D01*
X408796Y295999D01*
X397043Y295999D01*
X394699Y298343D01*
X394699Y321657D01*
X397043Y324001D01*
X416357Y324001D01*
X418701Y321657D01*
X418701Y317505D01*
X418704Y317501D01*
X418705Y317501D01*
X423445Y317501D01*
X423449Y317504D01*
X423449Y317505D01*
X423449Y321432D01*
X425793Y323776D01*
X431523Y323776D01*
X431524Y323776D01*
X432308Y324101D01*
X435292Y324101D01*
X436076Y323776D01*
X436077Y323776D01*
X441807Y323776D01*
X442292Y323291D01*
X442293Y323291D01*
X442294Y323290D01*
X442296Y323291D01*
X442298Y323291D01*
X442298Y323293D01*
X442299Y323294D01*
X442299Y325293D01*
X443289Y327682D01*
X445118Y329512D01*
X454099Y338492D01*
X454099Y338493D01*
X454099Y338494D01*
X454100Y338494D01*
X454099Y338496D01*
X454099Y338498D01*
X454097Y338498D01*
X454096Y338499D01*
X358505Y338499D01*
X358501Y338496D01*
X358501Y338495D01*
X358501Y333343D01*
X356157Y330999D01*
X336843Y330999D01*
X334499Y333343D01*
X334499Y356657D01*
X336843Y359001D01*
X356157Y359001D01*
X358501Y356657D01*
X358501Y351505D01*
X358504Y351501D01*
X358505Y351501D01*
X452306Y351501D01*
X452307Y351502D01*
X452309Y351502D01*
X532518Y431711D01*
X534907Y432701D01*
X540797Y432701D01*
X540801Y432704D01*
X540801Y432705D01*
X540801Y438263D01*
X542841Y443188D01*
X546610Y446957D01*
X551535Y448997D01*
X556865Y448997D01*
X561790Y446957D01*
X565559Y443188D01*
X566896Y439960D01*
X566897Y439959D01*
X566898Y439957D01*
X566899Y439958D01*
X566901Y439957D01*
X566902Y439959D01*
X566904Y439960D01*
X568241Y443188D01*
X572010Y446957D01*
X576935Y448997D01*
X582265Y448997D01*
X587190Y446957D01*
X590959Y443188D01*
X592296Y439960D01*
X592297Y439959D01*
X592298Y439957D01*
X592299Y439958D01*
X592301Y439957D01*
X592302Y439959D01*
X592304Y439960D01*
X593641Y443188D01*
X597410Y446957D01*
X602335Y448997D01*
X607665Y448997D01*
X612590Y446957D01*
X616359Y443188D01*
X618399Y438263D01*
X618399Y414137D01*
X616359Y409212D01*
X612590Y405443D01*
X607665Y403403D01*
X602335Y403403D01*
X597410Y405443D01*
X593641Y409212D01*
X592304Y412440D01*
X592303Y412441D01*
X592302Y412443D01*
X592301Y412442D01*
X592299Y412443D01*
X592298Y412441D01*
X592296Y412440D01*
X590959Y409212D01*
X587190Y405443D01*
X586503Y405159D01*
X586502Y405156D01*
X586501Y405155D01*
X586501Y393707D01*
X585511Y391318D01*
X569682Y375489D01*
X567293Y374499D01*
X523394Y374499D01*
X523393Y374498D01*
X523391Y374498D01*
X464302Y315409D01*
X464302Y315407D01*
X464301Y315406D01*
X464301Y306894D01*
X464302Y306893D01*
X464302Y306891D01*
X469642Y301551D01*
X469643Y301551D01*
X469644Y301550D01*
X469646Y301551D01*
X469648Y301551D01*
X469648Y301553D01*
X469649Y301554D01*
X469649Y308732D01*
X471993Y311076D01*
X472661Y311076D01*
X472663Y311077D01*
X472665Y311078D01*
X472664Y311079D01*
X472665Y311079D01*
X472663Y311081D01*
X472663Y311084D01*
X472211Y311271D01*
X471496Y311986D01*
X471109Y312920D01*
X471109Y316591D01*
X479995Y316591D01*
X479999Y316595D01*
X479999Y316601D01*
X480001Y316601D01*
X480001Y316595D01*
X480005Y316591D01*
X488891Y316591D01*
X488891Y312920D01*
X488504Y311986D01*
X487926Y311408D01*
X487926Y311407D01*
X487925Y311406D01*
X487926Y311404D01*
X487926Y311402D01*
X487928Y311402D01*
X487929Y311401D01*
X549092Y311401D01*
X551849Y310259D01*
X558859Y303249D01*
X560001Y300492D01*
X560001Y236208D01*
X558859Y233451D01*
X550980Y225573D01*
X550980Y225567D01*
X552859Y223688D01*
X554899Y218763D01*
X554899Y194637D01*
X552859Y189712D01*
X549090Y185943D01*
X549003Y185907D01*
X549002Y185904D01*
X549001Y185903D01*
X549001Y183109D01*
X549002Y183107D01*
X549002Y183106D01*
X552992Y179116D01*
X552993Y179116D01*
X552994Y179114D01*
X552996Y179115D01*
X552998Y179115D01*
X552998Y179117D01*
X552999Y179119D01*
X552999Y182657D01*
X555343Y185001D01*
X574657Y185001D01*
X577001Y182657D01*
X577001Y159343D01*
X574657Y156999D01*
X572705Y156999D01*
X572701Y156996D01*
X572701Y156995D01*
X572701Y154205D01*
X572704Y154201D01*
X572705Y154201D01*
X574857Y154201D01*
X577201Y151857D01*
X577201Y128543D01*
X575366Y126708D01*
X575366Y126707D01*
X575365Y126706D01*
X575366Y126704D01*
X575366Y126702D01*
X575368Y126702D01*
X575369Y126701D01*
X583031Y126701D01*
X583032Y126702D01*
X583034Y126702D01*
X583034Y126703D01*
X583035Y126704D01*
X583034Y126706D01*
X583034Y126708D01*
X581199Y128543D01*
X581199Y151857D01*
X583543Y154201D01*
X602857Y154201D01*
X605201Y151857D01*
X605201Y146205D01*
X605204Y146201D01*
X605205Y146201D01*
X606906Y146201D01*
X606907Y146202D01*
X606909Y146202D01*
X611198Y150491D01*
X611198Y150493D01*
X611199Y150494D01*
X611199Y185489D01*
X611197Y185492D01*
X611197Y185493D01*
X610110Y185943D01*
X606341Y189712D01*
X605004Y192940D01*
X605003Y192941D01*
X605002Y192943D01*
X605001Y192942D01*
X604999Y192943D01*
X604998Y192941D01*
X604996Y192940D01*
X603659Y189712D01*
X599890Y185943D01*
X599503Y185783D01*
X599502Y185781D01*
X599501Y185780D01*
X599501Y185779D01*
X599501Y185005D01*
X599504Y185001D01*
X599505Y185001D01*
X602657Y185001D01*
X605001Y182657D01*
X605001Y159343D01*
X602657Y156999D01*
X583343Y156999D01*
X580999Y159343D01*
X580999Y182657D01*
X583343Y185001D01*
X586495Y185001D01*
X586499Y185004D01*
X586499Y185005D01*
X586499Y185199D01*
X586497Y185202D01*
X586497Y185203D01*
X584710Y185943D01*
X580941Y189712D01*
X578901Y194637D01*
X578901Y218763D01*
X580941Y223688D01*
X584710Y227457D01*
X589635Y229497D01*
X594965Y229497D01*
X599890Y227457D01*
X603659Y223688D01*
X604996Y220460D01*
X604997Y220459D01*
X604998Y220457D01*
X604999Y220458D01*
X605001Y220457D01*
X605002Y220459D01*
X605004Y220460D01*
X606341Y223688D01*
X610110Y227457D01*
X615035Y229497D01*
X620365Y229497D01*
X625290Y227457D01*
X629059Y223688D01*
X631099Y218763D01*
X631099Y194637D01*
X629059Y189712D01*
X625290Y185943D01*
X624203Y185493D01*
X624202Y185490D01*
X624201Y185489D01*
X624201Y146507D01*
X623211Y144118D01*
X613282Y134189D01*
X610893Y133199D01*
X605205Y133199D01*
X605201Y133196D01*
X605201Y133195D01*
X605201Y128543D01*
X603366Y126708D01*
X603366Y126707D01*
X603365Y126706D01*
X603366Y126704D01*
X603366Y126702D01*
X603368Y126702D01*
X603369Y126701D01*
X639591Y126701D01*
X639593Y126702D01*
X639594Y126702D01*
X648298Y135406D01*
X648298Y135407D01*
X648299Y135408D01*
X648299Y135409D01*
X648299Y380695D01*
X648296Y380699D01*
X648295Y380699D01*
X639343Y380699D01*
X636999Y383043D01*
X636999Y404357D01*
X639343Y406701D01*
X646942Y406701D01*
X646943Y406702D01*
X646945Y406702D01*
X646945Y406703D01*
X646947Y406704D01*
X646945Y406706D01*
X646945Y406708D01*
X644441Y409212D01*
X642401Y414137D01*
X642401Y438263D01*
X644441Y443188D01*
X647820Y446567D01*
X647820Y446572D01*
X647820Y446573D01*
X641894Y452498D01*
X641892Y452498D01*
X641891Y452499D01*
X493109Y452499D01*
X493107Y452498D01*
X493106Y452498D01*
X469249Y428641D01*
X466492Y427499D01*
X451503Y427499D01*
X451499Y427496D01*
X451499Y427495D01*
X451499Y422937D01*
X449459Y418012D01*
X445690Y414243D01*
X440765Y412203D01*
X435435Y412203D01*
X430510Y414243D01*
X426741Y418012D01*
X425404Y421240D01*
X425403Y421241D01*
X425402Y421243D01*
X425401Y421242D01*
X425399Y421243D01*
X425398Y421241D01*
X425396Y421240D01*
X424059Y418012D01*
X420290Y414243D01*
X415365Y412203D01*
X410035Y412203D01*
X405110Y414243D01*
X401341Y418012D01*
X400004Y421240D01*
X400003Y421241D01*
X400002Y421243D01*
X400001Y421242D01*
X399999Y421243D01*
X399998Y421241D01*
X399996Y421240D01*
X398659Y418012D01*
X394890Y414243D01*
X389965Y412203D01*
X384635Y412203D01*
X379710Y414243D01*
X375941Y418012D01*
X373901Y422937D01*
X373901Y447063D01*
X375941Y451988D01*
X379710Y455757D01*
X384635Y457797D01*
X389965Y457797D01*
X394890Y455757D01*
X398659Y451988D01*
X399996Y448760D01*
X399997Y448759D01*
X399998Y448757D01*
X399999Y448758D01*
X400001Y448757D01*
X400002Y448759D01*
X400004Y448760D01*
X401341Y451988D01*
X405110Y455757D01*
X410035Y457797D01*
X415365Y457797D01*
X420290Y455757D01*
X424059Y451988D01*
X425396Y448760D01*
X425397Y448759D01*
X425398Y448757D01*
X425399Y448758D01*
X425401Y448757D01*
X425402Y448759D01*
X425404Y448760D01*
X426741Y451988D01*
X430510Y455757D01*
X430597Y455793D01*
X430598Y455796D01*
X430599Y455797D01*
X430599Y456791D01*
X430598Y456793D01*
X430598Y456794D01*
X425608Y461784D01*
X425607Y461784D01*
X425606Y461786D01*
X425604Y461785D01*
X425602Y461785D01*
X425602Y461783D01*
X425601Y461781D01*
X425601Y460443D01*
X423257Y458099D01*
X403943Y458099D01*
X401599Y460443D01*
X401599Y481757D01*
X402334Y482492D01*
X402334Y482493D01*
X402335Y482494D01*
X402334Y482496D01*
X402334Y482498D01*
X402332Y482498D01*
X402331Y482499D01*
X394468Y482499D01*
X394467Y482498D01*
X394465Y482497D01*
X394465Y482496D01*
X394464Y482496D01*
X394466Y482494D01*
X394467Y482491D01*
X395039Y482254D01*
X395754Y481539D01*
X396141Y480605D01*
X396141Y471109D01*
X385605Y471109D01*
X385601Y471105D01*
X385601Y471099D01*
X385599Y471099D01*
X385599Y471105D01*
X385595Y471109D01*
X375059Y471109D01*
X375059Y480605D01*
X375446Y481539D01*
X376161Y482254D01*
X376733Y482491D01*
X376734Y482493D01*
X376736Y482494D01*
X376735Y482495D01*
X376736Y482496D01*
X376733Y482497D01*
X376732Y482499D01*
X128508Y482499D01*
X125751Y483641D01*
X124494Y484898D01*
X124492Y484898D01*
X124491Y484899D01*
X109243Y484899D01*
X106899Y487243D01*
X106899Y508557D01*
X108095Y509753D01*
X108095Y509758D01*
X108095Y509759D01*
X105841Y512012D01*
X103801Y516937D01*
X103801Y541063D01*
X105841Y545988D01*
X109610Y549757D01*
X114535Y551797D01*
X119865Y551797D01*
X124790Y549757D01*
X128559Y545988D01*
X129896Y542760D01*
X129897Y542759D01*
X129898Y542757D01*
X129899Y542758D01*
X129901Y542757D01*
X129902Y542759D01*
X129904Y542760D01*
X131241Y545988D01*
X135010Y549757D01*
X139935Y551797D01*
X145265Y551797D01*
X150190Y549757D01*
X153959Y545988D01*
X155999Y541063D01*
X155999Y516937D01*
X153959Y512012D01*
X150190Y508243D01*
X145265Y506203D01*
X139935Y506203D01*
X135010Y508243D01*
X131241Y512012D01*
X129904Y515240D01*
X129903Y515241D01*
X129902Y515243D01*
X129901Y515242D01*
X129899Y515243D01*
X129898Y515241D01*
X129896Y515240D01*
X128559Y512012D01*
X127455Y510908D01*
X127455Y510907D01*
X127453Y510906D01*
X127454Y510904D01*
X127454Y510902D01*
X127456Y510902D01*
X127458Y510901D01*
X128557Y510901D01*
X130901Y508557D01*
X130901Y499709D01*
X130902Y499707D01*
X130902Y499706D01*
X133106Y497502D01*
X133108Y497502D01*
X133109Y497501D01*
X409492Y497501D01*
X412249Y496359D01*
X444459Y464149D01*
X445601Y461392D01*
X445601Y455797D01*
X445603Y455794D01*
X445603Y455793D01*
X445690Y455757D01*
X449459Y451988D01*
X451499Y447063D01*
X451499Y442505D01*
X451502Y442501D01*
X451503Y442501D01*
X461891Y442501D01*
X461893Y442502D01*
X461894Y442502D01*
X485751Y466359D01*
X488508Y467501D01*
X646492Y467501D01*
X649249Y466359D01*
X662159Y453449D01*
X663301Y450692D01*
X663301Y446997D01*
X663303Y446994D01*
X663303Y446993D01*
X663390Y446957D01*
X667159Y443188D01*
X669199Y438263D01*
X669199Y414137D01*
X667159Y409212D01*
X663390Y405443D01*
X663303Y405407D01*
X663302Y405404D01*
X663301Y405403D01*
X663301Y130808D01*
X662159Y128051D01*
X660048Y125941D01*
X649059Y114952D01*
X646949Y112841D01*
X644192Y111699D01*
X518508Y111699D01*
G37*
%LPD*%
G36*
X486293Y187502D02*
X486293Y187502D01*
X486294Y187502D01*
X502700Y203908D01*
X502700Y203909D01*
X502700Y203910D01*
X502701Y203911D01*
X502701Y218763D01*
X504741Y223688D01*
X508510Y227457D01*
X513435Y229497D01*
X518765Y229497D01*
X523690Y227457D01*
X527459Y223688D01*
X528796Y220460D01*
X528797Y220459D01*
X528798Y220457D01*
X528799Y220458D01*
X528801Y220457D01*
X528802Y220459D01*
X528804Y220460D01*
X530141Y223688D01*
X533910Y227457D01*
X533997Y227493D01*
X533998Y227496D01*
X533999Y227497D01*
X533999Y228192D01*
X535141Y230949D01*
X537252Y233059D01*
X540084Y235892D01*
X540084Y235893D01*
X540086Y235894D01*
X540085Y235896D01*
X540085Y235898D01*
X540083Y235898D01*
X540081Y235899D01*
X522143Y235899D01*
X519799Y238243D01*
X519799Y240395D01*
X519796Y240399D01*
X519795Y240399D01*
X517105Y240399D01*
X517101Y240396D01*
X517101Y240395D01*
X517101Y238243D01*
X514757Y235899D01*
X491443Y235899D01*
X489099Y238243D01*
X489099Y257557D01*
X491443Y259901D01*
X514757Y259901D01*
X517101Y257557D01*
X517101Y255405D01*
X517104Y255401D01*
X517105Y255401D01*
X519795Y255401D01*
X519799Y255404D01*
X519799Y255405D01*
X519799Y257557D01*
X522143Y259901D01*
X544995Y259901D01*
X544999Y259904D01*
X544999Y259905D01*
X544999Y263895D01*
X544996Y263899D01*
X544995Y263899D01*
X522143Y263899D01*
X519799Y266243D01*
X519799Y280706D01*
X519798Y280707D01*
X519798Y280709D01*
X517108Y283399D01*
X517107Y283399D01*
X517106Y283400D01*
X517104Y283399D01*
X517102Y283399D01*
X517102Y283397D01*
X517101Y283396D01*
X517101Y266243D01*
X514757Y263899D01*
X491443Y263899D01*
X489099Y266243D01*
X489099Y271995D01*
X489096Y271999D01*
X489095Y271999D01*
X488684Y271999D01*
X488682Y271998D01*
X488681Y271998D01*
X488007Y271324D01*
X471993Y271324D01*
X471519Y271798D01*
X471517Y271798D01*
X471516Y271799D01*
X465407Y271799D01*
X463018Y272789D01*
X461188Y274618D01*
X444158Y291649D01*
X444157Y291649D01*
X444156Y291650D01*
X444154Y291649D01*
X444152Y291649D01*
X444152Y291647D01*
X444151Y291646D01*
X444151Y286368D01*
X442636Y284853D01*
X442636Y284852D01*
X442636Y284851D01*
X442636Y284847D01*
X444151Y283332D01*
X444151Y273668D01*
X441807Y271324D01*
X440305Y271324D01*
X440301Y271321D01*
X440301Y271320D01*
X440301Y267394D01*
X440302Y267393D01*
X440302Y267391D01*
X475411Y232282D01*
X476401Y229893D01*
X476401Y208607D01*
X475411Y206218D01*
X465512Y196318D01*
X463682Y194489D01*
X461293Y193499D01*
X399507Y193499D01*
X399506Y193498D01*
X399504Y193498D01*
X399409Y193402D01*
X396548Y192217D01*
X393452Y192217D01*
X390591Y193402D01*
X388402Y195591D01*
X387217Y198452D01*
X387217Y201548D01*
X388402Y204409D01*
X390591Y206598D01*
X392559Y207413D01*
X392559Y207414D01*
X392561Y207415D01*
X392560Y207416D01*
X392561Y207418D01*
X392559Y207419D01*
X392559Y207421D01*
X388929Y208924D01*
X385964Y211889D01*
X384359Y215763D01*
X384359Y233037D01*
X385964Y236911D01*
X388929Y239876D01*
X392803Y241481D01*
X396997Y241481D01*
X397198Y241397D01*
X397200Y241398D01*
X397202Y241398D01*
X397202Y241399D01*
X397203Y241399D01*
X397202Y241402D01*
X397203Y241404D01*
X396546Y242061D01*
X396159Y242995D01*
X396159Y252491D01*
X406691Y252491D01*
X406691Y240959D01*
X398277Y240959D01*
X398275Y240958D01*
X398273Y240957D01*
X398274Y240956D01*
X398273Y240956D01*
X398274Y240954D01*
X398275Y240951D01*
X400871Y239876D01*
X403836Y236911D01*
X405441Y233037D01*
X405441Y215763D01*
X403836Y211889D01*
X400871Y208924D01*
X397341Y207462D01*
X397341Y207461D01*
X397339Y207460D01*
X397340Y207459D01*
X397339Y207457D01*
X397341Y207456D01*
X397341Y207454D01*
X399409Y206598D01*
X399504Y206502D01*
X399506Y206502D01*
X399507Y206501D01*
X457306Y206501D01*
X457307Y206502D01*
X457309Y206502D01*
X463398Y212591D01*
X463398Y212593D01*
X463399Y212594D01*
X463399Y225906D01*
X463398Y225907D01*
X463398Y225909D01*
X456235Y233071D01*
X456233Y233071D01*
X456231Y233072D01*
X456230Y233072D01*
X456229Y233069D01*
X456228Y233067D01*
X456241Y233037D01*
X456241Y215763D01*
X454636Y211889D01*
X451671Y208924D01*
X447797Y207319D01*
X443603Y207319D01*
X439729Y208924D01*
X436764Y211889D01*
X435159Y215763D01*
X435159Y233037D01*
X436764Y236911D01*
X439729Y239876D01*
X443603Y241481D01*
X447797Y241481D01*
X447827Y241468D01*
X447829Y241469D01*
X447831Y241469D01*
X447831Y241470D01*
X447832Y241470D01*
X447831Y241473D01*
X447831Y241475D01*
X428289Y261018D01*
X427299Y263407D01*
X427299Y271320D01*
X427296Y271324D01*
X427295Y271324D01*
X425793Y271324D01*
X423449Y273668D01*
X423449Y283332D01*
X424609Y284492D01*
X424609Y284493D01*
X424609Y284494D01*
X424610Y284494D01*
X424609Y284496D01*
X424609Y284498D01*
X424607Y284498D01*
X424606Y284499D01*
X415694Y284499D01*
X415693Y284498D01*
X415691Y284498D01*
X399284Y268091D01*
X399284Y268089D01*
X399283Y268088D01*
X399283Y267952D01*
X398098Y265091D01*
X395909Y262902D01*
X393048Y261717D01*
X390705Y261717D01*
X390701Y261714D01*
X390701Y261713D01*
X390701Y241843D01*
X388357Y239499D01*
X377005Y239499D01*
X377001Y239496D01*
X377001Y239495D01*
X377001Y238348D01*
X377002Y238346D01*
X377002Y238345D01*
X378436Y236911D01*
X380041Y233037D01*
X380041Y215763D01*
X378436Y211889D01*
X377002Y210455D01*
X377002Y210453D01*
X377001Y210452D01*
X377001Y203609D01*
X377002Y203607D01*
X377002Y203606D01*
X393106Y187502D01*
X393108Y187502D01*
X393109Y187501D01*
X486291Y187501D01*
X486293Y187502D01*
G37*
%LPC*%
G36*
X113403Y359719D02*
X113403Y359719D01*
X109529Y361324D01*
X106564Y364289D01*
X104959Y368163D01*
X104959Y385437D01*
X106564Y389311D01*
X109529Y392276D01*
X112463Y393491D01*
X112464Y393493D01*
X112465Y393494D01*
X112465Y393495D01*
X112465Y393496D01*
X112463Y393497D01*
X112461Y393499D01*
X98707Y393499D01*
X96318Y394489D01*
X86289Y404518D01*
X85299Y406907D01*
X85299Y413789D01*
X85297Y413792D01*
X85297Y413793D01*
X84210Y414243D01*
X80441Y418012D01*
X78401Y422937D01*
X78401Y447063D01*
X80441Y451988D01*
X84210Y455757D01*
X89135Y457797D01*
X94465Y457797D01*
X99390Y455757D01*
X103159Y451988D01*
X105199Y447063D01*
X105199Y422937D01*
X103159Y418012D01*
X99390Y414243D01*
X98303Y413793D01*
X98302Y413790D01*
X98301Y413789D01*
X98301Y410894D01*
X98302Y410893D01*
X98302Y410891D01*
X102691Y406502D01*
X102693Y406502D01*
X102694Y406501D01*
X156293Y406501D01*
X158682Y405511D01*
X171667Y392526D01*
X171668Y392526D01*
X172271Y392276D01*
X175236Y389311D01*
X176841Y385437D01*
X176841Y368163D01*
X175236Y364289D01*
X172271Y361324D01*
X168397Y359719D01*
X164203Y359719D01*
X160329Y361324D01*
X157364Y364289D01*
X155759Y368163D01*
X155759Y385437D01*
X157109Y388694D01*
X157108Y388695D01*
X157109Y388695D01*
X157108Y388696D01*
X157108Y388697D01*
X157108Y388699D01*
X152309Y393498D01*
X152307Y393498D01*
X152306Y393499D01*
X143939Y393499D01*
X143937Y393498D01*
X143935Y393497D01*
X143936Y393496D01*
X143935Y393496D01*
X143936Y393494D01*
X143937Y393491D01*
X146871Y392276D01*
X149836Y389311D01*
X151441Y385437D01*
X151441Y368163D01*
X149836Y364289D01*
X146871Y361324D01*
X142997Y359719D01*
X138803Y359719D01*
X134929Y361324D01*
X131964Y364289D01*
X130359Y368163D01*
X130359Y385437D01*
X131964Y389311D01*
X134929Y392276D01*
X137863Y393491D01*
X137864Y393493D01*
X137865Y393494D01*
X137865Y393495D01*
X137865Y393496D01*
X137863Y393497D01*
X137861Y393499D01*
X118539Y393499D01*
X118537Y393498D01*
X118535Y393497D01*
X118536Y393496D01*
X118535Y393496D01*
X118536Y393494D01*
X118537Y393491D01*
X121471Y392276D01*
X124436Y389311D01*
X126041Y385437D01*
X126041Y368163D01*
X124436Y364289D01*
X121471Y361324D01*
X117597Y359719D01*
X113403Y359719D01*
G37*
%LPD*%
G36*
X555032Y126702D02*
X555032Y126702D01*
X555034Y126702D01*
X555034Y126703D01*
X555035Y126704D01*
X555034Y126706D01*
X555034Y126708D01*
X553199Y128543D01*
X553199Y151857D01*
X555543Y154201D01*
X557695Y154201D01*
X557699Y154204D01*
X557699Y154205D01*
X557699Y156995D01*
X557696Y156999D01*
X557695Y156999D01*
X555343Y156999D01*
X552999Y159343D01*
X552999Y163495D01*
X552996Y163499D01*
X552995Y163499D01*
X549008Y163499D01*
X546251Y164641D01*
X535141Y175751D01*
X533999Y178508D01*
X533999Y185903D01*
X533997Y185906D01*
X533997Y185907D01*
X533910Y185943D01*
X530141Y189712D01*
X528804Y192940D01*
X528803Y192941D01*
X528802Y192943D01*
X528801Y192942D01*
X528799Y192943D01*
X528798Y192941D01*
X528796Y192940D01*
X527459Y189712D01*
X523690Y185943D01*
X518765Y183903D01*
X513435Y183903D01*
X508510Y185943D01*
X507233Y187220D01*
X507232Y187220D01*
X507231Y187220D01*
X507228Y187220D01*
X507227Y187220D01*
X493649Y173641D01*
X490892Y172499D01*
X477319Y172499D01*
X477317Y172498D01*
X477316Y172498D01*
X477316Y172497D01*
X477314Y172496D01*
X477316Y172494D01*
X477316Y172492D01*
X523106Y126702D01*
X523108Y126702D01*
X523109Y126701D01*
X555031Y126701D01*
X555032Y126702D01*
G37*
%LPC*%
G36*
X265803Y359719D02*
X265803Y359719D01*
X261929Y361324D01*
X258964Y364289D01*
X257359Y368163D01*
X257359Y385437D01*
X258964Y389311D01*
X261398Y391745D01*
X261398Y391746D01*
X261398Y391747D01*
X261399Y391748D01*
X261399Y392406D01*
X261398Y392407D01*
X261398Y392409D01*
X242309Y411498D01*
X242307Y411498D01*
X242306Y411499D01*
X147507Y411499D01*
X147506Y411498D01*
X147504Y411498D01*
X147409Y411402D01*
X144548Y410217D01*
X141452Y410217D01*
X138591Y411402D01*
X136402Y413591D01*
X135217Y416452D01*
X135217Y419548D01*
X136402Y422409D01*
X138591Y424598D01*
X141452Y425783D01*
X144548Y425783D01*
X147409Y424598D01*
X147504Y424502D01*
X147506Y424502D01*
X147507Y424502D01*
X147507Y424501D01*
X246293Y424501D01*
X248682Y423511D01*
X273411Y398782D01*
X274401Y396393D01*
X274401Y391748D01*
X274402Y391746D01*
X274402Y391745D01*
X276836Y389311D01*
X278441Y385437D01*
X278441Y368163D01*
X276836Y364289D01*
X273871Y361324D01*
X269997Y359719D01*
X265803Y359719D01*
G37*
%LPD*%
%LPC*%
G36*
X756556Y533839D02*
X756556Y533839D01*
X749902Y535622D01*
X743937Y539066D01*
X739066Y543937D01*
X735622Y549902D01*
X733839Y556556D01*
X733839Y563444D01*
X735622Y570098D01*
X739066Y576063D01*
X743937Y580934D01*
X749902Y584378D01*
X756556Y586161D01*
X763444Y586161D01*
X770098Y584378D01*
X776063Y580934D01*
X780934Y576063D01*
X784378Y570098D01*
X786161Y563444D01*
X786161Y556556D01*
X784378Y549902D01*
X780934Y543937D01*
X776063Y539066D01*
X770098Y535622D01*
X763444Y533839D01*
X756556Y533839D01*
G37*
%LPD*%
%LPC*%
G36*
X36556Y533839D02*
X36556Y533839D01*
X29902Y535622D01*
X23937Y539066D01*
X19066Y543937D01*
X15622Y549902D01*
X13839Y556556D01*
X13839Y563444D01*
X15622Y570098D01*
X19066Y576063D01*
X23937Y580934D01*
X29902Y584378D01*
X36556Y586161D01*
X43444Y586161D01*
X50098Y584378D01*
X56063Y580934D01*
X60934Y576063D01*
X64378Y570098D01*
X66161Y563444D01*
X66161Y556556D01*
X64378Y549902D01*
X60934Y543937D01*
X56063Y539066D01*
X50098Y535622D01*
X43444Y533839D01*
X36556Y533839D01*
G37*
%LPD*%
%LPC*%
G36*
X756556Y13839D02*
X756556Y13839D01*
X749902Y15622D01*
X743937Y19066D01*
X739066Y23937D01*
X735622Y29902D01*
X733839Y36556D01*
X733839Y43444D01*
X735622Y50098D01*
X739066Y56063D01*
X743937Y60934D01*
X749902Y64378D01*
X756556Y66161D01*
X763444Y66161D01*
X770098Y64378D01*
X776063Y60934D01*
X780934Y56063D01*
X784378Y50098D01*
X786161Y43444D01*
X786161Y36556D01*
X784378Y29902D01*
X780934Y23937D01*
X776063Y19066D01*
X770098Y15622D01*
X763444Y13839D01*
X756556Y13839D01*
G37*
%LPD*%
%LPC*%
G36*
X36556Y13839D02*
X36556Y13839D01*
X29902Y15622D01*
X23937Y19066D01*
X19066Y23937D01*
X15622Y29902D01*
X13839Y36556D01*
X13839Y43444D01*
X15622Y50098D01*
X19066Y56063D01*
X23937Y60934D01*
X29902Y64378D01*
X36556Y66161D01*
X43444Y66161D01*
X50098Y64378D01*
X56063Y60934D01*
X60934Y56063D01*
X64378Y50098D01*
X66161Y43444D01*
X66161Y36556D01*
X64378Y29902D01*
X60934Y23937D01*
X56063Y19066D01*
X50098Y15622D01*
X43444Y13839D01*
X36556Y13839D01*
G37*
%LPD*%
%LPC*%
G36*
X291203Y207319D02*
X291203Y207319D01*
X287329Y208924D01*
X284364Y211889D01*
X282759Y215763D01*
X282759Y233037D01*
X284364Y236911D01*
X286798Y239345D01*
X286798Y239347D01*
X286799Y239348D01*
X286799Y243793D01*
X287789Y246182D01*
X301118Y259511D01*
X303507Y260501D01*
X306495Y260501D01*
X306499Y260504D01*
X306499Y260505D01*
X306499Y265657D01*
X308843Y268001D01*
X328157Y268001D01*
X330501Y265657D01*
X330501Y242343D01*
X328157Y239999D01*
X324395Y239999D01*
X324393Y239998D01*
X324391Y239997D01*
X324391Y239996D01*
X324390Y239996D01*
X324392Y239994D01*
X324393Y239991D01*
X324671Y239876D01*
X327636Y236911D01*
X329241Y233037D01*
X329241Y215763D01*
X327636Y211889D01*
X324671Y208924D01*
X320797Y207319D01*
X316603Y207319D01*
X312729Y208924D01*
X309764Y211889D01*
X308159Y215763D01*
X308159Y233037D01*
X309764Y236911D01*
X312729Y239876D01*
X313007Y239991D01*
X313008Y239993D01*
X313010Y239994D01*
X313009Y239995D01*
X313010Y239996D01*
X313007Y239997D01*
X313005Y239999D01*
X308843Y239999D01*
X306499Y242343D01*
X306499Y246496D01*
X306498Y246497D01*
X306498Y246498D01*
X306497Y246498D01*
X306496Y246500D01*
X306495Y246499D01*
X306494Y246499D01*
X306494Y246498D01*
X306492Y246499D01*
X299802Y239809D01*
X299802Y239807D01*
X299801Y239806D01*
X299801Y239348D01*
X299802Y239346D01*
X299802Y239345D01*
X302236Y236911D01*
X303841Y233037D01*
X303841Y215763D01*
X302236Y211889D01*
X299271Y208924D01*
X295397Y207319D01*
X291203Y207319D01*
G37*
%LPD*%
%LPC*%
G36*
X265803Y207319D02*
X265803Y207319D01*
X261929Y208924D01*
X258964Y211889D01*
X257359Y215763D01*
X257359Y233037D01*
X258964Y236911D01*
X261398Y239345D01*
X261398Y239347D01*
X261399Y239348D01*
X261399Y256693D01*
X262389Y259082D01*
X294218Y290911D01*
X296607Y291901D01*
X306495Y291901D01*
X306499Y291904D01*
X306499Y291905D01*
X306499Y297057D01*
X308843Y299401D01*
X328157Y299401D01*
X330501Y297057D01*
X330501Y273743D01*
X328157Y271399D01*
X308843Y271399D01*
X306499Y273743D01*
X306499Y278895D01*
X306496Y278899D01*
X306495Y278899D01*
X300594Y278899D01*
X300593Y278898D01*
X300591Y278898D01*
X274402Y252709D01*
X274402Y252707D01*
X274401Y252706D01*
X274401Y239348D01*
X274402Y239346D01*
X274402Y239345D01*
X276836Y236911D01*
X278441Y233037D01*
X278441Y215763D01*
X276836Y211889D01*
X273871Y208924D01*
X269997Y207319D01*
X265803Y207319D01*
G37*
%LPD*%
%LPC*%
G36*
X589635Y291003D02*
X589635Y291003D01*
X584710Y293043D01*
X580941Y296812D01*
X578901Y301737D01*
X578901Y325863D01*
X580941Y330788D01*
X584710Y334557D01*
X589635Y336597D01*
X594965Y336597D01*
X599890Y334557D01*
X603659Y330788D01*
X604996Y327560D01*
X604997Y327559D01*
X604998Y327557D01*
X604999Y327558D01*
X605001Y327557D01*
X605002Y327559D01*
X605004Y327560D01*
X606341Y330788D01*
X610110Y334557D01*
X615035Y336597D01*
X620365Y336597D01*
X625290Y334557D01*
X629059Y330788D01*
X631099Y325863D01*
X631099Y301737D01*
X629059Y296812D01*
X625290Y293043D01*
X620365Y291003D01*
X615035Y291003D01*
X610110Y293043D01*
X606341Y296812D01*
X605004Y300040D01*
X605003Y300041D01*
X605002Y300043D01*
X605001Y300042D01*
X604999Y300043D01*
X604998Y300041D01*
X604996Y300040D01*
X603659Y296812D01*
X599890Y293043D01*
X594965Y291003D01*
X589635Y291003D01*
G37*
%LPD*%
%LPC*%
G36*
X308843Y330999D02*
X308843Y330999D01*
X306499Y333343D01*
X306499Y356657D01*
X308843Y359001D01*
X311995Y359001D01*
X311999Y359004D01*
X311999Y359005D01*
X311999Y362052D01*
X311998Y362054D01*
X311998Y362055D01*
X309764Y364289D01*
X308159Y368163D01*
X308159Y385437D01*
X309764Y389311D01*
X312729Y392276D01*
X316603Y393881D01*
X320797Y393881D01*
X324671Y392276D01*
X327636Y389311D01*
X329241Y385437D01*
X329241Y368163D01*
X327636Y364289D01*
X325002Y361655D01*
X325002Y361654D01*
X325001Y361653D01*
X325002Y361653D01*
X325001Y361652D01*
X325001Y359005D01*
X325004Y359001D01*
X325005Y359001D01*
X328157Y359001D01*
X330501Y356657D01*
X330501Y333343D01*
X328157Y330999D01*
X308843Y330999D01*
G37*
%LPD*%
%LPC*%
G36*
X90899Y497899D02*
X90899Y497899D01*
X90899Y497905D01*
X90895Y497909D01*
X80359Y497909D01*
X80359Y507405D01*
X80746Y508339D01*
X81461Y509054D01*
X82395Y509441D01*
X85461Y509441D01*
X85463Y509442D01*
X85464Y509442D01*
X85464Y509443D01*
X85466Y509444D01*
X85464Y509446D01*
X85464Y509448D01*
X84022Y510496D01*
X82694Y511824D01*
X81589Y513345D01*
X80736Y515019D01*
X80155Y516806D01*
X79861Y518662D01*
X79861Y528991D01*
X91795Y528991D01*
X91799Y528994D01*
X91799Y528995D01*
X91799Y529001D01*
X91801Y529001D01*
X91801Y528995D01*
X91805Y528991D01*
X103739Y528991D01*
X103739Y518662D01*
X103738Y518657D01*
X103737Y518648D01*
X103736Y518648D01*
X103737Y518648D01*
X103736Y518644D01*
X103735Y518640D01*
X103734Y518636D01*
X103734Y518635D01*
X103734Y518631D01*
X103733Y518627D01*
X103732Y518623D01*
X103732Y518619D01*
X103732Y518618D01*
X103731Y518614D01*
X103730Y518610D01*
X103729Y518602D01*
X103729Y518601D01*
X103728Y518597D01*
X103728Y518593D01*
X103727Y518589D01*
X103726Y518585D01*
X103726Y518584D01*
X103726Y518580D01*
X103725Y518576D01*
X103724Y518572D01*
X103724Y518568D01*
X103724Y518567D01*
X103723Y518563D01*
X103722Y518559D01*
X103722Y518555D01*
X103720Y518546D01*
X103720Y518542D01*
X103719Y518538D01*
X103718Y518534D01*
X103718Y518533D01*
X103718Y518529D01*
X103717Y518525D01*
X103716Y518521D01*
X103716Y518517D01*
X103716Y518516D01*
X103715Y518512D01*
X103714Y518508D01*
X103713Y518500D01*
X103713Y518499D01*
X103712Y518491D01*
X103711Y518487D01*
X103710Y518483D01*
X103710Y518482D01*
X103710Y518478D01*
X103709Y518474D01*
X103708Y518470D01*
X103708Y518466D01*
X103708Y518465D01*
X103707Y518461D01*
X103706Y518457D01*
X103706Y518453D01*
X103704Y518444D01*
X103703Y518436D01*
X103702Y518432D01*
X103702Y518431D01*
X103702Y518427D01*
X103701Y518427D01*
X103702Y518427D01*
X103701Y518423D01*
X103700Y518419D01*
X103699Y518415D01*
X103699Y518414D01*
X103699Y518410D01*
X103698Y518406D01*
X103697Y518402D01*
X103697Y518398D01*
X103697Y518397D01*
X103695Y518389D01*
X103694Y518381D01*
X103694Y518380D01*
X103693Y518376D01*
X103693Y518372D01*
X103692Y518368D01*
X103691Y518364D01*
X103691Y518363D01*
X103691Y518359D01*
X103690Y518355D01*
X103689Y518351D01*
X103689Y518347D01*
X103689Y518346D01*
X103688Y518342D01*
X103687Y518334D01*
X103685Y518325D01*
X103685Y518321D01*
X103684Y518317D01*
X103683Y518313D01*
X103683Y518312D01*
X103683Y518308D01*
X103682Y518304D01*
X103681Y518300D01*
X103681Y518296D01*
X103681Y518295D01*
X103680Y518291D01*
X103679Y518287D01*
X103678Y518279D01*
X103678Y518278D01*
X103677Y518270D01*
X103676Y518266D01*
X103675Y518262D01*
X103675Y518261D01*
X103675Y518257D01*
X103674Y518253D01*
X103673Y518249D01*
X103673Y518245D01*
X103673Y518244D01*
X103672Y518240D01*
X103671Y518236D01*
X103671Y518232D01*
X103669Y518223D01*
X103669Y518219D01*
X103668Y518219D01*
X103669Y518219D01*
X103668Y518215D01*
X103667Y518211D01*
X103667Y518210D01*
X103667Y518206D01*
X103666Y518206D01*
X103667Y518206D01*
X103666Y518202D01*
X103665Y518198D01*
X103664Y518194D01*
X103664Y518193D01*
X103664Y518189D01*
X103663Y518185D01*
X103662Y518181D01*
X103662Y518177D01*
X103662Y518176D01*
X103660Y518168D01*
X103660Y518164D01*
X103659Y518160D01*
X103659Y518159D01*
X103658Y518155D01*
X103658Y518151D01*
X103657Y518147D01*
X103656Y518143D01*
X103656Y518142D01*
X103656Y518138D01*
X103655Y518134D01*
X103654Y518130D01*
X103653Y518121D01*
X103652Y518113D01*
X103651Y518109D01*
X103651Y518108D01*
X103650Y518104D01*
X103650Y518100D01*
X103649Y518096D01*
X103648Y518092D01*
X103648Y518091D01*
X103648Y518087D01*
X103647Y518083D01*
X103646Y518079D01*
X103646Y518075D01*
X103646Y518074D01*
X103644Y518066D01*
X103643Y518058D01*
X103643Y518057D01*
X103642Y518053D01*
X103642Y518049D01*
X103641Y518045D01*
X103640Y518041D01*
X103640Y518040D01*
X103640Y518036D01*
X103639Y518032D01*
X103638Y518028D01*
X103638Y518024D01*
X103638Y518023D01*
X103637Y518019D01*
X103636Y518011D01*
X103634Y518002D01*
X103634Y517998D01*
X103633Y517998D01*
X103634Y517998D01*
X103633Y517994D01*
X103632Y517990D01*
X103632Y517989D01*
X103632Y517985D01*
X103631Y517985D01*
X103632Y517985D01*
X103631Y517981D01*
X103630Y517977D01*
X103629Y517973D01*
X103629Y517972D01*
X103629Y517968D01*
X103628Y517964D01*
X103627Y517956D01*
X103627Y517955D01*
X103625Y517947D01*
X103625Y517943D01*
X103624Y517939D01*
X103624Y517938D01*
X103623Y517934D01*
X103623Y517930D01*
X103622Y517926D01*
X103621Y517922D01*
X103621Y517921D01*
X103621Y517917D01*
X103620Y517913D01*
X103619Y517909D01*
X103618Y517900D01*
X103617Y517896D01*
X103617Y517892D01*
X103616Y517888D01*
X103616Y517887D01*
X103615Y517883D01*
X103615Y517879D01*
X103614Y517875D01*
X103613Y517871D01*
X103613Y517870D01*
X103613Y517866D01*
X103612Y517862D01*
X103611Y517858D01*
X103611Y517854D01*
X103611Y517853D01*
X103609Y517845D01*
X103609Y517841D01*
X103608Y517837D01*
X103608Y517836D01*
X103607Y517832D01*
X103607Y517828D01*
X103606Y517824D01*
X103605Y517820D01*
X103605Y517819D01*
X103605Y517815D01*
X103604Y517811D01*
X103603Y517807D01*
X103603Y517803D01*
X103602Y517798D01*
X103601Y517790D01*
X103600Y517786D01*
X103600Y517785D01*
X103599Y517781D01*
X103599Y517777D01*
X103598Y517777D01*
X103599Y517777D01*
X103598Y517773D01*
X103597Y517769D01*
X103597Y517768D01*
X103597Y517764D01*
X103596Y517764D01*
X103597Y517764D01*
X103596Y517760D01*
X103595Y517756D01*
X103594Y517752D01*
X103594Y517751D01*
X103593Y517743D01*
X103592Y517735D01*
X103592Y517734D01*
X103591Y517730D01*
X103590Y517726D01*
X103590Y517722D01*
X103589Y517718D01*
X103589Y517717D01*
X103588Y517713D01*
X103588Y517709D01*
X103587Y517705D01*
X103586Y517701D01*
X103586Y517700D01*
X103586Y517696D01*
X103584Y517688D01*
X103583Y517679D01*
X103582Y517675D01*
X103582Y517671D01*
X103581Y517667D01*
X103581Y517666D01*
X103580Y517662D01*
X103580Y517658D01*
X103579Y517654D01*
X103578Y517650D01*
X103578Y517649D01*
X103578Y517645D01*
X103577Y517641D01*
X103576Y517633D01*
X103576Y517632D01*
X103574Y517624D01*
X103574Y517620D01*
X103573Y517616D01*
X103573Y517615D01*
X103572Y517611D01*
X103572Y517607D01*
X103571Y517603D01*
X103570Y517599D01*
X103570Y517598D01*
X103570Y517594D01*
X103569Y517590D01*
X103568Y517586D01*
X103567Y517577D01*
X103566Y517569D01*
X103565Y517565D01*
X103565Y517564D01*
X103564Y517560D01*
X103564Y517556D01*
X103563Y517556D01*
X103564Y517556D01*
X103563Y517552D01*
X103562Y517548D01*
X103562Y517547D01*
X103562Y517543D01*
X103561Y517543D01*
X103562Y517543D01*
X103561Y517539D01*
X103560Y517535D01*
X103559Y517531D01*
X103559Y517530D01*
X103558Y517522D01*
X103557Y517518D01*
X103557Y517514D01*
X103557Y517513D01*
X103556Y517509D01*
X103555Y517505D01*
X103555Y517501D01*
X103554Y517497D01*
X103554Y517496D01*
X103553Y517492D01*
X103553Y517488D01*
X103552Y517484D01*
X103551Y517480D01*
X103551Y517475D01*
X103549Y517467D01*
X103549Y517463D01*
X103549Y517462D01*
X103548Y517458D01*
X103547Y517454D01*
X103547Y517450D01*
X103546Y517446D01*
X103546Y517445D01*
X103545Y517441D01*
X103545Y517437D01*
X103544Y517433D01*
X103543Y517429D01*
X103543Y517428D01*
X103542Y517420D01*
X103541Y517412D01*
X103541Y517411D01*
X103540Y517407D01*
X103539Y517403D01*
X103539Y517399D01*
X103538Y517395D01*
X103538Y517394D01*
X103537Y517390D01*
X103537Y517386D01*
X103536Y517382D01*
X103535Y517378D01*
X103535Y517377D01*
X103535Y517373D01*
X103533Y517365D01*
X103532Y517356D01*
X103531Y517352D01*
X103531Y517348D01*
X103530Y517344D01*
X103530Y517343D01*
X103529Y517339D01*
X103529Y517335D01*
X103528Y517335D01*
X103529Y517335D01*
X103528Y517331D01*
X103527Y517327D01*
X103527Y517326D01*
X103527Y517322D01*
X103526Y517322D01*
X103526Y517318D01*
X103524Y517310D01*
X103524Y517309D01*
X103523Y517301D01*
X103522Y517297D01*
X103522Y517293D01*
X103522Y517292D01*
X103521Y517288D01*
X103520Y517284D01*
X103520Y517280D01*
X103519Y517276D01*
X103519Y517275D01*
X103518Y517271D01*
X103518Y517267D01*
X103517Y517263D01*
X103516Y517254D01*
X103514Y517246D01*
X103514Y517242D01*
X103514Y517241D01*
X103513Y517237D01*
X103512Y517233D01*
X103512Y517229D01*
X103511Y517225D01*
X103511Y517224D01*
X103510Y517220D01*
X103510Y517216D01*
X103509Y517212D01*
X103508Y517208D01*
X103508Y517207D01*
X103507Y517199D01*
X103506Y517191D01*
X103506Y517190D01*
X103505Y517186D01*
X103504Y517182D01*
X103504Y517178D01*
X103503Y517174D01*
X103503Y517173D01*
X103502Y517169D01*
X103502Y517165D01*
X103501Y517161D01*
X103500Y517157D01*
X103500Y517156D01*
X103500Y517152D01*
X103498Y517144D01*
X103498Y517140D01*
X103498Y517139D01*
X103497Y517135D01*
X103496Y517131D01*
X103496Y517127D01*
X103495Y517123D01*
X103495Y517122D01*
X103494Y517118D01*
X103494Y517114D01*
X103493Y517114D01*
X103494Y517114D01*
X103493Y517110D01*
X103492Y517106D01*
X103492Y517105D01*
X103492Y517101D01*
X103491Y517101D01*
X103491Y517097D01*
X103489Y517089D01*
X103489Y517088D01*
X103489Y517084D01*
X103488Y517080D01*
X103487Y517076D01*
X103487Y517072D01*
X103487Y517071D01*
X103486Y517067D01*
X103485Y517063D01*
X103485Y517059D01*
X103484Y517055D01*
X103484Y517054D01*
X103483Y517050D01*
X103482Y517042D01*
X103481Y517033D01*
X103480Y517029D01*
X103479Y517025D01*
X103479Y517021D01*
X103479Y517020D01*
X103478Y517016D01*
X103477Y517012D01*
X103477Y517008D01*
X103476Y517004D01*
X103476Y517003D01*
X103475Y516999D01*
X103475Y516995D01*
X103473Y516987D01*
X103473Y516986D01*
X103472Y516978D01*
X103471Y516974D01*
X103471Y516970D01*
X103471Y516969D01*
X103470Y516965D01*
X103469Y516961D01*
X103469Y516957D01*
X103468Y516953D01*
X103468Y516952D01*
X103467Y516948D01*
X103467Y516944D01*
X103466Y516940D01*
X103465Y516931D01*
X103463Y516923D01*
X103463Y516919D01*
X103463Y516918D01*
X103462Y516914D01*
X103461Y516910D01*
X103461Y516906D01*
X103460Y516902D01*
X103460Y516901D01*
X103459Y516897D01*
X103459Y516893D01*
X103458Y516893D01*
X103459Y516893D01*
X103458Y516889D01*
X103457Y516885D01*
X103457Y516884D01*
X103456Y516876D01*
X103454Y516868D01*
X103454Y516867D01*
X103454Y516863D01*
X103453Y516859D01*
X103452Y516855D01*
X103452Y516851D01*
X103452Y516850D01*
X103451Y516846D01*
X103450Y516842D01*
X103450Y516838D01*
X103449Y516834D01*
X103449Y516833D01*
X103448Y516829D01*
X103447Y516821D01*
X103446Y516812D01*
X103445Y516808D01*
X103445Y516806D01*
X102864Y515019D01*
X102011Y513345D01*
X100906Y511824D01*
X99578Y510496D01*
X98136Y509448D01*
X98136Y509447D01*
X98134Y509445D01*
X98135Y509445D01*
X98135Y509443D01*
X98137Y509442D01*
X98139Y509441D01*
X99405Y509441D01*
X100339Y509054D01*
X101054Y508339D01*
X101441Y507405D01*
X101441Y497909D01*
X90905Y497909D01*
X90901Y497905D01*
X90901Y497899D01*
X90899Y497899D01*
G37*
%LPD*%
%LPC*%
G36*
X88003Y207319D02*
X88003Y207319D01*
X84129Y208924D01*
X81164Y211889D01*
X79559Y215763D01*
X79559Y233037D01*
X81164Y236911D01*
X84129Y239876D01*
X88003Y241481D01*
X92197Y241481D01*
X96071Y239876D01*
X99036Y236911D01*
X100641Y233037D01*
X100641Y215763D01*
X99036Y211889D01*
X96071Y208924D01*
X92197Y207319D01*
X88003Y207319D01*
G37*
%LPD*%
%LPC*%
G36*
X113403Y207319D02*
X113403Y207319D01*
X109529Y208924D01*
X106564Y211889D01*
X104959Y215763D01*
X104959Y233037D01*
X106564Y236911D01*
X109529Y239876D01*
X113403Y241481D01*
X117597Y241481D01*
X121471Y239876D01*
X124436Y236911D01*
X126041Y233037D01*
X126041Y215763D01*
X124436Y211889D01*
X121471Y208924D01*
X117597Y207319D01*
X113403Y207319D01*
G37*
%LPD*%
%LPC*%
G36*
X138803Y207319D02*
X138803Y207319D01*
X134929Y208924D01*
X131964Y211889D01*
X130359Y215763D01*
X130359Y233037D01*
X131964Y236911D01*
X134929Y239876D01*
X138803Y241481D01*
X142997Y241481D01*
X146871Y239876D01*
X149836Y236911D01*
X151441Y233037D01*
X151441Y215763D01*
X149836Y211889D01*
X146871Y208924D01*
X142997Y207319D01*
X138803Y207319D01*
G37*
%LPD*%
%LPC*%
G36*
X164203Y207319D02*
X164203Y207319D01*
X160329Y208924D01*
X157364Y211889D01*
X155759Y215763D01*
X155759Y233037D01*
X157364Y236911D01*
X160329Y239876D01*
X164203Y241481D01*
X168397Y241481D01*
X172271Y239876D01*
X175236Y236911D01*
X176841Y233037D01*
X176841Y215763D01*
X175236Y211889D01*
X172271Y208924D01*
X168397Y207319D01*
X164203Y207319D01*
G37*
%LPD*%
%LPC*%
G36*
X215003Y207319D02*
X215003Y207319D01*
X211129Y208924D01*
X208164Y211889D01*
X206559Y215763D01*
X206559Y233037D01*
X208164Y236911D01*
X211129Y239876D01*
X215003Y241481D01*
X219197Y241481D01*
X223071Y239876D01*
X226036Y236911D01*
X227641Y233037D01*
X227641Y215763D01*
X226036Y211889D01*
X223071Y208924D01*
X219197Y207319D01*
X215003Y207319D01*
G37*
%LPD*%
%LPC*%
G36*
X189603Y207319D02*
X189603Y207319D01*
X185729Y208924D01*
X182764Y211889D01*
X181159Y215763D01*
X181159Y233037D01*
X182764Y236911D01*
X185729Y239876D01*
X189603Y241481D01*
X193797Y241481D01*
X197671Y239876D01*
X200636Y236911D01*
X202241Y233037D01*
X202241Y215763D01*
X200636Y211889D01*
X197671Y208924D01*
X193797Y207319D01*
X189603Y207319D01*
G37*
%LPD*%
%LPC*%
G36*
X443603Y359719D02*
X443603Y359719D01*
X439729Y361324D01*
X436764Y364289D01*
X435159Y368163D01*
X435159Y385437D01*
X436764Y389311D01*
X439729Y392276D01*
X443603Y393881D01*
X447797Y393881D01*
X451671Y392276D01*
X454636Y389311D01*
X456241Y385437D01*
X456241Y368163D01*
X454636Y364289D01*
X451671Y361324D01*
X447797Y359719D01*
X443603Y359719D01*
G37*
%LPD*%
%LPC*%
G36*
X418203Y359719D02*
X418203Y359719D01*
X414329Y361324D01*
X411364Y364289D01*
X409759Y368163D01*
X409759Y385437D01*
X411364Y389311D01*
X414329Y392276D01*
X418203Y393881D01*
X422397Y393881D01*
X426271Y392276D01*
X429236Y389311D01*
X430841Y385437D01*
X430841Y368163D01*
X429236Y364289D01*
X426271Y361324D01*
X422397Y359719D01*
X418203Y359719D01*
G37*
%LPD*%
%LPC*%
G36*
X392803Y359719D02*
X392803Y359719D01*
X388929Y361324D01*
X385964Y364289D01*
X384359Y368163D01*
X384359Y385437D01*
X385964Y389311D01*
X388929Y392276D01*
X392803Y393881D01*
X396997Y393881D01*
X400871Y392276D01*
X403836Y389311D01*
X405441Y385437D01*
X405441Y368163D01*
X403836Y364289D01*
X400871Y361324D01*
X396997Y359719D01*
X392803Y359719D01*
G37*
%LPD*%
%LPC*%
G36*
X342003Y359719D02*
X342003Y359719D01*
X338129Y361324D01*
X335164Y364289D01*
X333559Y368163D01*
X333559Y385437D01*
X335164Y389311D01*
X338129Y392276D01*
X342003Y393881D01*
X346197Y393881D01*
X350071Y392276D01*
X353036Y389311D01*
X354641Y385437D01*
X354641Y368163D01*
X353036Y364289D01*
X350071Y361324D01*
X346197Y359719D01*
X342003Y359719D01*
G37*
%LPD*%
%LPC*%
G36*
X291203Y359719D02*
X291203Y359719D01*
X287329Y361324D01*
X284364Y364289D01*
X282759Y368163D01*
X282759Y385437D01*
X284364Y389311D01*
X287329Y392276D01*
X291203Y393881D01*
X295397Y393881D01*
X299271Y392276D01*
X302236Y389311D01*
X303841Y385437D01*
X303841Y368163D01*
X302236Y364289D01*
X299271Y361324D01*
X295397Y359719D01*
X291203Y359719D01*
G37*
%LPD*%
%LPC*%
G36*
X240403Y359719D02*
X240403Y359719D01*
X236529Y361324D01*
X233564Y364289D01*
X231959Y368163D01*
X231959Y385437D01*
X233564Y389311D01*
X236529Y392276D01*
X240403Y393881D01*
X244597Y393881D01*
X248471Y392276D01*
X251436Y389311D01*
X253041Y385437D01*
X253041Y368163D01*
X251436Y364289D01*
X248471Y361324D01*
X244597Y359719D01*
X240403Y359719D01*
G37*
%LPD*%
%LPC*%
G36*
X215003Y359719D02*
X215003Y359719D01*
X211129Y361324D01*
X208164Y364289D01*
X206559Y368163D01*
X206559Y385437D01*
X208164Y389311D01*
X211129Y392276D01*
X215003Y393881D01*
X219197Y393881D01*
X223071Y392276D01*
X226036Y389311D01*
X227641Y385437D01*
X227641Y368163D01*
X226036Y364289D01*
X223071Y361324D01*
X219197Y359719D01*
X215003Y359719D01*
G37*
%LPD*%
%LPC*%
G36*
X189603Y359719D02*
X189603Y359719D01*
X185729Y361324D01*
X182764Y364289D01*
X181159Y368163D01*
X181159Y385437D01*
X182764Y389311D01*
X185729Y392276D01*
X189603Y393881D01*
X193797Y393881D01*
X197671Y392276D01*
X200636Y389311D01*
X202241Y385437D01*
X202241Y368163D01*
X200636Y364289D01*
X197671Y361324D01*
X193797Y359719D01*
X189603Y359719D01*
G37*
%LPD*%
%LPC*%
G36*
X88003Y359719D02*
X88003Y359719D01*
X84129Y361324D01*
X81164Y364289D01*
X79559Y368163D01*
X79559Y385437D01*
X81164Y389311D01*
X84129Y392276D01*
X88003Y393881D01*
X92197Y393881D01*
X96071Y392276D01*
X99036Y389311D01*
X100641Y385437D01*
X100641Y368163D01*
X99036Y364289D01*
X96071Y361324D01*
X92197Y359719D01*
X88003Y359719D01*
G37*
%LPD*%
%LPC*%
G36*
X240403Y207319D02*
X240403Y207319D01*
X236529Y208924D01*
X233564Y211889D01*
X231959Y215763D01*
X231959Y233037D01*
X233564Y236911D01*
X236529Y239876D01*
X240403Y241481D01*
X244597Y241481D01*
X248471Y239876D01*
X251436Y236911D01*
X253041Y233037D01*
X253041Y215763D01*
X251436Y211889D01*
X248471Y208924D01*
X244597Y207319D01*
X240403Y207319D01*
G37*
%LPD*%
%LPC*%
G36*
X621009Y393709D02*
X621009Y393709D01*
X621009Y405241D01*
X627321Y405241D01*
X627322Y405242D01*
X627324Y405243D01*
X627324Y405244D01*
X627325Y405244D01*
X627323Y405246D01*
X627322Y405249D01*
X625817Y405738D01*
X624143Y406591D01*
X622622Y407696D01*
X621294Y409024D01*
X620189Y410545D01*
X619336Y412219D01*
X618755Y414006D01*
X618461Y415862D01*
X618461Y426191D01*
X630391Y426191D01*
X630391Y404877D01*
X630393Y404874D01*
X630393Y404873D01*
X630403Y404869D01*
X630404Y404869D01*
X630404Y404868D01*
X630406Y404870D01*
X630409Y404871D01*
X630408Y404872D01*
X630409Y404873D01*
X630409Y426191D01*
X642339Y426191D01*
X642339Y415862D01*
X642338Y415858D01*
X642337Y415849D01*
X642336Y415845D01*
X642335Y415841D01*
X642335Y415837D01*
X642335Y415836D01*
X642334Y415832D01*
X642333Y415828D01*
X642333Y415824D01*
X642332Y415820D01*
X642332Y415819D01*
X642331Y415815D01*
X642331Y415811D01*
X642330Y415807D01*
X642329Y415803D01*
X642329Y415802D01*
X642328Y415794D01*
X642327Y415790D01*
X642327Y415786D01*
X642327Y415785D01*
X642326Y415781D01*
X642325Y415777D01*
X642325Y415773D01*
X642324Y415769D01*
X642324Y415768D01*
X642323Y415764D01*
X642323Y415760D01*
X642322Y415756D01*
X642321Y415747D01*
X642320Y415747D01*
X642321Y415747D01*
X642319Y415739D01*
X642319Y415735D01*
X642318Y415735D01*
X642318Y415734D01*
X642318Y415730D01*
X642317Y415726D01*
X642316Y415722D01*
X642316Y415718D01*
X642316Y415717D01*
X642315Y415713D01*
X642314Y415709D01*
X642314Y415705D01*
X642313Y415701D01*
X642313Y415700D01*
X642312Y415692D01*
X642310Y415684D01*
X642310Y415683D01*
X642310Y415679D01*
X642309Y415675D01*
X642308Y415671D01*
X642308Y415667D01*
X642308Y415666D01*
X642307Y415662D01*
X642306Y415658D01*
X642306Y415654D01*
X642305Y415650D01*
X642305Y415649D01*
X642304Y415645D01*
X642303Y415637D01*
X642302Y415628D01*
X642301Y415624D01*
X642300Y415620D01*
X642300Y415616D01*
X642300Y415615D01*
X642299Y415611D01*
X642298Y415607D01*
X642298Y415603D01*
X642297Y415599D01*
X642297Y415598D01*
X642296Y415594D01*
X642296Y415590D01*
X642294Y415582D01*
X642294Y415581D01*
X642293Y415573D01*
X642292Y415569D01*
X642292Y415565D01*
X642292Y415564D01*
X642291Y415560D01*
X642290Y415556D01*
X642290Y415552D01*
X642289Y415548D01*
X642289Y415547D01*
X642288Y415543D01*
X642288Y415539D01*
X642287Y415535D01*
X642286Y415526D01*
X642285Y415526D01*
X642286Y415526D01*
X642284Y415518D01*
X642283Y415514D01*
X642283Y415513D01*
X642283Y415509D01*
X642282Y415505D01*
X642281Y415501D01*
X642281Y415497D01*
X642281Y415496D01*
X642280Y415492D01*
X642279Y415488D01*
X642279Y415484D01*
X642278Y415480D01*
X642278Y415479D01*
X642277Y415471D01*
X642276Y415467D01*
X642275Y415463D01*
X642275Y415462D01*
X642275Y415458D01*
X642274Y415454D01*
X642273Y415450D01*
X642273Y415446D01*
X642273Y415445D01*
X642272Y415441D01*
X642271Y415437D01*
X642271Y415433D01*
X642270Y415429D01*
X642269Y415424D01*
X642268Y415416D01*
X642267Y415412D01*
X642267Y415411D01*
X642267Y415407D01*
X642266Y415403D01*
X642265Y415399D01*
X642265Y415395D01*
X642265Y415394D01*
X642264Y415390D01*
X642263Y415386D01*
X642263Y415382D01*
X642262Y415378D01*
X642262Y415377D01*
X642261Y415369D01*
X642259Y415361D01*
X642259Y415360D01*
X642259Y415356D01*
X642258Y415352D01*
X642257Y415348D01*
X642257Y415344D01*
X642257Y415343D01*
X642256Y415339D01*
X642255Y415335D01*
X642255Y415331D01*
X642254Y415327D01*
X642254Y415326D01*
X642253Y415322D01*
X642252Y415314D01*
X642251Y415305D01*
X642250Y415305D01*
X642251Y415305D01*
X642250Y415301D01*
X642249Y415297D01*
X642248Y415293D01*
X642248Y415292D01*
X642248Y415288D01*
X642247Y415284D01*
X642246Y415280D01*
X642246Y415276D01*
X642246Y415275D01*
X642245Y415271D01*
X642244Y415267D01*
X642243Y415259D01*
X642243Y415258D01*
X642242Y415250D01*
X642241Y415246D01*
X642240Y415242D01*
X642240Y415241D01*
X642240Y415237D01*
X642239Y415233D01*
X642238Y415229D01*
X642238Y415225D01*
X642238Y415224D01*
X642237Y415220D01*
X642236Y415216D01*
X642236Y415212D01*
X642234Y415203D01*
X642233Y415195D01*
X642232Y415191D01*
X642232Y415190D01*
X642232Y415186D01*
X642231Y415182D01*
X642230Y415178D01*
X642230Y415174D01*
X642230Y415173D01*
X642229Y415169D01*
X642228Y415165D01*
X642228Y415161D01*
X642227Y415157D01*
X642227Y415156D01*
X642226Y415148D01*
X642224Y415140D01*
X642224Y415139D01*
X642224Y415135D01*
X642223Y415131D01*
X642222Y415127D01*
X642222Y415123D01*
X642222Y415122D01*
X642221Y415118D01*
X642220Y415114D01*
X642220Y415110D01*
X642219Y415106D01*
X642218Y415101D01*
X642217Y415093D01*
X642216Y415089D01*
X642216Y415088D01*
X642216Y415084D01*
X642215Y415084D01*
X642216Y415084D01*
X642215Y415080D01*
X642214Y415076D01*
X642213Y415072D01*
X642213Y415071D01*
X642213Y415067D01*
X642212Y415063D01*
X642211Y415059D01*
X642211Y415055D01*
X642211Y415054D01*
X642210Y415050D01*
X642209Y415046D01*
X642208Y415038D01*
X642208Y415037D01*
X642207Y415033D01*
X642207Y415029D01*
X642206Y415025D01*
X642205Y415021D01*
X642205Y415020D01*
X642205Y415016D01*
X642204Y415012D01*
X642203Y415008D01*
X642203Y415004D01*
X642203Y415003D01*
X642202Y414999D01*
X642201Y414991D01*
X642199Y414982D01*
X642199Y414978D01*
X642198Y414974D01*
X642197Y414970D01*
X642197Y414969D01*
X642197Y414965D01*
X642196Y414961D01*
X642195Y414957D01*
X642195Y414953D01*
X642195Y414952D01*
X642194Y414948D01*
X642193Y414944D01*
X642192Y414936D01*
X642192Y414935D01*
X642191Y414927D01*
X642190Y414923D01*
X642189Y414919D01*
X642189Y414918D01*
X642189Y414914D01*
X642188Y414910D01*
X642187Y414906D01*
X642187Y414902D01*
X642187Y414901D01*
X642186Y414897D01*
X642185Y414893D01*
X642185Y414889D01*
X642183Y414880D01*
X642182Y414872D01*
X642181Y414868D01*
X642181Y414867D01*
X642181Y414863D01*
X642180Y414863D01*
X642181Y414863D01*
X642180Y414859D01*
X642179Y414855D01*
X642178Y414851D01*
X642178Y414850D01*
X642178Y414846D01*
X642177Y414842D01*
X642176Y414838D01*
X642176Y414834D01*
X642176Y414833D01*
X642174Y414825D01*
X642173Y414817D01*
X642173Y414816D01*
X642172Y414812D01*
X642172Y414808D01*
X642171Y414804D01*
X642170Y414800D01*
X642170Y414799D01*
X642170Y414795D01*
X642169Y414791D01*
X642168Y414787D01*
X642168Y414783D01*
X642168Y414782D01*
X642167Y414778D01*
X642166Y414770D01*
X642165Y414766D01*
X642165Y414765D01*
X642164Y414761D01*
X642164Y414757D01*
X642163Y414753D01*
X642162Y414749D01*
X642162Y414748D01*
X642162Y414744D01*
X642161Y414740D01*
X642160Y414736D01*
X642160Y414732D01*
X642160Y414731D01*
X642159Y414727D01*
X642158Y414723D01*
X642157Y414715D01*
X642157Y414714D01*
X642156Y414710D01*
X642156Y414706D01*
X642155Y414702D01*
X642154Y414698D01*
X642154Y414697D01*
X642154Y414693D01*
X642153Y414689D01*
X642152Y414685D01*
X642152Y414681D01*
X642152Y414680D01*
X642151Y414676D01*
X642150Y414668D01*
X642148Y414659D01*
X642148Y414655D01*
X642147Y414655D01*
X642148Y414655D01*
X642147Y414651D01*
X642146Y414647D01*
X642146Y414646D01*
X642146Y414642D01*
X642145Y414642D01*
X642146Y414642D01*
X642145Y414638D01*
X642144Y414634D01*
X642143Y414630D01*
X642143Y414629D01*
X642143Y414625D01*
X642142Y414621D01*
X642141Y414613D01*
X642141Y414612D01*
X642139Y414604D01*
X642139Y414600D01*
X642138Y414596D01*
X642138Y414595D01*
X642137Y414591D01*
X642137Y414587D01*
X642136Y414583D01*
X642135Y414579D01*
X642135Y414578D01*
X642135Y414574D01*
X642134Y414570D01*
X642133Y414566D01*
X642132Y414557D01*
X642131Y414549D01*
X642130Y414545D01*
X642130Y414544D01*
X642129Y414540D01*
X642129Y414536D01*
X642128Y414532D01*
X642127Y414528D01*
X642127Y414527D01*
X642127Y414523D01*
X642126Y414519D01*
X642125Y414515D01*
X642125Y414511D01*
X642125Y414510D01*
X642123Y414502D01*
X642122Y414494D01*
X642122Y414493D01*
X642121Y414489D01*
X642121Y414485D01*
X642120Y414481D01*
X642119Y414477D01*
X642119Y414476D01*
X642119Y414472D01*
X642118Y414468D01*
X642117Y414464D01*
X642117Y414460D01*
X642117Y414459D01*
X642116Y414455D01*
X642115Y414447D01*
X642113Y414438D01*
X642113Y414434D01*
X642112Y414434D01*
X642113Y414434D01*
X642112Y414430D01*
X642111Y414426D01*
X642111Y414425D01*
X642111Y414421D01*
X642110Y414421D01*
X642111Y414421D01*
X642110Y414417D01*
X642109Y414413D01*
X642108Y414409D01*
X642108Y414408D01*
X642108Y414404D01*
X642107Y414400D01*
X642106Y414392D01*
X642106Y414391D01*
X642105Y414387D01*
X642104Y414383D01*
X642104Y414379D01*
X642103Y414375D01*
X642103Y414374D01*
X642102Y414370D01*
X642102Y414366D01*
X642101Y414362D01*
X642100Y414358D01*
X642100Y414357D01*
X642100Y414353D01*
X642099Y414349D01*
X642098Y414345D01*
X642097Y414336D01*
X642096Y414332D01*
X642096Y414328D01*
X642095Y414324D01*
X642095Y414323D01*
X642094Y414319D01*
X642094Y414315D01*
X642093Y414311D01*
X642092Y414307D01*
X642092Y414306D01*
X642092Y414302D01*
X642091Y414298D01*
X642090Y414290D01*
X642090Y414289D01*
X642088Y414281D01*
X642088Y414277D01*
X642087Y414273D01*
X642087Y414272D01*
X642086Y414268D01*
X642086Y414264D01*
X642085Y414260D01*
X642084Y414256D01*
X642084Y414255D01*
X642084Y414251D01*
X642083Y414247D01*
X642082Y414243D01*
X642081Y414234D01*
X642080Y414226D01*
X642079Y414222D01*
X642079Y414221D01*
X642078Y414217D01*
X642078Y414213D01*
X642077Y414213D01*
X642078Y414213D01*
X642077Y414209D01*
X642076Y414205D01*
X642076Y414204D01*
X642076Y414200D01*
X642075Y414200D01*
X642076Y414200D01*
X642075Y414196D01*
X642074Y414192D01*
X642073Y414188D01*
X642073Y414187D01*
X642072Y414179D01*
X642071Y414171D01*
X642071Y414170D01*
X642070Y414166D01*
X642069Y414162D01*
X642069Y414158D01*
X642068Y414154D01*
X642068Y414153D01*
X642067Y414149D01*
X642067Y414145D01*
X642066Y414141D01*
X642065Y414137D01*
X642065Y414136D01*
X642065Y414132D01*
X642063Y414124D01*
X642062Y414115D01*
X642061Y414111D01*
X642061Y414107D01*
X642060Y414103D01*
X642060Y414102D01*
X642059Y414098D01*
X642059Y414094D01*
X642058Y414090D01*
X642057Y414086D01*
X642057Y414085D01*
X642057Y414081D01*
X642056Y414077D01*
X642055Y414069D01*
X642055Y414068D01*
X642053Y414060D01*
X642053Y414056D01*
X642052Y414052D01*
X642052Y414051D01*
X642051Y414047D01*
X642051Y414043D01*
X642050Y414039D01*
X642049Y414035D01*
X642049Y414034D01*
X642049Y414030D01*
X642048Y414026D01*
X642047Y414022D01*
X642046Y414013D01*
X642045Y414009D01*
X642045Y414006D01*
X641464Y412219D01*
X640611Y410545D01*
X639506Y409024D01*
X638178Y407696D01*
X636657Y406591D01*
X634983Y405738D01*
X633196Y405157D01*
X631340Y404863D01*
X630438Y404863D01*
X630436Y404862D01*
X630434Y404861D01*
X630435Y404860D01*
X630434Y404860D01*
X630436Y404858D01*
X630436Y404855D01*
X630439Y404854D01*
X631154Y404139D01*
X631541Y403205D01*
X631541Y393709D01*
X621009Y393709D01*
G37*
%LPD*%
G36*
X563307Y387502D02*
X563307Y387502D01*
X563309Y387502D01*
X573498Y397691D01*
X573498Y397693D01*
X573499Y397694D01*
X573499Y404823D01*
X573497Y404826D01*
X573497Y404827D01*
X572010Y405443D01*
X568241Y409212D01*
X566904Y412440D01*
X566903Y412441D01*
X566902Y412443D01*
X566901Y412442D01*
X566899Y412443D01*
X566898Y412441D01*
X566896Y412440D01*
X565559Y409212D01*
X561790Y405443D01*
X556865Y403403D01*
X551535Y403403D01*
X546610Y405443D01*
X542841Y409212D01*
X540801Y414137D01*
X540801Y419695D01*
X540798Y419699D01*
X540797Y419699D01*
X538894Y419699D01*
X538893Y419698D01*
X538891Y419698D01*
X520701Y401508D01*
X520701Y401507D01*
X520700Y401506D01*
X520701Y401504D01*
X520701Y401502D01*
X520703Y401502D01*
X520704Y401501D01*
X545493Y401501D01*
X545494Y401502D01*
X545496Y401502D01*
X545591Y401598D01*
X548452Y402783D01*
X551548Y402783D01*
X554409Y401598D01*
X556598Y399409D01*
X557783Y396548D01*
X557783Y393452D01*
X556598Y390591D01*
X554409Y388402D01*
X552252Y387509D01*
X552251Y387507D01*
X552250Y387506D01*
X552250Y387505D01*
X552250Y387504D01*
X552252Y387503D01*
X552254Y387501D01*
X563306Y387501D01*
X563307Y387502D01*
G37*
%LPC*%
G36*
X91809Y529009D02*
X91809Y529009D01*
X91809Y550337D01*
X92740Y550337D01*
X94596Y550043D01*
X96383Y549462D01*
X98057Y548609D01*
X99578Y547504D01*
X100906Y546176D01*
X102011Y544655D01*
X102864Y542981D01*
X103445Y541194D01*
X103739Y539338D01*
X103739Y529009D01*
X91809Y529009D01*
G37*
%LPD*%
%LPC*%
G36*
X566909Y206709D02*
X566909Y206709D01*
X566909Y228037D01*
X567840Y228037D01*
X569696Y227743D01*
X571483Y227162D01*
X573157Y226309D01*
X574678Y225204D01*
X576006Y223876D01*
X577111Y222355D01*
X577964Y220681D01*
X578545Y218894D01*
X578839Y217038D01*
X578839Y206709D01*
X566909Y206709D01*
G37*
%LPD*%
%LPC*%
G36*
X117209Y435009D02*
X117209Y435009D01*
X117209Y456337D01*
X118140Y456337D01*
X119996Y456043D01*
X121783Y455462D01*
X123457Y454609D01*
X124978Y453504D01*
X126306Y452176D01*
X127411Y450655D01*
X128264Y448981D01*
X128845Y447194D01*
X129139Y445338D01*
X129139Y435009D01*
X117209Y435009D01*
G37*
%LPD*%
%LPC*%
G36*
X361909Y435009D02*
X361909Y435009D01*
X361909Y456337D01*
X362840Y456337D01*
X364696Y456043D01*
X366483Y455462D01*
X368157Y454609D01*
X369678Y453504D01*
X371006Y452176D01*
X372111Y450655D01*
X372964Y448981D01*
X373545Y447194D01*
X373839Y445338D01*
X373839Y435009D01*
X361909Y435009D01*
G37*
%LPD*%
%LPC*%
G36*
X630409Y426209D02*
X630409Y426209D01*
X630409Y447537D01*
X631340Y447537D01*
X633196Y447243D01*
X634983Y446662D01*
X636657Y445809D01*
X638178Y444704D01*
X639506Y443376D01*
X640611Y441855D01*
X641464Y440181D01*
X642045Y438394D01*
X642339Y436538D01*
X642339Y426209D01*
X630409Y426209D01*
G37*
%LPD*%
%LPC*%
G36*
X117209Y413663D02*
X117209Y413663D01*
X117209Y434991D01*
X129139Y434991D01*
X129139Y424662D01*
X129138Y424660D01*
X129138Y424659D01*
X129138Y424655D01*
X129137Y424651D01*
X129136Y424647D01*
X129136Y424643D01*
X129136Y424642D01*
X129135Y424638D01*
X129134Y424634D01*
X129134Y424630D01*
X129133Y424626D01*
X129133Y424625D01*
X129132Y424621D01*
X129131Y424613D01*
X129130Y424604D01*
X129129Y424600D01*
X129128Y424596D01*
X129128Y424592D01*
X129127Y424592D01*
X129128Y424591D01*
X129127Y424587D01*
X129126Y424583D01*
X129126Y424579D01*
X129125Y424579D01*
X129126Y424579D01*
X129125Y424575D01*
X129125Y424574D01*
X129124Y424570D01*
X129123Y424566D01*
X129122Y424558D01*
X129122Y424557D01*
X129121Y424553D01*
X129121Y424549D01*
X129120Y424545D01*
X129119Y424541D01*
X129119Y424540D01*
X129119Y424536D01*
X129118Y424532D01*
X129117Y424528D01*
X129117Y424524D01*
X129117Y424523D01*
X129116Y424519D01*
X129115Y424515D01*
X129115Y424511D01*
X129113Y424502D01*
X129113Y424498D01*
X129112Y424494D01*
X129111Y424490D01*
X129111Y424489D01*
X129111Y424485D01*
X129110Y424481D01*
X129109Y424477D01*
X129109Y424473D01*
X129109Y424472D01*
X129108Y424468D01*
X129107Y424464D01*
X129106Y424456D01*
X129106Y424455D01*
X129105Y424447D01*
X129104Y424443D01*
X129103Y424439D01*
X129103Y424438D01*
X129103Y424434D01*
X129102Y424430D01*
X129101Y424426D01*
X129101Y424422D01*
X129101Y424421D01*
X129100Y424417D01*
X129099Y424413D01*
X129099Y424409D01*
X129097Y424400D01*
X129096Y424392D01*
X129095Y424388D01*
X129095Y424387D01*
X129095Y424383D01*
X129094Y424379D01*
X129093Y424375D01*
X129093Y424371D01*
X129092Y424371D01*
X129093Y424370D01*
X129092Y424366D01*
X129091Y424362D01*
X129091Y424358D01*
X129090Y424358D01*
X129090Y424354D01*
X129090Y424353D01*
X129088Y424345D01*
X129087Y424337D01*
X129087Y424336D01*
X129086Y424332D01*
X129086Y424328D01*
X129085Y424324D01*
X129084Y424320D01*
X129084Y424319D01*
X129084Y424315D01*
X129083Y424311D01*
X129082Y424307D01*
X129082Y424303D01*
X129082Y424302D01*
X129081Y424298D01*
X129080Y424290D01*
X129078Y424281D01*
X129078Y424277D01*
X129077Y424273D01*
X129076Y424269D01*
X129076Y424268D01*
X129076Y424264D01*
X129075Y424260D01*
X129074Y424256D01*
X129074Y424252D01*
X129074Y424251D01*
X129073Y424247D01*
X129072Y424243D01*
X129071Y424235D01*
X129071Y424234D01*
X129070Y424226D01*
X129069Y424222D01*
X129068Y424218D01*
X129068Y424217D01*
X129068Y424213D01*
X129067Y424209D01*
X129066Y424205D01*
X129066Y424201D01*
X129066Y424200D01*
X129065Y424196D01*
X129064Y424192D01*
X129064Y424188D01*
X129062Y424179D01*
X129062Y424175D01*
X129061Y424171D01*
X129060Y424167D01*
X129060Y424166D01*
X129060Y424162D01*
X129059Y424158D01*
X129058Y424154D01*
X129058Y424150D01*
X129057Y424150D01*
X129058Y424149D01*
X129057Y424145D01*
X129056Y424141D01*
X129056Y424137D01*
X129055Y424137D01*
X129055Y424133D01*
X129055Y424132D01*
X129053Y424124D01*
X129053Y424120D01*
X129052Y424116D01*
X129052Y424115D01*
X129051Y424111D01*
X129051Y424107D01*
X129050Y424103D01*
X129049Y424099D01*
X129049Y424098D01*
X129049Y424094D01*
X129048Y424090D01*
X129047Y424086D01*
X129046Y424077D01*
X129045Y424069D01*
X129044Y424065D01*
X129044Y424064D01*
X129043Y424060D01*
X129043Y424056D01*
X129042Y424052D01*
X129041Y424048D01*
X129041Y424047D01*
X129041Y424043D01*
X129040Y424039D01*
X129039Y424035D01*
X129039Y424031D01*
X129039Y424030D01*
X129037Y424022D01*
X129036Y424014D01*
X129036Y424013D01*
X129035Y424009D01*
X129035Y424005D01*
X129034Y424001D01*
X129033Y423997D01*
X129033Y423996D01*
X129033Y423992D01*
X129032Y423988D01*
X129031Y423984D01*
X129031Y423980D01*
X129031Y423979D01*
X129030Y423975D01*
X129029Y423967D01*
X129027Y423958D01*
X129027Y423954D01*
X129026Y423950D01*
X129025Y423946D01*
X129025Y423945D01*
X129025Y423941D01*
X129024Y423937D01*
X129023Y423933D01*
X129023Y423929D01*
X129022Y423929D01*
X129023Y423928D01*
X129022Y423924D01*
X129021Y423920D01*
X129020Y423912D01*
X129020Y423911D01*
X129018Y423903D01*
X129018Y423899D01*
X129017Y423895D01*
X129017Y423894D01*
X129016Y423890D01*
X129016Y423886D01*
X129015Y423882D01*
X129014Y423878D01*
X129014Y423877D01*
X129014Y423873D01*
X129013Y423869D01*
X129012Y423865D01*
X129011Y423856D01*
X129010Y423848D01*
X129009Y423844D01*
X129009Y423843D01*
X129008Y423839D01*
X129008Y423835D01*
X129007Y423831D01*
X129006Y423827D01*
X129006Y423826D01*
X129006Y423822D01*
X129005Y423818D01*
X129004Y423814D01*
X129004Y423810D01*
X129004Y423809D01*
X129002Y423801D01*
X129002Y423797D01*
X129001Y423793D01*
X129001Y423792D01*
X129000Y423788D01*
X129000Y423784D01*
X128999Y423780D01*
X128998Y423776D01*
X128998Y423775D01*
X128998Y423771D01*
X128997Y423767D01*
X128996Y423763D01*
X128996Y423759D01*
X128995Y423754D01*
X128994Y423746D01*
X128993Y423742D01*
X128993Y423741D01*
X128992Y423737D01*
X128992Y423733D01*
X128991Y423729D01*
X128990Y423725D01*
X128990Y423724D01*
X128990Y423720D01*
X128989Y423716D01*
X128988Y423712D01*
X128988Y423708D01*
X128987Y423708D01*
X128988Y423707D01*
X128986Y423699D01*
X128985Y423691D01*
X128985Y423690D01*
X128984Y423686D01*
X128983Y423682D01*
X128983Y423678D01*
X128982Y423674D01*
X128982Y423673D01*
X128981Y423669D01*
X128981Y423665D01*
X128980Y423661D01*
X128979Y423657D01*
X128979Y423656D01*
X128979Y423652D01*
X128977Y423644D01*
X128976Y423635D01*
X128975Y423631D01*
X128975Y423627D01*
X128974Y423623D01*
X128974Y423622D01*
X128973Y423618D01*
X128973Y423614D01*
X128972Y423610D01*
X128971Y423606D01*
X128971Y423605D01*
X128971Y423601D01*
X128970Y423597D01*
X128969Y423589D01*
X128969Y423588D01*
X128967Y423580D01*
X128967Y423576D01*
X128966Y423572D01*
X128966Y423571D01*
X128965Y423567D01*
X128965Y423563D01*
X128964Y423559D01*
X128963Y423555D01*
X128963Y423554D01*
X128963Y423550D01*
X128962Y423546D01*
X128961Y423542D01*
X128960Y423533D01*
X128959Y423525D01*
X128958Y423521D01*
X128958Y423520D01*
X128957Y423516D01*
X128957Y423512D01*
X128956Y423508D01*
X128955Y423504D01*
X128955Y423503D01*
X128955Y423499D01*
X128954Y423495D01*
X128953Y423491D01*
X128953Y423487D01*
X128952Y423487D01*
X128953Y423486D01*
X128951Y423478D01*
X128950Y423470D01*
X128950Y423469D01*
X128949Y423465D01*
X128948Y423461D01*
X128948Y423457D01*
X128947Y423453D01*
X128947Y423452D01*
X128946Y423448D01*
X128946Y423444D01*
X128945Y423440D01*
X128944Y423436D01*
X128944Y423431D01*
X128942Y423423D01*
X128942Y423419D01*
X128942Y423418D01*
X128941Y423414D01*
X128940Y423410D01*
X128940Y423406D01*
X128939Y423402D01*
X128939Y423401D01*
X128938Y423397D01*
X128938Y423393D01*
X128937Y423389D01*
X128936Y423385D01*
X128936Y423384D01*
X128936Y423380D01*
X128935Y423376D01*
X128934Y423368D01*
X128934Y423367D01*
X128933Y423363D01*
X128932Y423359D01*
X128932Y423355D01*
X128931Y423351D01*
X128931Y423350D01*
X128930Y423346D01*
X128930Y423342D01*
X128929Y423338D01*
X128928Y423334D01*
X128928Y423333D01*
X128928Y423329D01*
X128926Y423321D01*
X128925Y423312D01*
X128924Y423308D01*
X128924Y423304D01*
X128923Y423300D01*
X128923Y423299D01*
X128922Y423295D01*
X128922Y423291D01*
X128921Y423287D01*
X128920Y423283D01*
X128920Y423282D01*
X128920Y423278D01*
X128919Y423274D01*
X128918Y423266D01*
X128917Y423266D01*
X128918Y423265D01*
X128916Y423257D01*
X128916Y423253D01*
X128915Y423253D01*
X128915Y423249D01*
X128915Y423248D01*
X128914Y423244D01*
X128913Y423240D01*
X128913Y423236D01*
X128912Y423232D01*
X128912Y423231D01*
X128911Y423227D01*
X128911Y423223D01*
X128910Y423219D01*
X128909Y423210D01*
X128907Y423202D01*
X128907Y423198D01*
X128907Y423197D01*
X128906Y423193D01*
X128905Y423189D01*
X128905Y423185D01*
X128904Y423181D01*
X128904Y423180D01*
X128903Y423176D01*
X128903Y423172D01*
X128902Y423168D01*
X128901Y423164D01*
X128901Y423163D01*
X128900Y423155D01*
X128899Y423147D01*
X128899Y423146D01*
X128898Y423142D01*
X128897Y423138D01*
X128897Y423134D01*
X128896Y423130D01*
X128896Y423129D01*
X128895Y423125D01*
X128895Y423121D01*
X128894Y423117D01*
X128893Y423113D01*
X128893Y423112D01*
X128893Y423108D01*
X128891Y423100D01*
X128890Y423091D01*
X128889Y423087D01*
X128889Y423083D01*
X128888Y423079D01*
X128888Y423078D01*
X128887Y423074D01*
X128887Y423070D01*
X128886Y423066D01*
X128885Y423062D01*
X128885Y423061D01*
X128885Y423057D01*
X128884Y423053D01*
X128883Y423045D01*
X128882Y423045D01*
X128883Y423044D01*
X128882Y423040D01*
X128881Y423036D01*
X128880Y423032D01*
X128880Y423028D01*
X128880Y423027D01*
X128879Y423023D01*
X128878Y423019D01*
X128878Y423015D01*
X128877Y423011D01*
X128877Y423010D01*
X128876Y423006D01*
X128876Y423002D01*
X128875Y422998D01*
X128874Y422989D01*
X128873Y422985D01*
X128872Y422981D01*
X128872Y422977D01*
X128872Y422976D01*
X128871Y422972D01*
X128870Y422968D01*
X128870Y422964D01*
X128869Y422960D01*
X128869Y422959D01*
X128868Y422955D01*
X128868Y422951D01*
X128866Y422943D01*
X128866Y422942D01*
X128865Y422934D01*
X128864Y422930D01*
X128864Y422926D01*
X128864Y422925D01*
X128863Y422921D01*
X128862Y422917D01*
X128862Y422913D01*
X128861Y422909D01*
X128861Y422908D01*
X128860Y422904D01*
X128860Y422900D01*
X128859Y422896D01*
X128858Y422887D01*
X128856Y422879D01*
X128856Y422875D01*
X128856Y422874D01*
X128855Y422870D01*
X128854Y422866D01*
X128854Y422862D01*
X128853Y422858D01*
X128853Y422857D01*
X128852Y422853D01*
X128852Y422849D01*
X128851Y422845D01*
X128850Y422841D01*
X128850Y422840D01*
X128849Y422832D01*
X128848Y422824D01*
X128847Y422824D01*
X128848Y422823D01*
X128847Y422819D01*
X128846Y422815D01*
X128845Y422811D01*
X128845Y422807D01*
X128845Y422806D01*
X128264Y421019D01*
X127411Y419345D01*
X126306Y417824D01*
X124978Y416496D01*
X123457Y415391D01*
X121783Y414538D01*
X119996Y413957D01*
X118140Y413663D01*
X117209Y413663D01*
G37*
%LPD*%
%LPC*%
G36*
X361909Y413663D02*
X361909Y413663D01*
X361909Y434991D01*
X373839Y434991D01*
X373839Y424662D01*
X373838Y424660D01*
X373838Y424659D01*
X373838Y424655D01*
X373837Y424651D01*
X373836Y424647D01*
X373836Y424643D01*
X373836Y424642D01*
X373835Y424638D01*
X373834Y424634D01*
X373834Y424630D01*
X373833Y424626D01*
X373833Y424625D01*
X373832Y424621D01*
X373831Y424613D01*
X373830Y424604D01*
X373829Y424600D01*
X373828Y424596D01*
X373828Y424592D01*
X373827Y424592D01*
X373828Y424591D01*
X373827Y424587D01*
X373826Y424583D01*
X373826Y424579D01*
X373825Y424579D01*
X373826Y424579D01*
X373825Y424575D01*
X373825Y424574D01*
X373824Y424570D01*
X373823Y424566D01*
X373822Y424558D01*
X373822Y424557D01*
X373821Y424553D01*
X373821Y424549D01*
X373820Y424545D01*
X373819Y424541D01*
X373819Y424540D01*
X373819Y424536D01*
X373818Y424532D01*
X373817Y424528D01*
X373817Y424524D01*
X373817Y424523D01*
X373816Y424519D01*
X373815Y424515D01*
X373815Y424511D01*
X373813Y424502D01*
X373813Y424498D01*
X373812Y424494D01*
X373811Y424490D01*
X373811Y424489D01*
X373811Y424485D01*
X373810Y424481D01*
X373809Y424477D01*
X373809Y424473D01*
X373809Y424472D01*
X373808Y424468D01*
X373807Y424464D01*
X373806Y424456D01*
X373806Y424455D01*
X373805Y424447D01*
X373804Y424443D01*
X373803Y424439D01*
X373803Y424438D01*
X373803Y424434D01*
X373802Y424430D01*
X373801Y424426D01*
X373801Y424422D01*
X373801Y424421D01*
X373800Y424417D01*
X373799Y424413D01*
X373799Y424409D01*
X373797Y424400D01*
X373796Y424392D01*
X373795Y424388D01*
X373795Y424387D01*
X373795Y424383D01*
X373794Y424379D01*
X373793Y424375D01*
X373793Y424371D01*
X373792Y424371D01*
X373793Y424370D01*
X373792Y424366D01*
X373791Y424362D01*
X373791Y424358D01*
X373790Y424358D01*
X373790Y424354D01*
X373790Y424353D01*
X373788Y424345D01*
X373787Y424337D01*
X373787Y424336D01*
X373786Y424332D01*
X373786Y424328D01*
X373785Y424324D01*
X373784Y424320D01*
X373784Y424319D01*
X373784Y424315D01*
X373783Y424311D01*
X373782Y424307D01*
X373782Y424303D01*
X373782Y424302D01*
X373781Y424298D01*
X373780Y424290D01*
X373778Y424281D01*
X373778Y424277D01*
X373777Y424273D01*
X373776Y424269D01*
X373776Y424268D01*
X373776Y424264D01*
X373775Y424260D01*
X373774Y424256D01*
X373774Y424252D01*
X373774Y424251D01*
X373773Y424247D01*
X373772Y424243D01*
X373771Y424235D01*
X373771Y424234D01*
X373770Y424226D01*
X373769Y424222D01*
X373768Y424218D01*
X373768Y424217D01*
X373768Y424213D01*
X373767Y424209D01*
X373766Y424205D01*
X373766Y424201D01*
X373766Y424200D01*
X373765Y424196D01*
X373764Y424192D01*
X373764Y424188D01*
X373762Y424179D01*
X373762Y424175D01*
X373761Y424171D01*
X373760Y424167D01*
X373760Y424166D01*
X373760Y424162D01*
X373759Y424158D01*
X373758Y424154D01*
X373758Y424150D01*
X373757Y424150D01*
X373758Y424149D01*
X373757Y424145D01*
X373756Y424141D01*
X373756Y424137D01*
X373755Y424137D01*
X373755Y424133D01*
X373755Y424132D01*
X373753Y424124D01*
X373753Y424120D01*
X373752Y424116D01*
X373752Y424115D01*
X373751Y424111D01*
X373751Y424107D01*
X373750Y424103D01*
X373749Y424099D01*
X373749Y424098D01*
X373749Y424094D01*
X373748Y424090D01*
X373747Y424086D01*
X373746Y424077D01*
X373745Y424069D01*
X373744Y424065D01*
X373744Y424064D01*
X373743Y424060D01*
X373743Y424056D01*
X373742Y424052D01*
X373741Y424048D01*
X373741Y424047D01*
X373741Y424043D01*
X373740Y424039D01*
X373739Y424035D01*
X373739Y424031D01*
X373739Y424030D01*
X373737Y424022D01*
X373736Y424014D01*
X373736Y424013D01*
X373735Y424009D01*
X373735Y424005D01*
X373734Y424001D01*
X373733Y423997D01*
X373733Y423996D01*
X373733Y423992D01*
X373732Y423988D01*
X373731Y423984D01*
X373731Y423980D01*
X373731Y423979D01*
X373730Y423975D01*
X373729Y423967D01*
X373727Y423958D01*
X373727Y423954D01*
X373726Y423950D01*
X373725Y423946D01*
X373725Y423945D01*
X373725Y423941D01*
X373724Y423937D01*
X373723Y423933D01*
X373723Y423929D01*
X373722Y423929D01*
X373723Y423928D01*
X373722Y423924D01*
X373721Y423920D01*
X373720Y423912D01*
X373720Y423911D01*
X373718Y423903D01*
X373718Y423899D01*
X373717Y423895D01*
X373717Y423894D01*
X373716Y423890D01*
X373716Y423886D01*
X373715Y423882D01*
X373714Y423878D01*
X373714Y423877D01*
X373714Y423873D01*
X373713Y423869D01*
X373712Y423865D01*
X373711Y423856D01*
X373710Y423848D01*
X373709Y423844D01*
X373709Y423843D01*
X373708Y423839D01*
X373708Y423835D01*
X373707Y423831D01*
X373706Y423827D01*
X373706Y423826D01*
X373706Y423822D01*
X373705Y423818D01*
X373704Y423814D01*
X373704Y423810D01*
X373704Y423809D01*
X373702Y423801D01*
X373702Y423797D01*
X373701Y423793D01*
X373701Y423792D01*
X373700Y423788D01*
X373700Y423784D01*
X373699Y423780D01*
X373698Y423776D01*
X373698Y423775D01*
X373698Y423771D01*
X373697Y423767D01*
X373696Y423763D01*
X373696Y423759D01*
X373695Y423754D01*
X373694Y423746D01*
X373693Y423742D01*
X373693Y423741D01*
X373692Y423737D01*
X373692Y423733D01*
X373691Y423729D01*
X373690Y423725D01*
X373690Y423724D01*
X373690Y423720D01*
X373689Y423716D01*
X373688Y423712D01*
X373688Y423708D01*
X373687Y423708D01*
X373688Y423707D01*
X373686Y423699D01*
X373685Y423691D01*
X373685Y423690D01*
X373684Y423686D01*
X373683Y423682D01*
X373683Y423678D01*
X373682Y423674D01*
X373682Y423673D01*
X373681Y423669D01*
X373681Y423665D01*
X373680Y423661D01*
X373679Y423657D01*
X373679Y423656D01*
X373679Y423652D01*
X373677Y423644D01*
X373676Y423635D01*
X373675Y423631D01*
X373675Y423627D01*
X373674Y423623D01*
X373674Y423622D01*
X373673Y423618D01*
X373673Y423614D01*
X373672Y423610D01*
X373671Y423606D01*
X373671Y423605D01*
X373671Y423601D01*
X373670Y423597D01*
X373669Y423589D01*
X373669Y423588D01*
X373667Y423580D01*
X373667Y423576D01*
X373666Y423572D01*
X373666Y423571D01*
X373665Y423567D01*
X373665Y423563D01*
X373664Y423559D01*
X373663Y423555D01*
X373663Y423554D01*
X373663Y423550D01*
X373662Y423546D01*
X373661Y423542D01*
X373660Y423533D01*
X373659Y423525D01*
X373658Y423521D01*
X373658Y423520D01*
X373657Y423516D01*
X373657Y423512D01*
X373656Y423508D01*
X373655Y423504D01*
X373655Y423503D01*
X373655Y423499D01*
X373654Y423495D01*
X373653Y423491D01*
X373653Y423487D01*
X373652Y423487D01*
X373653Y423486D01*
X373651Y423478D01*
X373650Y423470D01*
X373650Y423469D01*
X373649Y423465D01*
X373648Y423461D01*
X373648Y423457D01*
X373647Y423453D01*
X373647Y423452D01*
X373646Y423448D01*
X373646Y423444D01*
X373645Y423440D01*
X373644Y423436D01*
X373644Y423431D01*
X373642Y423423D01*
X373642Y423419D01*
X373642Y423418D01*
X373641Y423414D01*
X373640Y423410D01*
X373640Y423406D01*
X373639Y423402D01*
X373639Y423401D01*
X373638Y423397D01*
X373638Y423393D01*
X373637Y423389D01*
X373636Y423385D01*
X373636Y423384D01*
X373636Y423380D01*
X373635Y423376D01*
X373634Y423368D01*
X373634Y423367D01*
X373633Y423363D01*
X373632Y423359D01*
X373632Y423355D01*
X373631Y423351D01*
X373631Y423350D01*
X373630Y423346D01*
X373630Y423342D01*
X373629Y423338D01*
X373628Y423334D01*
X373628Y423333D01*
X373628Y423329D01*
X373626Y423321D01*
X373625Y423312D01*
X373624Y423308D01*
X373624Y423304D01*
X373623Y423300D01*
X373623Y423299D01*
X373622Y423295D01*
X373622Y423291D01*
X373621Y423287D01*
X373620Y423283D01*
X373620Y423282D01*
X373620Y423278D01*
X373619Y423274D01*
X373618Y423266D01*
X373617Y423266D01*
X373618Y423265D01*
X373616Y423257D01*
X373616Y423253D01*
X373615Y423253D01*
X373615Y423249D01*
X373615Y423248D01*
X373614Y423244D01*
X373613Y423240D01*
X373613Y423236D01*
X373612Y423232D01*
X373612Y423231D01*
X373611Y423227D01*
X373611Y423223D01*
X373610Y423219D01*
X373609Y423210D01*
X373607Y423202D01*
X373607Y423198D01*
X373607Y423197D01*
X373606Y423193D01*
X373605Y423189D01*
X373605Y423185D01*
X373604Y423181D01*
X373604Y423180D01*
X373603Y423176D01*
X373603Y423172D01*
X373602Y423168D01*
X373601Y423164D01*
X373601Y423163D01*
X373600Y423155D01*
X373599Y423147D01*
X373599Y423146D01*
X373598Y423142D01*
X373597Y423138D01*
X373597Y423134D01*
X373596Y423130D01*
X373596Y423129D01*
X373595Y423125D01*
X373595Y423121D01*
X373594Y423117D01*
X373593Y423113D01*
X373593Y423112D01*
X373593Y423108D01*
X373591Y423100D01*
X373590Y423091D01*
X373589Y423087D01*
X373589Y423083D01*
X373588Y423079D01*
X373588Y423078D01*
X373587Y423074D01*
X373587Y423070D01*
X373586Y423066D01*
X373585Y423062D01*
X373585Y423061D01*
X373585Y423057D01*
X373584Y423053D01*
X373583Y423045D01*
X373582Y423045D01*
X373583Y423044D01*
X373582Y423040D01*
X373581Y423036D01*
X373580Y423032D01*
X373580Y423028D01*
X373580Y423027D01*
X373579Y423023D01*
X373578Y423019D01*
X373578Y423015D01*
X373577Y423011D01*
X373577Y423010D01*
X373576Y423006D01*
X373576Y423002D01*
X373575Y422998D01*
X373574Y422989D01*
X373573Y422985D01*
X373572Y422981D01*
X373572Y422977D01*
X373572Y422976D01*
X373571Y422972D01*
X373570Y422968D01*
X373570Y422964D01*
X373569Y422960D01*
X373569Y422959D01*
X373568Y422955D01*
X373568Y422951D01*
X373566Y422943D01*
X373566Y422942D01*
X373565Y422934D01*
X373564Y422930D01*
X373564Y422926D01*
X373564Y422925D01*
X373563Y422921D01*
X373562Y422917D01*
X373562Y422913D01*
X373561Y422909D01*
X373561Y422908D01*
X373560Y422904D01*
X373560Y422900D01*
X373559Y422896D01*
X373558Y422887D01*
X373556Y422879D01*
X373556Y422875D01*
X373556Y422874D01*
X373555Y422870D01*
X373554Y422866D01*
X373554Y422862D01*
X373553Y422858D01*
X373553Y422857D01*
X373552Y422853D01*
X373552Y422849D01*
X373551Y422845D01*
X373550Y422841D01*
X373550Y422840D01*
X373549Y422832D01*
X373548Y422824D01*
X373547Y422824D01*
X373548Y422823D01*
X373547Y422819D01*
X373546Y422815D01*
X373545Y422811D01*
X373545Y422807D01*
X373545Y422806D01*
X372964Y421019D01*
X372111Y419345D01*
X371006Y417824D01*
X369678Y416496D01*
X368157Y415391D01*
X366483Y414538D01*
X364696Y413957D01*
X362840Y413663D01*
X361909Y413663D01*
G37*
%LPD*%
%LPC*%
G36*
X566909Y185363D02*
X566909Y185363D01*
X566909Y206691D01*
X578839Y206691D01*
X578839Y196362D01*
X578838Y196358D01*
X578837Y196354D01*
X578837Y196350D01*
X578837Y196349D01*
X578836Y196345D01*
X578835Y196341D01*
X578835Y196337D01*
X578834Y196333D01*
X578834Y196332D01*
X578833Y196324D01*
X578831Y196316D01*
X578831Y196315D01*
X578831Y196311D01*
X578830Y196307D01*
X578829Y196303D01*
X578829Y196299D01*
X578829Y196298D01*
X578828Y196294D01*
X578827Y196290D01*
X578827Y196286D01*
X578826Y196282D01*
X578826Y196281D01*
X578825Y196277D01*
X578824Y196269D01*
X578823Y196260D01*
X578822Y196256D01*
X578821Y196252D01*
X578821Y196248D01*
X578821Y196247D01*
X578820Y196243D01*
X578819Y196239D01*
X578819Y196235D01*
X578818Y196231D01*
X578818Y196230D01*
X578817Y196226D01*
X578817Y196222D01*
X578816Y196222D01*
X578817Y196222D01*
X578815Y196214D01*
X578815Y196213D01*
X578815Y196209D01*
X578814Y196209D01*
X578814Y196205D01*
X578813Y196201D01*
X578812Y196197D01*
X578812Y196196D01*
X578812Y196192D01*
X578811Y196188D01*
X578810Y196184D01*
X578810Y196180D01*
X578810Y196179D01*
X578809Y196175D01*
X578808Y196171D01*
X578808Y196167D01*
X578806Y196158D01*
X578806Y196154D01*
X578805Y196150D01*
X578804Y196146D01*
X578804Y196145D01*
X578804Y196141D01*
X578803Y196137D01*
X578802Y196133D01*
X578802Y196129D01*
X578802Y196128D01*
X578801Y196124D01*
X578800Y196120D01*
X578800Y196116D01*
X578799Y196112D01*
X578799Y196111D01*
X578798Y196103D01*
X578797Y196099D01*
X578796Y196095D01*
X578796Y196094D01*
X578796Y196090D01*
X578795Y196086D01*
X578794Y196082D01*
X578794Y196078D01*
X578794Y196077D01*
X578793Y196073D01*
X578792Y196069D01*
X578792Y196065D01*
X578790Y196056D01*
X578789Y196048D01*
X578788Y196044D01*
X578788Y196043D01*
X578788Y196039D01*
X578787Y196035D01*
X578786Y196031D01*
X578786Y196027D01*
X578786Y196026D01*
X578785Y196022D01*
X578784Y196018D01*
X578784Y196014D01*
X578783Y196010D01*
X578783Y196009D01*
X578782Y196001D01*
X578781Y196001D01*
X578782Y196001D01*
X578780Y195993D01*
X578780Y195992D01*
X578780Y195988D01*
X578779Y195988D01*
X578779Y195984D01*
X578778Y195980D01*
X578777Y195976D01*
X578777Y195975D01*
X578777Y195971D01*
X578776Y195967D01*
X578775Y195963D01*
X578775Y195959D01*
X578775Y195958D01*
X578774Y195954D01*
X578773Y195946D01*
X578771Y195937D01*
X578771Y195933D01*
X578770Y195929D01*
X578769Y195925D01*
X578769Y195924D01*
X578769Y195920D01*
X578768Y195916D01*
X578767Y195912D01*
X578767Y195908D01*
X578767Y195907D01*
X578766Y195903D01*
X578765Y195899D01*
X578764Y195891D01*
X578764Y195890D01*
X578763Y195882D01*
X578762Y195878D01*
X578761Y195874D01*
X578761Y195873D01*
X578761Y195869D01*
X578760Y195865D01*
X578759Y195861D01*
X578759Y195857D01*
X578759Y195856D01*
X578758Y195852D01*
X578757Y195848D01*
X578757Y195844D01*
X578755Y195835D01*
X578755Y195831D01*
X578754Y195827D01*
X578753Y195823D01*
X578753Y195822D01*
X578753Y195818D01*
X578752Y195814D01*
X578751Y195810D01*
X578751Y195806D01*
X578751Y195805D01*
X578750Y195801D01*
X578749Y195797D01*
X578749Y195793D01*
X578748Y195789D01*
X578748Y195788D01*
X578747Y195780D01*
X578746Y195780D01*
X578747Y195780D01*
X578746Y195776D01*
X578745Y195772D01*
X578745Y195771D01*
X578744Y195767D01*
X578744Y195763D01*
X578743Y195759D01*
X578742Y195755D01*
X578742Y195754D01*
X578742Y195750D01*
X578741Y195746D01*
X578740Y195742D01*
X578739Y195733D01*
X578738Y195725D01*
X578737Y195721D01*
X578737Y195720D01*
X578736Y195716D01*
X578736Y195712D01*
X578735Y195708D01*
X578734Y195704D01*
X578734Y195703D01*
X578734Y195699D01*
X578733Y195695D01*
X578732Y195691D01*
X578732Y195687D01*
X578732Y195686D01*
X578730Y195678D01*
X578729Y195670D01*
X578729Y195669D01*
X578728Y195665D01*
X578728Y195661D01*
X578727Y195657D01*
X578726Y195653D01*
X578726Y195652D01*
X578726Y195648D01*
X578725Y195644D01*
X578724Y195640D01*
X578724Y195636D01*
X578724Y195635D01*
X578723Y195631D01*
X578722Y195623D01*
X578720Y195614D01*
X578720Y195610D01*
X578719Y195606D01*
X578718Y195602D01*
X578718Y195601D01*
X578718Y195597D01*
X578717Y195593D01*
X578716Y195589D01*
X578716Y195585D01*
X578716Y195584D01*
X578715Y195580D01*
X578714Y195576D01*
X578713Y195568D01*
X578713Y195567D01*
X578712Y195559D01*
X578711Y195559D01*
X578712Y195559D01*
X578711Y195555D01*
X578710Y195551D01*
X578710Y195550D01*
X578709Y195546D01*
X578709Y195542D01*
X578708Y195538D01*
X578707Y195534D01*
X578707Y195533D01*
X578707Y195529D01*
X578706Y195525D01*
X578705Y195521D01*
X578704Y195512D01*
X578703Y195504D01*
X578702Y195500D01*
X578702Y195499D01*
X578701Y195495D01*
X578701Y195491D01*
X578700Y195487D01*
X578699Y195483D01*
X578699Y195482D01*
X578699Y195478D01*
X578698Y195474D01*
X578697Y195470D01*
X578697Y195466D01*
X578697Y195465D01*
X578695Y195457D01*
X578695Y195453D01*
X578694Y195449D01*
X578694Y195448D01*
X578693Y195444D01*
X578693Y195440D01*
X578692Y195436D01*
X578691Y195432D01*
X578691Y195431D01*
X578691Y195427D01*
X578690Y195423D01*
X578689Y195419D01*
X578689Y195415D01*
X578688Y195410D01*
X578687Y195402D01*
X578686Y195398D01*
X578686Y195397D01*
X578685Y195393D01*
X578685Y195389D01*
X578684Y195385D01*
X578683Y195381D01*
X578683Y195380D01*
X578683Y195376D01*
X578682Y195372D01*
X578681Y195368D01*
X578681Y195364D01*
X578681Y195363D01*
X578679Y195355D01*
X578678Y195347D01*
X578678Y195346D01*
X578677Y195342D01*
X578677Y195338D01*
X578676Y195338D01*
X578677Y195338D01*
X578676Y195334D01*
X578675Y195330D01*
X578675Y195329D01*
X578674Y195325D01*
X578674Y195321D01*
X578673Y195317D01*
X578672Y195313D01*
X578672Y195312D01*
X578672Y195308D01*
X578670Y195300D01*
X578669Y195291D01*
X578668Y195287D01*
X578668Y195283D01*
X578667Y195279D01*
X578667Y195278D01*
X578666Y195274D01*
X578666Y195270D01*
X578665Y195266D01*
X578664Y195262D01*
X578664Y195261D01*
X578664Y195257D01*
X578663Y195253D01*
X578662Y195245D01*
X578662Y195244D01*
X578660Y195236D01*
X578660Y195232D01*
X578659Y195228D01*
X578659Y195227D01*
X578658Y195223D01*
X578658Y195219D01*
X578657Y195215D01*
X578656Y195211D01*
X578656Y195210D01*
X578656Y195206D01*
X578655Y195202D01*
X578654Y195198D01*
X578653Y195189D01*
X578652Y195181D01*
X578651Y195177D01*
X578651Y195176D01*
X578650Y195172D01*
X578650Y195168D01*
X578649Y195164D01*
X578648Y195160D01*
X578648Y195159D01*
X578648Y195155D01*
X578647Y195151D01*
X578646Y195147D01*
X578646Y195143D01*
X578646Y195142D01*
X578644Y195134D01*
X578643Y195126D01*
X578643Y195125D01*
X578642Y195121D01*
X578642Y195117D01*
X578641Y195117D01*
X578642Y195117D01*
X578641Y195113D01*
X578640Y195109D01*
X578640Y195108D01*
X578639Y195104D01*
X578639Y195100D01*
X578638Y195096D01*
X578637Y195092D01*
X578637Y195087D01*
X578635Y195079D01*
X578635Y195075D01*
X578635Y195074D01*
X578634Y195070D01*
X578633Y195066D01*
X578633Y195062D01*
X578632Y195058D01*
X578632Y195057D01*
X578631Y195053D01*
X578631Y195049D01*
X578630Y195045D01*
X578629Y195041D01*
X578629Y195040D01*
X578629Y195036D01*
X578628Y195032D01*
X578627Y195024D01*
X578627Y195023D01*
X578626Y195019D01*
X578625Y195015D01*
X578625Y195011D01*
X578624Y195007D01*
X578624Y195006D01*
X578623Y195002D01*
X578623Y194998D01*
X578622Y194994D01*
X578621Y194990D01*
X578621Y194989D01*
X578621Y194985D01*
X578619Y194977D01*
X578618Y194968D01*
X578617Y194964D01*
X578617Y194960D01*
X578616Y194956D01*
X578616Y194955D01*
X578615Y194951D01*
X578615Y194947D01*
X578614Y194943D01*
X578613Y194939D01*
X578613Y194938D01*
X578613Y194934D01*
X578612Y194930D01*
X578611Y194922D01*
X578611Y194921D01*
X578609Y194913D01*
X578609Y194909D01*
X578608Y194909D01*
X578609Y194909D01*
X578608Y194905D01*
X578608Y194904D01*
X578607Y194900D01*
X578607Y194896D01*
X578606Y194896D01*
X578607Y194896D01*
X578606Y194892D01*
X578605Y194888D01*
X578605Y194887D01*
X578604Y194883D01*
X578604Y194879D01*
X578603Y194875D01*
X578602Y194866D01*
X578600Y194858D01*
X578600Y194854D01*
X578600Y194853D01*
X578599Y194849D01*
X578598Y194845D01*
X578598Y194841D01*
X578597Y194837D01*
X578597Y194836D01*
X578596Y194832D01*
X578596Y194828D01*
X578595Y194824D01*
X578594Y194820D01*
X578594Y194819D01*
X578593Y194811D01*
X578592Y194803D01*
X578592Y194802D01*
X578591Y194798D01*
X578590Y194794D01*
X578590Y194790D01*
X578589Y194786D01*
X578589Y194785D01*
X578588Y194781D01*
X578588Y194777D01*
X578587Y194773D01*
X578586Y194769D01*
X578586Y194768D01*
X578586Y194764D01*
X578584Y194756D01*
X578583Y194747D01*
X578582Y194743D01*
X578582Y194739D01*
X578581Y194735D01*
X578581Y194734D01*
X578580Y194730D01*
X578580Y194726D01*
X578579Y194722D01*
X578578Y194718D01*
X578578Y194717D01*
X578578Y194713D01*
X578577Y194709D01*
X578576Y194701D01*
X578576Y194700D01*
X578575Y194696D01*
X578574Y194692D01*
X578574Y194688D01*
X578573Y194688D01*
X578574Y194688D01*
X578573Y194684D01*
X578573Y194683D01*
X578572Y194679D01*
X578572Y194675D01*
X578571Y194675D01*
X578572Y194675D01*
X578571Y194671D01*
X578570Y194667D01*
X578570Y194666D01*
X578569Y194662D01*
X578569Y194658D01*
X578568Y194654D01*
X578567Y194645D01*
X578566Y194641D01*
X578565Y194637D01*
X578565Y194633D01*
X578565Y194632D01*
X578564Y194628D01*
X578563Y194624D01*
X578563Y194620D01*
X578562Y194616D01*
X578562Y194615D01*
X578561Y194611D01*
X578561Y194607D01*
X578559Y194599D01*
X578559Y194598D01*
X578558Y194590D01*
X578557Y194586D01*
X578557Y194582D01*
X578557Y194581D01*
X578556Y194577D01*
X578555Y194573D01*
X578555Y194569D01*
X578554Y194565D01*
X578554Y194564D01*
X578553Y194560D01*
X578553Y194556D01*
X578552Y194552D01*
X578551Y194543D01*
X578549Y194535D01*
X578549Y194531D01*
X578549Y194530D01*
X578548Y194526D01*
X578547Y194522D01*
X578547Y194518D01*
X578546Y194514D01*
X578546Y194513D01*
X578545Y194509D01*
X578545Y194506D01*
X577964Y192719D01*
X577111Y191045D01*
X576006Y189524D01*
X574678Y188196D01*
X573157Y187091D01*
X571483Y186238D01*
X569696Y185657D01*
X567840Y185363D01*
X566909Y185363D01*
G37*
%LPD*%
%LPC*%
G36*
X554961Y206709D02*
X554961Y206709D01*
X554961Y217038D01*
X554962Y217042D01*
X554963Y217046D01*
X554963Y217050D01*
X554964Y217054D01*
X554965Y217059D01*
X554965Y217063D01*
X554967Y217071D01*
X554967Y217076D01*
X554968Y217080D01*
X554969Y217084D01*
X554969Y217088D01*
X554970Y217093D01*
X554971Y217097D01*
X554971Y217101D01*
X554972Y217105D01*
X554973Y217110D01*
X554974Y217118D01*
X554975Y217127D01*
X554976Y217131D01*
X554977Y217135D01*
X554977Y217139D01*
X554978Y217144D01*
X554979Y217148D01*
X554979Y217152D01*
X554980Y217156D01*
X554981Y217161D01*
X554981Y217165D01*
X554983Y217173D01*
X554984Y217182D01*
X554985Y217186D01*
X554985Y217190D01*
X554986Y217195D01*
X554987Y217199D01*
X554987Y217203D01*
X554988Y217203D01*
X554987Y217203D01*
X554988Y217207D01*
X554989Y217212D01*
X554989Y217216D01*
X554990Y217216D01*
X554990Y217220D01*
X554992Y217229D01*
X554993Y217237D01*
X554994Y217241D01*
X554994Y217246D01*
X554995Y217250D01*
X554996Y217254D01*
X554996Y217258D01*
X554997Y217263D01*
X554998Y217267D01*
X554998Y217271D01*
X554999Y217275D01*
X555000Y217284D01*
X555002Y217292D01*
X555002Y217297D01*
X555003Y217301D01*
X555004Y217305D01*
X555004Y217309D01*
X555005Y217314D01*
X555006Y217318D01*
X555006Y217322D01*
X555007Y217326D01*
X555008Y217331D01*
X555009Y217339D01*
X555010Y217348D01*
X555011Y217352D01*
X555012Y217356D01*
X555012Y217360D01*
X555013Y217365D01*
X555014Y217369D01*
X555014Y217373D01*
X555015Y217377D01*
X555016Y217382D01*
X555016Y217386D01*
X555018Y217394D01*
X555018Y217399D01*
X555019Y217403D01*
X555020Y217407D01*
X555020Y217411D01*
X555021Y217416D01*
X555022Y217420D01*
X555022Y217424D01*
X555023Y217424D01*
X555022Y217424D01*
X555023Y217428D01*
X555024Y217433D01*
X555024Y217437D01*
X555025Y217437D01*
X555025Y217441D01*
X555027Y217450D01*
X555027Y217454D01*
X555028Y217458D01*
X555029Y217462D01*
X555029Y217467D01*
X555030Y217471D01*
X555031Y217475D01*
X555031Y217479D01*
X555032Y217484D01*
X555033Y217488D01*
X555034Y217496D01*
X555035Y217505D01*
X555036Y217509D01*
X555037Y217513D01*
X555037Y217518D01*
X555038Y217522D01*
X555039Y217526D01*
X555039Y217530D01*
X555040Y217535D01*
X555041Y217539D01*
X555041Y217543D01*
X555043Y217552D01*
X555044Y217560D01*
X555045Y217564D01*
X555045Y217569D01*
X555046Y217573D01*
X555047Y217577D01*
X555047Y217581D01*
X555048Y217586D01*
X555049Y217590D01*
X555049Y217594D01*
X555050Y217598D01*
X555051Y217607D01*
X555053Y217615D01*
X555053Y217620D01*
X555054Y217624D01*
X555055Y217628D01*
X555055Y217632D01*
X555056Y217637D01*
X555057Y217641D01*
X555057Y217645D01*
X555058Y217645D01*
X555057Y217645D01*
X555058Y217649D01*
X555059Y217654D01*
X555060Y217662D01*
X555062Y217671D01*
X555062Y217675D01*
X555063Y217679D01*
X555064Y217683D01*
X555064Y217688D01*
X555065Y217692D01*
X555066Y217696D01*
X555066Y217700D01*
X555067Y217705D01*
X555068Y217709D01*
X555069Y217717D01*
X555070Y217726D01*
X555071Y217730D01*
X555072Y217734D01*
X555072Y217739D01*
X555073Y217743D01*
X555074Y217747D01*
X555074Y217751D01*
X555075Y217756D01*
X555076Y217760D01*
X555076Y217764D01*
X555078Y217773D01*
X555078Y217777D01*
X555079Y217781D01*
X555080Y217785D01*
X555080Y217790D01*
X555081Y217794D01*
X555082Y217798D01*
X555082Y217802D01*
X555083Y217807D01*
X555084Y217811D01*
X555084Y217815D01*
X555085Y217819D01*
X555086Y217828D01*
X555087Y217832D01*
X555088Y217836D01*
X555088Y217841D01*
X555089Y217845D01*
X555090Y217849D01*
X555090Y217853D01*
X555091Y217858D01*
X555092Y217862D01*
X555092Y217866D01*
X555093Y217866D01*
X555092Y217866D01*
X555094Y217875D01*
X555095Y217883D01*
X555096Y217887D01*
X555097Y217892D01*
X555097Y217896D01*
X555098Y217900D01*
X555099Y217904D01*
X555099Y217909D01*
X555100Y217913D01*
X555101Y217917D01*
X555101Y217921D01*
X555103Y217930D01*
X555104Y217938D01*
X555105Y217943D01*
X555105Y217947D01*
X555106Y217951D01*
X555107Y217955D01*
X555107Y217960D01*
X555108Y217964D01*
X555109Y217968D01*
X555109Y217972D01*
X555110Y217977D01*
X555111Y217985D01*
X555113Y217994D01*
X555113Y217998D01*
X555114Y218002D01*
X555115Y218006D01*
X555115Y218011D01*
X555116Y218015D01*
X555117Y218019D01*
X555117Y218023D01*
X555118Y218028D01*
X555119Y218032D01*
X555120Y218040D01*
X555121Y218049D01*
X555122Y218053D01*
X555123Y218057D01*
X555123Y218062D01*
X555124Y218066D01*
X555125Y218070D01*
X555125Y218074D01*
X555126Y218079D01*
X555127Y218083D01*
X555127Y218087D01*
X555128Y218087D01*
X555127Y218087D01*
X555129Y218096D01*
X555130Y218104D01*
X555131Y218108D01*
X555132Y218113D01*
X555132Y218117D01*
X555133Y218121D01*
X555134Y218125D01*
X555134Y218130D01*
X555135Y218134D01*
X555136Y218138D01*
X555136Y218142D01*
X555138Y218151D01*
X555138Y218155D01*
X555139Y218159D01*
X555140Y218164D01*
X555140Y218168D01*
X555141Y218172D01*
X555142Y218176D01*
X555142Y218181D01*
X555143Y218185D01*
X555144Y218189D01*
X555144Y218193D01*
X555145Y218198D01*
X555146Y218206D01*
X555147Y218210D01*
X555148Y218215D01*
X555148Y218219D01*
X555149Y218223D01*
X555150Y218227D01*
X555150Y218232D01*
X555151Y218236D01*
X555152Y218240D01*
X555152Y218244D01*
X555154Y218253D01*
X555155Y218261D01*
X555156Y218266D01*
X555156Y218270D01*
X555157Y218274D01*
X555158Y218278D01*
X555158Y218283D01*
X555159Y218287D01*
X555160Y218291D01*
X555160Y218295D01*
X555161Y218300D01*
X555162Y218308D01*
X555163Y218308D01*
X555162Y218308D01*
X555164Y218317D01*
X555164Y218321D01*
X555165Y218321D01*
X555165Y218325D01*
X555166Y218329D01*
X555167Y218334D01*
X555167Y218338D01*
X555168Y218342D01*
X555169Y218346D01*
X555169Y218351D01*
X555170Y218355D01*
X555171Y218363D01*
X555173Y218372D01*
X555173Y218376D01*
X555174Y218380D01*
X555175Y218385D01*
X555175Y218389D01*
X555176Y218393D01*
X555177Y218397D01*
X555177Y218402D01*
X555178Y218406D01*
X555179Y218410D01*
X555180Y218419D01*
X555181Y218427D01*
X555182Y218431D01*
X555183Y218436D01*
X555183Y218440D01*
X555184Y218444D01*
X555185Y218448D01*
X555185Y218453D01*
X555186Y218457D01*
X555187Y218461D01*
X555187Y218465D01*
X555189Y218474D01*
X555190Y218482D01*
X555191Y218487D01*
X555191Y218491D01*
X555192Y218495D01*
X555193Y218499D01*
X555193Y218504D01*
X555194Y218508D01*
X555195Y218512D01*
X555195Y218516D01*
X555196Y218521D01*
X555197Y218529D01*
X555198Y218529D01*
X555197Y218529D01*
X555198Y218533D01*
X555199Y218538D01*
X555200Y218542D01*
X555200Y218546D01*
X555201Y218550D01*
X555202Y218555D01*
X555202Y218559D01*
X555203Y218563D01*
X555204Y218567D01*
X555204Y218572D01*
X555205Y218576D01*
X555206Y218584D01*
X555207Y218589D01*
X555208Y218593D01*
X555208Y218597D01*
X555209Y218601D01*
X555210Y218606D01*
X555210Y218610D01*
X555211Y218614D01*
X555212Y218618D01*
X555212Y218623D01*
X555214Y218631D01*
X555215Y218640D01*
X555216Y218644D01*
X555216Y218648D01*
X555217Y218652D01*
X555218Y218657D01*
X555218Y218661D01*
X555219Y218665D01*
X555220Y218669D01*
X555220Y218674D01*
X555221Y218678D01*
X555222Y218686D01*
X555224Y218695D01*
X555224Y218699D01*
X555225Y218703D01*
X555226Y218708D01*
X555226Y218712D01*
X555227Y218716D01*
X555228Y218720D01*
X555228Y218725D01*
X555229Y218729D01*
X555230Y218733D01*
X555231Y218742D01*
X555232Y218750D01*
X555233Y218750D01*
X555232Y218750D01*
X555233Y218754D01*
X555234Y218759D01*
X555235Y218763D01*
X555235Y218767D01*
X555236Y218771D01*
X555237Y218776D01*
X555237Y218780D01*
X555238Y218784D01*
X555239Y218788D01*
X555240Y218797D01*
X555241Y218805D01*
X555242Y218810D01*
X555243Y218814D01*
X555243Y218818D01*
X555244Y218822D01*
X555245Y218827D01*
X555245Y218831D01*
X555246Y218835D01*
X555247Y218839D01*
X555247Y218844D01*
X555249Y218852D01*
X555250Y218861D01*
X555251Y218865D01*
X555251Y218869D01*
X555252Y218873D01*
X555253Y218878D01*
X555253Y218882D01*
X555254Y218886D01*
X555255Y218890D01*
X555255Y218894D01*
X555836Y220681D01*
X556689Y222355D01*
X557794Y223876D01*
X559122Y225204D01*
X560643Y226309D01*
X562317Y227162D01*
X564104Y227743D01*
X565960Y228037D01*
X566891Y228037D01*
X566891Y206709D01*
X554961Y206709D01*
G37*
%LPD*%
%LPC*%
G36*
X618461Y426209D02*
X618461Y426209D01*
X618461Y436538D01*
X618462Y436541D01*
X618463Y436550D01*
X618464Y436554D01*
X618465Y436558D01*
X618465Y436563D01*
X618466Y436567D01*
X618467Y436571D01*
X618467Y436575D01*
X618468Y436580D01*
X618469Y436584D01*
X618469Y436588D01*
X618471Y436597D01*
X618472Y436605D01*
X618473Y436609D01*
X618473Y436614D01*
X618474Y436618D01*
X618475Y436622D01*
X618475Y436626D01*
X618476Y436631D01*
X618477Y436635D01*
X618477Y436639D01*
X618478Y436643D01*
X618479Y436652D01*
X618481Y436660D01*
X618481Y436665D01*
X618482Y436669D01*
X618483Y436673D01*
X618483Y436677D01*
X618484Y436682D01*
X618485Y436686D01*
X618485Y436690D01*
X618486Y436694D01*
X618487Y436699D01*
X618488Y436707D01*
X618489Y436711D01*
X618489Y436716D01*
X618490Y436720D01*
X618491Y436724D01*
X618491Y436728D01*
X618492Y436728D01*
X618491Y436728D01*
X618492Y436733D01*
X618493Y436737D01*
X618493Y436741D01*
X618494Y436741D01*
X618494Y436745D01*
X618495Y436750D01*
X618496Y436754D01*
X618497Y436762D01*
X618498Y436767D01*
X618498Y436771D01*
X618499Y436775D01*
X618500Y436779D01*
X618500Y436784D01*
X618501Y436788D01*
X618502Y436792D01*
X618502Y436796D01*
X618503Y436801D01*
X618504Y436809D01*
X618506Y436818D01*
X618506Y436822D01*
X618507Y436826D01*
X618508Y436830D01*
X618508Y436835D01*
X618509Y436839D01*
X618510Y436843D01*
X618510Y436847D01*
X618511Y436852D01*
X618512Y436856D01*
X618513Y436864D01*
X618514Y436873D01*
X618515Y436877D01*
X618516Y436881D01*
X618516Y436886D01*
X618517Y436890D01*
X618518Y436894D01*
X618518Y436898D01*
X618519Y436903D01*
X618520Y436907D01*
X618520Y436911D01*
X618522Y436920D01*
X618523Y436928D01*
X618524Y436932D01*
X618524Y436937D01*
X618525Y436941D01*
X618526Y436945D01*
X618526Y436949D01*
X618527Y436949D01*
X618526Y436949D01*
X618527Y436954D01*
X618528Y436958D01*
X618528Y436962D01*
X618529Y436962D01*
X618529Y436966D01*
X618531Y436975D01*
X618532Y436983D01*
X618533Y436988D01*
X618533Y436992D01*
X618534Y436996D01*
X618535Y437000D01*
X618535Y437005D01*
X618536Y437009D01*
X618537Y437013D01*
X618537Y437017D01*
X618538Y437022D01*
X618539Y437030D01*
X618541Y437039D01*
X618541Y437043D01*
X618542Y437047D01*
X618543Y437051D01*
X618543Y437056D01*
X618544Y437060D01*
X618545Y437064D01*
X618545Y437068D01*
X618546Y437073D01*
X618547Y437077D01*
X618548Y437085D01*
X618549Y437090D01*
X618549Y437094D01*
X618550Y437098D01*
X618551Y437102D01*
X618551Y437107D01*
X618552Y437111D01*
X618553Y437115D01*
X618553Y437119D01*
X618554Y437124D01*
X618555Y437128D01*
X618555Y437132D01*
X618557Y437141D01*
X618557Y437145D01*
X618558Y437149D01*
X618559Y437153D01*
X618559Y437158D01*
X618560Y437162D01*
X618561Y437166D01*
X618561Y437170D01*
X618562Y437170D01*
X618561Y437170D01*
X618562Y437175D01*
X618563Y437179D01*
X618564Y437187D01*
X618566Y437196D01*
X618566Y437200D01*
X618567Y437204D01*
X618568Y437209D01*
X618568Y437213D01*
X618569Y437217D01*
X618570Y437221D01*
X618570Y437226D01*
X618571Y437230D01*
X618572Y437234D01*
X618573Y437243D01*
X618574Y437251D01*
X618575Y437255D01*
X618576Y437260D01*
X618576Y437264D01*
X618577Y437268D01*
X618578Y437272D01*
X618578Y437277D01*
X618579Y437281D01*
X618580Y437285D01*
X618580Y437289D01*
X618582Y437298D01*
X618583Y437306D01*
X618584Y437311D01*
X618584Y437315D01*
X618585Y437319D01*
X618586Y437323D01*
X618586Y437328D01*
X618587Y437332D01*
X618588Y437336D01*
X618588Y437340D01*
X618589Y437345D01*
X618590Y437353D01*
X618592Y437362D01*
X618592Y437366D01*
X618593Y437370D01*
X618594Y437374D01*
X618594Y437379D01*
X618595Y437383D01*
X618596Y437387D01*
X618596Y437391D01*
X618597Y437391D01*
X618596Y437391D01*
X618597Y437396D01*
X618598Y437400D01*
X618599Y437408D01*
X618601Y437417D01*
X618601Y437421D01*
X618602Y437425D01*
X618603Y437430D01*
X618603Y437434D01*
X618604Y437438D01*
X618605Y437442D01*
X618605Y437447D01*
X618606Y437451D01*
X618607Y437455D01*
X618608Y437464D01*
X618609Y437468D01*
X618609Y437472D01*
X618610Y437476D01*
X618611Y437481D01*
X618611Y437485D01*
X618612Y437489D01*
X618613Y437493D01*
X618613Y437498D01*
X618614Y437502D01*
X618615Y437506D01*
X618615Y437510D01*
X618617Y437519D01*
X618617Y437523D01*
X618618Y437527D01*
X618619Y437532D01*
X618619Y437536D01*
X618620Y437540D01*
X618621Y437544D01*
X618621Y437549D01*
X618622Y437553D01*
X618623Y437557D01*
X618624Y437566D01*
X618625Y437574D01*
X618626Y437578D01*
X618627Y437583D01*
X618627Y437587D01*
X618628Y437591D01*
X618629Y437595D01*
X618629Y437600D01*
X618630Y437604D01*
X618631Y437608D01*
X618631Y437612D01*
X618632Y437612D01*
X618631Y437612D01*
X618633Y437621D01*
X618634Y437629D01*
X618635Y437634D01*
X618636Y437638D01*
X618636Y437642D01*
X618637Y437646D01*
X618638Y437651D01*
X618638Y437655D01*
X618639Y437659D01*
X618640Y437663D01*
X618640Y437668D01*
X618642Y437676D01*
X618643Y437685D01*
X618644Y437689D01*
X618644Y437693D01*
X618645Y437697D01*
X618646Y437702D01*
X618646Y437706D01*
X618647Y437710D01*
X618648Y437714D01*
X618648Y437719D01*
X618649Y437723D01*
X618650Y437731D01*
X618652Y437740D01*
X618652Y437744D01*
X618653Y437748D01*
X618654Y437753D01*
X618654Y437757D01*
X618655Y437761D01*
X618656Y437765D01*
X618656Y437770D01*
X618657Y437774D01*
X618658Y437778D01*
X618659Y437787D01*
X618660Y437795D01*
X618661Y437799D01*
X618662Y437804D01*
X618662Y437808D01*
X618663Y437812D01*
X618664Y437816D01*
X618664Y437821D01*
X618665Y437825D01*
X618666Y437829D01*
X618666Y437833D01*
X618667Y437833D01*
X618666Y437833D01*
X618668Y437842D01*
X618668Y437846D01*
X618669Y437846D01*
X618669Y437850D01*
X618670Y437855D01*
X618671Y437859D01*
X618671Y437863D01*
X618672Y437867D01*
X618673Y437872D01*
X618673Y437876D01*
X618674Y437880D01*
X618675Y437884D01*
X618675Y437889D01*
X618677Y437897D01*
X618677Y437901D01*
X618678Y437906D01*
X618679Y437910D01*
X618679Y437914D01*
X618680Y437918D01*
X618681Y437923D01*
X618681Y437927D01*
X618682Y437931D01*
X618683Y437935D01*
X618684Y437944D01*
X618685Y437952D01*
X618686Y437957D01*
X618687Y437961D01*
X618687Y437965D01*
X618688Y437969D01*
X618689Y437974D01*
X618689Y437978D01*
X618690Y437982D01*
X618691Y437986D01*
X618691Y437991D01*
X618693Y437999D01*
X618694Y438008D01*
X618695Y438012D01*
X618695Y438016D01*
X618696Y438020D01*
X618697Y438025D01*
X618697Y438029D01*
X618698Y438033D01*
X618699Y438037D01*
X618699Y438042D01*
X618700Y438046D01*
X618701Y438054D01*
X618702Y438054D01*
X618701Y438054D01*
X618703Y438063D01*
X618703Y438067D01*
X618704Y438067D01*
X618704Y438071D01*
X618705Y438076D01*
X618706Y438080D01*
X618706Y438084D01*
X618707Y438088D01*
X618708Y438093D01*
X618708Y438097D01*
X618709Y438101D01*
X618710Y438110D01*
X618712Y438118D01*
X618712Y438122D01*
X618713Y438127D01*
X618714Y438131D01*
X618714Y438135D01*
X618715Y438139D01*
X618716Y438144D01*
X618716Y438148D01*
X618717Y438152D01*
X618718Y438156D01*
X618719Y438165D01*
X618720Y438173D01*
X618721Y438178D01*
X618722Y438182D01*
X618722Y438186D01*
X618723Y438190D01*
X618724Y438195D01*
X618724Y438199D01*
X618725Y438203D01*
X618726Y438207D01*
X618726Y438212D01*
X618728Y438220D01*
X618728Y438224D01*
X618729Y438229D01*
X618730Y438233D01*
X618730Y438237D01*
X618731Y438241D01*
X618732Y438246D01*
X618732Y438250D01*
X618733Y438254D01*
X618734Y438258D01*
X618734Y438263D01*
X618735Y438267D01*
X618736Y438275D01*
X618737Y438275D01*
X618736Y438275D01*
X618737Y438280D01*
X618738Y438284D01*
X618739Y438288D01*
X618739Y438292D01*
X618740Y438297D01*
X618741Y438301D01*
X618741Y438305D01*
X618742Y438309D01*
X618743Y438314D01*
X618744Y438322D01*
X618745Y438331D01*
X618746Y438335D01*
X618747Y438339D01*
X618747Y438343D01*
X618748Y438348D01*
X618749Y438352D01*
X618749Y438356D01*
X618750Y438360D01*
X618751Y438365D01*
X618751Y438369D01*
X618753Y438377D01*
X618754Y438386D01*
X618755Y438390D01*
X618755Y438394D01*
X619336Y440181D01*
X620189Y441855D01*
X621294Y443376D01*
X622622Y444704D01*
X624143Y445809D01*
X625817Y446662D01*
X627604Y447243D01*
X629460Y447537D01*
X630391Y447537D01*
X630391Y426209D01*
X618461Y426209D01*
G37*
%LPD*%
%LPC*%
G36*
X349961Y435009D02*
X349961Y435009D01*
X349961Y445338D01*
X349961Y445339D01*
X349962Y445343D01*
X349963Y445347D01*
X349963Y445352D01*
X349964Y445352D01*
X349963Y445352D01*
X349965Y445360D01*
X349966Y445369D01*
X349967Y445373D01*
X349968Y445377D01*
X349968Y445381D01*
X349969Y445386D01*
X349970Y445390D01*
X349970Y445394D01*
X349971Y445398D01*
X349972Y445403D01*
X349972Y445407D01*
X349974Y445415D01*
X349974Y445420D01*
X349975Y445424D01*
X349976Y445428D01*
X349976Y445432D01*
X349977Y445437D01*
X349978Y445441D01*
X349978Y445445D01*
X349979Y445449D01*
X349980Y445454D01*
X349980Y445458D01*
X349981Y445462D01*
X349982Y445471D01*
X349983Y445475D01*
X349984Y445479D01*
X349984Y445483D01*
X349985Y445488D01*
X349986Y445492D01*
X349986Y445496D01*
X349987Y445500D01*
X349988Y445505D01*
X349988Y445509D01*
X349990Y445517D01*
X349991Y445526D01*
X349992Y445530D01*
X349992Y445534D01*
X349993Y445539D01*
X349994Y445543D01*
X349994Y445547D01*
X349995Y445551D01*
X349996Y445556D01*
X349996Y445560D01*
X349997Y445564D01*
X349998Y445573D01*
X349999Y445573D01*
X349998Y445573D01*
X350000Y445581D01*
X350000Y445585D01*
X350001Y445585D01*
X350001Y445590D01*
X350002Y445594D01*
X350003Y445598D01*
X350003Y445602D01*
X350004Y445607D01*
X350005Y445611D01*
X350005Y445615D01*
X350006Y445619D01*
X350007Y445628D01*
X350009Y445636D01*
X350009Y445641D01*
X350010Y445645D01*
X350011Y445649D01*
X350011Y445653D01*
X350012Y445658D01*
X350013Y445662D01*
X350013Y445666D01*
X350014Y445670D01*
X350015Y445675D01*
X350016Y445683D01*
X350017Y445692D01*
X350018Y445696D01*
X350019Y445700D01*
X350019Y445704D01*
X350020Y445709D01*
X350021Y445713D01*
X350021Y445717D01*
X350022Y445721D01*
X350023Y445726D01*
X350023Y445730D01*
X350025Y445738D01*
X350026Y445747D01*
X350027Y445751D01*
X350027Y445755D01*
X350028Y445760D01*
X350029Y445764D01*
X350029Y445768D01*
X350030Y445772D01*
X350031Y445777D01*
X350031Y445781D01*
X350032Y445785D01*
X350033Y445794D01*
X350034Y445794D01*
X350033Y445794D01*
X350034Y445798D01*
X350035Y445802D01*
X350036Y445806D01*
X350036Y445811D01*
X350037Y445815D01*
X350038Y445819D01*
X350038Y445823D01*
X350039Y445828D01*
X350040Y445832D01*
X350040Y445836D01*
X350041Y445840D01*
X350042Y445849D01*
X350043Y445853D01*
X350044Y445857D01*
X350044Y445862D01*
X350045Y445866D01*
X350046Y445870D01*
X350046Y445874D01*
X350047Y445879D01*
X350048Y445883D01*
X350048Y445887D01*
X350050Y445896D01*
X350051Y445904D01*
X350052Y445908D01*
X350052Y445913D01*
X350053Y445917D01*
X350054Y445921D01*
X350054Y445925D01*
X350055Y445930D01*
X350056Y445934D01*
X350056Y445938D01*
X350057Y445942D01*
X350058Y445951D01*
X350060Y445959D01*
X350060Y445964D01*
X350061Y445968D01*
X350062Y445972D01*
X350062Y445976D01*
X350063Y445981D01*
X350064Y445985D01*
X350064Y445989D01*
X350065Y445993D01*
X350066Y445998D01*
X350067Y446006D01*
X350068Y446015D01*
X350069Y446015D01*
X350068Y446015D01*
X350069Y446019D01*
X350070Y446023D01*
X350071Y446027D01*
X350071Y446032D01*
X350072Y446036D01*
X350073Y446040D01*
X350073Y446044D01*
X350074Y446049D01*
X350075Y446053D01*
X350076Y446061D01*
X350077Y446070D01*
X350078Y446074D01*
X350079Y446078D01*
X350079Y446083D01*
X350080Y446087D01*
X350081Y446091D01*
X350081Y446095D01*
X350082Y446100D01*
X350083Y446104D01*
X350083Y446108D01*
X350085Y446117D01*
X350086Y446125D01*
X350087Y446129D01*
X350087Y446134D01*
X350088Y446138D01*
X350089Y446142D01*
X350089Y446146D01*
X350090Y446151D01*
X350091Y446155D01*
X350091Y446159D01*
X350092Y446163D01*
X350093Y446172D01*
X350094Y446176D01*
X350095Y446180D01*
X350095Y446185D01*
X350096Y446189D01*
X350097Y446193D01*
X350097Y446197D01*
X350098Y446202D01*
X350099Y446206D01*
X350099Y446210D01*
X350100Y446214D01*
X350101Y446219D01*
X350102Y446227D01*
X350103Y446231D01*
X350103Y446236D01*
X350104Y446236D01*
X350103Y446236D01*
X350104Y446240D01*
X350105Y446244D01*
X350106Y446248D01*
X350106Y446253D01*
X350107Y446257D01*
X350108Y446261D01*
X350108Y446265D01*
X350110Y446274D01*
X350111Y446282D01*
X350112Y446287D01*
X350112Y446291D01*
X350113Y446295D01*
X350114Y446299D01*
X350114Y446304D01*
X350115Y446308D01*
X350116Y446312D01*
X350116Y446316D01*
X350117Y446321D01*
X350118Y446329D01*
X350120Y446338D01*
X350120Y446342D01*
X350121Y446346D01*
X350122Y446350D01*
X350122Y446355D01*
X350123Y446359D01*
X350124Y446363D01*
X350124Y446367D01*
X350125Y446372D01*
X350126Y446376D01*
X350127Y446384D01*
X350128Y446393D01*
X350129Y446397D01*
X350130Y446401D01*
X350130Y446406D01*
X350131Y446410D01*
X350132Y446414D01*
X350132Y446418D01*
X350133Y446423D01*
X350134Y446427D01*
X350134Y446431D01*
X350136Y446440D01*
X350137Y446448D01*
X350138Y446452D01*
X350138Y446457D01*
X350139Y446457D01*
X350138Y446457D01*
X350139Y446461D01*
X350140Y446465D01*
X350141Y446469D01*
X350141Y446474D01*
X350142Y446478D01*
X350143Y446482D01*
X350143Y446486D01*
X350145Y446495D01*
X350145Y446499D01*
X350146Y446503D01*
X350147Y446508D01*
X350147Y446512D01*
X350148Y446516D01*
X350149Y446520D01*
X350149Y446525D01*
X350150Y446529D01*
X350151Y446533D01*
X350151Y446537D01*
X350152Y446542D01*
X350153Y446550D01*
X350154Y446554D01*
X350155Y446559D01*
X350155Y446563D01*
X350156Y446567D01*
X350157Y446571D01*
X350157Y446576D01*
X350158Y446580D01*
X350159Y446584D01*
X350159Y446588D01*
X350160Y446593D01*
X350161Y446597D01*
X350162Y446605D01*
X350163Y446610D01*
X350163Y446614D01*
X350164Y446618D01*
X350165Y446622D01*
X350165Y446627D01*
X350166Y446631D01*
X350167Y446635D01*
X350167Y446639D01*
X350168Y446644D01*
X350169Y446652D01*
X350171Y446661D01*
X350171Y446665D01*
X350172Y446665D01*
X350171Y446665D01*
X350172Y446669D01*
X350173Y446673D01*
X350173Y446678D01*
X350174Y446678D01*
X350173Y446678D01*
X350174Y446682D01*
X350175Y446686D01*
X350176Y446690D01*
X350176Y446695D01*
X350177Y446699D01*
X350178Y446707D01*
X350180Y446716D01*
X350180Y446720D01*
X350181Y446724D01*
X350182Y446729D01*
X350182Y446733D01*
X350183Y446737D01*
X350184Y446741D01*
X350184Y446746D01*
X350185Y446750D01*
X350186Y446754D01*
X350187Y446763D01*
X350188Y446771D01*
X350189Y446775D01*
X350190Y446780D01*
X350190Y446784D01*
X350191Y446788D01*
X350192Y446792D01*
X350192Y446797D01*
X350193Y446801D01*
X350194Y446805D01*
X350194Y446809D01*
X350196Y446818D01*
X350197Y446826D01*
X350198Y446831D01*
X350198Y446835D01*
X350199Y446839D01*
X350200Y446843D01*
X350200Y446848D01*
X350201Y446852D01*
X350202Y446856D01*
X350202Y446860D01*
X350203Y446865D01*
X350204Y446873D01*
X350205Y446877D01*
X350206Y446882D01*
X350206Y446886D01*
X350207Y446886D01*
X350206Y446886D01*
X350207Y446890D01*
X350208Y446894D01*
X350208Y446899D01*
X350209Y446899D01*
X350208Y446899D01*
X350209Y446903D01*
X350210Y446907D01*
X350211Y446911D01*
X350211Y446916D01*
X350212Y446920D01*
X350213Y446928D01*
X350214Y446933D01*
X350215Y446937D01*
X350215Y446941D01*
X350216Y446945D01*
X350217Y446950D01*
X350217Y446954D01*
X350218Y446958D01*
X350219Y446962D01*
X350219Y446967D01*
X350221Y446975D01*
X350222Y446984D01*
X350223Y446988D01*
X350223Y446992D01*
X350224Y446996D01*
X350225Y447001D01*
X350225Y447005D01*
X350226Y447009D01*
X350227Y447013D01*
X350227Y447018D01*
X350228Y447022D01*
X350229Y447030D01*
X350231Y447039D01*
X350231Y447043D01*
X350232Y447047D01*
X350233Y447052D01*
X350233Y447056D01*
X350234Y447060D01*
X350235Y447064D01*
X350235Y447069D01*
X350236Y447073D01*
X350237Y447077D01*
X350238Y447086D01*
X350239Y447094D01*
X350240Y447098D01*
X350241Y447103D01*
X350241Y447107D01*
X350242Y447107D01*
X350241Y447107D01*
X350242Y447111D01*
X350243Y447115D01*
X350243Y447120D01*
X350244Y447120D01*
X350243Y447120D01*
X350244Y447124D01*
X350245Y447128D01*
X350246Y447132D01*
X350247Y447141D01*
X350248Y447149D01*
X350249Y447154D01*
X350250Y447158D01*
X350250Y447162D01*
X350251Y447166D01*
X350252Y447171D01*
X350252Y447175D01*
X350253Y447179D01*
X350254Y447183D01*
X350254Y447188D01*
X350255Y447194D01*
X350836Y448981D01*
X351689Y450655D01*
X352794Y452176D01*
X354122Y453504D01*
X355643Y454609D01*
X357317Y455462D01*
X359104Y456043D01*
X360960Y456337D01*
X361891Y456337D01*
X361891Y435009D01*
X349961Y435009D01*
G37*
%LPD*%
%LPC*%
G36*
X105261Y435009D02*
X105261Y435009D01*
X105261Y445338D01*
X105261Y445339D01*
X105262Y445343D01*
X105263Y445347D01*
X105263Y445352D01*
X105264Y445352D01*
X105263Y445352D01*
X105265Y445360D01*
X105266Y445369D01*
X105267Y445373D01*
X105268Y445377D01*
X105268Y445381D01*
X105269Y445386D01*
X105270Y445390D01*
X105270Y445394D01*
X105271Y445398D01*
X105272Y445403D01*
X105272Y445407D01*
X105274Y445415D01*
X105274Y445420D01*
X105275Y445424D01*
X105276Y445428D01*
X105276Y445432D01*
X105277Y445437D01*
X105278Y445441D01*
X105278Y445445D01*
X105279Y445449D01*
X105280Y445454D01*
X105280Y445458D01*
X105281Y445462D01*
X105282Y445471D01*
X105283Y445475D01*
X105284Y445479D01*
X105284Y445483D01*
X105285Y445488D01*
X105286Y445492D01*
X105286Y445496D01*
X105287Y445500D01*
X105288Y445505D01*
X105288Y445509D01*
X105290Y445517D01*
X105291Y445526D01*
X105292Y445530D01*
X105292Y445534D01*
X105293Y445539D01*
X105294Y445543D01*
X105294Y445547D01*
X105295Y445551D01*
X105296Y445556D01*
X105296Y445560D01*
X105297Y445564D01*
X105298Y445573D01*
X105299Y445573D01*
X105298Y445573D01*
X105300Y445581D01*
X105300Y445585D01*
X105301Y445585D01*
X105301Y445590D01*
X105302Y445594D01*
X105303Y445598D01*
X105303Y445602D01*
X105304Y445607D01*
X105305Y445611D01*
X105305Y445615D01*
X105306Y445619D01*
X105307Y445628D01*
X105309Y445636D01*
X105309Y445641D01*
X105310Y445645D01*
X105311Y445649D01*
X105311Y445653D01*
X105312Y445658D01*
X105313Y445662D01*
X105313Y445666D01*
X105314Y445670D01*
X105315Y445675D01*
X105316Y445683D01*
X105317Y445692D01*
X105318Y445696D01*
X105319Y445700D01*
X105319Y445704D01*
X105320Y445709D01*
X105321Y445713D01*
X105321Y445717D01*
X105322Y445721D01*
X105323Y445726D01*
X105323Y445730D01*
X105325Y445738D01*
X105326Y445747D01*
X105327Y445751D01*
X105327Y445755D01*
X105328Y445760D01*
X105329Y445764D01*
X105329Y445768D01*
X105330Y445772D01*
X105331Y445777D01*
X105331Y445781D01*
X105332Y445785D01*
X105333Y445794D01*
X105334Y445794D01*
X105333Y445794D01*
X105334Y445798D01*
X105335Y445802D01*
X105336Y445806D01*
X105336Y445811D01*
X105337Y445815D01*
X105338Y445819D01*
X105338Y445823D01*
X105339Y445828D01*
X105340Y445832D01*
X105340Y445836D01*
X105341Y445840D01*
X105342Y445849D01*
X105343Y445853D01*
X105344Y445857D01*
X105344Y445862D01*
X105345Y445866D01*
X105346Y445870D01*
X105346Y445874D01*
X105347Y445879D01*
X105348Y445883D01*
X105348Y445887D01*
X105350Y445896D01*
X105351Y445904D01*
X105352Y445908D01*
X105352Y445913D01*
X105353Y445917D01*
X105354Y445921D01*
X105354Y445925D01*
X105355Y445930D01*
X105356Y445934D01*
X105356Y445938D01*
X105357Y445942D01*
X105358Y445951D01*
X105360Y445959D01*
X105360Y445964D01*
X105361Y445968D01*
X105362Y445972D01*
X105362Y445976D01*
X105363Y445981D01*
X105364Y445985D01*
X105364Y445989D01*
X105365Y445993D01*
X105366Y445998D01*
X105367Y446006D01*
X105368Y446015D01*
X105369Y446015D01*
X105368Y446015D01*
X105369Y446019D01*
X105370Y446023D01*
X105371Y446027D01*
X105371Y446032D01*
X105372Y446036D01*
X105373Y446040D01*
X105373Y446044D01*
X105374Y446049D01*
X105375Y446053D01*
X105376Y446061D01*
X105377Y446070D01*
X105378Y446074D01*
X105379Y446078D01*
X105379Y446083D01*
X105380Y446087D01*
X105381Y446091D01*
X105381Y446095D01*
X105382Y446100D01*
X105383Y446104D01*
X105383Y446108D01*
X105385Y446117D01*
X105386Y446125D01*
X105387Y446129D01*
X105387Y446134D01*
X105388Y446138D01*
X105389Y446142D01*
X105389Y446146D01*
X105390Y446151D01*
X105391Y446155D01*
X105391Y446159D01*
X105392Y446163D01*
X105393Y446172D01*
X105394Y446176D01*
X105395Y446180D01*
X105395Y446185D01*
X105396Y446189D01*
X105397Y446193D01*
X105397Y446197D01*
X105398Y446202D01*
X105399Y446206D01*
X105399Y446210D01*
X105400Y446214D01*
X105401Y446219D01*
X105402Y446227D01*
X105403Y446231D01*
X105403Y446236D01*
X105404Y446236D01*
X105403Y446236D01*
X105404Y446240D01*
X105405Y446244D01*
X105406Y446248D01*
X105406Y446253D01*
X105407Y446257D01*
X105408Y446261D01*
X105408Y446265D01*
X105410Y446274D01*
X105411Y446282D01*
X105412Y446287D01*
X105412Y446291D01*
X105413Y446295D01*
X105414Y446299D01*
X105414Y446304D01*
X105415Y446308D01*
X105416Y446312D01*
X105416Y446316D01*
X105417Y446321D01*
X105418Y446329D01*
X105420Y446338D01*
X105420Y446342D01*
X105421Y446346D01*
X105422Y446350D01*
X105422Y446355D01*
X105423Y446359D01*
X105424Y446363D01*
X105424Y446367D01*
X105425Y446372D01*
X105426Y446376D01*
X105427Y446384D01*
X105428Y446393D01*
X105429Y446397D01*
X105430Y446401D01*
X105430Y446406D01*
X105431Y446410D01*
X105432Y446414D01*
X105432Y446418D01*
X105433Y446423D01*
X105434Y446427D01*
X105434Y446431D01*
X105436Y446440D01*
X105437Y446448D01*
X105438Y446452D01*
X105438Y446457D01*
X105439Y446457D01*
X105438Y446457D01*
X105439Y446461D01*
X105440Y446465D01*
X105441Y446469D01*
X105441Y446474D01*
X105442Y446478D01*
X105443Y446482D01*
X105443Y446486D01*
X105445Y446495D01*
X105445Y446499D01*
X105446Y446503D01*
X105447Y446508D01*
X105447Y446512D01*
X105448Y446516D01*
X105449Y446520D01*
X105449Y446525D01*
X105450Y446529D01*
X105451Y446533D01*
X105451Y446537D01*
X105452Y446542D01*
X105453Y446550D01*
X105454Y446554D01*
X105455Y446559D01*
X105455Y446563D01*
X105456Y446567D01*
X105457Y446571D01*
X105457Y446576D01*
X105458Y446580D01*
X105459Y446584D01*
X105459Y446588D01*
X105460Y446593D01*
X105461Y446597D01*
X105462Y446605D01*
X105463Y446610D01*
X105463Y446614D01*
X105464Y446618D01*
X105465Y446622D01*
X105465Y446627D01*
X105466Y446631D01*
X105467Y446635D01*
X105467Y446639D01*
X105468Y446644D01*
X105469Y446652D01*
X105471Y446661D01*
X105471Y446665D01*
X105472Y446665D01*
X105471Y446665D01*
X105472Y446669D01*
X105473Y446673D01*
X105473Y446678D01*
X105474Y446678D01*
X105473Y446678D01*
X105474Y446682D01*
X105475Y446686D01*
X105476Y446690D01*
X105476Y446695D01*
X105477Y446699D01*
X105478Y446707D01*
X105480Y446716D01*
X105480Y446720D01*
X105481Y446724D01*
X105482Y446729D01*
X105482Y446733D01*
X105483Y446737D01*
X105484Y446741D01*
X105484Y446746D01*
X105485Y446750D01*
X105486Y446754D01*
X105487Y446763D01*
X105488Y446771D01*
X105489Y446775D01*
X105490Y446780D01*
X105490Y446784D01*
X105491Y446788D01*
X105492Y446792D01*
X105492Y446797D01*
X105493Y446801D01*
X105494Y446805D01*
X105494Y446809D01*
X105496Y446818D01*
X105497Y446826D01*
X105498Y446831D01*
X105498Y446835D01*
X105499Y446839D01*
X105500Y446843D01*
X105500Y446848D01*
X105501Y446852D01*
X105502Y446856D01*
X105502Y446860D01*
X105503Y446865D01*
X105504Y446873D01*
X105505Y446877D01*
X105506Y446882D01*
X105506Y446886D01*
X105507Y446886D01*
X105506Y446886D01*
X105507Y446890D01*
X105508Y446894D01*
X105508Y446899D01*
X105509Y446899D01*
X105508Y446899D01*
X105509Y446903D01*
X105510Y446907D01*
X105511Y446911D01*
X105511Y446916D01*
X105512Y446920D01*
X105513Y446928D01*
X105514Y446933D01*
X105515Y446937D01*
X105515Y446941D01*
X105516Y446945D01*
X105517Y446950D01*
X105517Y446954D01*
X105518Y446958D01*
X105519Y446962D01*
X105519Y446967D01*
X105521Y446975D01*
X105522Y446984D01*
X105523Y446988D01*
X105523Y446992D01*
X105524Y446996D01*
X105525Y447001D01*
X105525Y447005D01*
X105526Y447009D01*
X105527Y447013D01*
X105527Y447018D01*
X105528Y447022D01*
X105529Y447030D01*
X105531Y447039D01*
X105531Y447043D01*
X105532Y447047D01*
X105533Y447052D01*
X105533Y447056D01*
X105534Y447060D01*
X105535Y447064D01*
X105535Y447069D01*
X105536Y447073D01*
X105537Y447077D01*
X105538Y447086D01*
X105539Y447094D01*
X105540Y447098D01*
X105541Y447103D01*
X105541Y447107D01*
X105542Y447107D01*
X105541Y447107D01*
X105542Y447111D01*
X105543Y447115D01*
X105543Y447120D01*
X105544Y447120D01*
X105543Y447120D01*
X105544Y447124D01*
X105545Y447128D01*
X105546Y447132D01*
X105547Y447141D01*
X105548Y447149D01*
X105549Y447154D01*
X105550Y447158D01*
X105550Y447162D01*
X105551Y447166D01*
X105552Y447171D01*
X105552Y447175D01*
X105553Y447179D01*
X105554Y447183D01*
X105554Y447188D01*
X105555Y447194D01*
X106136Y448981D01*
X106989Y450655D01*
X108094Y452176D01*
X109422Y453504D01*
X110943Y454609D01*
X112617Y455462D01*
X114404Y456043D01*
X116260Y456337D01*
X117191Y456337D01*
X117191Y435009D01*
X105261Y435009D01*
G37*
%LPD*%
%LPC*%
G36*
X79861Y529009D02*
X79861Y529009D01*
X79861Y539338D01*
X79862Y539340D01*
X79863Y539349D01*
X79864Y539357D01*
X79865Y539362D01*
X79866Y539366D01*
X79866Y539370D01*
X79867Y539374D01*
X79868Y539379D01*
X79868Y539383D01*
X79869Y539387D01*
X79870Y539391D01*
X79870Y539396D01*
X79872Y539404D01*
X79873Y539413D01*
X79874Y539417D01*
X79874Y539421D01*
X79875Y539421D01*
X79874Y539421D01*
X79875Y539425D01*
X79876Y539430D01*
X79877Y539434D01*
X79877Y539438D01*
X79878Y539442D01*
X79879Y539447D01*
X79879Y539451D01*
X79881Y539459D01*
X79881Y539464D01*
X79882Y539468D01*
X79883Y539472D01*
X79883Y539476D01*
X79884Y539481D01*
X79885Y539485D01*
X79885Y539489D01*
X79886Y539493D01*
X79887Y539498D01*
X79887Y539502D01*
X79888Y539506D01*
X79889Y539515D01*
X79890Y539519D01*
X79891Y539523D01*
X79891Y539527D01*
X79892Y539532D01*
X79893Y539536D01*
X79893Y539540D01*
X79894Y539544D01*
X79895Y539549D01*
X79895Y539553D01*
X79897Y539561D01*
X79898Y539570D01*
X79899Y539574D01*
X79899Y539578D01*
X79900Y539583D01*
X79901Y539587D01*
X79901Y539591D01*
X79902Y539595D01*
X79903Y539600D01*
X79903Y539604D01*
X79904Y539608D01*
X79905Y539617D01*
X79907Y539625D01*
X79907Y539629D01*
X79908Y539629D01*
X79907Y539629D01*
X79908Y539634D01*
X79909Y539638D01*
X79909Y539642D01*
X79910Y539642D01*
X79909Y539642D01*
X79910Y539646D01*
X79911Y539651D01*
X79912Y539655D01*
X79912Y539659D01*
X79913Y539663D01*
X79914Y539672D01*
X79916Y539680D01*
X79916Y539685D01*
X79917Y539689D01*
X79918Y539693D01*
X79918Y539697D01*
X79919Y539702D01*
X79920Y539706D01*
X79920Y539710D01*
X79921Y539714D01*
X79922Y539719D01*
X79923Y539727D01*
X79924Y539736D01*
X79925Y539740D01*
X79926Y539744D01*
X79926Y539748D01*
X79927Y539753D01*
X79928Y539757D01*
X79928Y539761D01*
X79929Y539765D01*
X79930Y539770D01*
X79930Y539774D01*
X79932Y539782D01*
X79933Y539791D01*
X79934Y539795D01*
X79934Y539799D01*
X79935Y539804D01*
X79936Y539808D01*
X79936Y539812D01*
X79937Y539816D01*
X79938Y539821D01*
X79938Y539825D01*
X79939Y539829D01*
X79940Y539838D01*
X79941Y539842D01*
X79942Y539846D01*
X79942Y539850D01*
X79943Y539850D01*
X79942Y539850D01*
X79943Y539855D01*
X79944Y539859D01*
X79944Y539863D01*
X79945Y539863D01*
X79944Y539863D01*
X79945Y539867D01*
X79946Y539872D01*
X79947Y539876D01*
X79947Y539880D01*
X79948Y539884D01*
X79949Y539893D01*
X79950Y539897D01*
X79951Y539901D01*
X79951Y539906D01*
X79952Y539910D01*
X79953Y539914D01*
X79953Y539918D01*
X79954Y539923D01*
X79955Y539927D01*
X79955Y539931D01*
X79957Y539940D01*
X79958Y539948D01*
X79959Y539952D01*
X79959Y539957D01*
X79960Y539961D01*
X79961Y539965D01*
X79961Y539969D01*
X79962Y539974D01*
X79963Y539978D01*
X79963Y539982D01*
X79964Y539986D01*
X79965Y539995D01*
X79967Y540003D01*
X79967Y540008D01*
X79968Y540012D01*
X79969Y540016D01*
X79969Y540020D01*
X79970Y540025D01*
X79971Y540029D01*
X79971Y540033D01*
X79972Y540037D01*
X79973Y540042D01*
X79974Y540050D01*
X79975Y540059D01*
X79976Y540063D01*
X79977Y540067D01*
X79977Y540071D01*
X79978Y540071D01*
X79977Y540071D01*
X79978Y540076D01*
X79979Y540080D01*
X79979Y540084D01*
X79980Y540084D01*
X79979Y540084D01*
X79980Y540088D01*
X79981Y540093D01*
X79982Y540097D01*
X79983Y540105D01*
X79984Y540114D01*
X79985Y540118D01*
X79986Y540122D01*
X79986Y540127D01*
X79987Y540131D01*
X79988Y540135D01*
X79988Y540139D01*
X79989Y540144D01*
X79990Y540148D01*
X79990Y540152D01*
X79992Y540161D01*
X79993Y540169D01*
X79994Y540173D01*
X79994Y540178D01*
X79995Y540182D01*
X79996Y540186D01*
X79996Y540190D01*
X79997Y540195D01*
X79998Y540199D01*
X79998Y540203D01*
X79999Y540207D01*
X80000Y540216D01*
X80001Y540220D01*
X80002Y540224D01*
X80002Y540229D01*
X80003Y540233D01*
X80004Y540237D01*
X80004Y540241D01*
X80005Y540246D01*
X80006Y540250D01*
X80006Y540254D01*
X80007Y540258D01*
X80008Y540263D01*
X80009Y540271D01*
X80010Y540275D01*
X80010Y540280D01*
X80011Y540284D01*
X80012Y540288D01*
X80012Y540292D01*
X80013Y540292D01*
X80012Y540292D01*
X80013Y540297D01*
X80014Y540301D01*
X80014Y540305D01*
X80015Y540305D01*
X80015Y540309D01*
X80017Y540318D01*
X80018Y540326D01*
X80019Y540331D01*
X80019Y540335D01*
X80020Y540339D01*
X80021Y540343D01*
X80021Y540348D01*
X80022Y540352D01*
X80023Y540356D01*
X80023Y540360D01*
X80024Y540365D01*
X80025Y540373D01*
X80027Y540382D01*
X80027Y540386D01*
X80028Y540390D01*
X80029Y540394D01*
X80029Y540399D01*
X80030Y540403D01*
X80031Y540407D01*
X80031Y540411D01*
X80032Y540416D01*
X80033Y540420D01*
X80034Y540428D01*
X80035Y540437D01*
X80036Y540441D01*
X80037Y540445D01*
X80037Y540450D01*
X80038Y540454D01*
X80039Y540458D01*
X80039Y540462D01*
X80040Y540467D01*
X80041Y540471D01*
X80041Y540475D01*
X80043Y540484D01*
X80044Y540492D01*
X80045Y540496D01*
X80045Y540501D01*
X80046Y540505D01*
X80047Y540509D01*
X80047Y540513D01*
X80048Y540513D01*
X80047Y540513D01*
X80048Y540518D01*
X80049Y540522D01*
X80049Y540526D01*
X80050Y540526D01*
X80050Y540530D01*
X80052Y540539D01*
X80053Y540547D01*
X80054Y540552D01*
X80054Y540556D01*
X80055Y540560D01*
X80056Y540564D01*
X80056Y540569D01*
X80057Y540573D01*
X80058Y540577D01*
X80058Y540581D01*
X80059Y540586D01*
X80060Y540594D01*
X80061Y540598D01*
X80062Y540603D01*
X80062Y540607D01*
X80063Y540611D01*
X80064Y540615D01*
X80064Y540620D01*
X80065Y540624D01*
X80066Y540628D01*
X80066Y540632D01*
X80067Y540637D01*
X80068Y540641D01*
X80069Y540649D01*
X80070Y540654D01*
X80070Y540658D01*
X80071Y540662D01*
X80072Y540666D01*
X80072Y540671D01*
X80073Y540675D01*
X80074Y540679D01*
X80074Y540683D01*
X80075Y540688D01*
X80076Y540696D01*
X80078Y540705D01*
X80078Y540709D01*
X80079Y540713D01*
X80080Y540717D01*
X80080Y540722D01*
X80081Y540726D01*
X80082Y540730D01*
X80082Y540734D01*
X80083Y540734D01*
X80082Y540734D01*
X80083Y540739D01*
X80084Y540743D01*
X80085Y540751D01*
X80087Y540760D01*
X80087Y540764D01*
X80088Y540768D01*
X80089Y540773D01*
X80089Y540777D01*
X80090Y540781D01*
X80091Y540785D01*
X80091Y540790D01*
X80092Y540794D01*
X80093Y540798D01*
X80094Y540807D01*
X80095Y540815D01*
X80096Y540819D01*
X80097Y540824D01*
X80097Y540828D01*
X80098Y540832D01*
X80099Y540836D01*
X80099Y540841D01*
X80100Y540845D01*
X80101Y540849D01*
X80101Y540853D01*
X80103Y540862D01*
X80104Y540870D01*
X80105Y540875D01*
X80105Y540879D01*
X80106Y540883D01*
X80107Y540887D01*
X80107Y540892D01*
X80108Y540896D01*
X80109Y540900D01*
X80109Y540904D01*
X80110Y540909D01*
X80111Y540917D01*
X80113Y540926D01*
X80113Y540930D01*
X80114Y540934D01*
X80115Y540938D01*
X80115Y540943D01*
X80116Y540947D01*
X80117Y540951D01*
X80117Y540955D01*
X80118Y540955D01*
X80117Y540955D01*
X80118Y540960D01*
X80119Y540964D01*
X80120Y540972D01*
X80121Y540977D01*
X80122Y540981D01*
X80122Y540985D01*
X80123Y540989D01*
X80124Y540994D01*
X80124Y540998D01*
X80125Y541002D01*
X80126Y541006D01*
X80126Y541011D01*
X80127Y541015D01*
X80128Y541019D01*
X80129Y541028D01*
X80130Y541032D01*
X80130Y541036D01*
X80131Y541040D01*
X80132Y541045D01*
X80132Y541049D01*
X80133Y541053D01*
X80134Y541057D01*
X80134Y541062D01*
X80135Y541066D01*
X80136Y541074D01*
X80138Y541083D01*
X80138Y541087D01*
X80139Y541091D01*
X80140Y541096D01*
X80140Y541100D01*
X80141Y541104D01*
X80142Y541108D01*
X80142Y541113D01*
X80143Y541117D01*
X80144Y541121D01*
X80145Y541130D01*
X80146Y541138D01*
X80147Y541142D01*
X80148Y541147D01*
X80148Y541151D01*
X80149Y541155D01*
X80150Y541159D01*
X80150Y541164D01*
X80151Y541168D01*
X80152Y541172D01*
X80152Y541176D01*
X80153Y541176D01*
X80152Y541176D01*
X80154Y541185D01*
X80155Y541193D01*
X80155Y541194D01*
X80736Y542981D01*
X81589Y544655D01*
X82694Y546176D01*
X84022Y547504D01*
X85543Y548609D01*
X87217Y549462D01*
X89004Y550043D01*
X90860Y550337D01*
X91791Y550337D01*
X91791Y529009D01*
X79861Y529009D01*
G37*
%LPD*%
%LPC*%
G36*
X565960Y185363D02*
X565960Y185363D01*
X564104Y185657D01*
X562317Y186238D01*
X560643Y187091D01*
X559122Y188196D01*
X557794Y189524D01*
X556689Y191045D01*
X555836Y192719D01*
X555255Y194506D01*
X554961Y196362D01*
X554961Y206691D01*
X566891Y206691D01*
X566891Y185363D01*
X565960Y185363D01*
G37*
%LPD*%
%LPC*%
G36*
X360960Y413663D02*
X360960Y413663D01*
X359104Y413957D01*
X357317Y414538D01*
X355643Y415391D01*
X354122Y416496D01*
X352794Y417824D01*
X351689Y419345D01*
X350836Y421019D01*
X350255Y422806D01*
X349961Y424662D01*
X349961Y434991D01*
X361891Y434991D01*
X361891Y413663D01*
X360960Y413663D01*
G37*
%LPD*%
%LPC*%
G36*
X116260Y413663D02*
X116260Y413663D01*
X114404Y413957D01*
X112617Y414538D01*
X110943Y415391D01*
X109422Y416496D01*
X108094Y417824D01*
X106989Y419345D01*
X106136Y421019D01*
X105555Y422806D01*
X105261Y424662D01*
X105261Y434991D01*
X117191Y434991D01*
X117191Y413663D01*
X116260Y413663D01*
G37*
%LPD*%
G36*
X544999Y287904D02*
X544999Y287904D01*
X544999Y287905D01*
X544999Y295891D01*
X544998Y295893D01*
X544998Y295894D01*
X544494Y296398D01*
X544492Y296398D01*
X544491Y296399D01*
X522504Y296399D01*
X522503Y296398D01*
X522502Y296398D01*
X522502Y296397D01*
X522500Y296396D01*
X522502Y296394D01*
X522501Y296392D01*
X530991Y287902D01*
X530993Y287902D01*
X530994Y287901D01*
X544995Y287901D01*
X544999Y287904D01*
G37*
%LPC*%
G36*
X369509Y376809D02*
X369509Y376809D01*
X369509Y392421D01*
X370394Y392421D01*
X372149Y392072D01*
X373801Y391387D01*
X375289Y390393D01*
X376553Y389129D01*
X377547Y387641D01*
X378232Y385989D01*
X378581Y384234D01*
X378581Y376809D01*
X369509Y376809D01*
G37*
%LPD*%
%LPC*%
G36*
X420309Y224409D02*
X420309Y224409D01*
X420309Y240021D01*
X421194Y240021D01*
X422949Y239672D01*
X424601Y238987D01*
X426089Y237993D01*
X427353Y236729D01*
X428347Y235241D01*
X429032Y233589D01*
X429381Y231834D01*
X429381Y224409D01*
X420309Y224409D01*
G37*
%LPD*%
%LPC*%
G36*
X369509Y376791D02*
X369509Y376791D01*
X378581Y376791D01*
X378581Y369366D01*
X378578Y369350D01*
X378577Y369346D01*
X378576Y369342D01*
X378576Y369341D01*
X378575Y369337D01*
X378574Y369333D01*
X378573Y369329D01*
X378573Y369325D01*
X378573Y369324D01*
X378572Y369320D01*
X378571Y369316D01*
X378562Y369269D01*
X378561Y369265D01*
X378560Y369261D01*
X378559Y369257D01*
X378559Y369256D01*
X378558Y369252D01*
X378557Y369248D01*
X378557Y369244D01*
X378556Y369244D01*
X378557Y369244D01*
X378556Y369240D01*
X378556Y369239D01*
X378555Y369235D01*
X378554Y369231D01*
X378546Y369189D01*
X378545Y369189D01*
X378546Y369188D01*
X378545Y369184D01*
X378544Y369180D01*
X378543Y369176D01*
X378542Y369172D01*
X378542Y369171D01*
X378541Y369167D01*
X378540Y369163D01*
X378540Y369159D01*
X378539Y369155D01*
X378539Y369154D01*
X378538Y369150D01*
X378529Y369104D01*
X378529Y369103D01*
X378528Y369099D01*
X378527Y369095D01*
X378526Y369091D01*
X378525Y369087D01*
X378525Y369086D01*
X378524Y369082D01*
X378524Y369078D01*
X378523Y369074D01*
X378522Y369070D01*
X378522Y369069D01*
X378521Y369065D01*
X378513Y369023D01*
X378512Y369019D01*
X378512Y369018D01*
X378511Y369014D01*
X378510Y369010D01*
X378509Y369006D01*
X378508Y369002D01*
X378508Y369001D01*
X378507Y368997D01*
X378507Y368993D01*
X378506Y368989D01*
X378505Y368985D01*
X378505Y368984D01*
X378496Y368938D01*
X378495Y368934D01*
X378495Y368933D01*
X378494Y368929D01*
X378493Y368925D01*
X378492Y368921D01*
X378491Y368917D01*
X378491Y368916D01*
X378491Y368912D01*
X378490Y368908D01*
X378489Y368904D01*
X378488Y368900D01*
X378480Y368857D01*
X378479Y368853D01*
X378478Y368849D01*
X378478Y368848D01*
X378477Y368844D01*
X378476Y368840D01*
X378475Y368836D01*
X378475Y368832D01*
X378474Y368832D01*
X378475Y368831D01*
X378474Y368827D01*
X378473Y368823D01*
X378472Y368819D01*
X378463Y368772D01*
X378462Y368768D01*
X378461Y368764D01*
X378461Y368763D01*
X378460Y368759D01*
X378459Y368755D01*
X378458Y368751D01*
X378458Y368747D01*
X378458Y368746D01*
X378457Y368742D01*
X378456Y368738D01*
X378455Y368734D01*
X378447Y368691D01*
X378446Y368687D01*
X378445Y368683D01*
X378444Y368679D01*
X378444Y368678D01*
X378443Y368674D01*
X378442Y368670D01*
X378442Y368666D01*
X378441Y368662D01*
X378441Y368661D01*
X378440Y368657D01*
X378439Y368653D01*
X378430Y368606D01*
X378429Y368602D01*
X378428Y368598D01*
X378427Y368594D01*
X378427Y368593D01*
X378426Y368589D01*
X378425Y368585D01*
X378425Y368581D01*
X378424Y368577D01*
X378424Y368576D01*
X378423Y368572D01*
X378422Y368568D01*
X378414Y368526D01*
X378414Y368525D01*
X378413Y368521D01*
X378412Y368517D01*
X378411Y368513D01*
X378410Y368509D01*
X378410Y368508D01*
X378409Y368504D01*
X378409Y368500D01*
X378408Y368496D01*
X378407Y368492D01*
X378407Y368491D01*
X378406Y368487D01*
X378397Y368441D01*
X378397Y368440D01*
X378396Y368436D01*
X378395Y368432D01*
X378394Y368428D01*
X378393Y368424D01*
X378393Y368423D01*
X378393Y368419D01*
X378392Y368419D01*
X378393Y368419D01*
X378392Y368415D01*
X378391Y368411D01*
X378390Y368407D01*
X378390Y368406D01*
X378389Y368402D01*
X378381Y368360D01*
X378380Y368356D01*
X378380Y368355D01*
X378379Y368351D01*
X378378Y368347D01*
X378377Y368343D01*
X378376Y368339D01*
X378376Y368338D01*
X378376Y368334D01*
X378375Y368330D01*
X378374Y368326D01*
X378373Y368322D01*
X378364Y368275D01*
X378363Y368271D01*
X378363Y368270D01*
X378362Y368266D01*
X378361Y368262D01*
X378360Y368258D01*
X378360Y368254D01*
X378360Y368253D01*
X378359Y368249D01*
X378358Y368245D01*
X378357Y368241D01*
X378356Y368237D01*
X378348Y368194D01*
X378347Y368190D01*
X378346Y368186D01*
X378346Y368185D01*
X378345Y368181D01*
X378344Y368177D01*
X378343Y368173D01*
X378343Y368169D01*
X378343Y368168D01*
X378342Y368164D01*
X378341Y368160D01*
X378340Y368156D01*
X378331Y368109D01*
X378330Y368105D01*
X378329Y368101D01*
X378329Y368100D01*
X378328Y368096D01*
X378327Y368092D01*
X378327Y368088D01*
X378326Y368084D01*
X378326Y368083D01*
X378325Y368079D01*
X378324Y368075D01*
X378323Y368071D01*
X378315Y368028D01*
X378314Y368024D01*
X378313Y368020D01*
X378312Y368016D01*
X378312Y368015D01*
X378311Y368011D01*
X378311Y368007D01*
X378310Y368007D01*
X378311Y368007D01*
X378310Y368003D01*
X378309Y367999D01*
X378309Y367998D01*
X378308Y367994D01*
X378307Y367990D01*
X378298Y367943D01*
X378297Y367939D01*
X378296Y367935D01*
X378295Y367931D01*
X378295Y367930D01*
X378294Y367926D01*
X378294Y367922D01*
X378293Y367918D01*
X378292Y367914D01*
X378292Y367913D01*
X378291Y367909D01*
X378290Y367905D01*
X378282Y367863D01*
X378282Y367862D01*
X378281Y367858D01*
X378280Y367854D01*
X378279Y367850D01*
X378278Y367846D01*
X378278Y367845D01*
X378278Y367841D01*
X378277Y367837D01*
X378276Y367833D01*
X378275Y367829D01*
X378275Y367828D01*
X378274Y367824D01*
X378265Y367778D01*
X378265Y367777D01*
X378264Y367773D01*
X378263Y367769D01*
X378262Y367765D01*
X378261Y367761D01*
X378261Y367760D01*
X378261Y367756D01*
X378260Y367752D01*
X378259Y367748D01*
X378258Y367744D01*
X378258Y367743D01*
X378257Y367739D01*
X378249Y367697D01*
X378248Y367693D01*
X378248Y367692D01*
X378247Y367688D01*
X378246Y367684D01*
X378245Y367680D01*
X378245Y367676D01*
X378245Y367675D01*
X378244Y367671D01*
X378243Y367667D01*
X378242Y367663D01*
X378241Y367659D01*
X378232Y367612D01*
X378232Y367611D01*
X377547Y365959D01*
X376553Y364471D01*
X375289Y363207D01*
X373801Y362213D01*
X372149Y361528D01*
X370394Y361179D01*
X369509Y361179D01*
X369509Y376791D01*
G37*
%LPD*%
%LPC*%
G36*
X420309Y224391D02*
X420309Y224391D01*
X429381Y224391D01*
X429381Y216966D01*
X429374Y216932D01*
X429373Y216928D01*
X429372Y216924D01*
X429372Y216920D01*
X429372Y216919D01*
X429371Y216915D01*
X429370Y216911D01*
X429369Y216907D01*
X429368Y216903D01*
X429368Y216902D01*
X429367Y216898D01*
X429367Y216894D01*
X429366Y216894D01*
X429358Y216852D01*
X429358Y216851D01*
X429357Y216847D01*
X429356Y216843D01*
X429356Y216839D01*
X429355Y216839D01*
X429356Y216839D01*
X429355Y216835D01*
X429355Y216834D01*
X429354Y216830D01*
X429353Y216826D01*
X429352Y216822D01*
X429351Y216818D01*
X429351Y216817D01*
X429350Y216813D01*
X429341Y216767D01*
X429341Y216766D01*
X429340Y216762D01*
X429339Y216758D01*
X429339Y216754D01*
X429338Y216750D01*
X429338Y216749D01*
X429337Y216745D01*
X429336Y216741D01*
X429335Y216737D01*
X429334Y216733D01*
X429334Y216732D01*
X429334Y216728D01*
X429325Y216686D01*
X429324Y216682D01*
X429324Y216681D01*
X429323Y216677D01*
X429323Y216673D01*
X429322Y216669D01*
X429321Y216665D01*
X429321Y216664D01*
X429320Y216660D01*
X429319Y216656D01*
X429318Y216652D01*
X429317Y216648D01*
X429317Y216647D01*
X429308Y216601D01*
X429307Y216597D01*
X429307Y216596D01*
X429306Y216592D01*
X429306Y216588D01*
X429305Y216584D01*
X429304Y216580D01*
X429304Y216579D01*
X429303Y216575D01*
X429302Y216571D01*
X429301Y216567D01*
X429301Y216563D01*
X429292Y216520D01*
X429291Y216516D01*
X429290Y216512D01*
X429290Y216511D01*
X429290Y216507D01*
X429289Y216503D01*
X429288Y216499D01*
X429287Y216495D01*
X429287Y216494D01*
X429286Y216490D01*
X429285Y216486D01*
X429285Y216482D01*
X429284Y216482D01*
X429275Y216435D01*
X429274Y216431D01*
X429274Y216427D01*
X429273Y216427D01*
X429274Y216426D01*
X429273Y216422D01*
X429272Y216418D01*
X429271Y216414D01*
X429270Y216410D01*
X429270Y216409D01*
X429269Y216405D01*
X429268Y216401D01*
X429268Y216397D01*
X429259Y216354D01*
X429258Y216350D01*
X429257Y216346D01*
X429257Y216342D01*
X429257Y216341D01*
X429256Y216337D01*
X429255Y216333D01*
X429254Y216329D01*
X429253Y216325D01*
X429253Y216324D01*
X429252Y216320D01*
X429252Y216316D01*
X429242Y216269D01*
X429241Y216265D01*
X429241Y216261D01*
X429240Y216257D01*
X429240Y216256D01*
X429239Y216252D01*
X429238Y216248D01*
X429237Y216244D01*
X429236Y216240D01*
X429236Y216239D01*
X429235Y216235D01*
X429235Y216231D01*
X429226Y216189D01*
X429226Y216188D01*
X429225Y216184D01*
X429224Y216180D01*
X429224Y216176D01*
X429223Y216172D01*
X429223Y216171D01*
X429222Y216167D01*
X429221Y216163D01*
X429220Y216159D01*
X429219Y216155D01*
X429219Y216154D01*
X429219Y216150D01*
X429209Y216104D01*
X429209Y216103D01*
X429208Y216099D01*
X429208Y216095D01*
X429207Y216091D01*
X429206Y216087D01*
X429206Y216086D01*
X429205Y216082D01*
X429204Y216078D01*
X429203Y216074D01*
X429203Y216070D01*
X429202Y216070D01*
X429202Y216069D01*
X429202Y216065D01*
X429193Y216023D01*
X429192Y216019D01*
X429192Y216018D01*
X429192Y216014D01*
X429191Y216014D01*
X429192Y216014D01*
X429191Y216010D01*
X429190Y216006D01*
X429189Y216002D01*
X429189Y216001D01*
X429188Y215997D01*
X429187Y215993D01*
X429186Y215989D01*
X429186Y215985D01*
X429176Y215938D01*
X429175Y215934D01*
X429175Y215933D01*
X429175Y215929D01*
X429174Y215925D01*
X429173Y215921D01*
X429172Y215917D01*
X429172Y215916D01*
X429171Y215912D01*
X429170Y215908D01*
X429170Y215904D01*
X429169Y215900D01*
X429160Y215857D01*
X429159Y215853D01*
X429159Y215849D01*
X429159Y215848D01*
X429158Y215844D01*
X429157Y215840D01*
X429156Y215836D01*
X429155Y215832D01*
X429155Y215831D01*
X429154Y215827D01*
X429153Y215823D01*
X429153Y215819D01*
X429143Y215772D01*
X429142Y215768D01*
X429142Y215764D01*
X429142Y215763D01*
X429141Y215759D01*
X429140Y215755D01*
X429139Y215751D01*
X429138Y215747D01*
X429138Y215746D01*
X429137Y215742D01*
X429137Y215738D01*
X429136Y215734D01*
X429127Y215691D01*
X429126Y215687D01*
X429126Y215683D01*
X429125Y215679D01*
X429125Y215678D01*
X429124Y215674D01*
X429123Y215670D01*
X429122Y215666D01*
X429121Y215662D01*
X429121Y215661D01*
X429121Y215657D01*
X429120Y215657D01*
X429120Y215653D01*
X429110Y215606D01*
X429110Y215602D01*
X429109Y215602D01*
X429110Y215602D01*
X429109Y215598D01*
X429108Y215594D01*
X429108Y215593D01*
X429107Y215589D01*
X429106Y215585D01*
X429105Y215581D01*
X429104Y215577D01*
X429104Y215576D01*
X429104Y215572D01*
X429103Y215568D01*
X429094Y215526D01*
X429094Y215525D01*
X429093Y215521D01*
X429093Y215517D01*
X429092Y215513D01*
X429091Y215509D01*
X429091Y215508D01*
X429090Y215504D01*
X429089Y215500D01*
X429088Y215496D01*
X429088Y215492D01*
X429088Y215491D01*
X429087Y215487D01*
X429077Y215441D01*
X429077Y215440D01*
X429077Y215436D01*
X429076Y215432D01*
X429075Y215428D01*
X429074Y215424D01*
X429074Y215423D01*
X429073Y215419D01*
X429072Y215415D01*
X429071Y215411D01*
X429071Y215407D01*
X429071Y215406D01*
X429070Y215402D01*
X429061Y215360D01*
X429060Y215356D01*
X429060Y215355D01*
X429060Y215351D01*
X429059Y215347D01*
X429058Y215343D01*
X429057Y215339D01*
X429057Y215338D01*
X429056Y215334D01*
X429055Y215330D01*
X429055Y215326D01*
X429054Y215322D01*
X429044Y215275D01*
X429044Y215271D01*
X429044Y215270D01*
X429043Y215266D01*
X429042Y215262D01*
X429041Y215258D01*
X429040Y215254D01*
X429040Y215253D01*
X429039Y215249D01*
X429039Y215245D01*
X429038Y215245D01*
X429038Y215241D01*
X429037Y215237D01*
X429032Y215211D01*
X428347Y213559D01*
X427353Y212071D01*
X426089Y210807D01*
X424601Y209813D01*
X422949Y209128D01*
X421194Y208779D01*
X420309Y208779D01*
X420309Y224391D01*
G37*
%LPD*%
%LPC*%
G36*
X411219Y224409D02*
X411219Y224409D01*
X411219Y231834D01*
X411225Y231861D01*
X411225Y231866D01*
X411226Y231866D01*
X411225Y231866D01*
X411226Y231870D01*
X411227Y231874D01*
X411228Y231878D01*
X411229Y231883D01*
X411230Y231887D01*
X411231Y231891D01*
X411231Y231895D01*
X411232Y231900D01*
X411241Y231942D01*
X411242Y231946D01*
X411242Y231951D01*
X411243Y231955D01*
X411244Y231959D01*
X411245Y231963D01*
X411246Y231968D01*
X411247Y231972D01*
X411247Y231976D01*
X411248Y231980D01*
X411258Y232027D01*
X411258Y232031D01*
X411259Y232036D01*
X411260Y232040D01*
X411261Y232044D01*
X411262Y232048D01*
X411263Y232053D01*
X411264Y232057D01*
X411264Y232061D01*
X411274Y232108D01*
X411275Y232112D01*
X411275Y232116D01*
X411276Y232121D01*
X411277Y232125D01*
X411278Y232129D01*
X411279Y232133D01*
X411280Y232138D01*
X411280Y232142D01*
X411281Y232146D01*
X411290Y232189D01*
X411291Y232193D01*
X411291Y232197D01*
X411292Y232201D01*
X411293Y232206D01*
X411294Y232210D01*
X411295Y232214D01*
X411296Y232218D01*
X411296Y232223D01*
X411297Y232223D01*
X411297Y232227D01*
X411307Y232274D01*
X411307Y232278D01*
X411308Y232278D01*
X411307Y232278D01*
X411308Y232282D01*
X411309Y232286D01*
X411310Y232291D01*
X411311Y232295D01*
X411312Y232299D01*
X411313Y232303D01*
X411313Y232308D01*
X411314Y232312D01*
X411323Y232354D01*
X411324Y232359D01*
X411324Y232363D01*
X411325Y232367D01*
X411326Y232371D01*
X411327Y232376D01*
X411328Y232380D01*
X411329Y232384D01*
X411329Y232388D01*
X411330Y232393D01*
X411340Y232439D01*
X411340Y232444D01*
X411341Y232448D01*
X411342Y232452D01*
X411343Y232456D01*
X411344Y232461D01*
X411345Y232465D01*
X411346Y232469D01*
X411346Y232473D01*
X411347Y232478D01*
X411356Y232520D01*
X411357Y232524D01*
X411357Y232529D01*
X411358Y232533D01*
X411359Y232537D01*
X411360Y232541D01*
X411361Y232546D01*
X411362Y232550D01*
X411362Y232554D01*
X411363Y232558D01*
X411373Y232605D01*
X411373Y232609D01*
X411374Y232614D01*
X411375Y232618D01*
X411376Y232622D01*
X411377Y232626D01*
X411378Y232631D01*
X411378Y232635D01*
X411379Y232635D01*
X411378Y232635D01*
X411379Y232639D01*
X411380Y232643D01*
X411389Y232686D01*
X411389Y232690D01*
X411390Y232690D01*
X411389Y232690D01*
X411390Y232694D01*
X411391Y232699D01*
X411392Y232703D01*
X411393Y232707D01*
X411394Y232711D01*
X411395Y232716D01*
X411395Y232720D01*
X411396Y232724D01*
X411406Y232771D01*
X411406Y232775D01*
X411407Y232779D01*
X411408Y232784D01*
X411409Y232788D01*
X411410Y232792D01*
X411411Y232796D01*
X411411Y232801D01*
X411412Y232805D01*
X411413Y232809D01*
X411422Y232852D01*
X411422Y232856D01*
X411423Y232860D01*
X411424Y232864D01*
X411425Y232869D01*
X411426Y232873D01*
X411427Y232877D01*
X411428Y232881D01*
X411428Y232886D01*
X411429Y232890D01*
X411439Y232937D01*
X411439Y232941D01*
X411440Y232945D01*
X411441Y232949D01*
X411442Y232954D01*
X411443Y232958D01*
X411444Y232962D01*
X411444Y232966D01*
X411445Y232971D01*
X411446Y232975D01*
X411455Y233017D01*
X411455Y233022D01*
X411456Y233026D01*
X411457Y233030D01*
X411458Y233034D01*
X411459Y233039D01*
X411460Y233043D01*
X411460Y233047D01*
X411461Y233047D01*
X411460Y233047D01*
X411461Y233051D01*
X411462Y233056D01*
X411471Y233102D01*
X411472Y233102D01*
X411471Y233102D01*
X411472Y233107D01*
X411473Y233111D01*
X411474Y233115D01*
X411475Y233119D01*
X411476Y233124D01*
X411477Y233128D01*
X411477Y233132D01*
X411478Y233136D01*
X411479Y233141D01*
X411488Y233183D01*
X411488Y233187D01*
X411489Y233192D01*
X411490Y233196D01*
X411491Y233200D01*
X411492Y233204D01*
X411493Y233209D01*
X411493Y233213D01*
X411494Y233217D01*
X411495Y233221D01*
X411504Y233268D01*
X411505Y233272D01*
X411506Y233277D01*
X411507Y233281D01*
X411508Y233285D01*
X411509Y233289D01*
X411510Y233294D01*
X411510Y233298D01*
X411511Y233302D01*
X411512Y233306D01*
X411521Y233349D01*
X411521Y233353D01*
X411522Y233357D01*
X411523Y233362D01*
X411524Y233366D01*
X411525Y233370D01*
X411526Y233374D01*
X411526Y233379D01*
X411527Y233383D01*
X411528Y233387D01*
X411537Y233434D01*
X411538Y233438D01*
X411539Y233442D01*
X411540Y233447D01*
X411541Y233451D01*
X411542Y233455D01*
X411542Y233459D01*
X411543Y233459D01*
X411542Y233459D01*
X411543Y233464D01*
X411544Y233468D01*
X411545Y233472D01*
X411553Y233515D01*
X411554Y233515D01*
X411553Y233515D01*
X411554Y233519D01*
X411555Y233523D01*
X411556Y233527D01*
X411557Y233532D01*
X411558Y233536D01*
X411559Y233540D01*
X411559Y233544D01*
X411560Y233549D01*
X411561Y233553D01*
X411568Y233589D01*
X412253Y235241D01*
X413247Y236729D01*
X414511Y237993D01*
X415999Y238987D01*
X417651Y239672D01*
X419406Y240021D01*
X420291Y240021D01*
X420291Y224409D01*
X411219Y224409D01*
G37*
%LPD*%
%LPC*%
G36*
X360419Y376809D02*
X360419Y376809D01*
X360419Y384234D01*
X360428Y384279D01*
X360429Y384283D01*
X360430Y384288D01*
X360431Y384292D01*
X360432Y384296D01*
X360432Y384300D01*
X360433Y384305D01*
X360434Y384309D01*
X360435Y384313D01*
X360436Y384317D01*
X360444Y384360D01*
X360445Y384364D01*
X360446Y384368D01*
X360447Y384373D01*
X360448Y384377D01*
X360448Y384381D01*
X360449Y384385D01*
X360450Y384390D01*
X360451Y384394D01*
X360452Y384398D01*
X360461Y384445D01*
X360462Y384449D01*
X360463Y384453D01*
X360464Y384458D01*
X360465Y384462D01*
X360465Y384466D01*
X360466Y384470D01*
X360467Y384475D01*
X360468Y384479D01*
X360469Y384483D01*
X360477Y384526D01*
X360478Y384530D01*
X360479Y384534D01*
X360480Y384538D01*
X360481Y384543D01*
X360481Y384547D01*
X360482Y384551D01*
X360483Y384555D01*
X360484Y384560D01*
X360485Y384564D01*
X360494Y384611D01*
X360495Y384615D01*
X360496Y384619D01*
X360497Y384623D01*
X360497Y384628D01*
X360498Y384628D01*
X360497Y384628D01*
X360498Y384632D01*
X360499Y384636D01*
X360500Y384640D01*
X360501Y384645D01*
X360502Y384649D01*
X360510Y384691D01*
X360511Y384696D01*
X360512Y384700D01*
X360513Y384704D01*
X360514Y384708D01*
X360514Y384713D01*
X360515Y384717D01*
X360516Y384721D01*
X360517Y384725D01*
X360518Y384730D01*
X360527Y384776D01*
X360528Y384781D01*
X360529Y384785D01*
X360530Y384789D01*
X360530Y384793D01*
X360531Y384798D01*
X360532Y384802D01*
X360533Y384806D01*
X360534Y384810D01*
X360535Y384815D01*
X360543Y384857D01*
X360544Y384861D01*
X360545Y384866D01*
X360546Y384870D01*
X360547Y384874D01*
X360547Y384878D01*
X360548Y384883D01*
X360549Y384887D01*
X360550Y384891D01*
X360551Y384895D01*
X360560Y384942D01*
X360561Y384946D01*
X360562Y384951D01*
X360563Y384955D01*
X360563Y384959D01*
X360564Y384963D01*
X360565Y384968D01*
X360566Y384972D01*
X360567Y384976D01*
X360568Y384980D01*
X360576Y385023D01*
X360577Y385027D01*
X360578Y385031D01*
X360579Y385036D01*
X360579Y385040D01*
X360580Y385040D01*
X360579Y385040D01*
X360580Y385044D01*
X360581Y385048D01*
X360582Y385053D01*
X360583Y385057D01*
X360584Y385061D01*
X360593Y385108D01*
X360594Y385112D01*
X360595Y385116D01*
X360596Y385121D01*
X360596Y385125D01*
X360597Y385129D01*
X360598Y385133D01*
X360599Y385138D01*
X360600Y385142D01*
X360601Y385146D01*
X360609Y385189D01*
X360610Y385193D01*
X360611Y385197D01*
X360612Y385201D01*
X360612Y385206D01*
X360613Y385210D01*
X360614Y385214D01*
X360615Y385218D01*
X360616Y385223D01*
X360617Y385227D01*
X360626Y385274D01*
X360627Y385278D01*
X360628Y385282D01*
X360629Y385286D01*
X360629Y385291D01*
X360630Y385295D01*
X360631Y385299D01*
X360632Y385303D01*
X360633Y385308D01*
X360634Y385312D01*
X360642Y385354D01*
X360643Y385359D01*
X360644Y385363D01*
X360645Y385367D01*
X360645Y385371D01*
X360646Y385376D01*
X360647Y385380D01*
X360648Y385384D01*
X360649Y385388D01*
X360650Y385393D01*
X360659Y385439D01*
X360660Y385444D01*
X360661Y385448D01*
X360661Y385452D01*
X360662Y385452D01*
X360661Y385452D01*
X360662Y385456D01*
X360663Y385461D01*
X360664Y385465D01*
X360665Y385469D01*
X360666Y385473D01*
X360667Y385478D01*
X360675Y385520D01*
X360676Y385524D01*
X360677Y385529D01*
X360678Y385533D01*
X360678Y385537D01*
X360679Y385541D01*
X360680Y385546D01*
X360681Y385550D01*
X360682Y385554D01*
X360683Y385558D01*
X360692Y385605D01*
X360693Y385609D01*
X360694Y385614D01*
X360694Y385618D01*
X360695Y385622D01*
X360696Y385626D01*
X360697Y385631D01*
X360698Y385635D01*
X360699Y385639D01*
X360700Y385643D01*
X360708Y385686D01*
X360709Y385690D01*
X360710Y385694D01*
X360711Y385699D01*
X360711Y385703D01*
X360712Y385707D01*
X360713Y385711D01*
X360714Y385716D01*
X360715Y385720D01*
X360716Y385724D01*
X360725Y385771D01*
X360726Y385775D01*
X360727Y385779D01*
X360727Y385784D01*
X360728Y385788D01*
X360729Y385792D01*
X360730Y385796D01*
X360731Y385801D01*
X360732Y385805D01*
X360732Y385809D01*
X360733Y385809D01*
X360741Y385852D01*
X360742Y385856D01*
X360743Y385860D01*
X360743Y385864D01*
X360744Y385864D01*
X360743Y385864D01*
X360744Y385869D01*
X360745Y385873D01*
X360746Y385877D01*
X360747Y385881D01*
X360748Y385886D01*
X360749Y385890D01*
X360758Y385937D01*
X360759Y385941D01*
X360760Y385945D01*
X360760Y385949D01*
X360761Y385954D01*
X360762Y385958D01*
X360763Y385962D01*
X360764Y385966D01*
X360765Y385971D01*
X360765Y385975D01*
X360768Y385989D01*
X361453Y387641D01*
X362447Y389129D01*
X363711Y390393D01*
X365199Y391387D01*
X366851Y392072D01*
X368606Y392421D01*
X369491Y392421D01*
X369491Y376809D01*
X360419Y376809D01*
G37*
%LPD*%
%LPC*%
G36*
X419406Y208779D02*
X419406Y208779D01*
X417651Y209128D01*
X415999Y209813D01*
X414511Y210807D01*
X413247Y212071D01*
X412253Y213559D01*
X411568Y215211D01*
X411219Y216966D01*
X411219Y224391D01*
X420291Y224391D01*
X420291Y208779D01*
X419406Y208779D01*
G37*
%LPD*%
%LPC*%
G36*
X368606Y361179D02*
X368606Y361179D01*
X366851Y361528D01*
X365199Y362213D01*
X363711Y363207D01*
X362447Y364471D01*
X361453Y365959D01*
X360768Y367611D01*
X360419Y369366D01*
X360419Y376791D01*
X369491Y376791D01*
X369491Y361179D01*
X368606Y361179D01*
G37*
%LPD*%
%LPC*%
G36*
X406709Y252509D02*
X406709Y252509D01*
X406709Y264041D01*
X415205Y264041D01*
X416139Y263654D01*
X416854Y262939D01*
X417241Y262005D01*
X417241Y252509D01*
X406709Y252509D01*
G37*
%LPD*%
%LPC*%
G36*
X621009Y382159D02*
X621009Y382159D01*
X621009Y393691D01*
X631541Y393691D01*
X631541Y384195D01*
X631154Y383261D01*
X630439Y382546D01*
X629505Y382159D01*
X621009Y382159D01*
G37*
%LPD*%
%LPC*%
G36*
X610459Y393709D02*
X610459Y393709D01*
X610459Y403205D01*
X610846Y404139D01*
X611561Y404854D01*
X612495Y405241D01*
X620991Y405241D01*
X620991Y393709D01*
X610459Y393709D01*
G37*
%LPD*%
%LPC*%
G36*
X396159Y252509D02*
X396159Y252509D01*
X396159Y262005D01*
X396546Y262939D01*
X397261Y263654D01*
X398195Y264041D01*
X406691Y264041D01*
X406691Y252509D01*
X396159Y252509D01*
G37*
%LPD*%
%LPC*%
G36*
X385609Y459559D02*
X385609Y459559D01*
X385609Y471091D01*
X396141Y471091D01*
X396141Y461595D01*
X395754Y460661D01*
X395039Y459946D01*
X394105Y459559D01*
X385609Y459559D01*
G37*
%LPD*%
%LPC*%
G36*
X90909Y486359D02*
X90909Y486359D01*
X90909Y497891D01*
X101441Y497891D01*
X101441Y488395D01*
X101054Y487461D01*
X100339Y486746D01*
X99405Y486359D01*
X90909Y486359D01*
G37*
%LPD*%
%LPC*%
G36*
X406709Y240959D02*
X406709Y240959D01*
X406709Y252491D01*
X417241Y252491D01*
X417241Y242995D01*
X416854Y242061D01*
X416139Y241346D01*
X415205Y240959D01*
X406709Y240959D01*
G37*
%LPD*%
%LPC*%
G36*
X82395Y486359D02*
X82395Y486359D01*
X81461Y486746D01*
X80746Y487461D01*
X80359Y488395D01*
X80359Y497891D01*
X90891Y497891D01*
X90891Y486359D01*
X82395Y486359D01*
G37*
%LPD*%
%LPC*%
G36*
X377095Y459559D02*
X377095Y459559D01*
X376161Y459946D01*
X375446Y460661D01*
X375059Y461595D01*
X375059Y471091D01*
X385591Y471091D01*
X385591Y459559D01*
X377095Y459559D01*
G37*
%LPD*%
%LPC*%
G36*
X612495Y382159D02*
X612495Y382159D01*
X611561Y382546D01*
X610846Y383261D01*
X610459Y384195D01*
X610459Y393691D01*
X620991Y393691D01*
X620991Y382159D01*
X612495Y382159D01*
G37*
%LPD*%
%LPC*%
G36*
X480009Y316609D02*
X480009Y316609D01*
X480009Y322316D01*
X486855Y322316D01*
X487789Y321929D01*
X488504Y321214D01*
X488891Y320280D01*
X488891Y316609D01*
X480009Y316609D01*
G37*
%LPD*%
%LPC*%
G36*
X471109Y316609D02*
X471109Y316609D01*
X471109Y320280D01*
X471496Y321214D01*
X472211Y321929D01*
X473145Y322316D01*
X479991Y322316D01*
X479991Y316609D01*
X471109Y316609D01*
G37*
%LPD*%
G36*
X424918Y297502D02*
X424918Y297502D01*
X424919Y297502D01*
X424964Y297547D01*
X424964Y297548D01*
X424965Y297549D01*
X424964Y297551D01*
X424964Y297553D01*
X423449Y299068D01*
X423449Y302495D01*
X423446Y302499D01*
X423445Y302499D01*
X418705Y302499D01*
X418701Y302496D01*
X418701Y302495D01*
X418701Y298343D01*
X417866Y297508D01*
X417866Y297507D01*
X417865Y297506D01*
X417866Y297504D01*
X417866Y297502D01*
X417868Y297502D01*
X417869Y297501D01*
X424916Y297501D01*
X424918Y297502D01*
G37*
G36*
X547748Y387502D02*
X547748Y387502D01*
X547750Y387503D01*
X547750Y387504D01*
X547749Y387506D01*
X547748Y387509D01*
X545591Y388402D01*
X545496Y388498D01*
X545494Y388498D01*
X545493Y388499D01*
X522494Y388499D01*
X522493Y388498D01*
X522491Y388498D01*
X521501Y387508D01*
X521501Y387507D01*
X521501Y387506D01*
X521500Y387506D01*
X521501Y387504D01*
X521501Y387502D01*
X521503Y387502D01*
X521504Y387501D01*
X547746Y387501D01*
X547748Y387502D01*
G37*
%LPC*%
G36*
X630399Y426199D02*
X630399Y426199D01*
X630399Y426201D01*
X630401Y426201D01*
X630401Y426199D01*
X630399Y426199D01*
G37*
%LPD*%
%LPC*%
G36*
X361899Y434999D02*
X361899Y434999D01*
X361899Y435001D01*
X361901Y435001D01*
X361901Y434999D01*
X361899Y434999D01*
G37*
%LPD*%
%LPC*%
G36*
X420299Y224399D02*
X420299Y224399D01*
X420299Y224401D01*
X420301Y224401D01*
X420301Y224399D01*
X420299Y224399D01*
G37*
%LPD*%
%LPC*%
G36*
X369499Y376799D02*
X369499Y376799D01*
X369499Y376801D01*
X369501Y376801D01*
X369501Y376799D01*
X369499Y376799D01*
G37*
%LPD*%
%LPC*%
G36*
X566899Y206699D02*
X566899Y206699D01*
X566899Y206701D01*
X566901Y206701D01*
X566901Y206699D01*
X566899Y206699D01*
G37*
%LPD*%
%LPC*%
G36*
X117199Y434999D02*
X117199Y434999D01*
X117199Y435001D01*
X117201Y435001D01*
X117201Y434999D01*
X117199Y434999D01*
G37*
%LPD*%
%LPC*%
G36*
X620999Y393699D02*
X620999Y393699D01*
X620999Y393701D01*
X621001Y393701D01*
X621001Y393699D01*
X620999Y393699D01*
G37*
%LPD*%
%LPC*%
G36*
X406699Y252499D02*
X406699Y252499D01*
X406699Y252501D01*
X406701Y252501D01*
X406701Y252499D01*
X406699Y252499D01*
G37*
%LPD*%
D10*
X445700Y370260D02*
X445700Y383340D01*
X420300Y383340D02*
X420300Y370260D01*
X394900Y370260D02*
X394900Y383340D01*
X369500Y383340D02*
X369500Y370260D01*
X344100Y370260D02*
X344100Y383340D01*
X318700Y383340D02*
X318700Y370260D01*
X293300Y370260D02*
X293300Y383340D01*
X267900Y383340D02*
X267900Y370260D01*
X242500Y370260D02*
X242500Y383340D01*
X217100Y383340D02*
X217100Y370260D01*
X191700Y370260D02*
X191700Y383340D01*
X166300Y383340D02*
X166300Y370260D01*
X445700Y230940D02*
X445700Y217860D01*
X420300Y217860D02*
X420300Y230940D01*
X394900Y230940D02*
X394900Y217860D01*
X242500Y217860D02*
X242500Y230940D01*
X217100Y230940D02*
X217100Y217860D01*
X191700Y217860D02*
X191700Y230940D01*
X166300Y230940D02*
X166300Y217860D01*
X90100Y217860D02*
X90100Y230940D01*
X90100Y370260D02*
X90100Y383340D01*
X115500Y383340D02*
X115500Y370260D01*
X140900Y370260D02*
X140900Y383340D01*
X115500Y230940D02*
X115500Y217860D01*
X140900Y217860D02*
X140900Y230940D01*
X369500Y230940D02*
X369500Y217860D01*
X267900Y217860D02*
X267900Y230940D01*
X293300Y230940D02*
X293300Y217860D01*
X318700Y217860D02*
X318700Y230940D01*
X344100Y230940D02*
X344100Y217860D01*
D11*
X438100Y425602D02*
X438100Y444398D01*
X412700Y444398D02*
X412700Y425602D01*
X387300Y425602D02*
X387300Y444398D01*
X361900Y444398D02*
X361900Y425602D01*
X655800Y416802D02*
X655800Y435598D01*
X630400Y435598D02*
X630400Y416802D01*
X605000Y416802D02*
X605000Y435598D01*
X579600Y435598D02*
X579600Y416802D01*
X554200Y416802D02*
X554200Y435598D01*
D12*
X480000Y316600D03*
X480000Y303900D03*
X480000Y291200D03*
X480000Y278500D03*
X433800Y316600D03*
X433800Y303900D03*
X433800Y291200D03*
X433800Y278500D03*
D11*
X592300Y304402D02*
X592300Y323198D01*
X617700Y323198D02*
X617700Y304402D01*
X516100Y216098D02*
X516100Y197302D01*
X541500Y197302D02*
X541500Y216098D01*
X566900Y216098D02*
X566900Y197302D01*
X592300Y197302D02*
X592300Y216098D01*
X617700Y216098D02*
X617700Y197302D01*
X117200Y425602D02*
X117200Y444398D01*
X91800Y444398D02*
X91800Y425602D01*
X91800Y519602D02*
X91800Y538398D01*
X117200Y538398D02*
X117200Y519602D01*
X142600Y519602D02*
X142600Y538398D01*
D13*
X378700Y252500D03*
X406700Y252500D03*
X385600Y471100D03*
X413600Y471100D03*
X621000Y393700D03*
X649000Y393700D03*
X118900Y497900D03*
X90900Y497900D03*
D14*
X318500Y254000D03*
X346500Y254000D03*
X318500Y285400D03*
X346500Y285400D03*
X593200Y140200D03*
X565200Y140200D03*
X593000Y171000D03*
X565000Y171000D03*
D15*
X533800Y275900D03*
X533800Y247900D03*
X503100Y275900D03*
X503100Y247900D03*
D14*
X378700Y310000D03*
X406700Y310000D03*
X346500Y345000D03*
X318500Y345000D03*
D16*
X361900Y435000D02*
X117200Y435000D01*
X369500Y390500D02*
X369500Y376800D01*
X369500Y390500D02*
X362000Y398000D01*
X362000Y434900D02*
X361900Y435000D01*
X362000Y434900D02*
X362000Y398000D01*
X630400Y410400D02*
X630400Y426200D01*
X630400Y410400D02*
X611650Y391650D01*
X566900Y346900D02*
X566900Y316500D01*
X566900Y206700D01*
X117200Y435000D02*
X117200Y463800D01*
X91800Y489200D02*
X91800Y497000D01*
X91800Y529000D01*
X91800Y489200D02*
X117200Y463800D01*
X406700Y252500D02*
X420300Y238900D01*
X420300Y224400D01*
X384400Y469900D02*
X385600Y471100D01*
X384400Y469900D02*
X368300Y469900D01*
X361900Y463500D01*
X361900Y435000D01*
X618950Y391650D02*
X621000Y393700D01*
X618950Y391650D02*
X611650Y391650D01*
X91800Y497000D02*
X90900Y497900D01*
X566900Y346900D02*
X611650Y391650D01*
X566800Y316600D02*
X480000Y316600D01*
X566800Y316600D02*
X566900Y316500D01*
X369500Y224400D02*
X369500Y200500D01*
X390000Y180000D01*
X459200Y180000D01*
X520000Y119200D01*
X642700Y119200D01*
X655800Y132300D02*
X655800Y393700D01*
X655800Y426200D01*
X655800Y132300D02*
X642700Y119200D01*
X369500Y254000D02*
X369500Y274500D01*
X369500Y254000D02*
X369500Y224400D01*
X438100Y435000D02*
X465000Y435000D01*
X490000Y460000D01*
X645000Y460000D01*
X655800Y449200D02*
X655800Y426200D01*
X655800Y449200D02*
X645000Y460000D01*
X117200Y502800D02*
X117200Y529000D01*
X438100Y459900D02*
X438100Y435000D01*
X122100Y497900D02*
X117200Y502800D01*
X122100Y497900D02*
X130000Y490000D01*
X408000Y490000D01*
X426900Y471100D01*
X438100Y459900D01*
X378700Y252500D02*
X371000Y252500D01*
X413600Y471100D02*
X426900Y471100D01*
X649000Y393700D02*
X655800Y393700D01*
X122100Y497900D02*
X118900Y497900D01*
X489400Y180000D02*
X516100Y206700D01*
X369500Y254000D02*
X346500Y254000D01*
X369500Y254000D02*
X371000Y252500D01*
X358600Y285400D02*
X346500Y285400D01*
X358600Y285400D02*
X369500Y274500D01*
X459200Y180000D02*
X489400Y180000D01*
X378700Y310000D02*
X368700Y310000D01*
X346500Y287800D01*
X346500Y285400D01*
D17*
X519800Y395000D02*
X550000Y395000D01*
X519800Y395000D02*
X448800Y324000D01*
D18*
X550000Y395000D03*
D17*
X448800Y324000D02*
X448800Y296200D01*
X466700Y278300D01*
X500500Y278500D02*
X503100Y275900D01*
X479800Y278300D02*
X466700Y278300D01*
X479800Y278300D02*
X480000Y278500D01*
X500500Y278500D01*
X580000Y395000D02*
X580000Y425800D01*
X579600Y426200D01*
X580000Y395000D02*
X566000Y381000D01*
X520700Y381000D01*
X457800Y318100D01*
X457800Y304200D01*
X471000Y291000D01*
X479800Y291000D01*
X480000Y291200D01*
X518500Y291200D01*
X533800Y275900D01*
X536200Y426200D02*
X554200Y426200D01*
X536200Y426200D02*
X455000Y345000D01*
X346500Y345000D01*
X91800Y408200D02*
X91800Y435000D01*
X91800Y408200D02*
X100000Y400000D01*
X166300Y388700D02*
X166300Y376800D01*
X155000Y400000D02*
X100000Y400000D01*
X155000Y400000D02*
X166300Y388700D01*
D16*
X552500Y299000D02*
X552500Y247900D01*
X552500Y237700D01*
X541500Y226700D01*
X541500Y206700D01*
X550500Y171000D02*
X565000Y171000D01*
X550500Y171000D02*
X541500Y180000D01*
X541500Y206700D01*
X565200Y170800D02*
X565200Y140200D01*
X565200Y170800D02*
X565000Y171000D01*
X552500Y247900D02*
X533800Y247900D01*
X503100Y247900D01*
X480000Y303900D02*
X547600Y303900D01*
X552500Y299000D01*
D17*
X460000Y200000D02*
X395000Y200000D01*
D18*
X395000Y200000D03*
D17*
X318500Y285400D02*
X297900Y285400D01*
X267900Y255400D02*
X267900Y224400D01*
X267900Y255400D02*
X297900Y285400D01*
X469900Y228600D02*
X469900Y209900D01*
X460000Y200000D01*
X433800Y264700D02*
X433800Y278500D01*
X433800Y264700D02*
X469900Y228600D01*
D18*
X391500Y269500D03*
D17*
X318500Y254000D02*
X304800Y254000D01*
X293300Y242500D02*
X293300Y224400D01*
X293300Y242500D02*
X304800Y254000D01*
X391500Y269500D02*
X413000Y291000D01*
X433600Y291000D02*
X433800Y291200D01*
X433600Y291000D02*
X413000Y291000D01*
X617700Y206700D02*
X617700Y147800D01*
X609600Y139700D01*
X593700Y139700D01*
X593200Y140200D01*
X593000Y206000D02*
X592300Y206700D01*
X593000Y206000D02*
X593000Y171000D01*
X267900Y376800D02*
X267900Y395100D01*
X245000Y418000D02*
X143000Y418000D01*
D18*
X143000Y418000D03*
D17*
X245000Y418000D02*
X267900Y395100D01*
D16*
X433800Y316600D02*
X433800Y310000D01*
X433800Y303900D01*
X433800Y310000D02*
X406700Y310000D01*
D17*
X318500Y345000D02*
X318500Y376600D01*
X318700Y376800D01*
M02*
