G04 EAGLE Gerber RS-274X export*
G75*
%MOMM*%
%FSLAX34Y34*%
%LPD*%
%INSilkscreen Top*%
%IPPOS*%
%AMOC8*
5,1,8,0,0,1.08239X$1,22.5*%
G01*
%ADD10C,0.152400*%
%ADD11C,0.050800*%
%ADD12C,0.254000*%
%ADD13R,0.400000X0.100000*%
%ADD14R,1.300000X0.100000*%
%ADD15R,1.400000X0.100000*%
%ADD16R,2.000000X0.100000*%
%ADD17R,2.100000X0.100000*%
%ADD18R,1.900000X0.100000*%
%ADD19R,1.800000X0.100000*%
%ADD20R,3.700000X0.100000*%
%ADD21R,0.200000X0.100000*%
%ADD22R,1.100000X0.100000*%
%ADD23R,1.200000X0.100000*%
%ADD24R,1.700000X0.100000*%
%ADD25R,1.500000X0.100000*%
%ADD26R,3.500000X0.100000*%
%ADD27R,0.100000X0.100000*%
%ADD28R,0.900000X0.100000*%
%ADD29R,1.000000X0.100000*%
%ADD30R,3.400000X0.100000*%
%ADD31R,0.800000X0.100000*%
%ADD32R,1.600000X0.100000*%
%ADD33R,3.300000X0.100000*%
%ADD34R,0.700000X0.100000*%
%ADD35R,3.200000X0.100000*%
%ADD36R,0.600000X0.100000*%
%ADD37R,3.100000X0.100000*%
%ADD38R,0.500000X0.100000*%
%ADD39R,0.300000X0.100000*%
%ADD40R,3.000000X0.100000*%
%ADD41R,2.800000X0.100000*%
%ADD42R,2.600000X0.100000*%
%ADD43R,2.500000X0.100000*%
%ADD44R,2.400000X0.100000*%
%ADD45R,3.600000X0.100000*%
%ADD46R,2.300000X0.100000*%
%ADD47R,3.900000X0.100000*%
%ADD48R,4.300000X0.100000*%
%ADD49R,3.800000X0.100000*%
%ADD50R,5.200000X0.100000*%
%ADD51R,5.100000X0.100000*%
%ADD52R,2.700000X0.100000*%
%ADD53R,6.600000X0.100000*%
%ADD54R,13.200000X0.100000*%
%ADD55R,11.300000X0.100000*%
%ADD56R,9.700000X0.100000*%
%ADD57R,9.500000X0.100000*%
%ADD58R,11.400000X0.100000*%
%ADD59R,4.800000X0.100000*%
%ADD60R,9.400000X0.100000*%
%ADD61R,7.500000X0.100000*%
%ADD62R,6.800000X0.100000*%
%ADD63R,6.400000X0.100000*%
%ADD64R,6.100000X0.100000*%
%ADD65R,2.200000X0.100000*%
%ADD66R,5.700000X0.100000*%
%ADD67R,5.400000X0.100000*%
%ADD68R,4.900000X0.100000*%
%ADD69R,4.700000X0.100000*%
%ADD70R,4.500000X0.100000*%
%ADD71R,5.800000X0.100000*%
%ADD72R,5.300000X0.100000*%
%ADD73R,4.100000X0.100000*%
%ADD74R,5.500000X0.100000*%
%ADD75R,2.900000X0.100000*%
%ADD76R,6.700000X0.100000*%
%ADD77R,8.800000X0.100000*%
%ADD78R,4.000000X0.100000*%
%ADD79R,8.900000X0.100000*%
%ADD80R,4.200000X0.100000*%
%ADD81R,9.100000X0.100000*%
%ADD82R,9.200000X0.100000*%
%ADD83R,4.600000X0.100000*%
%ADD84R,14.100000X0.100000*%
%ADD85R,5.000000X0.100000*%
%ADD86R,14.200000X0.100000*%
%ADD87R,14.300000X0.100000*%
%ADD88R,14.400000X0.100000*%
%ADD89R,24.100000X0.100000*%
%ADD90R,24.200000X0.100000*%
%ADD91R,24.300000X0.100000*%
%ADD92R,24.400000X0.100000*%
%ADD93R,24.500000X0.100000*%
%ADD94R,24.600000X0.100000*%
%ADD95R,24.700000X0.100000*%
%ADD96R,24.800000X0.100000*%
%ADD97R,24.900000X0.100000*%
%ADD98R,25.000000X0.100000*%
%ADD99R,25.100000X0.100000*%
%ADD100R,23.700000X0.100000*%
%ADD101R,23.800000X0.100000*%
%ADD102R,23.900000X0.100000*%
%ADD103R,24.000000X0.100000*%
%ADD104R,4.400000X0.100000*%
%ADD105R,25.200000X0.100000*%
%ADD106R,25.300000X0.100000*%
%ADD107R,25.400000X0.100000*%
%ADD108R,25.500000X0.100000*%
%ADD109R,25.600000X0.100000*%
%ADD110R,25.700000X0.100000*%
%ADD111R,25.800000X0.100000*%
%ADD112R,26.000000X0.100000*%
%ADD113R,26.100000X0.100000*%
%ADD114R,6.500000X0.100000*%
%ADD115R,26.200000X0.100000*%
%ADD116R,26.300000X0.100000*%
%ADD117R,6.300000X0.100000*%
%ADD118R,6.200000X0.100000*%
%ADD119R,26.400000X0.100000*%
%ADD120R,6.000000X0.100000*%
%ADD121R,26.500000X0.100000*%
%ADD122R,5.900000X0.100000*%
%ADD123R,26.600000X0.100000*%
%ADD124R,26.700000X0.100000*%
%ADD125R,5.600000X0.100000*%
%ADD126R,26.800000X0.100000*%
%ADD127R,26.900000X0.100000*%
%ADD128R,27.000000X0.100000*%
%ADD129R,27.100000X0.100000*%
%ADD130R,27.200000X0.100000*%
%ADD131R,27.400000X0.100000*%
%ADD132R,27.500000X0.100000*%
%ADD133R,27.700000X0.100000*%
%ADD134R,23.050000X15.005600*%
%ADD135R,33.400000X0.805600*%
%ADD136R,23.550000X15.005600*%
%ADD137R,80.000000X1.000000*%
%ADD138C,0.127000*%
%ADD139C,0.203200*%


D10*
X190000Y590000D02*
X350000Y590000D01*
X190000Y590000D02*
X190000Y475000D01*
X350000Y475000D02*
X350000Y590000D01*
X610000Y590000D02*
X610000Y475000D01*
X450000Y475000D02*
X450000Y590000D01*
X610000Y590000D01*
X190000Y475000D02*
X172500Y475000D01*
X190000Y475000D02*
X350000Y475000D01*
X450000Y475000D01*
X610000Y475000D01*
X627500Y475000D01*
X627500Y465000D02*
X172500Y465000D01*
X172500Y475000D01*
X627500Y475000D02*
X627500Y465000D01*
D11*
X443842Y402707D02*
X443842Y400845D01*
X443842Y402707D02*
X443840Y402777D01*
X443834Y402846D01*
X443824Y402915D01*
X443811Y402983D01*
X443793Y403051D01*
X443772Y403117D01*
X443747Y403182D01*
X443719Y403246D01*
X443687Y403308D01*
X443652Y403368D01*
X443613Y403426D01*
X443571Y403481D01*
X443526Y403535D01*
X443478Y403585D01*
X443428Y403633D01*
X443374Y403678D01*
X443319Y403720D01*
X443261Y403759D01*
X443201Y403794D01*
X443139Y403826D01*
X443075Y403854D01*
X443010Y403879D01*
X442944Y403900D01*
X442876Y403918D01*
X442808Y403931D01*
X442739Y403941D01*
X442670Y403947D01*
X442600Y403949D01*
X441979Y403949D01*
X441909Y403947D01*
X441840Y403941D01*
X441771Y403931D01*
X441703Y403918D01*
X441635Y403900D01*
X441569Y403879D01*
X441504Y403854D01*
X441440Y403826D01*
X441378Y403794D01*
X441318Y403759D01*
X441260Y403720D01*
X441205Y403678D01*
X441151Y403633D01*
X441101Y403585D01*
X441053Y403535D01*
X441008Y403481D01*
X440966Y403426D01*
X440927Y403368D01*
X440892Y403308D01*
X440860Y403246D01*
X440832Y403182D01*
X440807Y403117D01*
X440786Y403051D01*
X440768Y402983D01*
X440755Y402915D01*
X440745Y402846D01*
X440739Y402777D01*
X440737Y402707D01*
X440738Y402707D02*
X440738Y400845D01*
X438254Y400845D01*
X438254Y403949D01*
X438254Y406021D02*
X443842Y407883D01*
X438254Y409746D01*
X418942Y398243D02*
X413354Y398243D01*
X413354Y396691D02*
X413354Y399796D01*
X415217Y401972D02*
X418942Y401972D01*
X415217Y401972D02*
X415217Y403834D01*
X415838Y403834D01*
X415217Y405558D02*
X418942Y405558D01*
X413664Y405403D02*
X413354Y405403D01*
X413354Y405714D01*
X413664Y405714D01*
X413664Y405403D01*
X418942Y408694D02*
X418942Y410246D01*
X418942Y408694D02*
X418940Y408636D01*
X418935Y408577D01*
X418926Y408520D01*
X418913Y408462D01*
X418896Y408406D01*
X418877Y408351D01*
X418853Y408298D01*
X418827Y408245D01*
X418797Y408195D01*
X418764Y408147D01*
X418728Y408101D01*
X418690Y408057D01*
X418648Y408015D01*
X418604Y407977D01*
X418558Y407941D01*
X418510Y407908D01*
X418460Y407878D01*
X418407Y407852D01*
X418354Y407828D01*
X418299Y407809D01*
X418243Y407792D01*
X418185Y407779D01*
X418128Y407770D01*
X418069Y407765D01*
X418011Y407763D01*
X418011Y407762D02*
X416148Y407762D01*
X416148Y407763D02*
X416090Y407765D01*
X416031Y407770D01*
X415974Y407779D01*
X415916Y407792D01*
X415860Y407809D01*
X415805Y407828D01*
X415752Y407852D01*
X415699Y407878D01*
X415649Y407908D01*
X415601Y407941D01*
X415555Y407977D01*
X415511Y408015D01*
X415469Y408057D01*
X415431Y408101D01*
X415395Y408147D01*
X415362Y408195D01*
X415332Y408245D01*
X415306Y408298D01*
X415282Y408351D01*
X415263Y408406D01*
X415246Y408462D01*
X415233Y408520D01*
X415224Y408577D01*
X415219Y408636D01*
X415217Y408694D01*
X415217Y410246D01*
X419873Y410246D01*
X419931Y410244D01*
X419990Y410239D01*
X420047Y410230D01*
X420105Y410217D01*
X420161Y410200D01*
X420216Y410181D01*
X420269Y410157D01*
X420322Y410131D01*
X420372Y410101D01*
X420420Y410068D01*
X420466Y410032D01*
X420510Y409994D01*
X420552Y409952D01*
X420590Y409908D01*
X420626Y409862D01*
X420659Y409814D01*
X420689Y409764D01*
X420715Y409711D01*
X420739Y409658D01*
X420758Y409603D01*
X420775Y409547D01*
X420788Y409489D01*
X420797Y409432D01*
X420802Y409373D01*
X420804Y409315D01*
X420805Y409315D02*
X420805Y408073D01*
X393042Y395914D02*
X393042Y393430D01*
X387454Y393430D01*
X387454Y395914D01*
X389938Y395293D02*
X389938Y393430D01*
X393042Y398874D02*
X393042Y400115D01*
X393042Y398874D02*
X393040Y398816D01*
X393035Y398757D01*
X393026Y398700D01*
X393013Y398642D01*
X392996Y398586D01*
X392977Y398531D01*
X392953Y398478D01*
X392927Y398425D01*
X392897Y398375D01*
X392864Y398327D01*
X392828Y398281D01*
X392790Y398237D01*
X392748Y398195D01*
X392704Y398157D01*
X392658Y398121D01*
X392610Y398088D01*
X392560Y398058D01*
X392507Y398032D01*
X392454Y398008D01*
X392399Y397989D01*
X392343Y397972D01*
X392285Y397959D01*
X392228Y397950D01*
X392169Y397945D01*
X392111Y397943D01*
X392111Y397942D02*
X390248Y397942D01*
X390248Y397943D02*
X390190Y397945D01*
X390131Y397950D01*
X390074Y397959D01*
X390016Y397972D01*
X389960Y397989D01*
X389905Y398008D01*
X389852Y398032D01*
X389799Y398058D01*
X389749Y398088D01*
X389701Y398121D01*
X389655Y398157D01*
X389611Y398195D01*
X389569Y398237D01*
X389531Y398281D01*
X389495Y398327D01*
X389462Y398375D01*
X389432Y398425D01*
X389406Y398478D01*
X389382Y398531D01*
X389363Y398586D01*
X389346Y398642D01*
X389333Y398700D01*
X389324Y398757D01*
X389319Y398816D01*
X389317Y398874D01*
X389317Y400115D01*
X387454Y402325D02*
X393042Y402325D01*
X389317Y402325D02*
X389317Y403877D01*
X389319Y403935D01*
X389324Y403994D01*
X389333Y404051D01*
X389346Y404109D01*
X389363Y404165D01*
X389382Y404220D01*
X389406Y404273D01*
X389432Y404326D01*
X389462Y404376D01*
X389495Y404424D01*
X389531Y404470D01*
X389569Y404514D01*
X389611Y404556D01*
X389655Y404594D01*
X389701Y404630D01*
X389749Y404663D01*
X389799Y404693D01*
X389852Y404719D01*
X389905Y404743D01*
X389960Y404762D01*
X390016Y404779D01*
X390074Y404792D01*
X390131Y404801D01*
X390190Y404806D01*
X390248Y404808D01*
X393042Y404808D01*
X391800Y407262D02*
X390558Y407262D01*
X390488Y407264D01*
X390419Y407270D01*
X390350Y407280D01*
X390282Y407293D01*
X390214Y407311D01*
X390148Y407332D01*
X390083Y407357D01*
X390019Y407385D01*
X389957Y407417D01*
X389897Y407452D01*
X389839Y407491D01*
X389784Y407533D01*
X389730Y407578D01*
X389680Y407626D01*
X389632Y407676D01*
X389587Y407730D01*
X389545Y407785D01*
X389506Y407843D01*
X389471Y407903D01*
X389439Y407965D01*
X389411Y408029D01*
X389386Y408094D01*
X389365Y408160D01*
X389347Y408228D01*
X389334Y408296D01*
X389324Y408365D01*
X389318Y408434D01*
X389316Y408504D01*
X389318Y408574D01*
X389324Y408643D01*
X389334Y408712D01*
X389347Y408780D01*
X389365Y408848D01*
X389386Y408914D01*
X389411Y408979D01*
X389439Y409043D01*
X389471Y409105D01*
X389506Y409165D01*
X389545Y409223D01*
X389587Y409278D01*
X389632Y409332D01*
X389680Y409382D01*
X389730Y409430D01*
X389784Y409475D01*
X389839Y409517D01*
X389897Y409556D01*
X389957Y409591D01*
X390019Y409623D01*
X390083Y409651D01*
X390148Y409676D01*
X390214Y409697D01*
X390282Y409715D01*
X390350Y409728D01*
X390419Y409738D01*
X390488Y409744D01*
X390558Y409746D01*
X391800Y409746D01*
X391870Y409744D01*
X391939Y409738D01*
X392008Y409728D01*
X392076Y409715D01*
X392144Y409697D01*
X392210Y409676D01*
X392275Y409651D01*
X392339Y409623D01*
X392401Y409591D01*
X392461Y409556D01*
X392519Y409517D01*
X392574Y409475D01*
X392628Y409430D01*
X392678Y409382D01*
X392726Y409332D01*
X392771Y409278D01*
X392813Y409223D01*
X392852Y409165D01*
X392887Y409105D01*
X392919Y409043D01*
X392947Y408979D01*
X392972Y408914D01*
X392993Y408848D01*
X393011Y408780D01*
X393024Y408712D01*
X393034Y408643D01*
X393040Y408574D01*
X393042Y408504D01*
X393040Y408434D01*
X393034Y408365D01*
X393024Y408296D01*
X393011Y408228D01*
X392993Y408160D01*
X392972Y408094D01*
X392947Y408029D01*
X392919Y407965D01*
X392887Y407903D01*
X392852Y407843D01*
X392813Y407785D01*
X392771Y407730D01*
X392726Y407676D01*
X392678Y407626D01*
X392628Y407578D01*
X392574Y407533D01*
X392519Y407491D01*
X392461Y407452D01*
X392401Y407417D01*
X392339Y407385D01*
X392275Y407357D01*
X392210Y407332D01*
X392144Y407311D01*
X392076Y407293D01*
X392008Y407280D01*
X391939Y407270D01*
X391870Y407264D01*
X391800Y407262D01*
X364538Y398042D02*
X364538Y397110D01*
X364538Y398042D02*
X367642Y398042D01*
X367642Y396179D01*
X367640Y396109D01*
X367634Y396040D01*
X367624Y395971D01*
X367611Y395903D01*
X367593Y395835D01*
X367572Y395769D01*
X367547Y395704D01*
X367519Y395640D01*
X367487Y395578D01*
X367452Y395518D01*
X367413Y395460D01*
X367371Y395405D01*
X367326Y395351D01*
X367278Y395301D01*
X367228Y395253D01*
X367174Y395208D01*
X367119Y395166D01*
X367061Y395127D01*
X367001Y395092D01*
X366939Y395060D01*
X366875Y395032D01*
X366810Y395007D01*
X366744Y394986D01*
X366676Y394968D01*
X366608Y394955D01*
X366539Y394945D01*
X366470Y394939D01*
X366400Y394937D01*
X363296Y394937D01*
X363226Y394939D01*
X363157Y394945D01*
X363088Y394955D01*
X363020Y394968D01*
X362952Y394986D01*
X362886Y395007D01*
X362821Y395032D01*
X362757Y395060D01*
X362695Y395092D01*
X362635Y395127D01*
X362577Y395166D01*
X362522Y395208D01*
X362468Y395253D01*
X362418Y395301D01*
X362370Y395351D01*
X362325Y395405D01*
X362283Y395460D01*
X362244Y395518D01*
X362209Y395578D01*
X362177Y395640D01*
X362149Y395704D01*
X362124Y395769D01*
X362103Y395835D01*
X362085Y395903D01*
X362072Y395971D01*
X362062Y396040D01*
X362056Y396109D01*
X362054Y396179D01*
X362054Y398042D01*
X362054Y400789D02*
X367642Y400789D01*
X367642Y403894D02*
X362054Y400789D01*
X362054Y403894D02*
X367642Y403894D01*
X367642Y406642D02*
X362054Y406642D01*
X362054Y408194D01*
X362056Y408270D01*
X362061Y408346D01*
X362071Y408422D01*
X362084Y408497D01*
X362101Y408571D01*
X362121Y408645D01*
X362145Y408717D01*
X362172Y408788D01*
X362203Y408858D01*
X362237Y408926D01*
X362275Y408992D01*
X362316Y409056D01*
X362359Y409119D01*
X362406Y409179D01*
X362456Y409236D01*
X362509Y409291D01*
X362564Y409344D01*
X362621Y409394D01*
X362681Y409441D01*
X362744Y409484D01*
X362808Y409525D01*
X362874Y409563D01*
X362942Y409597D01*
X363012Y409628D01*
X363083Y409655D01*
X363156Y409679D01*
X363229Y409699D01*
X363303Y409716D01*
X363378Y409729D01*
X363454Y409739D01*
X363530Y409744D01*
X363606Y409746D01*
X366090Y409746D01*
X366166Y409744D01*
X366242Y409739D01*
X366318Y409729D01*
X366393Y409716D01*
X366467Y409699D01*
X366541Y409679D01*
X366613Y409655D01*
X366684Y409628D01*
X366754Y409597D01*
X366822Y409563D01*
X366888Y409525D01*
X366952Y409484D01*
X367015Y409441D01*
X367075Y409394D01*
X367132Y409344D01*
X367187Y409291D01*
X367240Y409236D01*
X367290Y409179D01*
X367337Y409119D01*
X367380Y409056D01*
X367421Y408992D01*
X367459Y408926D01*
X367493Y408858D01*
X367524Y408788D01*
X367551Y408717D01*
X367575Y408645D01*
X367595Y408571D01*
X367612Y408497D01*
X367625Y408422D01*
X367635Y408346D01*
X367640Y408270D01*
X367642Y408194D01*
X367642Y406642D01*
D10*
X223962Y442562D02*
X223962Y458818D01*
X223962Y451593D02*
X232993Y451593D01*
X232993Y458818D02*
X232993Y442562D01*
X243687Y442562D02*
X247300Y442562D01*
X243687Y442562D02*
X243569Y442564D01*
X243451Y442570D01*
X243333Y442579D01*
X243216Y442593D01*
X243099Y442610D01*
X242982Y442631D01*
X242867Y442656D01*
X242752Y442685D01*
X242638Y442718D01*
X242526Y442754D01*
X242415Y442794D01*
X242305Y442837D01*
X242196Y442884D01*
X242089Y442934D01*
X241984Y442989D01*
X241881Y443046D01*
X241780Y443107D01*
X241680Y443171D01*
X241583Y443238D01*
X241488Y443308D01*
X241396Y443382D01*
X241305Y443458D01*
X241218Y443538D01*
X241133Y443620D01*
X241051Y443705D01*
X240971Y443792D01*
X240895Y443883D01*
X240821Y443975D01*
X240751Y444070D01*
X240684Y444167D01*
X240620Y444267D01*
X240559Y444368D01*
X240502Y444471D01*
X240447Y444576D01*
X240397Y444683D01*
X240350Y444792D01*
X240307Y444902D01*
X240267Y445013D01*
X240231Y445125D01*
X240198Y445239D01*
X240169Y445354D01*
X240144Y445469D01*
X240123Y445586D01*
X240106Y445703D01*
X240092Y445820D01*
X240083Y445938D01*
X240077Y446056D01*
X240075Y446174D01*
X240075Y455206D01*
X240077Y455324D01*
X240083Y455442D01*
X240092Y455560D01*
X240106Y455677D01*
X240123Y455794D01*
X240144Y455911D01*
X240169Y456026D01*
X240198Y456141D01*
X240231Y456255D01*
X240267Y456367D01*
X240307Y456478D01*
X240350Y456588D01*
X240397Y456697D01*
X240447Y456804D01*
X240501Y456909D01*
X240559Y457012D01*
X240620Y457113D01*
X240684Y457213D01*
X240751Y457310D01*
X240821Y457405D01*
X240895Y457497D01*
X240971Y457588D01*
X241051Y457675D01*
X241133Y457760D01*
X241218Y457842D01*
X241305Y457922D01*
X241396Y457998D01*
X241488Y458072D01*
X241583Y458142D01*
X241680Y458209D01*
X241780Y458273D01*
X241881Y458334D01*
X241984Y458391D01*
X242089Y458445D01*
X242196Y458496D01*
X242305Y458543D01*
X242415Y458586D01*
X242526Y458626D01*
X242638Y458662D01*
X242752Y458695D01*
X242867Y458724D01*
X242982Y458749D01*
X243099Y458770D01*
X243216Y458787D01*
X243333Y458801D01*
X243451Y458810D01*
X243569Y458816D01*
X243687Y458818D01*
X247300Y458818D01*
X253279Y448884D02*
X264117Y448884D01*
X275753Y442562D02*
X275871Y442564D01*
X275989Y442570D01*
X276107Y442579D01*
X276224Y442593D01*
X276341Y442610D01*
X276458Y442631D01*
X276573Y442656D01*
X276688Y442685D01*
X276802Y442718D01*
X276914Y442754D01*
X277025Y442794D01*
X277135Y442837D01*
X277244Y442884D01*
X277351Y442934D01*
X277456Y442989D01*
X277559Y443046D01*
X277660Y443107D01*
X277760Y443171D01*
X277857Y443238D01*
X277952Y443308D01*
X278044Y443382D01*
X278135Y443458D01*
X278222Y443538D01*
X278307Y443620D01*
X278389Y443705D01*
X278469Y443792D01*
X278545Y443883D01*
X278619Y443975D01*
X278689Y444070D01*
X278756Y444167D01*
X278820Y444267D01*
X278881Y444368D01*
X278938Y444471D01*
X278993Y444576D01*
X279043Y444683D01*
X279090Y444792D01*
X279133Y444902D01*
X279173Y445013D01*
X279209Y445125D01*
X279242Y445239D01*
X279271Y445354D01*
X279296Y445469D01*
X279317Y445586D01*
X279334Y445703D01*
X279348Y445820D01*
X279357Y445938D01*
X279363Y446056D01*
X279365Y446174D01*
X275753Y442562D02*
X275570Y442564D01*
X275388Y442571D01*
X275206Y442582D01*
X275024Y442597D01*
X274842Y442617D01*
X274661Y442640D01*
X274481Y442669D01*
X274301Y442701D01*
X274122Y442738D01*
X273945Y442779D01*
X273768Y442825D01*
X273592Y442874D01*
X273418Y442928D01*
X273244Y442986D01*
X273073Y443048D01*
X272903Y443114D01*
X272734Y443185D01*
X272567Y443259D01*
X272402Y443337D01*
X272239Y443419D01*
X272078Y443505D01*
X271919Y443595D01*
X271762Y443689D01*
X271608Y443786D01*
X271456Y443887D01*
X271306Y443992D01*
X271159Y444100D01*
X271015Y444211D01*
X270873Y444326D01*
X270734Y444445D01*
X270598Y444567D01*
X270465Y444692D01*
X270335Y444820D01*
X270787Y455206D02*
X270789Y455324D01*
X270795Y455442D01*
X270804Y455560D01*
X270818Y455677D01*
X270835Y455794D01*
X270856Y455911D01*
X270881Y456026D01*
X270910Y456141D01*
X270943Y456255D01*
X270979Y456367D01*
X271019Y456478D01*
X271062Y456588D01*
X271109Y456697D01*
X271159Y456804D01*
X271214Y456909D01*
X271271Y457012D01*
X271332Y457113D01*
X271396Y457213D01*
X271463Y457310D01*
X271533Y457405D01*
X271607Y457497D01*
X271683Y457588D01*
X271763Y457675D01*
X271845Y457760D01*
X271930Y457842D01*
X272017Y457922D01*
X272108Y457998D01*
X272200Y458072D01*
X272295Y458142D01*
X272392Y458209D01*
X272492Y458273D01*
X272593Y458334D01*
X272696Y458392D01*
X272801Y458446D01*
X272908Y458496D01*
X273017Y458543D01*
X273127Y458587D01*
X273238Y458626D01*
X273351Y458662D01*
X273464Y458695D01*
X273579Y458724D01*
X273694Y458749D01*
X273811Y458770D01*
X273928Y458787D01*
X274045Y458801D01*
X274163Y458810D01*
X274281Y458816D01*
X274399Y458818D01*
X274560Y458816D01*
X274722Y458810D01*
X274883Y458801D01*
X275044Y458787D01*
X275204Y458770D01*
X275364Y458749D01*
X275524Y458724D01*
X275683Y458695D01*
X275841Y458663D01*
X275998Y458627D01*
X276154Y458587D01*
X276310Y458543D01*
X276464Y458495D01*
X276617Y458444D01*
X276769Y458390D01*
X276920Y458331D01*
X277069Y458270D01*
X277216Y458204D01*
X277362Y458135D01*
X277507Y458063D01*
X277649Y457987D01*
X277790Y457908D01*
X277929Y457826D01*
X278065Y457740D01*
X278200Y457651D01*
X278333Y457559D01*
X278463Y457463D01*
X272592Y452045D02*
X272491Y452107D01*
X272391Y452172D01*
X272294Y452241D01*
X272199Y452313D01*
X272106Y452387D01*
X272016Y452465D01*
X271928Y452546D01*
X271843Y452629D01*
X271761Y452715D01*
X271682Y452804D01*
X271605Y452895D01*
X271532Y452989D01*
X271461Y453085D01*
X271394Y453183D01*
X271330Y453283D01*
X271269Y453386D01*
X271212Y453490D01*
X271158Y453596D01*
X271108Y453704D01*
X271061Y453813D01*
X271017Y453924D01*
X270977Y454036D01*
X270941Y454150D01*
X270909Y454264D01*
X270880Y454380D01*
X270855Y454496D01*
X270834Y454613D01*
X270817Y454731D01*
X270803Y454849D01*
X270794Y454968D01*
X270788Y455087D01*
X270786Y455206D01*
X277560Y449335D02*
X277661Y449273D01*
X277761Y449208D01*
X277858Y449139D01*
X277953Y449067D01*
X278046Y448993D01*
X278136Y448915D01*
X278224Y448834D01*
X278309Y448751D01*
X278391Y448665D01*
X278470Y448576D01*
X278547Y448485D01*
X278620Y448391D01*
X278691Y448295D01*
X278758Y448197D01*
X278822Y448097D01*
X278883Y447994D01*
X278940Y447890D01*
X278994Y447784D01*
X279044Y447676D01*
X279091Y447567D01*
X279135Y447456D01*
X279175Y447344D01*
X279211Y447230D01*
X279243Y447116D01*
X279272Y447000D01*
X279297Y446884D01*
X279318Y446767D01*
X279335Y446649D01*
X279349Y446531D01*
X279358Y446412D01*
X279364Y446293D01*
X279366Y446174D01*
X277560Y449335D02*
X272592Y452045D01*
X286057Y458818D02*
X286057Y442562D01*
X286057Y458818D02*
X290573Y458818D01*
X290706Y458816D01*
X290838Y458810D01*
X290970Y458800D01*
X291102Y458787D01*
X291234Y458769D01*
X291364Y458748D01*
X291495Y458723D01*
X291624Y458694D01*
X291752Y458661D01*
X291880Y458625D01*
X292006Y458585D01*
X292131Y458541D01*
X292255Y458493D01*
X292377Y458442D01*
X292498Y458387D01*
X292617Y458329D01*
X292735Y458267D01*
X292850Y458202D01*
X292964Y458133D01*
X293075Y458062D01*
X293184Y457986D01*
X293291Y457908D01*
X293396Y457827D01*
X293498Y457742D01*
X293598Y457655D01*
X293695Y457565D01*
X293790Y457472D01*
X293881Y457376D01*
X293970Y457278D01*
X294056Y457177D01*
X294139Y457073D01*
X294219Y456967D01*
X294295Y456859D01*
X294369Y456749D01*
X294439Y456636D01*
X294506Y456522D01*
X294569Y456405D01*
X294629Y456287D01*
X294686Y456167D01*
X294739Y456045D01*
X294788Y455922D01*
X294834Y455798D01*
X294876Y455672D01*
X294914Y455545D01*
X294949Y455417D01*
X294980Y455288D01*
X295007Y455159D01*
X295030Y455028D01*
X295050Y454897D01*
X295065Y454765D01*
X295077Y454633D01*
X295085Y454501D01*
X295089Y454368D01*
X295089Y454236D01*
X295085Y454103D01*
X295077Y453971D01*
X295065Y453839D01*
X295050Y453707D01*
X295030Y453576D01*
X295007Y453445D01*
X294980Y453316D01*
X294949Y453187D01*
X294914Y453059D01*
X294876Y452932D01*
X294834Y452806D01*
X294788Y452682D01*
X294739Y452559D01*
X294686Y452437D01*
X294629Y452317D01*
X294569Y452199D01*
X294506Y452082D01*
X294439Y451968D01*
X294369Y451855D01*
X294295Y451745D01*
X294219Y451637D01*
X294139Y451531D01*
X294056Y451427D01*
X293970Y451326D01*
X293881Y451228D01*
X293790Y451132D01*
X293695Y451039D01*
X293598Y450949D01*
X293498Y450862D01*
X293396Y450777D01*
X293291Y450696D01*
X293184Y450618D01*
X293075Y450542D01*
X292964Y450471D01*
X292850Y450402D01*
X292735Y450337D01*
X292617Y450275D01*
X292498Y450217D01*
X292377Y450162D01*
X292255Y450111D01*
X292131Y450063D01*
X292006Y450019D01*
X291880Y449979D01*
X291752Y449943D01*
X291624Y449910D01*
X291495Y449881D01*
X291364Y449856D01*
X291234Y449835D01*
X291102Y449817D01*
X290970Y449804D01*
X290838Y449794D01*
X290706Y449788D01*
X290573Y449786D01*
X290573Y449787D02*
X286057Y449787D01*
X291476Y449787D02*
X295089Y442562D01*
X301597Y450690D02*
X301601Y451010D01*
X301612Y451329D01*
X301631Y451649D01*
X301658Y451967D01*
X301692Y452285D01*
X301734Y452602D01*
X301784Y452918D01*
X301841Y453233D01*
X301905Y453546D01*
X301977Y453858D01*
X302056Y454168D01*
X302143Y454475D01*
X302237Y454781D01*
X302338Y455084D01*
X302447Y455385D01*
X302562Y455683D01*
X302685Y455979D01*
X302815Y456271D01*
X302952Y456560D01*
X302952Y456561D02*
X302991Y456669D01*
X303034Y456776D01*
X303080Y456881D01*
X303131Y456985D01*
X303184Y457087D01*
X303241Y457187D01*
X303302Y457285D01*
X303366Y457380D01*
X303433Y457474D01*
X303504Y457565D01*
X303577Y457654D01*
X303654Y457740D01*
X303733Y457823D01*
X303815Y457904D01*
X303900Y457982D01*
X303988Y458056D01*
X304078Y458128D01*
X304170Y458196D01*
X304265Y458262D01*
X304362Y458324D01*
X304461Y458382D01*
X304563Y458438D01*
X304665Y458489D01*
X304770Y458537D01*
X304876Y458582D01*
X304984Y458623D01*
X305093Y458660D01*
X305203Y458693D01*
X305315Y458722D01*
X305427Y458748D01*
X305540Y458770D01*
X305654Y458787D01*
X305768Y458801D01*
X305883Y458811D01*
X305998Y458817D01*
X306113Y458819D01*
X306113Y458818D02*
X306228Y458816D01*
X306343Y458810D01*
X306458Y458800D01*
X306572Y458786D01*
X306686Y458769D01*
X306799Y458747D01*
X306911Y458721D01*
X307023Y458692D01*
X307133Y458659D01*
X307242Y458622D01*
X307350Y458581D01*
X307456Y458536D01*
X307561Y458488D01*
X307663Y458437D01*
X307764Y458381D01*
X307864Y458323D01*
X307961Y458261D01*
X308055Y458196D01*
X308148Y458127D01*
X308238Y458055D01*
X308326Y457981D01*
X308411Y457903D01*
X308493Y457822D01*
X308572Y457739D01*
X308649Y457653D01*
X308722Y457564D01*
X308793Y457473D01*
X308860Y457379D01*
X308924Y457284D01*
X308985Y457186D01*
X309042Y457086D01*
X309095Y456984D01*
X309146Y456880D01*
X309192Y456775D01*
X309235Y456668D01*
X309274Y456560D01*
X309273Y456560D02*
X309410Y456271D01*
X309540Y455979D01*
X309663Y455683D01*
X309778Y455385D01*
X309887Y455084D01*
X309988Y454781D01*
X310082Y454475D01*
X310169Y454168D01*
X310248Y453858D01*
X310320Y453546D01*
X310384Y453233D01*
X310441Y452918D01*
X310491Y452602D01*
X310533Y452285D01*
X310567Y451967D01*
X310594Y451649D01*
X310613Y451329D01*
X310624Y451010D01*
X310628Y450690D01*
X301597Y450690D02*
X301601Y450370D01*
X301612Y450051D01*
X301631Y449731D01*
X301658Y449413D01*
X301692Y449095D01*
X301734Y448778D01*
X301784Y448462D01*
X301841Y448147D01*
X301905Y447834D01*
X301977Y447522D01*
X302056Y447212D01*
X302143Y446905D01*
X302237Y446599D01*
X302338Y446296D01*
X302447Y445995D01*
X302562Y445697D01*
X302685Y445401D01*
X302815Y445109D01*
X302952Y444820D01*
X302991Y444712D01*
X303034Y444605D01*
X303080Y444500D01*
X303131Y444396D01*
X303184Y444294D01*
X303241Y444194D01*
X303302Y444096D01*
X303366Y444001D01*
X303433Y443907D01*
X303504Y443816D01*
X303577Y443727D01*
X303654Y443641D01*
X303733Y443558D01*
X303815Y443477D01*
X303900Y443399D01*
X303988Y443325D01*
X304078Y443253D01*
X304171Y443184D01*
X304265Y443119D01*
X304362Y443057D01*
X304462Y442999D01*
X304563Y442943D01*
X304665Y442892D01*
X304770Y442844D01*
X304876Y442799D01*
X304984Y442758D01*
X305093Y442721D01*
X305203Y442688D01*
X305315Y442659D01*
X305427Y442633D01*
X305540Y442611D01*
X305654Y442594D01*
X305768Y442580D01*
X305883Y442570D01*
X305998Y442564D01*
X306113Y442562D01*
X309273Y444820D02*
X309410Y445109D01*
X309540Y445401D01*
X309663Y445697D01*
X309778Y445995D01*
X309887Y446296D01*
X309988Y446599D01*
X310082Y446905D01*
X310169Y447212D01*
X310248Y447522D01*
X310320Y447834D01*
X310384Y448147D01*
X310441Y448462D01*
X310491Y448778D01*
X310533Y449095D01*
X310567Y449413D01*
X310594Y449731D01*
X310613Y450051D01*
X310624Y450370D01*
X310628Y450690D01*
X309274Y444820D02*
X309235Y444712D01*
X309192Y444605D01*
X309146Y444500D01*
X309095Y444396D01*
X309042Y444294D01*
X308985Y444194D01*
X308924Y444096D01*
X308860Y444001D01*
X308793Y443907D01*
X308722Y443816D01*
X308649Y443727D01*
X308572Y443641D01*
X308493Y443558D01*
X308411Y443477D01*
X308326Y443399D01*
X308238Y443325D01*
X308148Y443253D01*
X308055Y443184D01*
X307961Y443119D01*
X307864Y443057D01*
X307764Y442999D01*
X307663Y442943D01*
X307560Y442892D01*
X307456Y442844D01*
X307350Y442799D01*
X307242Y442758D01*
X307133Y442721D01*
X307023Y442688D01*
X306911Y442659D01*
X306799Y442633D01*
X306686Y442611D01*
X306572Y442594D01*
X306458Y442580D01*
X306343Y442570D01*
X306228Y442564D01*
X306113Y442562D01*
X302500Y446174D02*
X309725Y455206D01*
X320841Y458818D02*
X317228Y446174D01*
X326259Y446174D01*
X323550Y449787D02*
X323550Y442562D01*
X500000Y440000D02*
X710000Y440000D01*
X710000Y300000D01*
X500000Y300000D02*
X500000Y440000D01*
X500000Y300000D02*
X710000Y300000D01*
D12*
X350000Y390000D02*
X350000Y465000D01*
X350000Y390000D02*
X450000Y390000D01*
X450000Y465000D01*
X350000Y465000D01*
D10*
X219381Y308818D02*
X213962Y292562D01*
X224799Y292562D02*
X219381Y308818D01*
X223445Y296626D02*
X215317Y296626D01*
X230963Y292562D02*
X230963Y303399D01*
X236382Y303399D01*
X236382Y301593D01*
X248451Y308818D02*
X248451Y292562D01*
X243935Y292562D01*
X243834Y292564D01*
X243733Y292570D01*
X243632Y292579D01*
X243531Y292592D01*
X243431Y292609D01*
X243332Y292630D01*
X243234Y292654D01*
X243137Y292682D01*
X243040Y292714D01*
X242945Y292749D01*
X242852Y292788D01*
X242760Y292830D01*
X242669Y292876D01*
X242581Y292925D01*
X242494Y292977D01*
X242409Y293033D01*
X242326Y293091D01*
X242246Y293153D01*
X242168Y293218D01*
X242092Y293285D01*
X242019Y293355D01*
X241949Y293428D01*
X241882Y293504D01*
X241817Y293582D01*
X241755Y293662D01*
X241697Y293745D01*
X241641Y293830D01*
X241589Y293917D01*
X241540Y294005D01*
X241494Y294096D01*
X241452Y294188D01*
X241413Y294281D01*
X241378Y294376D01*
X241346Y294473D01*
X241318Y294570D01*
X241294Y294668D01*
X241273Y294767D01*
X241256Y294867D01*
X241243Y294968D01*
X241234Y295069D01*
X241228Y295170D01*
X241226Y295271D01*
X241226Y300690D01*
X241228Y300791D01*
X241234Y300892D01*
X241243Y300993D01*
X241256Y301094D01*
X241273Y301194D01*
X241294Y301293D01*
X241318Y301391D01*
X241346Y301488D01*
X241378Y301585D01*
X241413Y301680D01*
X241452Y301773D01*
X241494Y301865D01*
X241540Y301956D01*
X241589Y302045D01*
X241641Y302131D01*
X241697Y302216D01*
X241755Y302299D01*
X241817Y302379D01*
X241882Y302457D01*
X241949Y302533D01*
X242019Y302606D01*
X242092Y302676D01*
X242168Y302743D01*
X242246Y302808D01*
X242326Y302870D01*
X242409Y302928D01*
X242494Y302984D01*
X242581Y303036D01*
X242669Y303085D01*
X242760Y303131D01*
X242852Y303173D01*
X242945Y303212D01*
X243040Y303247D01*
X243137Y303279D01*
X243234Y303307D01*
X243332Y303331D01*
X243431Y303352D01*
X243531Y303369D01*
X243632Y303382D01*
X243733Y303391D01*
X243834Y303397D01*
X243935Y303399D01*
X248451Y303399D01*
X255888Y303399D02*
X255888Y295271D01*
X255889Y295271D02*
X255891Y295170D01*
X255897Y295069D01*
X255906Y294968D01*
X255919Y294867D01*
X255936Y294767D01*
X255957Y294668D01*
X255981Y294570D01*
X256009Y294473D01*
X256041Y294376D01*
X256076Y294281D01*
X256115Y294188D01*
X256157Y294096D01*
X256203Y294005D01*
X256252Y293917D01*
X256304Y293830D01*
X256360Y293745D01*
X256418Y293662D01*
X256480Y293582D01*
X256545Y293504D01*
X256612Y293428D01*
X256682Y293355D01*
X256755Y293285D01*
X256831Y293218D01*
X256909Y293153D01*
X256989Y293091D01*
X257072Y293033D01*
X257157Y292977D01*
X257244Y292925D01*
X257332Y292876D01*
X257423Y292830D01*
X257515Y292788D01*
X257608Y292749D01*
X257703Y292714D01*
X257800Y292682D01*
X257897Y292654D01*
X257995Y292630D01*
X258094Y292609D01*
X258194Y292592D01*
X258295Y292579D01*
X258396Y292570D01*
X258497Y292564D01*
X258598Y292562D01*
X263113Y292562D01*
X263113Y303399D01*
X269922Y303399D02*
X269922Y292562D01*
X269470Y307915D02*
X269470Y308818D01*
X270373Y308818D01*
X270373Y307915D01*
X269470Y307915D01*
X276730Y303399D02*
X276730Y292562D01*
X276730Y303399D02*
X281245Y303399D01*
X281349Y303397D01*
X281452Y303391D01*
X281556Y303381D01*
X281659Y303367D01*
X281761Y303349D01*
X281862Y303328D01*
X281963Y303302D01*
X282062Y303273D01*
X282161Y303240D01*
X282258Y303203D01*
X282353Y303162D01*
X282447Y303118D01*
X282539Y303070D01*
X282629Y303019D01*
X282718Y302964D01*
X282804Y302906D01*
X282887Y302844D01*
X282969Y302780D01*
X283047Y302712D01*
X283123Y302642D01*
X283197Y302569D01*
X283267Y302492D01*
X283335Y302414D01*
X283399Y302332D01*
X283461Y302249D01*
X283519Y302163D01*
X283574Y302074D01*
X283625Y301984D01*
X283673Y301892D01*
X283717Y301798D01*
X283758Y301703D01*
X283795Y301606D01*
X283828Y301507D01*
X283857Y301408D01*
X283883Y301307D01*
X283904Y301206D01*
X283922Y301104D01*
X283936Y301001D01*
X283946Y300897D01*
X283952Y300794D01*
X283954Y300690D01*
X283955Y300690D02*
X283955Y292562D01*
X290798Y296174D02*
X290798Y299787D01*
X290800Y299906D01*
X290806Y300026D01*
X290816Y300145D01*
X290830Y300263D01*
X290847Y300382D01*
X290869Y300499D01*
X290894Y300616D01*
X290924Y300731D01*
X290957Y300846D01*
X290994Y300960D01*
X291034Y301072D01*
X291079Y301183D01*
X291127Y301292D01*
X291178Y301400D01*
X291233Y301506D01*
X291292Y301610D01*
X291354Y301712D01*
X291419Y301812D01*
X291488Y301910D01*
X291560Y302006D01*
X291635Y302099D01*
X291712Y302189D01*
X291793Y302277D01*
X291877Y302362D01*
X291964Y302444D01*
X292053Y302524D01*
X292145Y302600D01*
X292239Y302674D01*
X292336Y302744D01*
X292434Y302811D01*
X292535Y302875D01*
X292639Y302935D01*
X292744Y302992D01*
X292851Y303045D01*
X292959Y303095D01*
X293069Y303141D01*
X293181Y303183D01*
X293294Y303222D01*
X293408Y303257D01*
X293523Y303288D01*
X293640Y303316D01*
X293757Y303339D01*
X293874Y303359D01*
X293993Y303375D01*
X294112Y303387D01*
X294231Y303395D01*
X294350Y303399D01*
X294470Y303399D01*
X294589Y303395D01*
X294708Y303387D01*
X294827Y303375D01*
X294946Y303359D01*
X295063Y303339D01*
X295180Y303316D01*
X295297Y303288D01*
X295412Y303257D01*
X295526Y303222D01*
X295639Y303183D01*
X295751Y303141D01*
X295861Y303095D01*
X295969Y303045D01*
X296076Y302992D01*
X296181Y302935D01*
X296285Y302875D01*
X296386Y302811D01*
X296484Y302744D01*
X296581Y302674D01*
X296675Y302600D01*
X296767Y302524D01*
X296856Y302444D01*
X296943Y302362D01*
X297027Y302277D01*
X297108Y302189D01*
X297185Y302099D01*
X297260Y302006D01*
X297332Y301910D01*
X297401Y301812D01*
X297466Y301712D01*
X297528Y301610D01*
X297587Y301506D01*
X297642Y301400D01*
X297693Y301292D01*
X297741Y301183D01*
X297786Y301072D01*
X297826Y300960D01*
X297863Y300846D01*
X297896Y300731D01*
X297926Y300616D01*
X297951Y300499D01*
X297973Y300382D01*
X297990Y300263D01*
X298004Y300145D01*
X298014Y300026D01*
X298020Y299906D01*
X298022Y299787D01*
X298023Y299787D02*
X298023Y296174D01*
X298022Y296174D02*
X298020Y296055D01*
X298014Y295935D01*
X298004Y295816D01*
X297990Y295698D01*
X297973Y295579D01*
X297951Y295462D01*
X297926Y295345D01*
X297896Y295230D01*
X297863Y295115D01*
X297826Y295001D01*
X297786Y294889D01*
X297741Y294778D01*
X297693Y294669D01*
X297642Y294561D01*
X297587Y294455D01*
X297528Y294351D01*
X297466Y294249D01*
X297401Y294149D01*
X297332Y294051D01*
X297260Y293955D01*
X297185Y293862D01*
X297108Y293772D01*
X297027Y293684D01*
X296943Y293599D01*
X296856Y293517D01*
X296767Y293437D01*
X296675Y293361D01*
X296581Y293287D01*
X296484Y293217D01*
X296386Y293150D01*
X296285Y293086D01*
X296181Y293026D01*
X296076Y292969D01*
X295969Y292916D01*
X295861Y292866D01*
X295751Y292820D01*
X295639Y292778D01*
X295526Y292739D01*
X295412Y292704D01*
X295297Y292673D01*
X295180Y292645D01*
X295063Y292622D01*
X294946Y292602D01*
X294827Y292586D01*
X294708Y292574D01*
X294589Y292566D01*
X294470Y292562D01*
X294350Y292562D01*
X294231Y292566D01*
X294112Y292574D01*
X293993Y292586D01*
X293874Y292602D01*
X293757Y292622D01*
X293640Y292645D01*
X293523Y292673D01*
X293408Y292704D01*
X293294Y292739D01*
X293181Y292778D01*
X293069Y292820D01*
X292959Y292866D01*
X292851Y292916D01*
X292744Y292969D01*
X292639Y293026D01*
X292535Y293086D01*
X292434Y293150D01*
X292336Y293217D01*
X292239Y293287D01*
X292145Y293361D01*
X292053Y293437D01*
X291964Y293517D01*
X291877Y293599D01*
X291793Y293684D01*
X291712Y293772D01*
X291635Y293862D01*
X291560Y293955D01*
X291488Y294051D01*
X291419Y294149D01*
X291354Y294249D01*
X291292Y294351D01*
X291233Y294455D01*
X291178Y294561D01*
X291127Y294669D01*
X291079Y294778D01*
X291034Y294889D01*
X290994Y295001D01*
X290957Y295115D01*
X290924Y295230D01*
X290894Y295345D01*
X290869Y295462D01*
X290847Y295579D01*
X290830Y295698D01*
X290816Y295816D01*
X290806Y295935D01*
X290800Y296055D01*
X290798Y296174D01*
X313342Y292562D02*
X313342Y308818D01*
X322373Y292562D01*
X322373Y308818D01*
X332443Y298884D02*
X336507Y298884D01*
X332443Y298884D02*
X332331Y298882D01*
X332220Y298876D01*
X332109Y298866D01*
X331998Y298853D01*
X331888Y298835D01*
X331779Y298813D01*
X331670Y298788D01*
X331562Y298759D01*
X331456Y298726D01*
X331350Y298689D01*
X331246Y298649D01*
X331144Y298605D01*
X331043Y298557D01*
X330944Y298506D01*
X330846Y298451D01*
X330751Y298393D01*
X330658Y298332D01*
X330567Y298267D01*
X330478Y298199D01*
X330392Y298128D01*
X330309Y298055D01*
X330228Y297978D01*
X330149Y297898D01*
X330074Y297816D01*
X330002Y297731D01*
X329932Y297644D01*
X329866Y297554D01*
X329803Y297462D01*
X329743Y297367D01*
X329687Y297271D01*
X329634Y297173D01*
X329585Y297073D01*
X329539Y296971D01*
X329497Y296868D01*
X329458Y296763D01*
X329423Y296657D01*
X329392Y296550D01*
X329365Y296442D01*
X329341Y296333D01*
X329322Y296223D01*
X329306Y296113D01*
X329294Y296002D01*
X329286Y295890D01*
X329282Y295779D01*
X329282Y295667D01*
X329286Y295556D01*
X329294Y295444D01*
X329306Y295333D01*
X329322Y295223D01*
X329341Y295113D01*
X329365Y295004D01*
X329392Y294896D01*
X329423Y294789D01*
X329458Y294683D01*
X329497Y294578D01*
X329539Y294475D01*
X329585Y294373D01*
X329634Y294273D01*
X329687Y294175D01*
X329743Y294079D01*
X329803Y293984D01*
X329866Y293892D01*
X329932Y293802D01*
X330002Y293715D01*
X330074Y293630D01*
X330149Y293548D01*
X330228Y293468D01*
X330309Y293391D01*
X330392Y293318D01*
X330478Y293247D01*
X330567Y293179D01*
X330658Y293114D01*
X330751Y293053D01*
X330846Y292995D01*
X330944Y292940D01*
X331043Y292889D01*
X331144Y292841D01*
X331246Y292797D01*
X331350Y292757D01*
X331456Y292720D01*
X331562Y292687D01*
X331670Y292658D01*
X331779Y292633D01*
X331888Y292611D01*
X331998Y292593D01*
X332109Y292580D01*
X332220Y292570D01*
X332331Y292564D01*
X332443Y292562D01*
X336507Y292562D01*
X336507Y300690D01*
X336506Y300690D02*
X336504Y300791D01*
X336498Y300892D01*
X336489Y300993D01*
X336476Y301094D01*
X336459Y301194D01*
X336438Y301293D01*
X336414Y301391D01*
X336386Y301488D01*
X336354Y301585D01*
X336319Y301680D01*
X336280Y301773D01*
X336238Y301865D01*
X336192Y301956D01*
X336143Y302045D01*
X336091Y302131D01*
X336035Y302216D01*
X335977Y302299D01*
X335915Y302379D01*
X335850Y302457D01*
X335783Y302533D01*
X335713Y302606D01*
X335640Y302676D01*
X335564Y302743D01*
X335486Y302808D01*
X335406Y302870D01*
X335323Y302928D01*
X335238Y302984D01*
X335152Y303036D01*
X335063Y303085D01*
X334972Y303131D01*
X334880Y303173D01*
X334787Y303212D01*
X334692Y303247D01*
X334595Y303279D01*
X334498Y303307D01*
X334400Y303331D01*
X334301Y303352D01*
X334201Y303369D01*
X334100Y303382D01*
X333999Y303391D01*
X333898Y303397D01*
X333797Y303399D01*
X330185Y303399D01*
X343944Y303399D02*
X343944Y292562D01*
X343944Y303399D02*
X348460Y303399D01*
X348564Y303397D01*
X348667Y303391D01*
X348771Y303381D01*
X348874Y303367D01*
X348976Y303349D01*
X349077Y303328D01*
X349178Y303302D01*
X349277Y303273D01*
X349376Y303240D01*
X349473Y303203D01*
X349568Y303162D01*
X349662Y303118D01*
X349754Y303070D01*
X349844Y303019D01*
X349933Y302964D01*
X350019Y302906D01*
X350102Y302844D01*
X350184Y302780D01*
X350262Y302712D01*
X350338Y302642D01*
X350412Y302569D01*
X350482Y302492D01*
X350550Y302414D01*
X350614Y302332D01*
X350676Y302249D01*
X350734Y302163D01*
X350789Y302074D01*
X350840Y301984D01*
X350888Y301892D01*
X350932Y301798D01*
X350973Y301703D01*
X351010Y301606D01*
X351043Y301507D01*
X351072Y301408D01*
X351098Y301307D01*
X351119Y301206D01*
X351137Y301104D01*
X351151Y301001D01*
X351161Y300897D01*
X351167Y300794D01*
X351169Y300690D01*
X351169Y292562D01*
X358012Y296174D02*
X358012Y299787D01*
X358013Y299787D02*
X358015Y299906D01*
X358021Y300026D01*
X358031Y300145D01*
X358045Y300263D01*
X358062Y300382D01*
X358084Y300499D01*
X358109Y300616D01*
X358139Y300731D01*
X358172Y300846D01*
X358209Y300960D01*
X358249Y301072D01*
X358294Y301183D01*
X358342Y301292D01*
X358393Y301400D01*
X358448Y301506D01*
X358507Y301610D01*
X358569Y301712D01*
X358634Y301812D01*
X358703Y301910D01*
X358775Y302006D01*
X358850Y302099D01*
X358927Y302189D01*
X359008Y302277D01*
X359092Y302362D01*
X359179Y302444D01*
X359268Y302524D01*
X359360Y302600D01*
X359454Y302674D01*
X359551Y302744D01*
X359649Y302811D01*
X359750Y302875D01*
X359854Y302935D01*
X359959Y302992D01*
X360066Y303045D01*
X360174Y303095D01*
X360284Y303141D01*
X360396Y303183D01*
X360509Y303222D01*
X360623Y303257D01*
X360738Y303288D01*
X360855Y303316D01*
X360972Y303339D01*
X361089Y303359D01*
X361208Y303375D01*
X361327Y303387D01*
X361446Y303395D01*
X361565Y303399D01*
X361685Y303399D01*
X361804Y303395D01*
X361923Y303387D01*
X362042Y303375D01*
X362161Y303359D01*
X362278Y303339D01*
X362395Y303316D01*
X362512Y303288D01*
X362627Y303257D01*
X362741Y303222D01*
X362854Y303183D01*
X362966Y303141D01*
X363076Y303095D01*
X363184Y303045D01*
X363291Y302992D01*
X363396Y302935D01*
X363500Y302875D01*
X363601Y302811D01*
X363699Y302744D01*
X363796Y302674D01*
X363890Y302600D01*
X363982Y302524D01*
X364071Y302444D01*
X364158Y302362D01*
X364242Y302277D01*
X364323Y302189D01*
X364400Y302099D01*
X364475Y302006D01*
X364547Y301910D01*
X364616Y301812D01*
X364681Y301712D01*
X364743Y301610D01*
X364802Y301506D01*
X364857Y301400D01*
X364908Y301292D01*
X364956Y301183D01*
X365001Y301072D01*
X365041Y300960D01*
X365078Y300846D01*
X365111Y300731D01*
X365141Y300616D01*
X365166Y300499D01*
X365188Y300382D01*
X365205Y300263D01*
X365219Y300145D01*
X365229Y300026D01*
X365235Y299906D01*
X365237Y299787D01*
X365237Y296174D01*
X365235Y296055D01*
X365229Y295935D01*
X365219Y295816D01*
X365205Y295698D01*
X365188Y295579D01*
X365166Y295462D01*
X365141Y295345D01*
X365111Y295230D01*
X365078Y295115D01*
X365041Y295001D01*
X365001Y294889D01*
X364956Y294778D01*
X364908Y294669D01*
X364857Y294561D01*
X364802Y294455D01*
X364743Y294351D01*
X364681Y294249D01*
X364616Y294149D01*
X364547Y294051D01*
X364475Y293955D01*
X364400Y293862D01*
X364323Y293772D01*
X364242Y293684D01*
X364158Y293599D01*
X364071Y293517D01*
X363982Y293437D01*
X363890Y293361D01*
X363796Y293287D01*
X363699Y293217D01*
X363601Y293150D01*
X363500Y293086D01*
X363396Y293026D01*
X363291Y292969D01*
X363184Y292916D01*
X363076Y292866D01*
X362966Y292820D01*
X362854Y292778D01*
X362741Y292739D01*
X362627Y292704D01*
X362512Y292673D01*
X362395Y292645D01*
X362278Y292622D01*
X362161Y292602D01*
X362042Y292586D01*
X361923Y292574D01*
X361804Y292566D01*
X361685Y292562D01*
X361565Y292562D01*
X361446Y292566D01*
X361327Y292574D01*
X361208Y292586D01*
X361089Y292602D01*
X360972Y292622D01*
X360855Y292645D01*
X360738Y292673D01*
X360623Y292704D01*
X360509Y292739D01*
X360396Y292778D01*
X360284Y292820D01*
X360174Y292866D01*
X360066Y292916D01*
X359959Y292969D01*
X359854Y293026D01*
X359750Y293086D01*
X359649Y293150D01*
X359551Y293217D01*
X359454Y293287D01*
X359360Y293361D01*
X359268Y293437D01*
X359179Y293517D01*
X359092Y293599D01*
X359008Y293684D01*
X358927Y293772D01*
X358850Y293862D01*
X358775Y293955D01*
X358703Y294051D01*
X358634Y294149D01*
X358569Y294249D01*
X358507Y294351D01*
X358448Y294455D01*
X358393Y294561D01*
X358342Y294669D01*
X358294Y294778D01*
X358249Y294889D01*
X358209Y295001D01*
X358172Y295115D01*
X358139Y295230D01*
X358109Y295345D01*
X358084Y295462D01*
X358062Y295579D01*
X358045Y295698D01*
X358031Y295816D01*
X358021Y295935D01*
X358015Y296055D01*
X358013Y296174D01*
X533962Y362562D02*
X533962Y378818D01*
X539381Y369787D01*
X544799Y378818D01*
X544799Y362562D01*
X552792Y362562D02*
X552792Y378818D01*
X557307Y378818D01*
X557440Y378816D01*
X557572Y378810D01*
X557704Y378800D01*
X557836Y378787D01*
X557968Y378769D01*
X558098Y378748D01*
X558229Y378723D01*
X558358Y378694D01*
X558486Y378661D01*
X558614Y378625D01*
X558740Y378585D01*
X558865Y378541D01*
X558989Y378493D01*
X559111Y378442D01*
X559232Y378387D01*
X559351Y378329D01*
X559469Y378267D01*
X559584Y378202D01*
X559698Y378133D01*
X559809Y378062D01*
X559918Y377986D01*
X560025Y377908D01*
X560130Y377827D01*
X560232Y377742D01*
X560332Y377655D01*
X560429Y377565D01*
X560524Y377472D01*
X560615Y377376D01*
X560704Y377278D01*
X560790Y377177D01*
X560873Y377073D01*
X560953Y376967D01*
X561029Y376859D01*
X561103Y376749D01*
X561173Y376636D01*
X561240Y376522D01*
X561303Y376405D01*
X561363Y376287D01*
X561420Y376167D01*
X561473Y376045D01*
X561522Y375922D01*
X561568Y375798D01*
X561610Y375672D01*
X561648Y375545D01*
X561683Y375417D01*
X561714Y375288D01*
X561741Y375159D01*
X561764Y375028D01*
X561784Y374897D01*
X561799Y374765D01*
X561811Y374633D01*
X561819Y374501D01*
X561823Y374368D01*
X561823Y374236D01*
X561819Y374103D01*
X561811Y373971D01*
X561799Y373839D01*
X561784Y373707D01*
X561764Y373576D01*
X561741Y373445D01*
X561714Y373316D01*
X561683Y373187D01*
X561648Y373059D01*
X561610Y372932D01*
X561568Y372806D01*
X561522Y372682D01*
X561473Y372559D01*
X561420Y372437D01*
X561363Y372317D01*
X561303Y372199D01*
X561240Y372082D01*
X561173Y371968D01*
X561103Y371855D01*
X561029Y371745D01*
X560953Y371637D01*
X560873Y371531D01*
X560790Y371427D01*
X560704Y371326D01*
X560615Y371228D01*
X560524Y371132D01*
X560429Y371039D01*
X560332Y370949D01*
X560232Y370862D01*
X560130Y370777D01*
X560025Y370696D01*
X559918Y370618D01*
X559809Y370542D01*
X559698Y370471D01*
X559584Y370402D01*
X559469Y370337D01*
X559351Y370275D01*
X559232Y370217D01*
X559111Y370162D01*
X558989Y370111D01*
X558865Y370063D01*
X558740Y370019D01*
X558614Y369979D01*
X558486Y369943D01*
X558358Y369910D01*
X558229Y369881D01*
X558098Y369856D01*
X557968Y369835D01*
X557836Y369817D01*
X557704Y369804D01*
X557572Y369794D01*
X557440Y369788D01*
X557307Y369786D01*
X557307Y369787D02*
X552792Y369787D01*
X568212Y367078D02*
X568212Y378818D01*
X568211Y367078D02*
X568213Y366945D01*
X568219Y366813D01*
X568229Y366681D01*
X568242Y366549D01*
X568260Y366417D01*
X568281Y366287D01*
X568306Y366156D01*
X568335Y366027D01*
X568368Y365899D01*
X568404Y365771D01*
X568444Y365645D01*
X568488Y365520D01*
X568536Y365396D01*
X568587Y365274D01*
X568642Y365153D01*
X568700Y365034D01*
X568762Y364916D01*
X568827Y364801D01*
X568896Y364687D01*
X568967Y364576D01*
X569043Y364467D01*
X569121Y364360D01*
X569202Y364255D01*
X569287Y364153D01*
X569374Y364053D01*
X569464Y363956D01*
X569557Y363861D01*
X569653Y363770D01*
X569751Y363681D01*
X569852Y363595D01*
X569956Y363512D01*
X570062Y363432D01*
X570170Y363356D01*
X570280Y363282D01*
X570393Y363212D01*
X570507Y363145D01*
X570624Y363082D01*
X570742Y363022D01*
X570862Y362965D01*
X570984Y362912D01*
X571107Y362863D01*
X571231Y362817D01*
X571357Y362775D01*
X571484Y362737D01*
X571612Y362702D01*
X571741Y362671D01*
X571870Y362644D01*
X572001Y362621D01*
X572132Y362601D01*
X572264Y362586D01*
X572396Y362574D01*
X572528Y362566D01*
X572661Y362562D01*
X572793Y362562D01*
X572926Y362566D01*
X573058Y362574D01*
X573190Y362586D01*
X573322Y362601D01*
X573453Y362621D01*
X573584Y362644D01*
X573713Y362671D01*
X573842Y362702D01*
X573970Y362737D01*
X574097Y362775D01*
X574223Y362817D01*
X574347Y362863D01*
X574470Y362912D01*
X574592Y362965D01*
X574712Y363022D01*
X574830Y363082D01*
X574947Y363145D01*
X575061Y363212D01*
X575174Y363282D01*
X575284Y363356D01*
X575392Y363432D01*
X575498Y363512D01*
X575602Y363595D01*
X575703Y363681D01*
X575801Y363770D01*
X575897Y363861D01*
X575990Y363956D01*
X576080Y364053D01*
X576167Y364153D01*
X576252Y364255D01*
X576333Y364360D01*
X576411Y364467D01*
X576487Y364576D01*
X576558Y364687D01*
X576627Y364801D01*
X576692Y364916D01*
X576754Y365034D01*
X576812Y365153D01*
X576867Y365274D01*
X576918Y365396D01*
X576966Y365520D01*
X577010Y365645D01*
X577050Y365771D01*
X577086Y365899D01*
X577119Y366027D01*
X577148Y366156D01*
X577173Y366287D01*
X577194Y366417D01*
X577212Y366549D01*
X577225Y366681D01*
X577235Y366813D01*
X577241Y366945D01*
X577243Y367078D01*
X577243Y378818D01*
X584364Y371593D02*
X589783Y371593D01*
X589901Y371591D01*
X590019Y371585D01*
X590137Y371576D01*
X590254Y371562D01*
X590371Y371545D01*
X590488Y371524D01*
X590603Y371499D01*
X590718Y371470D01*
X590832Y371437D01*
X590944Y371401D01*
X591055Y371361D01*
X591165Y371318D01*
X591274Y371271D01*
X591381Y371221D01*
X591486Y371166D01*
X591589Y371109D01*
X591690Y371048D01*
X591790Y370984D01*
X591887Y370917D01*
X591982Y370847D01*
X592074Y370773D01*
X592165Y370697D01*
X592252Y370617D01*
X592337Y370535D01*
X592419Y370450D01*
X592499Y370363D01*
X592575Y370272D01*
X592649Y370180D01*
X592719Y370085D01*
X592786Y369988D01*
X592850Y369888D01*
X592911Y369787D01*
X592968Y369684D01*
X593023Y369579D01*
X593073Y369472D01*
X593120Y369363D01*
X593163Y369253D01*
X593203Y369142D01*
X593239Y369030D01*
X593272Y368916D01*
X593301Y368801D01*
X593326Y368686D01*
X593347Y368569D01*
X593364Y368452D01*
X593378Y368335D01*
X593387Y368217D01*
X593393Y368099D01*
X593395Y367981D01*
X593395Y367078D01*
X593396Y367078D02*
X593394Y366945D01*
X593388Y366813D01*
X593378Y366681D01*
X593365Y366549D01*
X593347Y366417D01*
X593326Y366287D01*
X593301Y366156D01*
X593272Y366027D01*
X593239Y365899D01*
X593203Y365771D01*
X593163Y365645D01*
X593119Y365520D01*
X593071Y365396D01*
X593020Y365274D01*
X592965Y365153D01*
X592907Y365034D01*
X592845Y364916D01*
X592780Y364801D01*
X592711Y364687D01*
X592640Y364576D01*
X592564Y364467D01*
X592486Y364360D01*
X592405Y364255D01*
X592320Y364153D01*
X592233Y364053D01*
X592143Y363956D01*
X592050Y363861D01*
X591954Y363770D01*
X591856Y363681D01*
X591755Y363595D01*
X591651Y363512D01*
X591545Y363432D01*
X591437Y363356D01*
X591327Y363282D01*
X591214Y363212D01*
X591100Y363145D01*
X590983Y363082D01*
X590865Y363022D01*
X590745Y362965D01*
X590623Y362912D01*
X590500Y362863D01*
X590376Y362817D01*
X590250Y362775D01*
X590123Y362737D01*
X589995Y362702D01*
X589866Y362671D01*
X589737Y362644D01*
X589606Y362621D01*
X589475Y362601D01*
X589343Y362586D01*
X589211Y362574D01*
X589079Y362566D01*
X588946Y362562D01*
X588814Y362562D01*
X588681Y362566D01*
X588549Y362574D01*
X588417Y362586D01*
X588285Y362601D01*
X588154Y362621D01*
X588023Y362644D01*
X587894Y362671D01*
X587765Y362702D01*
X587637Y362737D01*
X587510Y362775D01*
X587384Y362817D01*
X587260Y362863D01*
X587137Y362912D01*
X587015Y362965D01*
X586895Y363022D01*
X586777Y363082D01*
X586660Y363145D01*
X586546Y363212D01*
X586433Y363282D01*
X586323Y363356D01*
X586215Y363432D01*
X586109Y363512D01*
X586005Y363595D01*
X585904Y363681D01*
X585806Y363770D01*
X585710Y363861D01*
X585617Y363956D01*
X585527Y364053D01*
X585440Y364153D01*
X585355Y364255D01*
X585274Y364360D01*
X585196Y364467D01*
X585120Y364576D01*
X585049Y364687D01*
X584980Y364801D01*
X584915Y364916D01*
X584853Y365034D01*
X584795Y365153D01*
X584740Y365274D01*
X584689Y365396D01*
X584641Y365520D01*
X584597Y365645D01*
X584557Y365771D01*
X584521Y365899D01*
X584488Y366027D01*
X584459Y366156D01*
X584434Y366287D01*
X584413Y366417D01*
X584395Y366549D01*
X584382Y366681D01*
X584372Y366813D01*
X584366Y366945D01*
X584364Y367078D01*
X584364Y371593D01*
X584366Y371770D01*
X584373Y371948D01*
X584384Y372125D01*
X584399Y372301D01*
X584418Y372477D01*
X584442Y372653D01*
X584470Y372828D01*
X584503Y373003D01*
X584540Y373176D01*
X584581Y373349D01*
X584626Y373520D01*
X584675Y373690D01*
X584729Y373859D01*
X584786Y374027D01*
X584848Y374193D01*
X584914Y374358D01*
X584984Y374521D01*
X585058Y374682D01*
X585135Y374841D01*
X585217Y374999D01*
X585303Y375154D01*
X585392Y375307D01*
X585485Y375458D01*
X585582Y375607D01*
X585682Y375753D01*
X585786Y375897D01*
X585893Y376038D01*
X586004Y376176D01*
X586118Y376312D01*
X586236Y376445D01*
X586356Y376575D01*
X586480Y376702D01*
X586607Y376826D01*
X586737Y376946D01*
X586870Y377064D01*
X587005Y377178D01*
X587144Y377289D01*
X587285Y377396D01*
X587429Y377500D01*
X587575Y377600D01*
X587724Y377697D01*
X587875Y377790D01*
X588028Y377879D01*
X588183Y377965D01*
X588341Y378047D01*
X588500Y378124D01*
X588661Y378198D01*
X588824Y378268D01*
X588989Y378334D01*
X589155Y378396D01*
X589323Y378453D01*
X589492Y378507D01*
X589662Y378556D01*
X589833Y378601D01*
X590006Y378642D01*
X590179Y378679D01*
X590354Y378712D01*
X590529Y378740D01*
X590705Y378764D01*
X590881Y378783D01*
X591057Y378798D01*
X591234Y378809D01*
X591412Y378816D01*
X591589Y378818D01*
X601350Y376560D02*
X601213Y376271D01*
X601083Y375979D01*
X600960Y375683D01*
X600845Y375385D01*
X600736Y375084D01*
X600635Y374781D01*
X600541Y374475D01*
X600454Y374168D01*
X600375Y373858D01*
X600303Y373546D01*
X600239Y373233D01*
X600182Y372918D01*
X600132Y372602D01*
X600090Y372285D01*
X600056Y371967D01*
X600029Y371649D01*
X600010Y371329D01*
X599999Y371010D01*
X599995Y370690D01*
X601350Y376561D02*
X601389Y376669D01*
X601432Y376776D01*
X601478Y376881D01*
X601529Y376985D01*
X601582Y377087D01*
X601639Y377187D01*
X601700Y377285D01*
X601764Y377380D01*
X601831Y377474D01*
X601902Y377565D01*
X601975Y377654D01*
X602052Y377740D01*
X602131Y377823D01*
X602213Y377904D01*
X602298Y377982D01*
X602386Y378056D01*
X602476Y378128D01*
X602568Y378196D01*
X602663Y378262D01*
X602760Y378324D01*
X602859Y378382D01*
X602961Y378438D01*
X603063Y378489D01*
X603168Y378537D01*
X603274Y378582D01*
X603382Y378623D01*
X603491Y378660D01*
X603601Y378693D01*
X603713Y378722D01*
X603825Y378748D01*
X603938Y378770D01*
X604052Y378787D01*
X604166Y378801D01*
X604281Y378811D01*
X604396Y378817D01*
X604511Y378819D01*
X604511Y378818D02*
X604626Y378816D01*
X604741Y378810D01*
X604856Y378800D01*
X604970Y378786D01*
X605084Y378769D01*
X605197Y378747D01*
X605309Y378721D01*
X605421Y378692D01*
X605531Y378659D01*
X605640Y378622D01*
X605748Y378581D01*
X605854Y378536D01*
X605959Y378488D01*
X606061Y378437D01*
X606162Y378381D01*
X606262Y378323D01*
X606359Y378261D01*
X606453Y378196D01*
X606546Y378127D01*
X606636Y378055D01*
X606724Y377981D01*
X606809Y377903D01*
X606891Y377822D01*
X606970Y377739D01*
X607047Y377653D01*
X607120Y377564D01*
X607191Y377473D01*
X607258Y377379D01*
X607322Y377284D01*
X607383Y377186D01*
X607440Y377086D01*
X607493Y376984D01*
X607544Y376880D01*
X607590Y376775D01*
X607633Y376668D01*
X607672Y376560D01*
X607671Y376560D02*
X607808Y376271D01*
X607938Y375979D01*
X608061Y375683D01*
X608176Y375385D01*
X608285Y375084D01*
X608386Y374781D01*
X608480Y374475D01*
X608567Y374168D01*
X608646Y373858D01*
X608718Y373546D01*
X608782Y373233D01*
X608839Y372918D01*
X608889Y372602D01*
X608931Y372285D01*
X608965Y371967D01*
X608992Y371649D01*
X609011Y371329D01*
X609022Y371010D01*
X609026Y370690D01*
X599996Y370690D02*
X600000Y370370D01*
X600011Y370051D01*
X600030Y369731D01*
X600057Y369413D01*
X600091Y369095D01*
X600133Y368778D01*
X600183Y368462D01*
X600240Y368147D01*
X600304Y367834D01*
X600376Y367522D01*
X600455Y367212D01*
X600542Y366905D01*
X600636Y366599D01*
X600737Y366296D01*
X600846Y365995D01*
X600961Y365697D01*
X601084Y365401D01*
X601214Y365109D01*
X601351Y364820D01*
X601350Y364820D02*
X601389Y364712D01*
X601432Y364605D01*
X601478Y364500D01*
X601529Y364396D01*
X601582Y364294D01*
X601639Y364194D01*
X601700Y364096D01*
X601764Y364001D01*
X601831Y363907D01*
X601902Y363816D01*
X601975Y363727D01*
X602052Y363641D01*
X602131Y363558D01*
X602213Y363477D01*
X602298Y363399D01*
X602386Y363325D01*
X602476Y363253D01*
X602569Y363184D01*
X602663Y363119D01*
X602760Y363057D01*
X602860Y362999D01*
X602961Y362943D01*
X603063Y362892D01*
X603168Y362844D01*
X603274Y362799D01*
X603382Y362758D01*
X603491Y362721D01*
X603601Y362688D01*
X603713Y362659D01*
X603825Y362633D01*
X603938Y362611D01*
X604052Y362594D01*
X604166Y362580D01*
X604281Y362570D01*
X604396Y362564D01*
X604511Y362562D01*
X607671Y364820D02*
X607808Y365109D01*
X607938Y365401D01*
X608061Y365697D01*
X608176Y365995D01*
X608285Y366296D01*
X608386Y366599D01*
X608480Y366905D01*
X608567Y367212D01*
X608646Y367522D01*
X608718Y367834D01*
X608782Y368147D01*
X608839Y368462D01*
X608889Y368778D01*
X608931Y369095D01*
X608965Y369413D01*
X608992Y369731D01*
X609011Y370051D01*
X609022Y370370D01*
X609026Y370690D01*
X607672Y364820D02*
X607633Y364712D01*
X607590Y364605D01*
X607544Y364500D01*
X607493Y364396D01*
X607440Y364294D01*
X607383Y364194D01*
X607322Y364096D01*
X607258Y364001D01*
X607191Y363907D01*
X607120Y363816D01*
X607047Y363727D01*
X606970Y363641D01*
X606891Y363558D01*
X606809Y363477D01*
X606724Y363399D01*
X606636Y363325D01*
X606546Y363253D01*
X606453Y363184D01*
X606359Y363119D01*
X606262Y363057D01*
X606162Y362999D01*
X606061Y362943D01*
X605958Y362892D01*
X605854Y362844D01*
X605748Y362799D01*
X605640Y362758D01*
X605531Y362721D01*
X605421Y362688D01*
X605309Y362659D01*
X605197Y362633D01*
X605084Y362611D01*
X604970Y362594D01*
X604856Y362580D01*
X604741Y362570D01*
X604626Y362564D01*
X604511Y362562D01*
X600898Y366174D02*
X608123Y375206D01*
X615627Y362562D02*
X621045Y362562D01*
X621163Y362564D01*
X621281Y362570D01*
X621399Y362579D01*
X621516Y362593D01*
X621633Y362610D01*
X621750Y362631D01*
X621865Y362656D01*
X621980Y362685D01*
X622094Y362718D01*
X622206Y362754D01*
X622317Y362794D01*
X622427Y362837D01*
X622536Y362884D01*
X622643Y362934D01*
X622748Y362989D01*
X622851Y363046D01*
X622952Y363107D01*
X623052Y363171D01*
X623149Y363238D01*
X623244Y363308D01*
X623336Y363382D01*
X623427Y363458D01*
X623514Y363538D01*
X623599Y363620D01*
X623681Y363705D01*
X623761Y363792D01*
X623837Y363883D01*
X623911Y363975D01*
X623981Y364070D01*
X624048Y364167D01*
X624112Y364267D01*
X624173Y364368D01*
X624230Y364471D01*
X624285Y364576D01*
X624335Y364683D01*
X624382Y364792D01*
X624425Y364902D01*
X624465Y365013D01*
X624501Y365125D01*
X624534Y365239D01*
X624563Y365354D01*
X624588Y365469D01*
X624609Y365586D01*
X624626Y365703D01*
X624640Y365820D01*
X624649Y365938D01*
X624655Y366056D01*
X624657Y366174D01*
X624658Y366174D02*
X624658Y367981D01*
X624657Y367981D02*
X624655Y368099D01*
X624649Y368217D01*
X624640Y368335D01*
X624626Y368452D01*
X624609Y368569D01*
X624588Y368686D01*
X624563Y368801D01*
X624534Y368916D01*
X624501Y369030D01*
X624465Y369142D01*
X624425Y369253D01*
X624382Y369363D01*
X624335Y369472D01*
X624285Y369579D01*
X624230Y369684D01*
X624173Y369787D01*
X624112Y369888D01*
X624048Y369988D01*
X623981Y370085D01*
X623911Y370180D01*
X623837Y370272D01*
X623761Y370363D01*
X623681Y370450D01*
X623599Y370535D01*
X623514Y370617D01*
X623427Y370697D01*
X623336Y370773D01*
X623244Y370847D01*
X623149Y370917D01*
X623052Y370984D01*
X622952Y371048D01*
X622851Y371109D01*
X622748Y371166D01*
X622643Y371221D01*
X622536Y371271D01*
X622427Y371318D01*
X622317Y371361D01*
X622206Y371401D01*
X622094Y371437D01*
X621980Y371470D01*
X621865Y371499D01*
X621750Y371524D01*
X621633Y371545D01*
X621516Y371562D01*
X621399Y371576D01*
X621281Y371585D01*
X621163Y371591D01*
X621045Y371593D01*
X615627Y371593D01*
X615627Y378818D01*
X624658Y378818D01*
X632613Y376560D02*
X632476Y376271D01*
X632346Y375979D01*
X632223Y375683D01*
X632108Y375385D01*
X631999Y375084D01*
X631898Y374781D01*
X631804Y374475D01*
X631717Y374168D01*
X631638Y373858D01*
X631566Y373546D01*
X631502Y373233D01*
X631445Y372918D01*
X631395Y372602D01*
X631353Y372285D01*
X631319Y371967D01*
X631292Y371649D01*
X631273Y371329D01*
X631262Y371010D01*
X631258Y370690D01*
X632612Y376561D02*
X632651Y376669D01*
X632694Y376776D01*
X632740Y376881D01*
X632791Y376985D01*
X632844Y377087D01*
X632901Y377187D01*
X632962Y377285D01*
X633026Y377380D01*
X633093Y377474D01*
X633164Y377565D01*
X633237Y377654D01*
X633314Y377740D01*
X633393Y377823D01*
X633475Y377904D01*
X633560Y377982D01*
X633648Y378056D01*
X633738Y378128D01*
X633830Y378196D01*
X633925Y378262D01*
X634022Y378324D01*
X634121Y378382D01*
X634223Y378438D01*
X634325Y378489D01*
X634430Y378537D01*
X634536Y378582D01*
X634644Y378623D01*
X634753Y378660D01*
X634863Y378693D01*
X634975Y378722D01*
X635087Y378748D01*
X635200Y378770D01*
X635314Y378787D01*
X635428Y378801D01*
X635543Y378811D01*
X635658Y378817D01*
X635773Y378819D01*
X635773Y378818D02*
X635888Y378816D01*
X636003Y378810D01*
X636118Y378800D01*
X636232Y378786D01*
X636346Y378769D01*
X636459Y378747D01*
X636571Y378721D01*
X636683Y378692D01*
X636793Y378659D01*
X636902Y378622D01*
X637010Y378581D01*
X637116Y378536D01*
X637221Y378488D01*
X637323Y378437D01*
X637424Y378381D01*
X637524Y378323D01*
X637621Y378261D01*
X637715Y378196D01*
X637808Y378127D01*
X637898Y378055D01*
X637986Y377981D01*
X638071Y377903D01*
X638153Y377822D01*
X638232Y377739D01*
X638309Y377653D01*
X638382Y377564D01*
X638453Y377473D01*
X638520Y377379D01*
X638584Y377284D01*
X638645Y377186D01*
X638702Y377086D01*
X638755Y376984D01*
X638806Y376880D01*
X638852Y376775D01*
X638895Y376668D01*
X638934Y376560D01*
X639071Y376271D01*
X639201Y375979D01*
X639324Y375683D01*
X639439Y375385D01*
X639548Y375084D01*
X639649Y374781D01*
X639743Y374475D01*
X639830Y374168D01*
X639909Y373858D01*
X639981Y373546D01*
X640045Y373233D01*
X640102Y372918D01*
X640152Y372602D01*
X640194Y372285D01*
X640228Y371967D01*
X640255Y371649D01*
X640274Y371329D01*
X640285Y371010D01*
X640289Y370690D01*
X631258Y370690D02*
X631262Y370370D01*
X631273Y370051D01*
X631292Y369731D01*
X631319Y369413D01*
X631353Y369095D01*
X631395Y368778D01*
X631445Y368462D01*
X631502Y368147D01*
X631566Y367834D01*
X631638Y367522D01*
X631717Y367212D01*
X631804Y366905D01*
X631898Y366599D01*
X631999Y366296D01*
X632108Y365995D01*
X632223Y365697D01*
X632346Y365401D01*
X632476Y365109D01*
X632613Y364820D01*
X632612Y364820D02*
X632651Y364712D01*
X632694Y364605D01*
X632740Y364500D01*
X632791Y364396D01*
X632844Y364294D01*
X632901Y364194D01*
X632962Y364096D01*
X633026Y364001D01*
X633093Y363907D01*
X633164Y363816D01*
X633237Y363727D01*
X633314Y363641D01*
X633393Y363558D01*
X633475Y363477D01*
X633560Y363399D01*
X633648Y363325D01*
X633738Y363253D01*
X633831Y363184D01*
X633925Y363119D01*
X634022Y363057D01*
X634122Y362999D01*
X634223Y362943D01*
X634325Y362892D01*
X634430Y362844D01*
X634536Y362799D01*
X634644Y362758D01*
X634753Y362721D01*
X634863Y362688D01*
X634975Y362659D01*
X635087Y362633D01*
X635200Y362611D01*
X635314Y362594D01*
X635428Y362580D01*
X635543Y362570D01*
X635658Y362564D01*
X635773Y362562D01*
X638933Y364820D02*
X639070Y365109D01*
X639200Y365401D01*
X639323Y365697D01*
X639438Y365995D01*
X639547Y366296D01*
X639648Y366599D01*
X639742Y366905D01*
X639829Y367212D01*
X639908Y367522D01*
X639980Y367834D01*
X640044Y368147D01*
X640101Y368462D01*
X640151Y368778D01*
X640193Y369095D01*
X640227Y369413D01*
X640254Y369731D01*
X640273Y370051D01*
X640284Y370370D01*
X640288Y370690D01*
X638934Y364820D02*
X638895Y364712D01*
X638852Y364605D01*
X638806Y364500D01*
X638755Y364396D01*
X638702Y364294D01*
X638645Y364194D01*
X638584Y364096D01*
X638520Y364001D01*
X638453Y363907D01*
X638382Y363816D01*
X638309Y363727D01*
X638232Y363641D01*
X638153Y363558D01*
X638071Y363477D01*
X637986Y363399D01*
X637898Y363325D01*
X637808Y363253D01*
X637715Y363184D01*
X637621Y363119D01*
X637524Y363057D01*
X637424Y362999D01*
X637323Y362943D01*
X637220Y362892D01*
X637116Y362844D01*
X637010Y362799D01*
X636902Y362758D01*
X636793Y362721D01*
X636683Y362688D01*
X636571Y362659D01*
X636459Y362633D01*
X636346Y362611D01*
X636232Y362594D01*
X636118Y362580D01*
X636003Y362570D01*
X635888Y362564D01*
X635773Y362562D01*
X632161Y366174D02*
X639386Y375206D01*
X504381Y178818D02*
X498962Y162562D01*
X509799Y162562D02*
X504381Y178818D01*
X508445Y166626D02*
X500317Y166626D01*
X515878Y165271D02*
X515878Y173399D01*
X515879Y165271D02*
X515881Y165170D01*
X515887Y165069D01*
X515896Y164968D01*
X515909Y164867D01*
X515926Y164767D01*
X515947Y164668D01*
X515971Y164570D01*
X515999Y164473D01*
X516031Y164376D01*
X516066Y164281D01*
X516105Y164188D01*
X516147Y164096D01*
X516193Y164005D01*
X516242Y163917D01*
X516294Y163830D01*
X516350Y163745D01*
X516408Y163662D01*
X516470Y163582D01*
X516535Y163504D01*
X516602Y163428D01*
X516672Y163355D01*
X516745Y163285D01*
X516821Y163218D01*
X516899Y163153D01*
X516979Y163091D01*
X517062Y163033D01*
X517147Y162977D01*
X517234Y162925D01*
X517322Y162876D01*
X517413Y162830D01*
X517505Y162788D01*
X517598Y162749D01*
X517693Y162714D01*
X517790Y162682D01*
X517887Y162654D01*
X517985Y162630D01*
X518084Y162609D01*
X518184Y162592D01*
X518285Y162579D01*
X518386Y162570D01*
X518487Y162564D01*
X518588Y162562D01*
X523103Y162562D01*
X523103Y173399D01*
X529425Y162562D02*
X536650Y173399D01*
X529425Y173399D02*
X536650Y162562D01*
X542417Y162562D02*
X542417Y173399D01*
X541965Y177915D02*
X541965Y178818D01*
X542868Y178818D01*
X542868Y177915D01*
X541965Y177915D01*
X548941Y178818D02*
X548941Y165271D01*
X548943Y165170D01*
X548949Y165069D01*
X548958Y164968D01*
X548971Y164867D01*
X548988Y164767D01*
X549009Y164668D01*
X549033Y164570D01*
X549061Y164473D01*
X549093Y164376D01*
X549128Y164281D01*
X549167Y164188D01*
X549209Y164096D01*
X549255Y164005D01*
X549304Y163917D01*
X549356Y163830D01*
X549412Y163745D01*
X549470Y163662D01*
X549532Y163582D01*
X549597Y163504D01*
X549664Y163428D01*
X549734Y163355D01*
X549807Y163285D01*
X549883Y163218D01*
X549961Y163153D01*
X550041Y163091D01*
X550124Y163033D01*
X550209Y162977D01*
X550296Y162925D01*
X550384Y162876D01*
X550475Y162830D01*
X550567Y162788D01*
X550660Y162749D01*
X550755Y162714D01*
X550852Y162682D01*
X550949Y162654D01*
X551047Y162630D01*
X551146Y162609D01*
X551246Y162592D01*
X551347Y162579D01*
X551448Y162570D01*
X551549Y162564D01*
X551650Y162562D01*
X557006Y162562D02*
X557006Y173399D01*
X556554Y177915D02*
X556554Y178818D01*
X557457Y178818D01*
X557457Y177915D01*
X556554Y177915D01*
X566381Y168884D02*
X570445Y168884D01*
X566381Y168884D02*
X566269Y168882D01*
X566158Y168876D01*
X566047Y168866D01*
X565936Y168853D01*
X565826Y168835D01*
X565717Y168813D01*
X565608Y168788D01*
X565500Y168759D01*
X565394Y168726D01*
X565288Y168689D01*
X565184Y168649D01*
X565082Y168605D01*
X564981Y168557D01*
X564882Y168506D01*
X564784Y168451D01*
X564689Y168393D01*
X564596Y168332D01*
X564505Y168267D01*
X564416Y168199D01*
X564330Y168128D01*
X564247Y168055D01*
X564166Y167978D01*
X564087Y167898D01*
X564012Y167816D01*
X563940Y167731D01*
X563870Y167644D01*
X563804Y167554D01*
X563741Y167462D01*
X563681Y167367D01*
X563625Y167271D01*
X563572Y167173D01*
X563523Y167073D01*
X563477Y166971D01*
X563435Y166868D01*
X563396Y166763D01*
X563361Y166657D01*
X563330Y166550D01*
X563303Y166442D01*
X563279Y166333D01*
X563260Y166223D01*
X563244Y166113D01*
X563232Y166002D01*
X563224Y165890D01*
X563220Y165779D01*
X563220Y165667D01*
X563224Y165556D01*
X563232Y165444D01*
X563244Y165333D01*
X563260Y165223D01*
X563279Y165113D01*
X563303Y165004D01*
X563330Y164896D01*
X563361Y164789D01*
X563396Y164683D01*
X563435Y164578D01*
X563477Y164475D01*
X563523Y164373D01*
X563572Y164273D01*
X563625Y164175D01*
X563681Y164079D01*
X563741Y163984D01*
X563804Y163892D01*
X563870Y163802D01*
X563940Y163715D01*
X564012Y163630D01*
X564087Y163548D01*
X564166Y163468D01*
X564247Y163391D01*
X564330Y163318D01*
X564416Y163247D01*
X564505Y163179D01*
X564596Y163114D01*
X564689Y163053D01*
X564784Y162995D01*
X564882Y162940D01*
X564981Y162889D01*
X565082Y162841D01*
X565184Y162797D01*
X565288Y162757D01*
X565394Y162720D01*
X565500Y162687D01*
X565608Y162658D01*
X565717Y162633D01*
X565826Y162611D01*
X565936Y162593D01*
X566047Y162580D01*
X566158Y162570D01*
X566269Y162564D01*
X566381Y162562D01*
X570445Y162562D01*
X570445Y170690D01*
X570444Y170690D02*
X570442Y170791D01*
X570436Y170892D01*
X570427Y170993D01*
X570414Y171094D01*
X570397Y171194D01*
X570376Y171293D01*
X570352Y171391D01*
X570324Y171488D01*
X570292Y171585D01*
X570257Y171680D01*
X570218Y171773D01*
X570176Y171865D01*
X570130Y171956D01*
X570081Y172045D01*
X570029Y172131D01*
X569973Y172216D01*
X569915Y172299D01*
X569853Y172379D01*
X569788Y172457D01*
X569721Y172533D01*
X569651Y172606D01*
X569578Y172676D01*
X569502Y172743D01*
X569424Y172808D01*
X569344Y172870D01*
X569261Y172928D01*
X569176Y172984D01*
X569090Y173036D01*
X569001Y173085D01*
X568910Y173131D01*
X568818Y173173D01*
X568725Y173212D01*
X568630Y173247D01*
X568533Y173279D01*
X568436Y173307D01*
X568338Y173331D01*
X568239Y173352D01*
X568139Y173369D01*
X568038Y173382D01*
X567937Y173391D01*
X567836Y173397D01*
X567735Y173399D01*
X564123Y173399D01*
X577967Y173399D02*
X577967Y162562D01*
X577967Y173399D02*
X583386Y173399D01*
X583386Y171593D01*
X587782Y157143D02*
X589588Y157143D01*
X595007Y173399D01*
X587782Y173399D02*
X591394Y162562D01*
X610673Y162562D02*
X610673Y178818D01*
X608867Y162562D02*
X612479Y162562D01*
X612479Y178818D02*
X608867Y178818D01*
X617864Y180624D02*
X617866Y180727D01*
X617872Y180829D01*
X617881Y180931D01*
X617895Y181033D01*
X617912Y181134D01*
X617934Y181234D01*
X617959Y181333D01*
X617987Y181432D01*
X618020Y181529D01*
X618056Y181625D01*
X618095Y181720D01*
X618139Y181813D01*
X618185Y181904D01*
X618236Y181993D01*
X618289Y182081D01*
X618346Y182166D01*
X618406Y182249D01*
X618469Y182330D01*
X618535Y182409D01*
X618604Y182484D01*
X618676Y182558D01*
X618750Y182628D01*
X618827Y182696D01*
X618907Y182760D01*
X618989Y182822D01*
X619073Y182880D01*
X619160Y182935D01*
X619248Y182987D01*
X619339Y183035D01*
X619431Y183080D01*
X619524Y183122D01*
X619620Y183160D01*
X619716Y183194D01*
X619814Y183225D01*
X619913Y183251D01*
X620013Y183275D01*
X620114Y183294D01*
X620215Y183309D01*
X620317Y183321D01*
X620419Y183329D01*
X620522Y183333D01*
X620624Y183333D01*
X620727Y183329D01*
X620829Y183321D01*
X620931Y183309D01*
X621032Y183294D01*
X621133Y183275D01*
X621233Y183251D01*
X621332Y183225D01*
X621430Y183194D01*
X621526Y183160D01*
X621622Y183122D01*
X621715Y183080D01*
X621807Y183035D01*
X621898Y182987D01*
X621986Y182935D01*
X622073Y182880D01*
X622157Y182822D01*
X622239Y182760D01*
X622319Y182696D01*
X622396Y182628D01*
X622470Y182558D01*
X622542Y182484D01*
X622611Y182409D01*
X622677Y182330D01*
X622740Y182249D01*
X622800Y182166D01*
X622857Y182081D01*
X622910Y181993D01*
X622961Y181904D01*
X623007Y181813D01*
X623051Y181720D01*
X623090Y181625D01*
X623126Y181529D01*
X623159Y181432D01*
X623187Y181333D01*
X623212Y181234D01*
X623234Y181134D01*
X623251Y181033D01*
X623265Y180931D01*
X623274Y180829D01*
X623280Y180727D01*
X623282Y180624D01*
X623280Y180511D01*
X623274Y180398D01*
X623264Y180285D01*
X623251Y180172D01*
X623233Y180061D01*
X623212Y179949D01*
X623186Y179839D01*
X623157Y179729D01*
X623125Y179621D01*
X623088Y179514D01*
X623048Y179408D01*
X623004Y179304D01*
X622957Y179201D01*
X622906Y179100D01*
X622851Y179000D01*
X622793Y178903D01*
X622732Y178808D01*
X622668Y178715D01*
X622600Y178624D01*
X622529Y178535D01*
X622455Y178449D01*
X622379Y178366D01*
X617863Y172496D01*
X623282Y172496D01*
X632656Y162562D02*
X636268Y162562D01*
X632656Y162562D02*
X632538Y162564D01*
X632420Y162570D01*
X632302Y162579D01*
X632185Y162593D01*
X632068Y162610D01*
X631951Y162631D01*
X631836Y162656D01*
X631721Y162685D01*
X631607Y162718D01*
X631495Y162754D01*
X631384Y162794D01*
X631274Y162837D01*
X631165Y162884D01*
X631058Y162934D01*
X630953Y162989D01*
X630850Y163046D01*
X630749Y163107D01*
X630649Y163171D01*
X630552Y163238D01*
X630457Y163308D01*
X630365Y163382D01*
X630274Y163458D01*
X630187Y163538D01*
X630102Y163620D01*
X630020Y163705D01*
X629940Y163792D01*
X629864Y163883D01*
X629790Y163975D01*
X629720Y164070D01*
X629653Y164167D01*
X629589Y164267D01*
X629528Y164368D01*
X629471Y164471D01*
X629416Y164576D01*
X629366Y164683D01*
X629319Y164792D01*
X629276Y164902D01*
X629236Y165013D01*
X629200Y165125D01*
X629167Y165239D01*
X629138Y165354D01*
X629113Y165469D01*
X629092Y165586D01*
X629075Y165703D01*
X629061Y165820D01*
X629052Y165938D01*
X629046Y166056D01*
X629044Y166174D01*
X629043Y166174D02*
X629043Y175206D01*
X629044Y175206D02*
X629046Y175324D01*
X629052Y175442D01*
X629061Y175560D01*
X629075Y175677D01*
X629092Y175794D01*
X629113Y175911D01*
X629138Y176026D01*
X629167Y176141D01*
X629200Y176255D01*
X629236Y176367D01*
X629276Y176478D01*
X629319Y176588D01*
X629366Y176697D01*
X629416Y176804D01*
X629470Y176909D01*
X629528Y177012D01*
X629589Y177113D01*
X629653Y177213D01*
X629720Y177310D01*
X629790Y177405D01*
X629864Y177497D01*
X629940Y177588D01*
X630020Y177675D01*
X630102Y177760D01*
X630187Y177842D01*
X630274Y177922D01*
X630365Y177998D01*
X630457Y178072D01*
X630552Y178142D01*
X630649Y178209D01*
X630749Y178273D01*
X630850Y178334D01*
X630953Y178391D01*
X631058Y178445D01*
X631165Y178496D01*
X631274Y178543D01*
X631384Y178586D01*
X631495Y178626D01*
X631607Y178662D01*
X631721Y178695D01*
X631836Y178724D01*
X631951Y178749D01*
X632068Y178770D01*
X632185Y178787D01*
X632302Y178801D01*
X632420Y178810D01*
X632538Y178816D01*
X632656Y178818D01*
X636268Y178818D01*
D13*
X240500Y8556D03*
D14*
X259000Y8556D03*
D15*
X281500Y8556D03*
X308500Y8556D03*
D16*
X334500Y8556D03*
D14*
X365000Y8556D03*
D13*
X382500Y8556D03*
D17*
X404000Y8556D03*
D18*
X437000Y8556D03*
D13*
X458500Y8556D03*
D14*
X476000Y8556D03*
D19*
X503500Y8556D03*
D20*
X546000Y8556D03*
D21*
X239500Y9556D03*
D22*
X259000Y9556D03*
D23*
X280500Y9556D03*
X309500Y9556D03*
D19*
X333500Y9556D03*
D22*
X366000Y9556D03*
D21*
X381500Y9556D03*
D24*
X404000Y9556D03*
D25*
X437000Y9556D03*
D13*
X458500Y9556D03*
D22*
X475000Y9556D03*
D15*
X503500Y9556D03*
D26*
X547000Y9556D03*
D27*
X239000Y10556D03*
D28*
X260000Y10556D03*
D29*
X279500Y10556D03*
D22*
X310000Y10556D03*
D24*
X333000Y10556D03*
D29*
X366500Y10556D03*
D27*
X381000Y10556D03*
D15*
X403500Y10556D03*
D14*
X437000Y10556D03*
D13*
X458500Y10556D03*
D29*
X474500Y10556D03*
D22*
X504000Y10556D03*
D30*
X547500Y10556D03*
D31*
X260500Y11556D03*
D28*
X279000Y11556D03*
D29*
X310500Y11556D03*
D32*
X332500Y11556D03*
D28*
X367000Y11556D03*
D23*
X403500Y11556D03*
X437500Y11556D03*
D13*
X458500Y11556D03*
D28*
X474000Y11556D03*
X504000Y11556D03*
D33*
X548000Y11556D03*
D34*
X261000Y12556D03*
D31*
X278500Y12556D03*
D28*
X311000Y12556D03*
D25*
X332000Y12556D03*
D31*
X367500Y12556D03*
D29*
X403500Y12556D03*
X437500Y12556D03*
D13*
X458500Y12556D03*
D31*
X473500Y12556D03*
D34*
X504000Y12556D03*
D35*
X548500Y12556D03*
D34*
X261000Y13556D03*
D31*
X278500Y13556D03*
X311500Y13556D03*
D15*
X331500Y13556D03*
D34*
X368000Y13556D03*
D28*
X404000Y13556D03*
X438000Y13556D03*
D13*
X458500Y13556D03*
D34*
X473000Y13556D03*
D36*
X503500Y13556D03*
D37*
X549000Y13556D03*
D36*
X261500Y14556D03*
D34*
X278000Y14556D03*
X312000Y14556D03*
D15*
X331500Y14556D03*
D36*
X368500Y14556D03*
D34*
X404000Y14556D03*
D31*
X438500Y14556D03*
D13*
X458500Y14556D03*
D34*
X473000Y14556D03*
D38*
X504000Y14556D03*
D37*
X549000Y14556D03*
D39*
X245000Y15556D03*
D36*
X261500Y15556D03*
X277500Y15556D03*
D13*
X294500Y15556D03*
D34*
X312000Y15556D03*
D14*
X331000Y15556D03*
D13*
X351500Y15556D03*
D36*
X368500Y15556D03*
D39*
X387000Y15556D03*
D36*
X403500Y15556D03*
D13*
X420500Y15556D03*
D31*
X438500Y15556D03*
D28*
X456000Y15556D03*
D36*
X472500Y15556D03*
D13*
X489500Y15556D03*
X503500Y15556D03*
D31*
X520500Y15556D03*
D40*
X549500Y15556D03*
D34*
X245000Y16556D03*
D38*
X262000Y16556D03*
D36*
X277500Y16556D03*
D31*
X294500Y16556D03*
D36*
X312500Y16556D03*
D14*
X331000Y16556D03*
D31*
X351500Y16556D03*
D36*
X368500Y16556D03*
D34*
X387000Y16556D03*
D36*
X403500Y16556D03*
D31*
X420500Y16556D03*
D34*
X439000Y16556D03*
D28*
X456000Y16556D03*
D36*
X472500Y16556D03*
D34*
X489000Y16556D03*
D39*
X504000Y16556D03*
D29*
X520500Y16556D03*
D40*
X549500Y16556D03*
D28*
X245000Y17556D03*
D38*
X262000Y17556D03*
X277000Y17556D03*
D29*
X294500Y17556D03*
D36*
X312500Y17556D03*
D23*
X330500Y17556D03*
D29*
X351500Y17556D03*
D38*
X369000Y17556D03*
D28*
X387000Y17556D03*
D13*
X403500Y17556D03*
D29*
X420500Y17556D03*
D34*
X439000Y17556D03*
D28*
X456000Y17556D03*
D38*
X472000Y17556D03*
D28*
X489000Y17556D03*
D39*
X504000Y17556D03*
D22*
X520000Y17556D03*
D40*
X549500Y17556D03*
D22*
X245000Y18556D03*
D38*
X262000Y18556D03*
X277000Y18556D03*
D22*
X295000Y18556D03*
D38*
X313000Y18556D03*
D23*
X330500Y18556D03*
X351500Y18556D03*
D38*
X369000Y18556D03*
D29*
X386500Y18556D03*
D13*
X403500Y18556D03*
D22*
X421000Y18556D03*
D34*
X439000Y18556D03*
D28*
X456000Y18556D03*
D38*
X472000Y18556D03*
D28*
X489000Y18556D03*
D21*
X504500Y18556D03*
D29*
X519500Y18556D03*
D40*
X549500Y18556D03*
D22*
X245000Y19556D03*
D13*
X262500Y19556D03*
D38*
X277000Y19556D03*
D23*
X294500Y19556D03*
D38*
X313000Y19556D03*
D23*
X330500Y19556D03*
X351500Y19556D03*
D13*
X369500Y19556D03*
D22*
X387000Y19556D03*
D13*
X403500Y19556D03*
D23*
X420500Y19556D03*
D36*
X439500Y19556D03*
D28*
X456000Y19556D03*
D38*
X472000Y19556D03*
D28*
X489000Y19556D03*
D19*
X512500Y19556D03*
D40*
X549500Y19556D03*
D22*
X245000Y20556D03*
D13*
X262500Y20556D03*
D38*
X277000Y20556D03*
D14*
X295000Y20556D03*
D38*
X313000Y20556D03*
D22*
X330000Y20556D03*
D23*
X351500Y20556D03*
D13*
X369500Y20556D03*
D23*
X386500Y20556D03*
D39*
X404000Y20556D03*
D14*
X421000Y20556D03*
D36*
X439500Y20556D03*
D28*
X456000Y20556D03*
D38*
X472000Y20556D03*
D22*
X489000Y20556D03*
D14*
X510000Y20556D03*
D40*
X549500Y20556D03*
D14*
X245000Y21556D03*
D13*
X262500Y21556D03*
D38*
X277000Y21556D03*
D14*
X295000Y21556D03*
D38*
X313000Y21556D03*
D22*
X330000Y21556D03*
D23*
X351500Y21556D03*
D13*
X369500Y21556D03*
D23*
X386500Y21556D03*
D21*
X403500Y21556D03*
D14*
X421000Y21556D03*
D36*
X439500Y21556D03*
D28*
X456000Y21556D03*
D38*
X472000Y21556D03*
D40*
X498500Y21556D03*
D37*
X549000Y21556D03*
D14*
X245000Y22556D03*
D13*
X262500Y22556D03*
X276500Y22556D03*
D14*
X295000Y22556D03*
D38*
X313000Y22556D03*
D22*
X330000Y22556D03*
D14*
X351000Y22556D03*
D13*
X369500Y22556D03*
D23*
X386500Y22556D03*
D21*
X403500Y22556D03*
D14*
X421000Y22556D03*
D36*
X439500Y22556D03*
D28*
X456000Y22556D03*
D38*
X472000Y22556D03*
D41*
X497500Y22556D03*
D37*
X549000Y22556D03*
D14*
X245000Y23556D03*
D13*
X262500Y23556D03*
X276500Y23556D03*
D14*
X295000Y23556D03*
D38*
X313000Y23556D03*
D22*
X330000Y23556D03*
D15*
X351500Y23556D03*
D13*
X369500Y23556D03*
D23*
X386500Y23556D03*
D21*
X403500Y23556D03*
D14*
X421000Y23556D03*
D36*
X439500Y23556D03*
D28*
X456000Y23556D03*
D38*
X472000Y23556D03*
D42*
X496500Y23556D03*
D35*
X548500Y23556D03*
D14*
X245000Y24556D03*
D13*
X262500Y24556D03*
X276500Y24556D03*
D14*
X295000Y24556D03*
D38*
X313000Y24556D03*
D22*
X330000Y24556D03*
D15*
X351500Y24556D03*
D13*
X369500Y24556D03*
D23*
X386500Y24556D03*
D21*
X403500Y24556D03*
D14*
X421000Y24556D03*
D36*
X439500Y24556D03*
D28*
X456000Y24556D03*
D38*
X472000Y24556D03*
D43*
X496000Y24556D03*
D33*
X548000Y24556D03*
D14*
X245000Y25556D03*
D13*
X262500Y25556D03*
X276500Y25556D03*
D14*
X295000Y25556D03*
D38*
X313000Y25556D03*
D22*
X330000Y25556D03*
D14*
X351000Y25556D03*
D13*
X369500Y25556D03*
D23*
X386500Y25556D03*
D21*
X403500Y25556D03*
D14*
X421000Y25556D03*
D36*
X439500Y25556D03*
D28*
X456000Y25556D03*
D38*
X472000Y25556D03*
D44*
X495500Y25556D03*
D30*
X547500Y25556D03*
D22*
X245000Y26556D03*
D13*
X262500Y26556D03*
X276500Y26556D03*
D14*
X295000Y26556D03*
D38*
X313000Y26556D03*
D22*
X330000Y26556D03*
D23*
X351500Y26556D03*
D13*
X369500Y26556D03*
D23*
X386500Y26556D03*
D21*
X403500Y26556D03*
D14*
X421000Y26556D03*
D36*
X439500Y26556D03*
D28*
X456000Y26556D03*
D38*
X472000Y26556D03*
D44*
X495500Y26556D03*
D45*
X546500Y26556D03*
D22*
X245000Y27556D03*
D13*
X262500Y27556D03*
D38*
X277000Y27556D03*
D14*
X295000Y27556D03*
D38*
X313000Y27556D03*
D22*
X330000Y27556D03*
D23*
X351500Y27556D03*
D13*
X369500Y27556D03*
D23*
X386500Y27556D03*
D39*
X404000Y27556D03*
D14*
X421000Y27556D03*
D36*
X439500Y27556D03*
D28*
X456000Y27556D03*
D38*
X472000Y27556D03*
D46*
X495000Y27556D03*
D47*
X545000Y27556D03*
D22*
X245000Y28556D03*
D13*
X262500Y28556D03*
D38*
X277000Y28556D03*
D23*
X294500Y28556D03*
D38*
X313000Y28556D03*
D22*
X331000Y28556D03*
D23*
X351500Y28556D03*
D13*
X369500Y28556D03*
D22*
X387000Y28556D03*
D13*
X403500Y28556D03*
D23*
X420500Y28556D03*
D36*
X439500Y28556D03*
D28*
X456000Y28556D03*
D38*
X472000Y28556D03*
D28*
X489000Y28556D03*
D39*
X505000Y28556D03*
D48*
X543000Y28556D03*
D22*
X245000Y29556D03*
D38*
X262000Y29556D03*
X277000Y29556D03*
D22*
X295000Y29556D03*
D38*
X313000Y29556D03*
D22*
X331000Y29556D03*
D23*
X351500Y29556D03*
D38*
X369000Y29556D03*
D29*
X386500Y29556D03*
D13*
X403500Y29556D03*
D22*
X421000Y29556D03*
D36*
X439500Y29556D03*
D28*
X456000Y29556D03*
D38*
X472000Y29556D03*
D28*
X489000Y29556D03*
D39*
X505000Y29556D03*
D31*
X521500Y29556D03*
D37*
X549000Y29556D03*
D28*
X245000Y30556D03*
D38*
X262000Y30556D03*
X277000Y30556D03*
D29*
X294500Y30556D03*
D36*
X312500Y30556D03*
D28*
X332000Y30556D03*
D29*
X351500Y30556D03*
D38*
X369000Y30556D03*
D28*
X387000Y30556D03*
D13*
X403500Y30556D03*
D29*
X420500Y30556D03*
D34*
X439000Y30556D03*
D28*
X456000Y30556D03*
D36*
X472500Y30556D03*
D28*
X489000Y30556D03*
D13*
X504500Y30556D03*
D28*
X520000Y30556D03*
D37*
X549000Y30556D03*
D34*
X245000Y31556D03*
D38*
X262000Y31556D03*
D36*
X277500Y31556D03*
D31*
X294500Y31556D03*
D36*
X312500Y31556D03*
D39*
X336000Y31556D03*
D31*
X351500Y31556D03*
D38*
X369000Y31556D03*
D34*
X387000Y31556D03*
D38*
X404000Y31556D03*
D31*
X420500Y31556D03*
D34*
X439000Y31556D03*
D28*
X456000Y31556D03*
D36*
X472500Y31556D03*
D34*
X489000Y31556D03*
D13*
X504500Y31556D03*
D28*
X520000Y31556D03*
D37*
X549000Y31556D03*
D36*
X261500Y32556D03*
X277500Y32556D03*
D38*
X295000Y32556D03*
D34*
X312000Y32556D03*
D39*
X336000Y32556D03*
D13*
X351500Y32556D03*
D36*
X368500Y32556D03*
X403500Y32556D03*
D38*
X421000Y32556D03*
D31*
X438500Y32556D03*
D28*
X456000Y32556D03*
D34*
X473000Y32556D03*
D21*
X489500Y32556D03*
D13*
X504500Y32556D03*
D34*
X520000Y32556D03*
D37*
X549000Y32556D03*
D36*
X261500Y33556D03*
D34*
X278000Y33556D03*
X312000Y33556D03*
D38*
X336000Y33556D03*
D36*
X368500Y33556D03*
D34*
X404000Y33556D03*
D13*
X436500Y33556D03*
X458500Y33556D03*
D34*
X473000Y33556D03*
D36*
X504500Y33556D03*
D35*
X548500Y33556D03*
D34*
X261000Y34556D03*
D31*
X278500Y34556D03*
X311500Y34556D03*
D38*
X336000Y34556D03*
D34*
X368000Y34556D03*
D28*
X404000Y34556D03*
D38*
X436000Y34556D03*
D13*
X458500Y34556D03*
D31*
X473500Y34556D03*
D36*
X504500Y34556D03*
D35*
X548500Y34556D03*
D34*
X261000Y35556D03*
D31*
X278500Y35556D03*
D28*
X311000Y35556D03*
D36*
X336500Y35556D03*
D31*
X367500Y35556D03*
D28*
X404000Y35556D03*
D36*
X435500Y35556D03*
D13*
X458500Y35556D03*
D31*
X473500Y35556D03*
X504500Y35556D03*
D33*
X548000Y35556D03*
D31*
X260500Y36556D03*
D28*
X279000Y36556D03*
X311000Y36556D03*
D27*
X324000Y36556D03*
D34*
X337000Y36556D03*
D28*
X367000Y36556D03*
D22*
X404000Y36556D03*
D36*
X435500Y36556D03*
D13*
X458500Y36556D03*
D28*
X474000Y36556D03*
X505000Y36556D03*
D33*
X548000Y36556D03*
D27*
X239000Y37556D03*
D28*
X260000Y37556D03*
D29*
X279500Y37556D03*
D22*
X310000Y37556D03*
D21*
X324500Y37556D03*
D31*
X337500Y37556D03*
D29*
X366500Y37556D03*
D27*
X381000Y37556D03*
D14*
X404000Y37556D03*
D31*
X434500Y37556D03*
D13*
X458500Y37556D03*
D29*
X474500Y37556D03*
D23*
X504500Y37556D03*
D30*
X547500Y37556D03*
D27*
X240000Y38556D03*
D29*
X259500Y38556D03*
D23*
X280500Y38556D03*
X309500Y38556D03*
D39*
X325000Y38556D03*
D28*
X338000Y38556D03*
D22*
X366000Y38556D03*
D21*
X381500Y38556D03*
D24*
X404000Y38556D03*
D28*
X434000Y38556D03*
D13*
X458500Y38556D03*
D23*
X475500Y38556D03*
D15*
X504500Y38556D03*
D45*
X546500Y38556D03*
D39*
X241000Y39556D03*
D23*
X258500Y39556D03*
D14*
X281000Y39556D03*
D15*
X308500Y39556D03*
D13*
X325500Y39556D03*
D22*
X339000Y39556D03*
D14*
X365000Y39556D03*
D13*
X382500Y39556D03*
D16*
X404500Y39556D03*
D22*
X433000Y39556D03*
D13*
X458500Y39556D03*
D15*
X476500Y39556D03*
D19*
X504500Y39556D03*
D49*
X545500Y39556D03*
D50*
X265500Y40556D03*
D51*
X323000Y40556D03*
D24*
X363000Y40556D03*
D52*
X394000Y40556D03*
D39*
X417000Y40556D03*
D18*
X433000Y40556D03*
D53*
X484500Y40556D03*
D48*
X543000Y40556D03*
D54*
X305500Y41556D03*
D36*
X383500Y41556D03*
D22*
X399000Y41556D03*
D29*
X422500Y41556D03*
D34*
X439000Y41556D03*
D55*
X508000Y41556D03*
D43*
X252000Y42556D03*
D56*
X323000Y42556D03*
D36*
X383500Y42556D03*
D29*
X398500Y42556D03*
D31*
X423500Y42556D03*
D34*
X439000Y42556D03*
D28*
X456000Y42556D03*
D57*
X517000Y42556D03*
D43*
X252000Y43556D03*
D56*
X323000Y43556D03*
D36*
X383500Y43556D03*
D28*
X398000Y43556D03*
D34*
X424000Y43556D03*
X439000Y43556D03*
D28*
X456000Y43556D03*
D57*
X517000Y43556D03*
D43*
X252000Y44556D03*
D56*
X323000Y44556D03*
D36*
X383500Y44556D03*
D31*
X397500Y44556D03*
D36*
X424500Y44556D03*
D34*
X439000Y44556D03*
D28*
X456000Y44556D03*
D57*
X517000Y44556D03*
D43*
X252000Y45556D03*
D56*
X323000Y45556D03*
D36*
X383500Y45556D03*
D34*
X397000Y45556D03*
D38*
X425000Y45556D03*
D34*
X439000Y45556D03*
D28*
X456000Y45556D03*
D57*
X517000Y45556D03*
D43*
X252000Y46556D03*
D56*
X323000Y46556D03*
D36*
X383500Y46556D03*
D34*
X397000Y46556D03*
D21*
X411500Y46556D03*
D38*
X425000Y46556D03*
D34*
X439000Y46556D03*
D28*
X456000Y46556D03*
D57*
X517000Y46556D03*
D43*
X252000Y47556D03*
D56*
X323000Y47556D03*
D36*
X383500Y47556D03*
X396500Y47556D03*
X411500Y47556D03*
D13*
X425500Y47556D03*
D34*
X439000Y47556D03*
D28*
X456000Y47556D03*
D57*
X517000Y47556D03*
D43*
X252000Y48556D03*
D56*
X323000Y48556D03*
D36*
X383500Y48556D03*
X396500Y48556D03*
D31*
X411500Y48556D03*
D13*
X425500Y48556D03*
D43*
X448000Y48556D03*
D57*
X517000Y48556D03*
D43*
X252000Y49556D03*
D56*
X323000Y49556D03*
D36*
X383500Y49556D03*
X396500Y49556D03*
D28*
X412000Y49556D03*
D13*
X425500Y49556D03*
D43*
X448000Y49556D03*
D57*
X517000Y49556D03*
D26*
X248000Y50556D03*
D39*
X270000Y50556D03*
D58*
X329500Y50556D03*
D36*
X396500Y50556D03*
D29*
X411500Y50556D03*
D39*
X426000Y50556D03*
D43*
X448000Y50556D03*
D57*
X517000Y50556D03*
D31*
X234500Y51556D03*
D16*
X257500Y51556D03*
D59*
X300500Y51556D03*
D40*
X346500Y51556D03*
D32*
X378500Y51556D03*
D38*
X396000Y51556D03*
D29*
X411500Y51556D03*
D39*
X426000Y51556D03*
D43*
X448000Y51556D03*
D57*
X517000Y51556D03*
D36*
X233500Y52556D03*
D15*
X257500Y52556D03*
D31*
X283500Y52556D03*
D28*
X300000Y52556D03*
D31*
X317500Y52556D03*
D13*
X333500Y52556D03*
D25*
X351000Y52556D03*
D14*
X380000Y52556D03*
D38*
X396000Y52556D03*
D29*
X411500Y52556D03*
D39*
X426000Y52556D03*
D43*
X448000Y52556D03*
D57*
X517000Y52556D03*
D13*
X232500Y53556D03*
D23*
X257500Y53556D03*
D34*
X284000Y53556D03*
D28*
X300000Y53556D03*
D34*
X317000Y53556D03*
D13*
X333500Y53556D03*
D15*
X350500Y53556D03*
D23*
X380500Y53556D03*
D38*
X396000Y53556D03*
D29*
X411500Y53556D03*
D39*
X426000Y53556D03*
D43*
X448000Y53556D03*
D57*
X517000Y53556D03*
D39*
X232000Y54556D03*
D28*
X257000Y54556D03*
D36*
X284500Y54556D03*
D28*
X300000Y54556D03*
D36*
X316500Y54556D03*
D13*
X333500Y54556D03*
D14*
X350000Y54556D03*
D22*
X381000Y54556D03*
D38*
X396000Y54556D03*
D29*
X411500Y54556D03*
D39*
X426000Y54556D03*
D43*
X448000Y54556D03*
D57*
X517000Y54556D03*
D39*
X232000Y55556D03*
D34*
X257000Y55556D03*
D38*
X285000Y55556D03*
D28*
X300000Y55556D03*
D36*
X316500Y55556D03*
D13*
X333500Y55556D03*
D22*
X349000Y55556D03*
D29*
X381500Y55556D03*
D36*
X396500Y55556D03*
D29*
X411500Y55556D03*
D39*
X426000Y55556D03*
D43*
X448000Y55556D03*
D60*
X517500Y55556D03*
D21*
X231500Y56556D03*
D38*
X257000Y56556D03*
D13*
X285500Y56556D03*
D28*
X300000Y56556D03*
D36*
X316500Y56556D03*
D13*
X333500Y56556D03*
D22*
X349000Y56556D03*
D28*
X382000Y56556D03*
D36*
X396500Y56556D03*
D29*
X411500Y56556D03*
D13*
X425500Y56556D03*
D42*
X448500Y56556D03*
D60*
X517500Y56556D03*
D27*
X231000Y57556D03*
D38*
X257000Y57556D03*
D39*
X286000Y57556D03*
D28*
X300000Y57556D03*
D36*
X316500Y57556D03*
D13*
X333500Y57556D03*
D29*
X348500Y57556D03*
D31*
X382500Y57556D03*
D36*
X396500Y57556D03*
D31*
X411500Y57556D03*
D13*
X425500Y57556D03*
D43*
X449000Y57556D03*
D61*
X527000Y57556D03*
D27*
X231000Y58556D03*
D38*
X244000Y58556D03*
D39*
X257000Y58556D03*
D34*
X272000Y58556D03*
D39*
X286000Y58556D03*
D28*
X300000Y58556D03*
D36*
X316500Y58556D03*
D31*
X331500Y58556D03*
D29*
X348500Y58556D03*
D34*
X366000Y58556D03*
D31*
X382500Y58556D03*
D36*
X396500Y58556D03*
D31*
X411500Y58556D03*
D13*
X425500Y58556D03*
D46*
X450000Y58556D03*
D62*
X530500Y58556D03*
D27*
X231000Y59556D03*
D34*
X244000Y59556D03*
D39*
X257000Y59556D03*
D28*
X272000Y59556D03*
D39*
X286000Y59556D03*
D28*
X300000Y59556D03*
D36*
X316500Y59556D03*
D31*
X331500Y59556D03*
D28*
X348000Y59556D03*
X366000Y59556D03*
D34*
X383000Y59556D03*
X397000Y59556D03*
D13*
X411500Y59556D03*
D38*
X425000Y59556D03*
D24*
X451000Y59556D03*
D63*
X532500Y59556D03*
D31*
X243500Y60556D03*
D39*
X257000Y60556D03*
D22*
X272000Y60556D03*
D39*
X286000Y60556D03*
D28*
X300000Y60556D03*
D36*
X316500Y60556D03*
D31*
X331500Y60556D03*
D28*
X348000Y60556D03*
D22*
X366000Y60556D03*
D39*
X381000Y60556D03*
X399000Y60556D03*
D38*
X425000Y60556D03*
D15*
X449500Y60556D03*
D64*
X534000Y60556D03*
D31*
X243500Y61556D03*
D27*
X257000Y61556D03*
D17*
X277000Y61556D03*
D28*
X300000Y61556D03*
D36*
X316500Y61556D03*
D31*
X331500Y61556D03*
D28*
X348000Y61556D03*
D65*
X371500Y61556D03*
D13*
X399500Y61556D03*
D36*
X424500Y61556D03*
D22*
X448000Y61556D03*
D66*
X536000Y61556D03*
D28*
X244000Y62556D03*
D27*
X257000Y62556D03*
D65*
X276500Y62556D03*
D28*
X300000Y62556D03*
D36*
X316500Y62556D03*
D31*
X331500Y62556D03*
D28*
X348000Y62556D03*
D65*
X371500Y62556D03*
D38*
X400000Y62556D03*
D34*
X424000Y62556D03*
D31*
X446500Y62556D03*
D67*
X537500Y62556D03*
D18*
X248000Y63556D03*
D21*
X286500Y63556D03*
D28*
X300000Y63556D03*
D36*
X316500Y63556D03*
D31*
X331500Y63556D03*
X347500Y63556D03*
D39*
X381000Y63556D03*
D36*
X400500Y63556D03*
D31*
X423500Y63556D03*
D27*
X435000Y63556D03*
D34*
X446000Y63556D03*
D50*
X538500Y63556D03*
D18*
X248000Y64556D03*
D21*
X286500Y64556D03*
D28*
X300000Y64556D03*
D36*
X316500Y64556D03*
D31*
X331500Y64556D03*
X347500Y64556D03*
D39*
X381000Y64556D03*
D34*
X401000Y64556D03*
D28*
X423000Y64556D03*
D21*
X435500Y64556D03*
D34*
X446000Y64556D03*
D68*
X540000Y64556D03*
D18*
X248000Y65556D03*
D21*
X286500Y65556D03*
D28*
X300000Y65556D03*
D36*
X316500Y65556D03*
D31*
X331500Y65556D03*
X347500Y65556D03*
D34*
X383000Y65556D03*
D14*
X400000Y65556D03*
D22*
X422000Y65556D03*
D39*
X436000Y65556D03*
D31*
X446500Y65556D03*
D69*
X541000Y65556D03*
D18*
X248000Y66556D03*
D21*
X286500Y66556D03*
D28*
X300000Y66556D03*
D36*
X316500Y66556D03*
D31*
X331500Y66556D03*
X347500Y66556D03*
D34*
X383000Y66556D03*
D66*
X422000Y66556D03*
D25*
X480000Y66556D03*
D70*
X542000Y66556D03*
D18*
X248000Y67556D03*
D21*
X286500Y67556D03*
D28*
X300000Y67556D03*
D36*
X316500Y67556D03*
D31*
X331500Y67556D03*
D28*
X348000Y67556D03*
D34*
X383000Y67556D03*
D71*
X422500Y67556D03*
D65*
X483500Y67556D03*
D48*
X543000Y67556D03*
D19*
X248500Y68556D03*
D21*
X286500Y68556D03*
D28*
X300000Y68556D03*
D36*
X316500Y68556D03*
D31*
X331500Y68556D03*
D28*
X348000Y68556D03*
D34*
X383000Y68556D03*
D72*
X425000Y68556D03*
D21*
X462500Y68556D03*
D43*
X486000Y68556D03*
D73*
X544000Y68556D03*
D31*
X243500Y69556D03*
D27*
X257000Y69556D03*
D29*
X271500Y69556D03*
D39*
X286000Y69556D03*
D31*
X300500Y69556D03*
D36*
X316500Y69556D03*
D31*
X331500Y69556D03*
X348500Y69556D03*
D22*
X366000Y69556D03*
D34*
X383000Y69556D03*
D74*
X425000Y69556D03*
D36*
X460500Y69556D03*
D75*
X488000Y69556D03*
D47*
X545000Y69556D03*
D27*
X231000Y70556D03*
D31*
X243500Y70556D03*
D21*
X257500Y70556D03*
D29*
X271500Y70556D03*
D39*
X286000Y70556D03*
D31*
X300500Y70556D03*
D36*
X316500Y70556D03*
D31*
X331500Y70556D03*
D34*
X349000Y70556D03*
D29*
X365500Y70556D03*
D34*
X383000Y70556D03*
D74*
X425000Y70556D03*
D28*
X460000Y70556D03*
D35*
X489500Y70556D03*
D20*
X546000Y70556D03*
D27*
X231000Y71556D03*
D34*
X244000Y71556D03*
D39*
X257000Y71556D03*
D31*
X271500Y71556D03*
D39*
X286000Y71556D03*
D31*
X300500Y71556D03*
D34*
X316000Y71556D03*
D31*
X331500Y71556D03*
D36*
X349500Y71556D03*
D31*
X365500Y71556D03*
D28*
X383000Y71556D03*
D76*
X431000Y71556D03*
D33*
X491000Y71556D03*
D45*
X546500Y71556D03*
D27*
X231000Y72556D03*
D38*
X244000Y72556D03*
D13*
X257500Y72556D03*
D36*
X271500Y72556D03*
D39*
X286000Y72556D03*
D38*
X301000Y72556D03*
D34*
X316000Y72556D03*
D31*
X331500Y72556D03*
D27*
X353000Y72556D03*
D36*
X365500Y72556D03*
D29*
X383500Y72556D03*
D76*
X431000Y72556D03*
D45*
X492500Y72556D03*
D30*
X547500Y72556D03*
D21*
X231500Y73556D03*
D13*
X257500Y73556D03*
X285500Y73556D03*
D39*
X314000Y73556D03*
D13*
X333500Y73556D03*
D27*
X353000Y73556D03*
D23*
X383500Y73556D03*
D62*
X431500Y73556D03*
D49*
X493500Y73556D03*
D35*
X548500Y73556D03*
D21*
X231500Y74556D03*
D36*
X257500Y74556D03*
D13*
X285500Y74556D03*
D39*
X314000Y74556D03*
D13*
X333500Y74556D03*
D21*
X353500Y74556D03*
D77*
X421500Y74556D03*
D78*
X495500Y74556D03*
D37*
X549000Y74556D03*
D39*
X232000Y75556D03*
D36*
X257500Y75556D03*
D38*
X285000Y75556D03*
D13*
X313500Y75556D03*
X333500Y75556D03*
D39*
X354000Y75556D03*
D79*
X421000Y75556D03*
D80*
X496500Y75556D03*
D40*
X549500Y75556D03*
D13*
X232500Y76556D03*
D31*
X257500Y76556D03*
D36*
X284500Y76556D03*
D13*
X313500Y76556D03*
X333500Y76556D03*
D27*
X343000Y76556D03*
D39*
X354000Y76556D03*
D81*
X421000Y76556D03*
D48*
X498000Y76556D03*
D41*
X550500Y76556D03*
D38*
X233000Y77556D03*
D29*
X257500Y77556D03*
D34*
X284000Y77556D03*
D27*
X296000Y77556D03*
D38*
X313000Y77556D03*
D13*
X333500Y77556D03*
D27*
X344000Y77556D03*
D38*
X355000Y77556D03*
D82*
X420500Y77556D03*
D70*
X499000Y77556D03*
D52*
X551000Y77556D03*
D36*
X233500Y78556D03*
D15*
X257500Y78556D03*
D28*
X283000Y78556D03*
D21*
X296500Y78556D03*
D36*
X312500Y78556D03*
D13*
X333500Y78556D03*
D21*
X344500Y78556D03*
D36*
X355500Y78556D03*
D57*
X420000Y78556D03*
D83*
X500500Y78556D03*
D42*
X551500Y78556D03*
D28*
X235000Y79556D03*
D19*
X257500Y79556D03*
D23*
X282500Y79556D03*
D13*
X297500Y79556D03*
D23*
X313500Y79556D03*
D31*
X331500Y79556D03*
D39*
X345000Y79556D03*
D31*
X356500Y79556D03*
D56*
X419000Y79556D03*
D69*
X501000Y79556D03*
D43*
X552000Y79556D03*
D79*
X275000Y80556D03*
D84*
X398000Y80556D03*
D59*
X502500Y80556D03*
D46*
X553000Y80556D03*
D79*
X275000Y81556D03*
D84*
X398000Y81556D03*
D68*
X503000Y81556D03*
D65*
X553500Y81556D03*
D79*
X275000Y82556D03*
D84*
X398000Y82556D03*
D85*
X504500Y82556D03*
D17*
X554000Y82556D03*
D79*
X275000Y83556D03*
D86*
X398500Y83556D03*
D51*
X505000Y83556D03*
D16*
X554500Y83556D03*
D79*
X275000Y84556D03*
D87*
X399000Y84556D03*
D51*
X506000Y84556D03*
D18*
X555000Y84556D03*
D79*
X275000Y85556D03*
D87*
X399000Y85556D03*
D50*
X507500Y85556D03*
D18*
X555000Y85556D03*
D79*
X275000Y86556D03*
D88*
X399500Y86556D03*
D72*
X508000Y86556D03*
D19*
X555500Y86556D03*
D89*
X351000Y87556D03*
D72*
X509000Y87556D03*
D24*
X556000Y87556D03*
D90*
X351500Y88556D03*
D72*
X510000Y88556D03*
D32*
X556500Y88556D03*
D90*
X351500Y89556D03*
D67*
X510500Y89556D03*
D25*
X557000Y89556D03*
D91*
X352000Y90556D03*
D67*
X511500Y90556D03*
D25*
X557000Y90556D03*
D92*
X352500Y91556D03*
D67*
X512500Y91556D03*
D15*
X557500Y91556D03*
D92*
X352500Y92556D03*
D67*
X513500Y92556D03*
D14*
X558000Y92556D03*
D93*
X353000Y93556D03*
D67*
X514500Y93556D03*
D23*
X558500Y93556D03*
D94*
X353500Y94556D03*
D67*
X514500Y94556D03*
D23*
X558500Y94556D03*
D95*
X354000Y95556D03*
D67*
X515500Y95556D03*
D22*
X559000Y95556D03*
D95*
X354000Y96556D03*
D67*
X516500Y96556D03*
D29*
X559500Y96556D03*
D96*
X354500Y97556D03*
D67*
X517500Y97556D03*
D29*
X559500Y97556D03*
D97*
X355000Y98556D03*
D72*
X518000Y98556D03*
D28*
X560000Y98556D03*
D98*
X355500Y99556D03*
D72*
X519000Y99556D03*
D28*
X560000Y99556D03*
D99*
X356000Y100556D03*
D72*
X520000Y100556D03*
D31*
X560500Y100556D03*
D100*
X349000Y101556D03*
D29*
X477500Y101556D03*
D50*
X520500Y101556D03*
D31*
X560500Y101556D03*
D100*
X349000Y102556D03*
D28*
X479000Y102556D03*
D51*
X522000Y102556D03*
D34*
X561000Y102556D03*
D100*
X349000Y103556D03*
D28*
X480000Y103556D03*
D85*
X522500Y103556D03*
D36*
X561500Y103556D03*
D100*
X349000Y104556D03*
D34*
X481000Y104556D03*
D85*
X523500Y104556D03*
D36*
X561500Y104556D03*
D101*
X349500Y105556D03*
D34*
X482000Y105556D03*
D68*
X524000Y105556D03*
D36*
X561500Y105556D03*
D101*
X349500Y106556D03*
D34*
X483000Y106556D03*
D68*
X525000Y106556D03*
D38*
X562000Y106556D03*
D102*
X350000Y107556D03*
D28*
X484000Y107556D03*
D59*
X525500Y107556D03*
D38*
X562000Y107556D03*
D103*
X350500Y108556D03*
D28*
X485000Y108556D03*
D69*
X527000Y108556D03*
D13*
X562500Y108556D03*
D89*
X351000Y109556D03*
D28*
X486000Y109556D03*
D83*
X527500Y109556D03*
D13*
X562500Y109556D03*
D90*
X351500Y110556D03*
D28*
X487000Y110556D03*
D83*
X528500Y110556D03*
D39*
X563000Y110556D03*
D91*
X352000Y111556D03*
D29*
X487500Y111556D03*
D104*
X529500Y111556D03*
D39*
X563000Y111556D03*
D92*
X352500Y112556D03*
D29*
X488500Y112556D03*
D48*
X531000Y112556D03*
D39*
X563000Y112556D03*
D92*
X352500Y113556D03*
D29*
X489500Y113556D03*
D80*
X531500Y113556D03*
D21*
X563500Y113556D03*
D93*
X353000Y114556D03*
D22*
X490000Y114556D03*
D78*
X532500Y114556D03*
D21*
X563500Y114556D03*
D94*
X353500Y115556D03*
D28*
X490000Y115556D03*
D47*
X534000Y115556D03*
D21*
X563500Y115556D03*
D95*
X354000Y116556D03*
D31*
X490500Y116556D03*
D20*
X535000Y116556D03*
D27*
X564000Y116556D03*
D96*
X354500Y117556D03*
D34*
X490000Y117556D03*
D21*
X499500Y117556D03*
D26*
X536000Y117556D03*
D27*
X564000Y117556D03*
D97*
X355000Y118556D03*
D36*
X490500Y118556D03*
D13*
X499500Y118556D03*
D33*
X538000Y118556D03*
D27*
X564000Y118556D03*
D98*
X355500Y119556D03*
D13*
X490500Y119556D03*
D36*
X500500Y119556D03*
D75*
X540000Y119556D03*
D27*
X564000Y119556D03*
D99*
X356000Y120556D03*
D39*
X491000Y120556D03*
D31*
X500500Y120556D03*
D43*
X542000Y120556D03*
D105*
X356500Y121556D03*
D29*
X501500Y121556D03*
D15*
X543500Y121556D03*
D106*
X357000Y122556D03*
D14*
X502000Y122556D03*
D107*
X357500Y123556D03*
D25*
X503000Y123556D03*
D108*
X358000Y124556D03*
D19*
X503500Y124556D03*
D108*
X358000Y125556D03*
D16*
X504500Y125556D03*
D108*
X358000Y126556D03*
D65*
X506500Y126556D03*
D109*
X358500Y127556D03*
D43*
X508000Y127556D03*
D110*
X359000Y128556D03*
D52*
X510000Y128556D03*
D27*
X564000Y128556D03*
D111*
X359500Y129556D03*
D40*
X512500Y129556D03*
D38*
X562000Y129556D03*
D112*
X360500Y130556D03*
D26*
X516000Y130556D03*
D23*
X558500Y130556D03*
D113*
X361000Y131556D03*
D114*
X532000Y131556D03*
D115*
X361500Y132556D03*
D63*
X532500Y132556D03*
D116*
X362000Y133556D03*
D117*
X533000Y133556D03*
D116*
X362000Y134556D03*
D118*
X533500Y134556D03*
D119*
X362500Y135556D03*
D64*
X534000Y135556D03*
D119*
X362500Y136556D03*
D120*
X534500Y136556D03*
D121*
X363000Y137556D03*
D122*
X535000Y137556D03*
D123*
X363500Y138556D03*
D71*
X535500Y138556D03*
D123*
X363500Y139556D03*
D66*
X536000Y139556D03*
D124*
X364000Y140556D03*
D125*
X536500Y140556D03*
D126*
X364500Y141556D03*
D74*
X537000Y141556D03*
D126*
X364500Y142556D03*
D67*
X537500Y142556D03*
D127*
X365000Y143556D03*
D67*
X537500Y143556D03*
D128*
X365500Y144556D03*
D72*
X538000Y144556D03*
D129*
X366000Y145556D03*
D50*
X538500Y145556D03*
D130*
X366500Y146556D03*
D51*
X539000Y146556D03*
D131*
X367500Y147556D03*
D51*
X539000Y147556D03*
D132*
X368000Y148556D03*
D51*
X539000Y148556D03*
D133*
X369000Y149556D03*
D51*
X539000Y149556D03*
D134*
X115250Y75028D03*
D135*
X397500Y4028D03*
D136*
X682250Y75028D03*
D10*
X82493Y475674D02*
X82491Y475556D01*
X82485Y475438D01*
X82476Y475320D01*
X82462Y475203D01*
X82445Y475086D01*
X82424Y474969D01*
X82399Y474854D01*
X82370Y474739D01*
X82337Y474625D01*
X82301Y474513D01*
X82261Y474402D01*
X82218Y474292D01*
X82171Y474183D01*
X82121Y474076D01*
X82066Y473971D01*
X82009Y473868D01*
X81948Y473767D01*
X81884Y473667D01*
X81817Y473570D01*
X81747Y473475D01*
X81673Y473383D01*
X81597Y473292D01*
X81517Y473205D01*
X81435Y473120D01*
X81350Y473038D01*
X81263Y472958D01*
X81172Y472882D01*
X81080Y472808D01*
X80985Y472738D01*
X80888Y472671D01*
X80788Y472607D01*
X80687Y472546D01*
X80584Y472489D01*
X80479Y472434D01*
X80372Y472384D01*
X80263Y472337D01*
X80153Y472294D01*
X80042Y472254D01*
X79930Y472218D01*
X79816Y472185D01*
X79701Y472156D01*
X79586Y472131D01*
X79469Y472110D01*
X79352Y472093D01*
X79235Y472079D01*
X79117Y472070D01*
X78999Y472064D01*
X78881Y472062D01*
X78698Y472064D01*
X78516Y472071D01*
X78334Y472082D01*
X78152Y472097D01*
X77970Y472117D01*
X77789Y472140D01*
X77609Y472169D01*
X77429Y472201D01*
X77250Y472238D01*
X77073Y472279D01*
X76896Y472325D01*
X76720Y472374D01*
X76546Y472428D01*
X76372Y472486D01*
X76201Y472548D01*
X76031Y472614D01*
X75862Y472685D01*
X75695Y472759D01*
X75530Y472837D01*
X75367Y472919D01*
X75206Y473005D01*
X75047Y473095D01*
X74890Y473189D01*
X74736Y473286D01*
X74584Y473387D01*
X74434Y473492D01*
X74287Y473600D01*
X74143Y473711D01*
X74001Y473826D01*
X73862Y473945D01*
X73726Y474067D01*
X73593Y474192D01*
X73463Y474320D01*
X73914Y484706D02*
X73916Y484824D01*
X73922Y484942D01*
X73931Y485060D01*
X73945Y485177D01*
X73962Y485294D01*
X73983Y485411D01*
X74008Y485526D01*
X74037Y485641D01*
X74070Y485755D01*
X74106Y485867D01*
X74146Y485978D01*
X74189Y486088D01*
X74236Y486197D01*
X74286Y486304D01*
X74341Y486409D01*
X74398Y486512D01*
X74459Y486613D01*
X74523Y486713D01*
X74590Y486810D01*
X74660Y486905D01*
X74734Y486997D01*
X74810Y487088D01*
X74890Y487175D01*
X74972Y487260D01*
X75057Y487342D01*
X75144Y487422D01*
X75235Y487498D01*
X75327Y487572D01*
X75422Y487642D01*
X75519Y487709D01*
X75619Y487773D01*
X75720Y487834D01*
X75823Y487892D01*
X75928Y487946D01*
X76035Y487996D01*
X76144Y488043D01*
X76254Y488087D01*
X76365Y488126D01*
X76478Y488162D01*
X76591Y488195D01*
X76706Y488224D01*
X76821Y488249D01*
X76938Y488270D01*
X77055Y488287D01*
X77172Y488301D01*
X77290Y488310D01*
X77408Y488316D01*
X77526Y488318D01*
X77687Y488316D01*
X77849Y488310D01*
X78010Y488301D01*
X78171Y488287D01*
X78331Y488270D01*
X78491Y488249D01*
X78651Y488224D01*
X78810Y488195D01*
X78968Y488163D01*
X79125Y488127D01*
X79281Y488087D01*
X79437Y488043D01*
X79591Y487995D01*
X79744Y487944D01*
X79896Y487890D01*
X80047Y487831D01*
X80196Y487770D01*
X80343Y487704D01*
X80489Y487635D01*
X80634Y487563D01*
X80776Y487487D01*
X80917Y487408D01*
X81056Y487326D01*
X81192Y487240D01*
X81327Y487151D01*
X81460Y487059D01*
X81590Y486963D01*
X75719Y481545D02*
X75618Y481607D01*
X75518Y481672D01*
X75421Y481741D01*
X75326Y481813D01*
X75233Y481887D01*
X75143Y481965D01*
X75055Y482046D01*
X74970Y482129D01*
X74888Y482215D01*
X74809Y482304D01*
X74732Y482395D01*
X74659Y482489D01*
X74588Y482585D01*
X74521Y482683D01*
X74457Y482783D01*
X74396Y482886D01*
X74339Y482990D01*
X74285Y483096D01*
X74235Y483204D01*
X74188Y483313D01*
X74144Y483424D01*
X74104Y483536D01*
X74068Y483650D01*
X74036Y483764D01*
X74007Y483880D01*
X73982Y483996D01*
X73961Y484113D01*
X73944Y484231D01*
X73930Y484349D01*
X73921Y484468D01*
X73915Y484587D01*
X73913Y484706D01*
X80687Y478835D02*
X80788Y478773D01*
X80888Y478708D01*
X80985Y478639D01*
X81080Y478567D01*
X81173Y478493D01*
X81263Y478415D01*
X81351Y478334D01*
X81436Y478251D01*
X81518Y478165D01*
X81597Y478076D01*
X81674Y477985D01*
X81747Y477891D01*
X81818Y477795D01*
X81885Y477697D01*
X81949Y477597D01*
X82010Y477494D01*
X82067Y477390D01*
X82121Y477284D01*
X82171Y477176D01*
X82218Y477067D01*
X82262Y476956D01*
X82302Y476844D01*
X82338Y476730D01*
X82370Y476616D01*
X82399Y476500D01*
X82424Y476384D01*
X82445Y476267D01*
X82462Y476149D01*
X82476Y476031D01*
X82485Y475912D01*
X82491Y475793D01*
X82493Y475674D01*
X80687Y478835D02*
X75720Y481545D01*
X91160Y472062D02*
X94773Y472062D01*
X91160Y472062D02*
X91059Y472064D01*
X90958Y472070D01*
X90857Y472079D01*
X90756Y472092D01*
X90656Y472109D01*
X90557Y472130D01*
X90459Y472154D01*
X90362Y472182D01*
X90265Y472214D01*
X90170Y472249D01*
X90077Y472288D01*
X89985Y472330D01*
X89894Y472376D01*
X89806Y472425D01*
X89719Y472477D01*
X89634Y472533D01*
X89551Y472591D01*
X89471Y472653D01*
X89393Y472718D01*
X89317Y472785D01*
X89244Y472855D01*
X89174Y472928D01*
X89107Y473004D01*
X89042Y473082D01*
X88980Y473162D01*
X88922Y473245D01*
X88866Y473330D01*
X88814Y473417D01*
X88765Y473505D01*
X88719Y473596D01*
X88677Y473688D01*
X88638Y473781D01*
X88603Y473876D01*
X88571Y473973D01*
X88543Y474070D01*
X88519Y474168D01*
X88498Y474267D01*
X88481Y474367D01*
X88468Y474468D01*
X88459Y474569D01*
X88453Y474670D01*
X88451Y474771D01*
X88451Y480190D01*
X88453Y480291D01*
X88459Y480392D01*
X88468Y480493D01*
X88481Y480594D01*
X88498Y480694D01*
X88519Y480793D01*
X88543Y480891D01*
X88571Y480988D01*
X88603Y481085D01*
X88638Y481180D01*
X88677Y481273D01*
X88719Y481365D01*
X88765Y481456D01*
X88814Y481545D01*
X88866Y481631D01*
X88922Y481716D01*
X88980Y481799D01*
X89042Y481879D01*
X89107Y481957D01*
X89174Y482033D01*
X89244Y482106D01*
X89317Y482176D01*
X89393Y482243D01*
X89471Y482308D01*
X89551Y482370D01*
X89634Y482428D01*
X89719Y482484D01*
X89806Y482536D01*
X89894Y482585D01*
X89985Y482631D01*
X90077Y482673D01*
X90170Y482712D01*
X90265Y482747D01*
X90362Y482779D01*
X90459Y482807D01*
X90557Y482831D01*
X90656Y482852D01*
X90756Y482869D01*
X90857Y482882D01*
X90958Y482891D01*
X91059Y482897D01*
X91160Y482899D01*
X94773Y482899D01*
X100417Y479287D02*
X100417Y475674D01*
X100418Y479287D02*
X100420Y479406D01*
X100426Y479526D01*
X100436Y479645D01*
X100450Y479763D01*
X100467Y479882D01*
X100489Y479999D01*
X100514Y480116D01*
X100544Y480231D01*
X100577Y480346D01*
X100614Y480460D01*
X100654Y480572D01*
X100699Y480683D01*
X100747Y480792D01*
X100798Y480900D01*
X100853Y481006D01*
X100912Y481110D01*
X100974Y481212D01*
X101039Y481312D01*
X101108Y481410D01*
X101180Y481506D01*
X101255Y481599D01*
X101332Y481689D01*
X101413Y481777D01*
X101497Y481862D01*
X101584Y481944D01*
X101673Y482024D01*
X101765Y482100D01*
X101859Y482174D01*
X101956Y482244D01*
X102054Y482311D01*
X102155Y482375D01*
X102259Y482435D01*
X102364Y482492D01*
X102471Y482545D01*
X102579Y482595D01*
X102689Y482641D01*
X102801Y482683D01*
X102914Y482722D01*
X103028Y482757D01*
X103143Y482788D01*
X103260Y482816D01*
X103377Y482839D01*
X103494Y482859D01*
X103613Y482875D01*
X103732Y482887D01*
X103851Y482895D01*
X103970Y482899D01*
X104090Y482899D01*
X104209Y482895D01*
X104328Y482887D01*
X104447Y482875D01*
X104566Y482859D01*
X104683Y482839D01*
X104800Y482816D01*
X104917Y482788D01*
X105032Y482757D01*
X105146Y482722D01*
X105259Y482683D01*
X105371Y482641D01*
X105481Y482595D01*
X105589Y482545D01*
X105696Y482492D01*
X105801Y482435D01*
X105905Y482375D01*
X106006Y482311D01*
X106104Y482244D01*
X106201Y482174D01*
X106295Y482100D01*
X106387Y482024D01*
X106476Y481944D01*
X106563Y481862D01*
X106647Y481777D01*
X106728Y481689D01*
X106805Y481599D01*
X106880Y481506D01*
X106952Y481410D01*
X107021Y481312D01*
X107086Y481212D01*
X107148Y481110D01*
X107207Y481006D01*
X107262Y480900D01*
X107313Y480792D01*
X107361Y480683D01*
X107406Y480572D01*
X107446Y480460D01*
X107483Y480346D01*
X107516Y480231D01*
X107546Y480116D01*
X107571Y479999D01*
X107593Y479882D01*
X107610Y479763D01*
X107624Y479645D01*
X107634Y479526D01*
X107640Y479406D01*
X107642Y479287D01*
X107642Y475674D01*
X107640Y475555D01*
X107634Y475435D01*
X107624Y475316D01*
X107610Y475198D01*
X107593Y475079D01*
X107571Y474962D01*
X107546Y474845D01*
X107516Y474730D01*
X107483Y474615D01*
X107446Y474501D01*
X107406Y474389D01*
X107361Y474278D01*
X107313Y474169D01*
X107262Y474061D01*
X107207Y473955D01*
X107148Y473851D01*
X107086Y473749D01*
X107021Y473649D01*
X106952Y473551D01*
X106880Y473455D01*
X106805Y473362D01*
X106728Y473272D01*
X106647Y473184D01*
X106563Y473099D01*
X106476Y473017D01*
X106387Y472937D01*
X106295Y472861D01*
X106201Y472787D01*
X106104Y472717D01*
X106006Y472650D01*
X105905Y472586D01*
X105801Y472526D01*
X105696Y472469D01*
X105589Y472416D01*
X105481Y472366D01*
X105371Y472320D01*
X105259Y472278D01*
X105146Y472239D01*
X105032Y472204D01*
X104917Y472173D01*
X104800Y472145D01*
X104683Y472122D01*
X104566Y472102D01*
X104447Y472086D01*
X104328Y472074D01*
X104209Y472066D01*
X104090Y472062D01*
X103970Y472062D01*
X103851Y472066D01*
X103732Y472074D01*
X103613Y472086D01*
X103494Y472102D01*
X103377Y472122D01*
X103260Y472145D01*
X103143Y472173D01*
X103028Y472204D01*
X102914Y472239D01*
X102801Y472278D01*
X102689Y472320D01*
X102579Y472366D01*
X102471Y472416D01*
X102364Y472469D01*
X102259Y472526D01*
X102155Y472586D01*
X102054Y472650D01*
X101956Y472717D01*
X101859Y472787D01*
X101765Y472861D01*
X101673Y472937D01*
X101584Y473017D01*
X101497Y473099D01*
X101413Y473184D01*
X101332Y473272D01*
X101255Y473362D01*
X101180Y473455D01*
X101108Y473551D01*
X101039Y473649D01*
X100974Y473749D01*
X100912Y473851D01*
X100853Y473955D01*
X100798Y474061D01*
X100747Y474169D01*
X100699Y474278D01*
X100654Y474389D01*
X100614Y474501D01*
X100577Y474615D01*
X100544Y474730D01*
X100514Y474845D01*
X100489Y474962D01*
X100467Y475079D01*
X100450Y475198D01*
X100436Y475316D01*
X100426Y475435D01*
X100420Y475555D01*
X100418Y475674D01*
X114559Y482899D02*
X114559Y466643D01*
X114559Y482899D02*
X119074Y482899D01*
X119178Y482897D01*
X119281Y482891D01*
X119385Y482881D01*
X119488Y482867D01*
X119590Y482849D01*
X119691Y482828D01*
X119792Y482802D01*
X119891Y482773D01*
X119990Y482740D01*
X120087Y482703D01*
X120182Y482662D01*
X120276Y482618D01*
X120368Y482570D01*
X120458Y482519D01*
X120547Y482464D01*
X120633Y482406D01*
X120716Y482344D01*
X120798Y482280D01*
X120876Y482212D01*
X120952Y482142D01*
X121026Y482069D01*
X121096Y481992D01*
X121164Y481914D01*
X121228Y481832D01*
X121290Y481749D01*
X121348Y481663D01*
X121403Y481574D01*
X121454Y481484D01*
X121502Y481392D01*
X121546Y481298D01*
X121587Y481203D01*
X121624Y481106D01*
X121657Y481007D01*
X121686Y480908D01*
X121712Y480807D01*
X121733Y480706D01*
X121751Y480604D01*
X121765Y480501D01*
X121775Y480397D01*
X121781Y480294D01*
X121783Y480190D01*
X121783Y474771D01*
X121781Y474670D01*
X121775Y474569D01*
X121766Y474468D01*
X121753Y474367D01*
X121736Y474267D01*
X121715Y474168D01*
X121691Y474070D01*
X121663Y473973D01*
X121631Y473876D01*
X121596Y473781D01*
X121557Y473688D01*
X121515Y473596D01*
X121469Y473505D01*
X121420Y473417D01*
X121368Y473330D01*
X121312Y473245D01*
X121254Y473162D01*
X121192Y473082D01*
X121127Y473004D01*
X121060Y472928D01*
X120990Y472855D01*
X120917Y472785D01*
X120841Y472718D01*
X120763Y472653D01*
X120683Y472591D01*
X120600Y472533D01*
X120515Y472477D01*
X120428Y472425D01*
X120340Y472376D01*
X120249Y472330D01*
X120157Y472288D01*
X120064Y472249D01*
X119969Y472214D01*
X119872Y472182D01*
X119775Y472154D01*
X119677Y472130D01*
X119578Y472109D01*
X119478Y472092D01*
X119377Y472079D01*
X119276Y472070D01*
X119175Y472064D01*
X119074Y472062D01*
X114559Y472062D01*
X130742Y472062D02*
X135257Y472062D01*
X130742Y472062D02*
X130641Y472064D01*
X130540Y472070D01*
X130439Y472079D01*
X130338Y472092D01*
X130238Y472109D01*
X130139Y472130D01*
X130041Y472154D01*
X129944Y472182D01*
X129847Y472214D01*
X129752Y472249D01*
X129659Y472288D01*
X129567Y472330D01*
X129476Y472376D01*
X129388Y472425D01*
X129301Y472477D01*
X129216Y472533D01*
X129133Y472591D01*
X129053Y472653D01*
X128975Y472718D01*
X128899Y472785D01*
X128826Y472855D01*
X128756Y472928D01*
X128689Y473004D01*
X128624Y473082D01*
X128562Y473162D01*
X128504Y473245D01*
X128448Y473330D01*
X128396Y473417D01*
X128347Y473505D01*
X128301Y473596D01*
X128259Y473688D01*
X128220Y473781D01*
X128185Y473876D01*
X128153Y473973D01*
X128125Y474070D01*
X128101Y474168D01*
X128080Y474267D01*
X128063Y474367D01*
X128050Y474468D01*
X128041Y474569D01*
X128035Y474670D01*
X128033Y474771D01*
X128032Y474771D02*
X128032Y479287D01*
X128033Y479287D02*
X128035Y479406D01*
X128041Y479526D01*
X128051Y479645D01*
X128065Y479763D01*
X128082Y479882D01*
X128104Y479999D01*
X128129Y480116D01*
X128159Y480231D01*
X128192Y480346D01*
X128229Y480460D01*
X128269Y480572D01*
X128314Y480683D01*
X128362Y480792D01*
X128413Y480900D01*
X128468Y481006D01*
X128527Y481110D01*
X128589Y481212D01*
X128654Y481312D01*
X128723Y481410D01*
X128795Y481506D01*
X128870Y481599D01*
X128947Y481689D01*
X129028Y481777D01*
X129112Y481862D01*
X129199Y481944D01*
X129288Y482024D01*
X129380Y482100D01*
X129474Y482174D01*
X129571Y482244D01*
X129669Y482311D01*
X129770Y482375D01*
X129874Y482435D01*
X129979Y482492D01*
X130086Y482545D01*
X130194Y482595D01*
X130304Y482641D01*
X130416Y482683D01*
X130529Y482722D01*
X130643Y482757D01*
X130758Y482788D01*
X130875Y482816D01*
X130992Y482839D01*
X131109Y482859D01*
X131228Y482875D01*
X131347Y482887D01*
X131466Y482895D01*
X131585Y482899D01*
X131705Y482899D01*
X131824Y482895D01*
X131943Y482887D01*
X132062Y482875D01*
X132181Y482859D01*
X132298Y482839D01*
X132415Y482816D01*
X132532Y482788D01*
X132647Y482757D01*
X132761Y482722D01*
X132874Y482683D01*
X132986Y482641D01*
X133096Y482595D01*
X133204Y482545D01*
X133311Y482492D01*
X133416Y482435D01*
X133520Y482375D01*
X133621Y482311D01*
X133719Y482244D01*
X133816Y482174D01*
X133910Y482100D01*
X134002Y482024D01*
X134091Y481944D01*
X134178Y481862D01*
X134262Y481777D01*
X134343Y481689D01*
X134420Y481599D01*
X134495Y481506D01*
X134567Y481410D01*
X134636Y481312D01*
X134701Y481212D01*
X134763Y481110D01*
X134822Y481006D01*
X134877Y480900D01*
X134928Y480792D01*
X134976Y480683D01*
X135021Y480572D01*
X135061Y480460D01*
X135098Y480346D01*
X135131Y480231D01*
X135161Y480116D01*
X135186Y479999D01*
X135208Y479882D01*
X135225Y479763D01*
X135239Y479645D01*
X135249Y479526D01*
X135255Y479406D01*
X135257Y479287D01*
X135257Y477481D01*
X128032Y477481D01*
X20493Y504774D02*
X20491Y504656D01*
X20485Y504538D01*
X20476Y504420D01*
X20462Y504303D01*
X20445Y504186D01*
X20424Y504069D01*
X20399Y503954D01*
X20370Y503839D01*
X20337Y503725D01*
X20301Y503613D01*
X20261Y503502D01*
X20218Y503392D01*
X20171Y503283D01*
X20121Y503176D01*
X20066Y503071D01*
X20009Y502968D01*
X19948Y502867D01*
X19884Y502767D01*
X19817Y502670D01*
X19747Y502575D01*
X19673Y502483D01*
X19597Y502392D01*
X19517Y502305D01*
X19435Y502220D01*
X19350Y502138D01*
X19263Y502058D01*
X19172Y501982D01*
X19080Y501908D01*
X18985Y501838D01*
X18888Y501771D01*
X18788Y501707D01*
X18687Y501646D01*
X18584Y501589D01*
X18479Y501534D01*
X18372Y501484D01*
X18263Y501437D01*
X18153Y501394D01*
X18042Y501354D01*
X17930Y501318D01*
X17816Y501285D01*
X17701Y501256D01*
X17586Y501231D01*
X17469Y501210D01*
X17352Y501193D01*
X17235Y501179D01*
X17117Y501170D01*
X16999Y501164D01*
X16881Y501162D01*
X16698Y501164D01*
X16516Y501171D01*
X16334Y501182D01*
X16152Y501197D01*
X15970Y501217D01*
X15789Y501240D01*
X15609Y501269D01*
X15429Y501301D01*
X15250Y501338D01*
X15073Y501379D01*
X14896Y501425D01*
X14720Y501474D01*
X14546Y501528D01*
X14372Y501586D01*
X14201Y501648D01*
X14031Y501714D01*
X13862Y501785D01*
X13695Y501859D01*
X13530Y501937D01*
X13367Y502019D01*
X13206Y502105D01*
X13047Y502195D01*
X12890Y502289D01*
X12736Y502386D01*
X12584Y502487D01*
X12434Y502592D01*
X12287Y502700D01*
X12143Y502811D01*
X12001Y502926D01*
X11862Y503045D01*
X11726Y503167D01*
X11593Y503292D01*
X11463Y503420D01*
X11914Y513806D02*
X11916Y513924D01*
X11922Y514042D01*
X11931Y514160D01*
X11945Y514277D01*
X11962Y514394D01*
X11983Y514511D01*
X12008Y514626D01*
X12037Y514741D01*
X12070Y514855D01*
X12106Y514967D01*
X12146Y515078D01*
X12189Y515188D01*
X12236Y515297D01*
X12286Y515404D01*
X12341Y515509D01*
X12398Y515612D01*
X12459Y515713D01*
X12523Y515813D01*
X12590Y515910D01*
X12660Y516005D01*
X12734Y516097D01*
X12810Y516188D01*
X12890Y516275D01*
X12972Y516360D01*
X13057Y516442D01*
X13144Y516522D01*
X13235Y516598D01*
X13327Y516672D01*
X13422Y516742D01*
X13519Y516809D01*
X13619Y516873D01*
X13720Y516934D01*
X13823Y516992D01*
X13928Y517046D01*
X14035Y517096D01*
X14144Y517143D01*
X14254Y517187D01*
X14365Y517226D01*
X14478Y517262D01*
X14591Y517295D01*
X14706Y517324D01*
X14821Y517349D01*
X14938Y517370D01*
X15055Y517387D01*
X15172Y517401D01*
X15290Y517410D01*
X15408Y517416D01*
X15526Y517418D01*
X15687Y517416D01*
X15849Y517410D01*
X16010Y517401D01*
X16171Y517387D01*
X16331Y517370D01*
X16491Y517349D01*
X16651Y517324D01*
X16810Y517295D01*
X16968Y517263D01*
X17125Y517227D01*
X17281Y517187D01*
X17437Y517143D01*
X17591Y517095D01*
X17744Y517044D01*
X17896Y516990D01*
X18047Y516931D01*
X18196Y516870D01*
X18343Y516804D01*
X18489Y516735D01*
X18634Y516663D01*
X18776Y516587D01*
X18917Y516508D01*
X19056Y516426D01*
X19192Y516340D01*
X19327Y516251D01*
X19460Y516159D01*
X19590Y516063D01*
X13719Y510645D02*
X13618Y510707D01*
X13518Y510772D01*
X13421Y510841D01*
X13326Y510913D01*
X13233Y510987D01*
X13143Y511065D01*
X13055Y511146D01*
X12970Y511229D01*
X12888Y511315D01*
X12809Y511404D01*
X12732Y511495D01*
X12659Y511589D01*
X12588Y511685D01*
X12521Y511783D01*
X12457Y511883D01*
X12396Y511986D01*
X12339Y512090D01*
X12285Y512196D01*
X12235Y512304D01*
X12188Y512413D01*
X12144Y512524D01*
X12104Y512636D01*
X12068Y512750D01*
X12036Y512864D01*
X12007Y512980D01*
X11982Y513096D01*
X11961Y513213D01*
X11944Y513331D01*
X11930Y513449D01*
X11921Y513568D01*
X11915Y513687D01*
X11913Y513806D01*
X18687Y507935D02*
X18788Y507873D01*
X18888Y507808D01*
X18985Y507739D01*
X19080Y507667D01*
X19173Y507593D01*
X19263Y507515D01*
X19351Y507434D01*
X19436Y507351D01*
X19518Y507265D01*
X19597Y507176D01*
X19674Y507085D01*
X19747Y506991D01*
X19818Y506895D01*
X19885Y506797D01*
X19949Y506697D01*
X20010Y506594D01*
X20067Y506490D01*
X20121Y506384D01*
X20171Y506276D01*
X20218Y506167D01*
X20262Y506056D01*
X20302Y505944D01*
X20338Y505830D01*
X20370Y505716D01*
X20399Y505600D01*
X20424Y505484D01*
X20445Y505367D01*
X20462Y505249D01*
X20476Y505131D01*
X20485Y505012D01*
X20491Y504893D01*
X20493Y504774D01*
X18687Y507935D02*
X13720Y510645D01*
X29143Y501162D02*
X33658Y501162D01*
X29143Y501162D02*
X29042Y501164D01*
X28941Y501170D01*
X28840Y501179D01*
X28739Y501192D01*
X28639Y501209D01*
X28540Y501230D01*
X28442Y501254D01*
X28345Y501282D01*
X28248Y501314D01*
X28153Y501349D01*
X28060Y501388D01*
X27968Y501430D01*
X27877Y501476D01*
X27789Y501525D01*
X27702Y501577D01*
X27617Y501633D01*
X27534Y501691D01*
X27454Y501753D01*
X27376Y501818D01*
X27300Y501885D01*
X27227Y501955D01*
X27157Y502028D01*
X27090Y502104D01*
X27025Y502182D01*
X26963Y502262D01*
X26905Y502345D01*
X26849Y502430D01*
X26797Y502517D01*
X26748Y502605D01*
X26702Y502696D01*
X26660Y502788D01*
X26621Y502881D01*
X26586Y502976D01*
X26554Y503073D01*
X26526Y503170D01*
X26502Y503268D01*
X26481Y503367D01*
X26464Y503467D01*
X26451Y503568D01*
X26442Y503669D01*
X26436Y503770D01*
X26434Y503871D01*
X26433Y503871D02*
X26433Y508387D01*
X26434Y508387D02*
X26436Y508506D01*
X26442Y508626D01*
X26452Y508745D01*
X26466Y508863D01*
X26483Y508982D01*
X26505Y509099D01*
X26530Y509216D01*
X26560Y509331D01*
X26593Y509446D01*
X26630Y509560D01*
X26670Y509672D01*
X26715Y509783D01*
X26763Y509892D01*
X26814Y510000D01*
X26869Y510106D01*
X26928Y510210D01*
X26990Y510312D01*
X27055Y510412D01*
X27124Y510510D01*
X27196Y510606D01*
X27271Y510699D01*
X27348Y510789D01*
X27429Y510877D01*
X27513Y510962D01*
X27600Y511044D01*
X27689Y511124D01*
X27781Y511200D01*
X27875Y511274D01*
X27972Y511344D01*
X28070Y511411D01*
X28171Y511475D01*
X28275Y511535D01*
X28380Y511592D01*
X28487Y511645D01*
X28595Y511695D01*
X28705Y511741D01*
X28817Y511783D01*
X28930Y511822D01*
X29044Y511857D01*
X29159Y511888D01*
X29276Y511916D01*
X29393Y511939D01*
X29510Y511959D01*
X29629Y511975D01*
X29748Y511987D01*
X29867Y511995D01*
X29986Y511999D01*
X30106Y511999D01*
X30225Y511995D01*
X30344Y511987D01*
X30463Y511975D01*
X30582Y511959D01*
X30699Y511939D01*
X30816Y511916D01*
X30933Y511888D01*
X31048Y511857D01*
X31162Y511822D01*
X31275Y511783D01*
X31387Y511741D01*
X31497Y511695D01*
X31605Y511645D01*
X31712Y511592D01*
X31817Y511535D01*
X31921Y511475D01*
X32022Y511411D01*
X32120Y511344D01*
X32217Y511274D01*
X32311Y511200D01*
X32403Y511124D01*
X32492Y511044D01*
X32579Y510962D01*
X32663Y510877D01*
X32744Y510789D01*
X32821Y510699D01*
X32896Y510606D01*
X32968Y510510D01*
X33037Y510412D01*
X33102Y510312D01*
X33164Y510210D01*
X33223Y510106D01*
X33278Y510000D01*
X33329Y509892D01*
X33377Y509783D01*
X33422Y509672D01*
X33462Y509560D01*
X33499Y509446D01*
X33532Y509331D01*
X33562Y509216D01*
X33587Y509099D01*
X33609Y508982D01*
X33626Y508863D01*
X33640Y508745D01*
X33650Y508626D01*
X33656Y508506D01*
X33658Y508387D01*
X33658Y506581D01*
X26433Y506581D01*
X40586Y501162D02*
X40586Y511999D01*
X46005Y511999D01*
X46005Y510193D01*
X50401Y511999D02*
X54014Y501162D01*
X57626Y511999D01*
X63427Y508387D02*
X63427Y504774D01*
X63428Y508387D02*
X63430Y508506D01*
X63436Y508626D01*
X63446Y508745D01*
X63460Y508863D01*
X63477Y508982D01*
X63499Y509099D01*
X63524Y509216D01*
X63554Y509331D01*
X63587Y509446D01*
X63624Y509560D01*
X63664Y509672D01*
X63709Y509783D01*
X63757Y509892D01*
X63808Y510000D01*
X63863Y510106D01*
X63922Y510210D01*
X63984Y510312D01*
X64049Y510412D01*
X64118Y510510D01*
X64190Y510606D01*
X64265Y510699D01*
X64342Y510789D01*
X64423Y510877D01*
X64507Y510962D01*
X64594Y511044D01*
X64683Y511124D01*
X64775Y511200D01*
X64869Y511274D01*
X64966Y511344D01*
X65064Y511411D01*
X65165Y511475D01*
X65269Y511535D01*
X65374Y511592D01*
X65481Y511645D01*
X65589Y511695D01*
X65699Y511741D01*
X65811Y511783D01*
X65924Y511822D01*
X66038Y511857D01*
X66153Y511888D01*
X66270Y511916D01*
X66387Y511939D01*
X66504Y511959D01*
X66623Y511975D01*
X66742Y511987D01*
X66861Y511995D01*
X66980Y511999D01*
X67100Y511999D01*
X67219Y511995D01*
X67338Y511987D01*
X67457Y511975D01*
X67576Y511959D01*
X67693Y511939D01*
X67810Y511916D01*
X67927Y511888D01*
X68042Y511857D01*
X68156Y511822D01*
X68269Y511783D01*
X68381Y511741D01*
X68491Y511695D01*
X68599Y511645D01*
X68706Y511592D01*
X68811Y511535D01*
X68915Y511475D01*
X69016Y511411D01*
X69114Y511344D01*
X69211Y511274D01*
X69305Y511200D01*
X69397Y511124D01*
X69486Y511044D01*
X69573Y510962D01*
X69657Y510877D01*
X69738Y510789D01*
X69815Y510699D01*
X69890Y510606D01*
X69962Y510510D01*
X70031Y510412D01*
X70096Y510312D01*
X70158Y510210D01*
X70217Y510106D01*
X70272Y510000D01*
X70323Y509892D01*
X70371Y509783D01*
X70416Y509672D01*
X70456Y509560D01*
X70493Y509446D01*
X70526Y509331D01*
X70556Y509216D01*
X70581Y509099D01*
X70603Y508982D01*
X70620Y508863D01*
X70634Y508745D01*
X70644Y508626D01*
X70650Y508506D01*
X70652Y508387D01*
X70652Y504774D01*
X70650Y504655D01*
X70644Y504535D01*
X70634Y504416D01*
X70620Y504298D01*
X70603Y504179D01*
X70581Y504062D01*
X70556Y503945D01*
X70526Y503830D01*
X70493Y503715D01*
X70456Y503601D01*
X70416Y503489D01*
X70371Y503378D01*
X70323Y503269D01*
X70272Y503161D01*
X70217Y503055D01*
X70158Y502951D01*
X70096Y502849D01*
X70031Y502749D01*
X69962Y502651D01*
X69890Y502555D01*
X69815Y502462D01*
X69738Y502372D01*
X69657Y502284D01*
X69573Y502199D01*
X69486Y502117D01*
X69397Y502037D01*
X69305Y501961D01*
X69211Y501887D01*
X69114Y501817D01*
X69016Y501750D01*
X68915Y501686D01*
X68811Y501626D01*
X68706Y501569D01*
X68599Y501516D01*
X68491Y501466D01*
X68381Y501420D01*
X68269Y501378D01*
X68156Y501339D01*
X68042Y501304D01*
X67927Y501273D01*
X67810Y501245D01*
X67693Y501222D01*
X67576Y501202D01*
X67457Y501186D01*
X67338Y501174D01*
X67219Y501166D01*
X67100Y501162D01*
X66980Y501162D01*
X66861Y501166D01*
X66742Y501174D01*
X66623Y501186D01*
X66504Y501202D01*
X66387Y501222D01*
X66270Y501245D01*
X66153Y501273D01*
X66038Y501304D01*
X65924Y501339D01*
X65811Y501378D01*
X65699Y501420D01*
X65589Y501466D01*
X65481Y501516D01*
X65374Y501569D01*
X65269Y501626D01*
X65165Y501686D01*
X65064Y501750D01*
X64966Y501817D01*
X64869Y501887D01*
X64775Y501961D01*
X64683Y502037D01*
X64594Y502117D01*
X64507Y502199D01*
X64423Y502284D01*
X64342Y502372D01*
X64265Y502462D01*
X64190Y502555D01*
X64118Y502651D01*
X64049Y502749D01*
X63984Y502849D01*
X63922Y502951D01*
X63863Y503055D01*
X63808Y503161D01*
X63757Y503269D01*
X63709Y503378D01*
X63664Y503489D01*
X63624Y503601D01*
X63587Y503715D01*
X63554Y503830D01*
X63524Y503945D01*
X63499Y504062D01*
X63477Y504179D01*
X63460Y504298D01*
X63446Y504416D01*
X63436Y504535D01*
X63430Y504655D01*
X63428Y504774D01*
D137*
X400000Y155000D03*
D11*
X569538Y241110D02*
X569538Y242042D01*
X572642Y242042D01*
X572642Y240179D01*
X572640Y240109D01*
X572634Y240040D01*
X572624Y239971D01*
X572611Y239903D01*
X572593Y239835D01*
X572572Y239769D01*
X572547Y239704D01*
X572519Y239640D01*
X572487Y239578D01*
X572452Y239518D01*
X572413Y239460D01*
X572371Y239405D01*
X572326Y239351D01*
X572278Y239301D01*
X572228Y239253D01*
X572174Y239208D01*
X572119Y239166D01*
X572061Y239127D01*
X572001Y239092D01*
X571939Y239060D01*
X571875Y239032D01*
X571810Y239007D01*
X571744Y238986D01*
X571676Y238968D01*
X571608Y238955D01*
X571539Y238945D01*
X571470Y238939D01*
X571400Y238937D01*
X568296Y238937D01*
X568226Y238939D01*
X568157Y238945D01*
X568088Y238955D01*
X568020Y238968D01*
X567952Y238986D01*
X567886Y239007D01*
X567821Y239032D01*
X567757Y239060D01*
X567695Y239092D01*
X567635Y239127D01*
X567577Y239166D01*
X567522Y239208D01*
X567468Y239253D01*
X567418Y239301D01*
X567370Y239351D01*
X567325Y239405D01*
X567283Y239460D01*
X567244Y239518D01*
X567209Y239578D01*
X567177Y239640D01*
X567149Y239704D01*
X567124Y239769D01*
X567103Y239835D01*
X567085Y239903D01*
X567072Y239971D01*
X567062Y240040D01*
X567056Y240109D01*
X567054Y240179D01*
X567054Y242042D01*
X567054Y244789D02*
X572642Y244789D01*
X572642Y247894D02*
X567054Y244789D01*
X567054Y247894D02*
X572642Y247894D01*
X572642Y250642D02*
X567054Y250642D01*
X567054Y252194D01*
X567056Y252270D01*
X567061Y252346D01*
X567071Y252422D01*
X567084Y252497D01*
X567101Y252571D01*
X567121Y252645D01*
X567145Y252717D01*
X567172Y252788D01*
X567203Y252858D01*
X567237Y252926D01*
X567275Y252992D01*
X567316Y253056D01*
X567359Y253119D01*
X567406Y253179D01*
X567456Y253236D01*
X567509Y253291D01*
X567564Y253344D01*
X567621Y253394D01*
X567681Y253441D01*
X567744Y253484D01*
X567808Y253525D01*
X567874Y253563D01*
X567942Y253597D01*
X568012Y253628D01*
X568083Y253655D01*
X568156Y253679D01*
X568229Y253699D01*
X568303Y253716D01*
X568378Y253729D01*
X568454Y253739D01*
X568530Y253744D01*
X568606Y253746D01*
X571090Y253746D01*
X571166Y253744D01*
X571242Y253739D01*
X571318Y253729D01*
X571393Y253716D01*
X571467Y253699D01*
X571541Y253679D01*
X571613Y253655D01*
X571684Y253628D01*
X571754Y253597D01*
X571822Y253563D01*
X571888Y253525D01*
X571952Y253484D01*
X572015Y253441D01*
X572075Y253394D01*
X572132Y253344D01*
X572187Y253291D01*
X572240Y253236D01*
X572290Y253179D01*
X572337Y253119D01*
X572380Y253056D01*
X572421Y252992D01*
X572459Y252926D01*
X572493Y252858D01*
X572524Y252788D01*
X572551Y252717D01*
X572575Y252645D01*
X572595Y252571D01*
X572612Y252497D01*
X572625Y252422D01*
X572635Y252346D01*
X572640Y252270D01*
X572642Y252194D01*
X572642Y250642D01*
X547242Y238716D02*
X547242Y237164D01*
X547242Y238716D02*
X547240Y238793D01*
X547234Y238871D01*
X547225Y238947D01*
X547211Y239024D01*
X547194Y239099D01*
X547173Y239173D01*
X547148Y239247D01*
X547120Y239319D01*
X547088Y239389D01*
X547053Y239458D01*
X547014Y239525D01*
X546972Y239590D01*
X546927Y239653D01*
X546879Y239714D01*
X546828Y239772D01*
X546774Y239827D01*
X546717Y239880D01*
X546658Y239929D01*
X546596Y239976D01*
X546532Y240020D01*
X546466Y240060D01*
X546398Y240097D01*
X546328Y240131D01*
X546257Y240161D01*
X546184Y240187D01*
X546110Y240210D01*
X546035Y240229D01*
X545960Y240244D01*
X545883Y240256D01*
X545806Y240264D01*
X545729Y240268D01*
X545651Y240268D01*
X545574Y240264D01*
X545497Y240256D01*
X545420Y240244D01*
X545345Y240229D01*
X545270Y240210D01*
X545196Y240187D01*
X545123Y240161D01*
X545052Y240131D01*
X544982Y240097D01*
X544914Y240060D01*
X544848Y240020D01*
X544784Y239976D01*
X544722Y239929D01*
X544663Y239880D01*
X544606Y239827D01*
X544552Y239772D01*
X544501Y239714D01*
X544453Y239653D01*
X544408Y239590D01*
X544366Y239525D01*
X544327Y239458D01*
X544292Y239389D01*
X544260Y239319D01*
X544232Y239247D01*
X544207Y239173D01*
X544186Y239099D01*
X544169Y239024D01*
X544155Y238947D01*
X544146Y238871D01*
X544140Y238793D01*
X544138Y238716D01*
X541654Y239027D02*
X541654Y237164D01*
X541654Y239027D02*
X541656Y239097D01*
X541662Y239166D01*
X541672Y239235D01*
X541685Y239303D01*
X541703Y239371D01*
X541724Y239437D01*
X541749Y239502D01*
X541777Y239566D01*
X541809Y239628D01*
X541844Y239688D01*
X541883Y239746D01*
X541925Y239801D01*
X541970Y239855D01*
X542018Y239905D01*
X542068Y239953D01*
X542122Y239998D01*
X542177Y240040D01*
X542235Y240079D01*
X542295Y240114D01*
X542357Y240146D01*
X542421Y240174D01*
X542486Y240199D01*
X542552Y240220D01*
X542620Y240238D01*
X542688Y240251D01*
X542757Y240261D01*
X542826Y240267D01*
X542896Y240269D01*
X542966Y240267D01*
X543035Y240261D01*
X543104Y240251D01*
X543172Y240238D01*
X543240Y240220D01*
X543306Y240199D01*
X543371Y240174D01*
X543435Y240146D01*
X543497Y240114D01*
X543557Y240079D01*
X543615Y240040D01*
X543670Y239998D01*
X543724Y239953D01*
X543774Y239905D01*
X543822Y239855D01*
X543867Y239801D01*
X543909Y239746D01*
X543948Y239688D01*
X543983Y239628D01*
X544015Y239566D01*
X544043Y239502D01*
X544068Y239437D01*
X544089Y239371D01*
X544107Y239303D01*
X544120Y239235D01*
X544130Y239166D01*
X544136Y239097D01*
X544138Y239027D01*
X544138Y237785D01*
X546932Y242401D02*
X547242Y242401D01*
X546932Y242401D02*
X546932Y242712D01*
X547242Y242712D01*
X547242Y242401D01*
X547242Y244845D02*
X547242Y246397D01*
X547240Y246474D01*
X547234Y246552D01*
X547225Y246628D01*
X547211Y246705D01*
X547194Y246780D01*
X547173Y246854D01*
X547148Y246928D01*
X547120Y247000D01*
X547088Y247070D01*
X547053Y247139D01*
X547014Y247206D01*
X546972Y247271D01*
X546927Y247334D01*
X546879Y247395D01*
X546828Y247453D01*
X546774Y247508D01*
X546717Y247561D01*
X546658Y247610D01*
X546596Y247657D01*
X546532Y247701D01*
X546466Y247741D01*
X546398Y247778D01*
X546328Y247812D01*
X546257Y247842D01*
X546184Y247868D01*
X546110Y247891D01*
X546035Y247910D01*
X545960Y247925D01*
X545883Y247937D01*
X545806Y247945D01*
X545729Y247949D01*
X545651Y247949D01*
X545574Y247945D01*
X545497Y247937D01*
X545420Y247925D01*
X545345Y247910D01*
X545270Y247891D01*
X545196Y247868D01*
X545123Y247842D01*
X545052Y247812D01*
X544982Y247778D01*
X544914Y247741D01*
X544848Y247701D01*
X544784Y247657D01*
X544722Y247610D01*
X544663Y247561D01*
X544606Y247508D01*
X544552Y247453D01*
X544501Y247395D01*
X544453Y247334D01*
X544408Y247271D01*
X544366Y247206D01*
X544327Y247139D01*
X544292Y247070D01*
X544260Y247000D01*
X544232Y246928D01*
X544207Y246854D01*
X544186Y246780D01*
X544169Y246705D01*
X544155Y246628D01*
X544146Y246552D01*
X544140Y246474D01*
X544138Y246397D01*
X541654Y246707D02*
X541654Y244845D01*
X541654Y246707D02*
X541656Y246777D01*
X541662Y246846D01*
X541672Y246915D01*
X541685Y246983D01*
X541703Y247051D01*
X541724Y247117D01*
X541749Y247182D01*
X541777Y247246D01*
X541809Y247308D01*
X541844Y247368D01*
X541883Y247426D01*
X541925Y247481D01*
X541970Y247535D01*
X542018Y247585D01*
X542068Y247633D01*
X542122Y247678D01*
X542177Y247720D01*
X542235Y247759D01*
X542295Y247794D01*
X542357Y247826D01*
X542421Y247854D01*
X542486Y247879D01*
X542552Y247900D01*
X542620Y247918D01*
X542688Y247931D01*
X542757Y247941D01*
X542826Y247947D01*
X542896Y247949D01*
X542966Y247947D01*
X543035Y247941D01*
X543104Y247931D01*
X543172Y247918D01*
X543240Y247900D01*
X543306Y247879D01*
X543371Y247854D01*
X543435Y247826D01*
X543497Y247794D01*
X543557Y247759D01*
X543615Y247720D01*
X543670Y247678D01*
X543724Y247633D01*
X543774Y247585D01*
X543822Y247535D01*
X543867Y247481D01*
X543909Y247426D01*
X543948Y247368D01*
X543983Y247308D01*
X544015Y247246D01*
X544043Y247182D01*
X544068Y247117D01*
X544089Y247051D01*
X544107Y246983D01*
X544120Y246915D01*
X544130Y246846D01*
X544136Y246777D01*
X544138Y246707D01*
X544138Y245466D01*
X541654Y250021D02*
X547242Y251883D01*
X541654Y253746D01*
X521842Y246707D02*
X521842Y244845D01*
X521842Y246707D02*
X521840Y246777D01*
X521834Y246846D01*
X521824Y246915D01*
X521811Y246983D01*
X521793Y247051D01*
X521772Y247117D01*
X521747Y247182D01*
X521719Y247246D01*
X521687Y247308D01*
X521652Y247368D01*
X521613Y247426D01*
X521571Y247481D01*
X521526Y247535D01*
X521478Y247585D01*
X521428Y247633D01*
X521374Y247678D01*
X521319Y247720D01*
X521261Y247759D01*
X521201Y247794D01*
X521139Y247826D01*
X521075Y247854D01*
X521010Y247879D01*
X520944Y247900D01*
X520876Y247918D01*
X520808Y247931D01*
X520739Y247941D01*
X520670Y247947D01*
X520600Y247949D01*
X519979Y247949D01*
X519909Y247947D01*
X519840Y247941D01*
X519771Y247931D01*
X519703Y247918D01*
X519635Y247900D01*
X519569Y247879D01*
X519504Y247854D01*
X519440Y247826D01*
X519378Y247794D01*
X519318Y247759D01*
X519260Y247720D01*
X519205Y247678D01*
X519151Y247633D01*
X519101Y247585D01*
X519053Y247535D01*
X519008Y247481D01*
X518966Y247426D01*
X518927Y247368D01*
X518892Y247308D01*
X518860Y247246D01*
X518832Y247182D01*
X518807Y247117D01*
X518786Y247051D01*
X518768Y246983D01*
X518755Y246915D01*
X518745Y246846D01*
X518739Y246777D01*
X518737Y246707D01*
X518738Y246707D02*
X518738Y244845D01*
X516254Y244845D01*
X516254Y247949D01*
X516254Y250021D02*
X521842Y251883D01*
X516254Y253746D01*
X596800Y242280D02*
X596870Y242278D01*
X596939Y242272D01*
X597008Y242262D01*
X597076Y242249D01*
X597144Y242231D01*
X597210Y242210D01*
X597275Y242185D01*
X597339Y242157D01*
X597401Y242125D01*
X597461Y242090D01*
X597519Y242051D01*
X597574Y242009D01*
X597628Y241964D01*
X597678Y241916D01*
X597726Y241866D01*
X597771Y241812D01*
X597813Y241757D01*
X597852Y241699D01*
X597887Y241639D01*
X597919Y241577D01*
X597947Y241513D01*
X597972Y241448D01*
X597993Y241382D01*
X598011Y241314D01*
X598024Y241246D01*
X598034Y241177D01*
X598040Y241108D01*
X598042Y241038D01*
X598040Y240939D01*
X598035Y240841D01*
X598025Y240743D01*
X598012Y240645D01*
X597996Y240548D01*
X597976Y240451D01*
X597952Y240356D01*
X597924Y240261D01*
X597893Y240167D01*
X597859Y240075D01*
X597821Y239984D01*
X597780Y239894D01*
X597735Y239806D01*
X597687Y239720D01*
X597636Y239636D01*
X597582Y239554D01*
X597524Y239473D01*
X597464Y239395D01*
X597401Y239320D01*
X597335Y239246D01*
X597266Y239176D01*
X593696Y239331D02*
X593626Y239333D01*
X593557Y239339D01*
X593488Y239349D01*
X593420Y239362D01*
X593352Y239380D01*
X593286Y239401D01*
X593221Y239426D01*
X593157Y239454D01*
X593095Y239486D01*
X593035Y239521D01*
X592977Y239560D01*
X592922Y239602D01*
X592868Y239647D01*
X592818Y239695D01*
X592770Y239745D01*
X592725Y239799D01*
X592683Y239854D01*
X592644Y239912D01*
X592609Y239972D01*
X592577Y240034D01*
X592549Y240098D01*
X592524Y240163D01*
X592503Y240229D01*
X592485Y240297D01*
X592472Y240365D01*
X592462Y240434D01*
X592456Y240503D01*
X592454Y240573D01*
X592456Y240667D01*
X592462Y240760D01*
X592471Y240853D01*
X592484Y240946D01*
X592501Y241038D01*
X592521Y241129D01*
X592546Y241220D01*
X592573Y241309D01*
X592605Y241397D01*
X592640Y241484D01*
X592678Y241570D01*
X592720Y241653D01*
X592765Y241736D01*
X592813Y241816D01*
X592865Y241894D01*
X592920Y241970D01*
X594782Y239952D02*
X594746Y239893D01*
X594706Y239837D01*
X594663Y239783D01*
X594618Y239731D01*
X594569Y239682D01*
X594518Y239636D01*
X594465Y239593D01*
X594409Y239552D01*
X594351Y239515D01*
X594291Y239480D01*
X594230Y239450D01*
X594167Y239422D01*
X594102Y239398D01*
X594036Y239378D01*
X593969Y239361D01*
X593902Y239348D01*
X593834Y239339D01*
X593765Y239333D01*
X593696Y239331D01*
X595714Y241659D02*
X595750Y241718D01*
X595790Y241774D01*
X595833Y241828D01*
X595878Y241880D01*
X595927Y241929D01*
X595978Y241975D01*
X596031Y242018D01*
X596087Y242059D01*
X596145Y242096D01*
X596205Y242131D01*
X596266Y242161D01*
X596329Y242189D01*
X596394Y242213D01*
X596460Y242233D01*
X596527Y242250D01*
X596594Y242263D01*
X596662Y242272D01*
X596731Y242278D01*
X596800Y242280D01*
X595714Y241659D02*
X594782Y239952D01*
X592454Y244662D02*
X598042Y244662D01*
X592454Y244662D02*
X592454Y246214D01*
X592456Y246290D01*
X592461Y246366D01*
X592471Y246442D01*
X592484Y246517D01*
X592501Y246591D01*
X592521Y246665D01*
X592545Y246737D01*
X592572Y246808D01*
X592603Y246878D01*
X592637Y246946D01*
X592675Y247012D01*
X592716Y247076D01*
X592759Y247139D01*
X592806Y247199D01*
X592856Y247256D01*
X592909Y247311D01*
X592964Y247364D01*
X593021Y247414D01*
X593081Y247461D01*
X593144Y247504D01*
X593208Y247545D01*
X593274Y247583D01*
X593342Y247617D01*
X593412Y247648D01*
X593483Y247675D01*
X593556Y247699D01*
X593629Y247719D01*
X593703Y247736D01*
X593778Y247749D01*
X593854Y247759D01*
X593930Y247764D01*
X594006Y247766D01*
X596490Y247766D01*
X596566Y247764D01*
X596642Y247759D01*
X596718Y247749D01*
X596793Y247736D01*
X596867Y247719D01*
X596941Y247699D01*
X597013Y247675D01*
X597084Y247648D01*
X597154Y247617D01*
X597222Y247583D01*
X597288Y247545D01*
X597352Y247504D01*
X597415Y247461D01*
X597475Y247414D01*
X597532Y247364D01*
X597587Y247311D01*
X597640Y247256D01*
X597690Y247199D01*
X597737Y247139D01*
X597780Y247076D01*
X597821Y247012D01*
X597859Y246946D01*
X597893Y246878D01*
X597924Y246808D01*
X597951Y246737D01*
X597975Y246665D01*
X597995Y246591D01*
X598012Y246517D01*
X598025Y246442D01*
X598035Y246366D01*
X598040Y246290D01*
X598042Y246214D01*
X598042Y244662D01*
X598042Y250021D02*
X592454Y251883D01*
X598042Y253746D01*
X596645Y253280D02*
X596645Y250486D01*
X622200Y244298D02*
X622270Y244296D01*
X622339Y244290D01*
X622408Y244280D01*
X622476Y244267D01*
X622544Y244249D01*
X622610Y244228D01*
X622675Y244203D01*
X622739Y244175D01*
X622801Y244143D01*
X622861Y244108D01*
X622919Y244069D01*
X622974Y244027D01*
X623028Y243982D01*
X623078Y243934D01*
X623126Y243884D01*
X623171Y243830D01*
X623213Y243775D01*
X623252Y243717D01*
X623287Y243657D01*
X623319Y243595D01*
X623347Y243531D01*
X623372Y243466D01*
X623393Y243400D01*
X623411Y243332D01*
X623424Y243264D01*
X623434Y243195D01*
X623440Y243126D01*
X623442Y243056D01*
X623440Y242957D01*
X623435Y242859D01*
X623425Y242761D01*
X623412Y242663D01*
X623396Y242566D01*
X623376Y242469D01*
X623352Y242374D01*
X623324Y242279D01*
X623293Y242185D01*
X623259Y242093D01*
X623221Y242002D01*
X623180Y241912D01*
X623135Y241824D01*
X623087Y241738D01*
X623036Y241654D01*
X622982Y241572D01*
X622924Y241491D01*
X622864Y241413D01*
X622801Y241338D01*
X622735Y241264D01*
X622666Y241194D01*
X619096Y241348D02*
X619026Y241350D01*
X618957Y241356D01*
X618888Y241366D01*
X618820Y241379D01*
X618752Y241397D01*
X618686Y241418D01*
X618621Y241443D01*
X618557Y241471D01*
X618495Y241503D01*
X618435Y241538D01*
X618377Y241577D01*
X618322Y241619D01*
X618268Y241664D01*
X618218Y241712D01*
X618170Y241762D01*
X618125Y241816D01*
X618083Y241871D01*
X618044Y241929D01*
X618009Y241989D01*
X617977Y242051D01*
X617949Y242115D01*
X617924Y242180D01*
X617903Y242246D01*
X617885Y242314D01*
X617872Y242382D01*
X617862Y242451D01*
X617856Y242520D01*
X617854Y242590D01*
X617856Y242684D01*
X617862Y242777D01*
X617871Y242870D01*
X617884Y242963D01*
X617901Y243055D01*
X617921Y243146D01*
X617946Y243237D01*
X617973Y243326D01*
X618005Y243414D01*
X618040Y243501D01*
X618078Y243587D01*
X618120Y243670D01*
X618165Y243753D01*
X618213Y243833D01*
X618265Y243911D01*
X618320Y243987D01*
X620182Y241970D02*
X620146Y241911D01*
X620106Y241855D01*
X620063Y241801D01*
X620018Y241749D01*
X619969Y241700D01*
X619918Y241654D01*
X619865Y241611D01*
X619809Y241570D01*
X619751Y241533D01*
X619691Y241498D01*
X619630Y241468D01*
X619567Y241440D01*
X619502Y241416D01*
X619436Y241396D01*
X619369Y241379D01*
X619302Y241366D01*
X619234Y241357D01*
X619165Y241351D01*
X619096Y241349D01*
X621114Y243676D02*
X621150Y243735D01*
X621190Y243791D01*
X621233Y243845D01*
X621278Y243897D01*
X621327Y243946D01*
X621378Y243992D01*
X621431Y244035D01*
X621487Y244076D01*
X621545Y244113D01*
X621605Y244148D01*
X621666Y244178D01*
X621729Y244206D01*
X621794Y244230D01*
X621860Y244250D01*
X621927Y244267D01*
X621994Y244280D01*
X622062Y244289D01*
X622131Y244295D01*
X622200Y244297D01*
X621114Y243677D02*
X620182Y241969D01*
X623442Y247722D02*
X623442Y248964D01*
X623442Y247722D02*
X623440Y247652D01*
X623434Y247583D01*
X623424Y247514D01*
X623411Y247446D01*
X623393Y247378D01*
X623372Y247312D01*
X623347Y247247D01*
X623319Y247183D01*
X623287Y247121D01*
X623252Y247061D01*
X623213Y247003D01*
X623171Y246948D01*
X623126Y246894D01*
X623078Y246844D01*
X623028Y246796D01*
X622974Y246751D01*
X622919Y246709D01*
X622861Y246670D01*
X622801Y246635D01*
X622739Y246603D01*
X622675Y246575D01*
X622610Y246550D01*
X622544Y246529D01*
X622476Y246511D01*
X622408Y246498D01*
X622339Y246488D01*
X622270Y246482D01*
X622200Y246480D01*
X619096Y246480D01*
X619026Y246482D01*
X618957Y246488D01*
X618888Y246498D01*
X618820Y246511D01*
X618752Y246529D01*
X618686Y246550D01*
X618621Y246575D01*
X618557Y246603D01*
X618495Y246635D01*
X618435Y246670D01*
X618377Y246709D01*
X618322Y246751D01*
X618268Y246796D01*
X618218Y246844D01*
X618170Y246894D01*
X618125Y246948D01*
X618083Y247003D01*
X618044Y247061D01*
X618009Y247121D01*
X617977Y247183D01*
X617949Y247247D01*
X617924Y247312D01*
X617903Y247378D01*
X617885Y247446D01*
X617872Y247514D01*
X617862Y247583D01*
X617856Y247652D01*
X617854Y247722D01*
X617854Y248964D01*
X617854Y251262D02*
X623442Y251262D01*
X623442Y253746D01*
X661842Y390445D02*
X661842Y392307D01*
X661840Y392377D01*
X661834Y392446D01*
X661824Y392515D01*
X661811Y392583D01*
X661793Y392651D01*
X661772Y392717D01*
X661747Y392782D01*
X661719Y392846D01*
X661687Y392908D01*
X661652Y392968D01*
X661613Y393026D01*
X661571Y393081D01*
X661526Y393135D01*
X661478Y393185D01*
X661428Y393233D01*
X661374Y393278D01*
X661319Y393320D01*
X661261Y393359D01*
X661201Y393394D01*
X661139Y393426D01*
X661075Y393454D01*
X661010Y393479D01*
X660944Y393500D01*
X660876Y393518D01*
X660808Y393531D01*
X660739Y393541D01*
X660670Y393547D01*
X660600Y393549D01*
X659979Y393549D01*
X659909Y393547D01*
X659840Y393541D01*
X659771Y393531D01*
X659703Y393518D01*
X659635Y393500D01*
X659569Y393479D01*
X659504Y393454D01*
X659440Y393426D01*
X659378Y393394D01*
X659318Y393359D01*
X659260Y393320D01*
X659205Y393278D01*
X659151Y393233D01*
X659101Y393185D01*
X659053Y393135D01*
X659008Y393081D01*
X658966Y393026D01*
X658927Y392968D01*
X658892Y392908D01*
X658860Y392846D01*
X658832Y392782D01*
X658807Y392717D01*
X658786Y392651D01*
X658768Y392583D01*
X658755Y392515D01*
X658745Y392446D01*
X658739Y392377D01*
X658737Y392307D01*
X658738Y392307D02*
X658738Y390445D01*
X656254Y390445D01*
X656254Y393549D01*
X656254Y395621D02*
X661842Y397483D01*
X656254Y399346D01*
X120238Y399210D02*
X120238Y400142D01*
X123342Y400142D01*
X123342Y398279D01*
X123340Y398209D01*
X123334Y398140D01*
X123324Y398071D01*
X123311Y398003D01*
X123293Y397935D01*
X123272Y397869D01*
X123247Y397804D01*
X123219Y397740D01*
X123187Y397678D01*
X123152Y397618D01*
X123113Y397560D01*
X123071Y397505D01*
X123026Y397451D01*
X122978Y397401D01*
X122928Y397353D01*
X122874Y397308D01*
X122819Y397266D01*
X122761Y397227D01*
X122701Y397192D01*
X122639Y397160D01*
X122575Y397132D01*
X122510Y397107D01*
X122444Y397086D01*
X122376Y397068D01*
X122308Y397055D01*
X122239Y397045D01*
X122170Y397039D01*
X122100Y397037D01*
X118996Y397037D01*
X118926Y397039D01*
X118857Y397045D01*
X118788Y397055D01*
X118720Y397068D01*
X118652Y397086D01*
X118586Y397107D01*
X118521Y397132D01*
X118457Y397160D01*
X118395Y397192D01*
X118335Y397227D01*
X118277Y397266D01*
X118222Y397308D01*
X118168Y397353D01*
X118118Y397401D01*
X118070Y397451D01*
X118025Y397505D01*
X117983Y397560D01*
X117944Y397618D01*
X117909Y397678D01*
X117877Y397740D01*
X117849Y397804D01*
X117824Y397869D01*
X117803Y397935D01*
X117785Y398003D01*
X117772Y398071D01*
X117762Y398140D01*
X117756Y398209D01*
X117754Y398279D01*
X117754Y400142D01*
X117754Y402889D02*
X123342Y402889D01*
X123342Y405994D02*
X117754Y402889D01*
X117754Y405994D02*
X123342Y405994D01*
X123342Y408742D02*
X117754Y408742D01*
X117754Y410294D01*
X117756Y410370D01*
X117761Y410446D01*
X117771Y410522D01*
X117784Y410597D01*
X117801Y410671D01*
X117821Y410745D01*
X117845Y410817D01*
X117872Y410888D01*
X117903Y410958D01*
X117937Y411026D01*
X117975Y411092D01*
X118016Y411156D01*
X118059Y411219D01*
X118106Y411279D01*
X118156Y411336D01*
X118209Y411391D01*
X118264Y411444D01*
X118321Y411494D01*
X118381Y411541D01*
X118444Y411584D01*
X118508Y411625D01*
X118574Y411663D01*
X118642Y411697D01*
X118712Y411728D01*
X118783Y411755D01*
X118856Y411779D01*
X118929Y411799D01*
X119003Y411816D01*
X119078Y411829D01*
X119154Y411839D01*
X119230Y411844D01*
X119306Y411846D01*
X121790Y411846D01*
X121866Y411844D01*
X121942Y411839D01*
X122018Y411829D01*
X122093Y411816D01*
X122167Y411799D01*
X122241Y411779D01*
X122313Y411755D01*
X122384Y411728D01*
X122454Y411697D01*
X122522Y411663D01*
X122588Y411625D01*
X122652Y411584D01*
X122715Y411541D01*
X122775Y411494D01*
X122832Y411444D01*
X122887Y411391D01*
X122940Y411336D01*
X122990Y411279D01*
X123037Y411219D01*
X123080Y411156D01*
X123121Y411092D01*
X123159Y411026D01*
X123193Y410958D01*
X123224Y410888D01*
X123251Y410817D01*
X123275Y410745D01*
X123295Y410671D01*
X123312Y410597D01*
X123325Y410522D01*
X123335Y410446D01*
X123340Y410370D01*
X123342Y410294D01*
X123342Y408742D01*
D12*
X75100Y393800D02*
X75100Y461000D01*
X132900Y461000D02*
X132900Y393800D01*
X132900Y461000D02*
X75100Y461000D01*
X75100Y393800D02*
X132900Y393800D01*
D11*
X94938Y559810D02*
X94938Y560742D01*
X98042Y560742D01*
X98042Y558879D01*
X98040Y558809D01*
X98034Y558740D01*
X98024Y558671D01*
X98011Y558603D01*
X97993Y558535D01*
X97972Y558469D01*
X97947Y558404D01*
X97919Y558340D01*
X97887Y558278D01*
X97852Y558218D01*
X97813Y558160D01*
X97771Y558105D01*
X97726Y558051D01*
X97678Y558001D01*
X97628Y557953D01*
X97574Y557908D01*
X97519Y557866D01*
X97461Y557827D01*
X97401Y557792D01*
X97339Y557760D01*
X97275Y557732D01*
X97210Y557707D01*
X97144Y557686D01*
X97076Y557668D01*
X97008Y557655D01*
X96939Y557645D01*
X96870Y557639D01*
X96800Y557637D01*
X93696Y557637D01*
X93626Y557639D01*
X93557Y557645D01*
X93488Y557655D01*
X93420Y557668D01*
X93352Y557686D01*
X93286Y557707D01*
X93221Y557732D01*
X93157Y557760D01*
X93095Y557792D01*
X93035Y557827D01*
X92977Y557866D01*
X92922Y557908D01*
X92868Y557953D01*
X92818Y558001D01*
X92770Y558051D01*
X92725Y558105D01*
X92683Y558160D01*
X92644Y558218D01*
X92609Y558278D01*
X92577Y558340D01*
X92549Y558404D01*
X92524Y558469D01*
X92503Y558535D01*
X92485Y558603D01*
X92472Y558671D01*
X92462Y558740D01*
X92456Y558809D01*
X92454Y558879D01*
X92454Y560742D01*
X92454Y563489D02*
X98042Y563489D01*
X98042Y566594D02*
X92454Y563489D01*
X92454Y566594D02*
X98042Y566594D01*
X98042Y569342D02*
X92454Y569342D01*
X92454Y570894D01*
X92456Y570970D01*
X92461Y571046D01*
X92471Y571122D01*
X92484Y571197D01*
X92501Y571271D01*
X92521Y571345D01*
X92545Y571417D01*
X92572Y571488D01*
X92603Y571558D01*
X92637Y571626D01*
X92675Y571692D01*
X92716Y571756D01*
X92759Y571819D01*
X92806Y571879D01*
X92856Y571936D01*
X92909Y571991D01*
X92964Y572044D01*
X93021Y572094D01*
X93081Y572141D01*
X93144Y572184D01*
X93208Y572225D01*
X93274Y572263D01*
X93342Y572297D01*
X93412Y572328D01*
X93483Y572355D01*
X93556Y572379D01*
X93629Y572399D01*
X93703Y572416D01*
X93778Y572429D01*
X93854Y572439D01*
X93930Y572444D01*
X94006Y572446D01*
X96490Y572446D01*
X96566Y572444D01*
X96642Y572439D01*
X96718Y572429D01*
X96793Y572416D01*
X96867Y572399D01*
X96941Y572379D01*
X97013Y572355D01*
X97084Y572328D01*
X97154Y572297D01*
X97222Y572263D01*
X97288Y572225D01*
X97352Y572184D01*
X97415Y572141D01*
X97475Y572094D01*
X97532Y572044D01*
X97587Y571991D01*
X97640Y571936D01*
X97690Y571879D01*
X97737Y571819D01*
X97780Y571756D01*
X97821Y571692D01*
X97859Y571626D01*
X97893Y571558D01*
X97924Y571488D01*
X97951Y571417D01*
X97975Y571345D01*
X97995Y571271D01*
X98012Y571197D01*
X98025Y571122D01*
X98035Y571046D01*
X98040Y570970D01*
X98042Y570894D01*
X98042Y569342D01*
X123442Y565407D02*
X123442Y563545D01*
X123442Y565407D02*
X123440Y565477D01*
X123434Y565546D01*
X123424Y565615D01*
X123411Y565683D01*
X123393Y565751D01*
X123372Y565817D01*
X123347Y565882D01*
X123319Y565946D01*
X123287Y566008D01*
X123252Y566068D01*
X123213Y566126D01*
X123171Y566181D01*
X123126Y566235D01*
X123078Y566285D01*
X123028Y566333D01*
X122974Y566378D01*
X122919Y566420D01*
X122861Y566459D01*
X122801Y566494D01*
X122739Y566526D01*
X122675Y566554D01*
X122610Y566579D01*
X122544Y566600D01*
X122476Y566618D01*
X122408Y566631D01*
X122339Y566641D01*
X122270Y566647D01*
X122200Y566649D01*
X121579Y566649D01*
X121509Y566647D01*
X121440Y566641D01*
X121371Y566631D01*
X121303Y566618D01*
X121235Y566600D01*
X121169Y566579D01*
X121104Y566554D01*
X121040Y566526D01*
X120978Y566494D01*
X120918Y566459D01*
X120860Y566420D01*
X120805Y566378D01*
X120751Y566333D01*
X120701Y566285D01*
X120653Y566235D01*
X120608Y566181D01*
X120566Y566126D01*
X120527Y566068D01*
X120492Y566008D01*
X120460Y565946D01*
X120432Y565882D01*
X120407Y565817D01*
X120386Y565751D01*
X120368Y565683D01*
X120355Y565615D01*
X120345Y565546D01*
X120339Y565477D01*
X120337Y565407D01*
X120338Y565407D02*
X120338Y563545D01*
X117854Y563545D01*
X117854Y566649D01*
X117854Y568721D02*
X123442Y570583D01*
X117854Y572446D01*
X143254Y556313D02*
X148842Y556313D01*
X143254Y556313D02*
X143254Y557865D01*
X143256Y557942D01*
X143262Y558020D01*
X143271Y558096D01*
X143285Y558173D01*
X143302Y558248D01*
X143323Y558322D01*
X143348Y558396D01*
X143376Y558468D01*
X143408Y558538D01*
X143443Y558607D01*
X143482Y558674D01*
X143524Y558739D01*
X143569Y558802D01*
X143617Y558863D01*
X143668Y558921D01*
X143722Y558976D01*
X143779Y559029D01*
X143838Y559078D01*
X143900Y559125D01*
X143964Y559169D01*
X144030Y559209D01*
X144098Y559246D01*
X144168Y559280D01*
X144239Y559310D01*
X144312Y559336D01*
X144386Y559359D01*
X144461Y559378D01*
X144536Y559393D01*
X144613Y559405D01*
X144690Y559413D01*
X144767Y559417D01*
X144845Y559417D01*
X144922Y559413D01*
X144999Y559405D01*
X145076Y559393D01*
X145151Y559378D01*
X145226Y559359D01*
X145300Y559336D01*
X145373Y559310D01*
X145444Y559280D01*
X145514Y559246D01*
X145582Y559209D01*
X145648Y559169D01*
X145712Y559125D01*
X145774Y559078D01*
X145833Y559029D01*
X145890Y558976D01*
X145944Y558921D01*
X145995Y558863D01*
X146043Y558802D01*
X146088Y558739D01*
X146130Y558674D01*
X146169Y558607D01*
X146204Y558538D01*
X146236Y558468D01*
X146264Y558396D01*
X146289Y558322D01*
X146310Y558248D01*
X146327Y558173D01*
X146341Y558096D01*
X146350Y558020D01*
X146356Y557942D01*
X146358Y557865D01*
X146358Y556313D01*
X143254Y561333D02*
X148842Y562575D01*
X145117Y563817D01*
X148842Y565059D01*
X143254Y566300D01*
X143254Y568721D02*
X148842Y568721D01*
X146358Y570583D02*
X143254Y568721D01*
X146358Y570583D02*
X143254Y572446D01*
X148842Y572446D01*
X68154Y303342D02*
X68154Y299306D01*
X68156Y299229D01*
X68162Y299151D01*
X68171Y299075D01*
X68185Y298998D01*
X68202Y298923D01*
X68223Y298849D01*
X68248Y298775D01*
X68276Y298703D01*
X68308Y298633D01*
X68343Y298564D01*
X68382Y298497D01*
X68424Y298432D01*
X68469Y298369D01*
X68517Y298308D01*
X68568Y298250D01*
X68622Y298195D01*
X68679Y298142D01*
X68738Y298093D01*
X68800Y298046D01*
X68864Y298002D01*
X68930Y297962D01*
X68998Y297925D01*
X69068Y297891D01*
X69139Y297861D01*
X69212Y297835D01*
X69286Y297812D01*
X69361Y297793D01*
X69436Y297778D01*
X69513Y297766D01*
X69590Y297758D01*
X69667Y297754D01*
X69745Y297754D01*
X69822Y297758D01*
X69899Y297766D01*
X69976Y297778D01*
X70051Y297793D01*
X70126Y297812D01*
X70200Y297835D01*
X70273Y297861D01*
X70344Y297891D01*
X70414Y297925D01*
X70482Y297962D01*
X70548Y298002D01*
X70612Y298046D01*
X70674Y298093D01*
X70733Y298142D01*
X70790Y298195D01*
X70844Y298250D01*
X70895Y298308D01*
X70943Y298369D01*
X70988Y298432D01*
X71030Y298497D01*
X71069Y298564D01*
X71104Y298633D01*
X71136Y298703D01*
X71164Y298775D01*
X71189Y298849D01*
X71210Y298923D01*
X71227Y298998D01*
X71241Y299075D01*
X71250Y299151D01*
X71256Y299229D01*
X71258Y299306D01*
X71258Y303342D01*
X76745Y298996D02*
X76743Y298926D01*
X76737Y298857D01*
X76727Y298788D01*
X76714Y298720D01*
X76696Y298652D01*
X76675Y298586D01*
X76650Y298521D01*
X76622Y298457D01*
X76590Y298395D01*
X76555Y298335D01*
X76516Y298277D01*
X76474Y298222D01*
X76429Y298168D01*
X76381Y298118D01*
X76331Y298070D01*
X76277Y298025D01*
X76222Y297983D01*
X76164Y297944D01*
X76104Y297909D01*
X76042Y297877D01*
X75978Y297849D01*
X75913Y297824D01*
X75847Y297803D01*
X75779Y297785D01*
X75711Y297772D01*
X75642Y297762D01*
X75573Y297756D01*
X75503Y297754D01*
X75404Y297756D01*
X75306Y297761D01*
X75208Y297771D01*
X75110Y297784D01*
X75013Y297800D01*
X74916Y297820D01*
X74821Y297844D01*
X74726Y297872D01*
X74632Y297903D01*
X74540Y297937D01*
X74449Y297975D01*
X74359Y298016D01*
X74271Y298061D01*
X74185Y298109D01*
X74101Y298160D01*
X74019Y298214D01*
X73938Y298272D01*
X73860Y298332D01*
X73785Y298395D01*
X73711Y298461D01*
X73641Y298530D01*
X73795Y302100D02*
X73797Y302170D01*
X73803Y302239D01*
X73813Y302308D01*
X73826Y302376D01*
X73844Y302444D01*
X73865Y302510D01*
X73890Y302575D01*
X73918Y302639D01*
X73950Y302701D01*
X73985Y302761D01*
X74024Y302819D01*
X74066Y302874D01*
X74111Y302928D01*
X74159Y302978D01*
X74209Y303026D01*
X74263Y303071D01*
X74318Y303113D01*
X74376Y303152D01*
X74436Y303187D01*
X74498Y303219D01*
X74562Y303247D01*
X74627Y303272D01*
X74693Y303293D01*
X74761Y303311D01*
X74829Y303324D01*
X74898Y303334D01*
X74967Y303340D01*
X75037Y303342D01*
X75131Y303340D01*
X75224Y303334D01*
X75317Y303325D01*
X75410Y303312D01*
X75502Y303295D01*
X75593Y303275D01*
X75684Y303250D01*
X75773Y303223D01*
X75861Y303191D01*
X75948Y303156D01*
X76034Y303118D01*
X76117Y303076D01*
X76199Y303031D01*
X76280Y302983D01*
X76358Y302931D01*
X76434Y302876D01*
X74417Y301014D02*
X74358Y301050D01*
X74302Y301090D01*
X74248Y301133D01*
X74196Y301178D01*
X74147Y301227D01*
X74101Y301278D01*
X74058Y301331D01*
X74017Y301387D01*
X73980Y301445D01*
X73945Y301505D01*
X73915Y301566D01*
X73887Y301629D01*
X73863Y301694D01*
X73843Y301760D01*
X73826Y301827D01*
X73813Y301894D01*
X73804Y301962D01*
X73798Y302031D01*
X73796Y302100D01*
X76124Y300082D02*
X76183Y300046D01*
X76239Y300006D01*
X76293Y299963D01*
X76345Y299918D01*
X76394Y299869D01*
X76440Y299818D01*
X76483Y299765D01*
X76524Y299709D01*
X76561Y299651D01*
X76596Y299591D01*
X76626Y299530D01*
X76654Y299467D01*
X76678Y299402D01*
X76698Y299336D01*
X76715Y299269D01*
X76728Y299202D01*
X76737Y299134D01*
X76743Y299065D01*
X76745Y298996D01*
X76124Y300082D02*
X74416Y301014D01*
X79210Y300858D02*
X80762Y300858D01*
X80839Y300856D01*
X80917Y300850D01*
X80993Y300841D01*
X81070Y300827D01*
X81145Y300810D01*
X81219Y300789D01*
X81293Y300764D01*
X81365Y300736D01*
X81435Y300704D01*
X81504Y300669D01*
X81571Y300630D01*
X81636Y300588D01*
X81699Y300543D01*
X81760Y300495D01*
X81818Y300444D01*
X81873Y300390D01*
X81926Y300333D01*
X81975Y300274D01*
X82022Y300212D01*
X82066Y300148D01*
X82106Y300082D01*
X82143Y300014D01*
X82177Y299944D01*
X82207Y299873D01*
X82233Y299800D01*
X82256Y299726D01*
X82275Y299651D01*
X82290Y299576D01*
X82302Y299499D01*
X82310Y299422D01*
X82314Y299345D01*
X82314Y299267D01*
X82310Y299190D01*
X82302Y299113D01*
X82290Y299036D01*
X82275Y298961D01*
X82256Y298886D01*
X82233Y298812D01*
X82207Y298739D01*
X82177Y298668D01*
X82143Y298598D01*
X82106Y298530D01*
X82066Y298464D01*
X82022Y298400D01*
X81975Y298338D01*
X81926Y298279D01*
X81873Y298222D01*
X81818Y298168D01*
X81760Y298117D01*
X81699Y298069D01*
X81636Y298024D01*
X81571Y297982D01*
X81504Y297943D01*
X81435Y297908D01*
X81365Y297876D01*
X81293Y297848D01*
X81219Y297823D01*
X81145Y297802D01*
X81070Y297785D01*
X80993Y297771D01*
X80917Y297762D01*
X80839Y297756D01*
X80762Y297754D01*
X79210Y297754D01*
X79210Y303342D01*
X80762Y303342D01*
X80832Y303340D01*
X80901Y303334D01*
X80970Y303324D01*
X81038Y303311D01*
X81106Y303293D01*
X81172Y303272D01*
X81237Y303247D01*
X81301Y303219D01*
X81363Y303187D01*
X81423Y303152D01*
X81481Y303113D01*
X81536Y303071D01*
X81590Y303026D01*
X81640Y302978D01*
X81688Y302928D01*
X81733Y302874D01*
X81775Y302819D01*
X81814Y302761D01*
X81849Y302701D01*
X81881Y302639D01*
X81909Y302575D01*
X81934Y302510D01*
X81955Y302444D01*
X81973Y302376D01*
X81986Y302308D01*
X81996Y302239D01*
X82002Y302170D01*
X82004Y302100D01*
X82002Y302030D01*
X81996Y301961D01*
X81986Y301892D01*
X81973Y301824D01*
X81955Y301756D01*
X81934Y301690D01*
X81909Y301625D01*
X81881Y301561D01*
X81849Y301499D01*
X81814Y301439D01*
X81775Y301381D01*
X81733Y301326D01*
X81688Y301272D01*
X81640Y301222D01*
X81590Y301174D01*
X81536Y301129D01*
X81481Y301087D01*
X81423Y301048D01*
X81363Y301013D01*
X81301Y300981D01*
X81237Y300953D01*
X81172Y300928D01*
X81106Y300907D01*
X81038Y300889D01*
X80970Y300876D01*
X80901Y300866D01*
X80832Y300860D01*
X80762Y300858D01*
D138*
X54350Y388000D02*
X54350Y213200D01*
X54350Y388000D02*
X481450Y388000D01*
X481450Y300600D01*
X481450Y213200D01*
X54350Y213200D01*
X33400Y262500D02*
X33400Y338700D01*
X123120Y338700D01*
X123120Y262500D01*
X33400Y262500D01*
D139*
X450800Y428650D02*
X450800Y441350D01*
X349200Y441350D02*
X349200Y428650D01*
X668500Y432550D02*
X668500Y419850D01*
X541500Y419850D02*
X541500Y432550D01*
X503400Y213050D02*
X503400Y200350D01*
X630400Y200350D02*
X630400Y213050D01*
X79100Y522650D02*
X79100Y535350D01*
X155300Y535350D02*
X155300Y522650D01*
M02*
