G04 EAGLE Gerber RS-274X export*
G75*
%MOMM*%
%FSLAX34Y34*%
%LPD*%
%INSilkscreen Bottom*%
%IPPOS*%
%AMOC8*
5,1,8,0,0,1.08239X$1,22.5*%
G01*
%ADD10C,0.127000*%
%ADD11C,0.101600*%
%ADD12R,0.750100X1.700000*%
%ADD13C,0.152400*%
%ADD14R,0.584200X1.828800*%
%ADD15R,1.828800X0.584200*%


D10*
X476900Y323500D02*
X471900Y323500D01*
X436900Y323500D01*
X436900Y273500D01*
X471900Y273500D01*
X476900Y273500D01*
X476900Y323500D01*
X471900Y323500D02*
X471900Y273500D01*
D11*
X402350Y244630D02*
X383050Y244630D01*
X383050Y260370D02*
X402350Y260370D01*
D12*
X379433Y252509D03*
X405968Y252491D03*
D11*
X409250Y463230D02*
X389950Y463230D01*
X389950Y478970D02*
X409250Y478970D01*
D12*
X386333Y471109D03*
X412868Y471091D03*
D11*
X625350Y385830D02*
X644650Y385830D01*
X644650Y401570D02*
X625350Y401570D01*
D12*
X621733Y393709D03*
X648268Y393691D03*
D11*
X114550Y505770D02*
X95250Y505770D01*
X95250Y490030D02*
X114550Y490030D01*
D12*
X118168Y497891D03*
X91633Y497909D03*
D13*
X321070Y245618D02*
X343930Y245618D01*
X343930Y262382D02*
X321070Y262382D01*
D14*
X318403Y254000D03*
X346597Y254000D03*
D13*
X343930Y277018D02*
X321070Y277018D01*
X321070Y293782D02*
X343930Y293782D01*
D14*
X318403Y285400D03*
X346597Y285400D03*
D13*
X567770Y148582D02*
X590630Y148582D01*
X590630Y131818D02*
X567770Y131818D01*
D14*
X593297Y140200D03*
X565103Y140200D03*
D13*
X567570Y179382D02*
X590430Y179382D01*
X590430Y162618D02*
X567570Y162618D01*
D14*
X593097Y171000D03*
X564903Y171000D03*
D13*
X525418Y250470D02*
X525418Y273330D01*
X542182Y273330D02*
X542182Y250470D01*
D15*
X533800Y275997D03*
X533800Y247803D03*
D13*
X494718Y250470D02*
X494718Y273330D01*
X511482Y273330D02*
X511482Y250470D01*
D15*
X503100Y275997D03*
X503100Y247803D03*
D13*
X404130Y301618D02*
X381270Y301618D01*
X381270Y318382D02*
X404130Y318382D01*
D14*
X378603Y310000D03*
X406797Y310000D03*
D13*
X343930Y353382D02*
X321070Y353382D01*
X321070Y336618D02*
X343930Y336618D01*
D14*
X346597Y345000D03*
X318403Y345000D03*
M02*
