M48
;GenerationSoftware,Autodesk,EAGLE,9.6.1*%
;CreationDate,2020-08-19T11:45:33Z*%
FMAT,2
ICI,OFF
METRIC,TZ,000.000
T4C0.350
T3C0.800
T2C1.118
T1C3.200
%
G90
M71
T1
X4000Y56000
X76000Y56000
X76000Y4000
X4000Y4000
T2
X36190Y43500
X38730Y43500
X41270Y43500
X56690Y20670
X43810Y43500
X65580Y42620
X63040Y42620
X60500Y42620
X57960Y42620
X55420Y42620
X59230Y31380
X61770Y31380
X51610Y20670
X54150Y20670
X59230Y20670
X61770Y20670
X11720Y43500
X9180Y43500
X9180Y52900
X11720Y52900
X14260Y52900
T3
X19170Y22440
X16630Y22440
X9010Y22440
X9010Y37680
X29330Y37680
X14090Y37680
X11550Y22440
X14090Y22440
X36950Y22440
X26790Y22440
X29330Y22440
X31870Y22440
X34410Y22440
X44570Y37680
X42030Y37680
X39490Y37680
X36950Y37680
X34410Y37680
X31870Y37680
X26790Y37680
X24250Y37680
X21710Y37680
X11550Y37680
X19170Y37680
X16630Y37680
X44570Y22440
X42030Y22440
X39490Y22440
X24250Y22440
X21710Y22440
T4
X14300Y41800
X39150Y26950
X39500Y20000
X55000Y39500
M30